G04 (created by PCBNEW (2013-07-07 BZR 4022)-stable) date 2/6/2014 2:53:49 PM*
%MOIN*%
G04 Gerber Fmt 3.4, Leading zero omitted, Abs format*
%FSLAX34Y34*%
G01*
G70*
G90*
G04 APERTURE LIST*
%ADD10C,0.007*%
%ADD11R,0.110236X0.0216535*%
%ADD12R,0.110236X0.0393701*%
%ADD13R,0.055X0.055*%
%ADD14C,0.055*%
%ADD15C,0.03*%
%ADD16C,0.01*%
G04 APERTURE END LIST*
G54D10*
G54D11*
X31000Y3042D03*
X31000Y2157D03*
G54D12*
X31000Y2600D03*
G54D13*
X10300Y3100D03*
G54D14*
X11300Y3100D03*
X12300Y3100D03*
X13300Y3100D03*
X13300Y2100D03*
X12300Y2100D03*
X11300Y2100D03*
X10300Y2100D03*
G54D13*
X2100Y3100D03*
G54D14*
X3100Y3100D03*
X4100Y3100D03*
X5100Y3100D03*
X5100Y2100D03*
X4100Y2100D03*
X3100Y2100D03*
X2100Y2100D03*
G54D13*
X9300Y1100D03*
G54D14*
X10300Y1100D03*
X11300Y1100D03*
X12300Y1100D03*
X13300Y1100D03*
X14300Y1100D03*
X14300Y4100D03*
X13300Y4100D03*
X12300Y4100D03*
X11300Y4100D03*
X10300Y4100D03*
X9300Y4100D03*
G54D13*
X1100Y1100D03*
G54D14*
X2100Y1100D03*
X3100Y1100D03*
X4100Y1100D03*
X5100Y1100D03*
X6100Y1100D03*
X6100Y4100D03*
X5100Y4100D03*
X4100Y4100D03*
X3100Y4100D03*
X2100Y4100D03*
X1100Y4100D03*
G54D11*
X36500Y3042D03*
X36500Y2157D03*
G54D12*
X36500Y2600D03*
G54D15*
X35000Y1800D03*
X35400Y1800D03*
X35800Y1800D03*
X38000Y1800D03*
X37600Y1800D03*
X37200Y1800D03*
X29500Y1800D03*
X29900Y1800D03*
X30300Y1800D03*
X32500Y1800D03*
X32100Y1800D03*
X31700Y1800D03*
X31350Y3700D03*
X30650Y3700D03*
X31000Y3700D03*
X36850Y3700D03*
X36150Y3700D03*
X36500Y3700D03*
X1914Y400D03*
X3314Y400D03*
X4714Y400D03*
X6114Y400D03*
X514Y400D03*
X8714Y400D03*
X14314Y400D03*
X12914Y400D03*
X11514Y400D03*
X10114Y400D03*
G54D16*
X35900Y8600D02*
X36500Y11000D01*
X35300Y8900D02*
X36500Y11000D01*
X34400Y9800D02*
X36500Y11000D01*
X34100Y10400D02*
X36500Y11000D01*
X34800Y9300D02*
X36500Y11000D01*
X36500Y11000D02*
X34000Y11000D01*
X36500Y8500D02*
X36500Y11000D01*
X39000Y11000D02*
X36500Y11000D01*
X36500Y11000D02*
X36500Y8500D01*
X38200Y9300D02*
X36500Y11000D01*
X37100Y8600D02*
X36500Y11000D01*
X37700Y8900D02*
X36500Y11000D01*
X38600Y9800D02*
X36500Y11000D01*
X38900Y10400D02*
X36500Y11000D01*
X34000Y11000D02*
X36500Y11000D01*
X36500Y11000D02*
X36500Y13500D01*
X34800Y12700D02*
X36500Y11000D01*
X35900Y13400D02*
X36500Y11000D01*
X35300Y13100D02*
X36500Y11000D01*
X34400Y12200D02*
X36500Y11000D01*
X34100Y11600D02*
X36500Y11000D01*
X37100Y13400D02*
X36500Y11000D01*
X37700Y13100D02*
X36500Y11000D01*
X38600Y12200D02*
X36500Y11000D01*
X38900Y11600D02*
X36500Y11000D01*
X38200Y12700D02*
X36500Y11000D01*
X36500Y11000D02*
X39000Y11000D01*
X36500Y13500D02*
X36500Y11000D01*
X20000Y13500D02*
X20000Y11000D01*
X20000Y11000D02*
X22500Y11000D01*
X21700Y12700D02*
X20000Y11000D01*
X22400Y11600D02*
X20000Y11000D01*
X22100Y12200D02*
X20000Y11000D01*
X21200Y13100D02*
X20000Y11000D01*
X20600Y13400D02*
X20000Y11000D01*
X17600Y11600D02*
X20000Y11000D01*
X17900Y12200D02*
X20000Y11000D01*
X18800Y13100D02*
X20000Y11000D01*
X19400Y13400D02*
X20000Y11000D01*
X18300Y12700D02*
X20000Y11000D01*
X20000Y11000D02*
X20000Y13500D01*
X17500Y11000D02*
X20000Y11000D01*
X22400Y10400D02*
X20000Y11000D01*
X22100Y9800D02*
X20000Y11000D01*
X21200Y8900D02*
X20000Y11000D01*
X20600Y8600D02*
X20000Y11000D01*
X21700Y9300D02*
X20000Y11000D01*
X20000Y11000D02*
X20000Y8500D01*
X22500Y11000D02*
X20000Y11000D01*
X20000Y8500D02*
X20000Y11000D01*
X20000Y11000D02*
X17500Y11000D01*
X18300Y9300D02*
X20000Y11000D01*
X17600Y10400D02*
X20000Y11000D01*
X17900Y9800D02*
X20000Y11000D01*
X18800Y8900D02*
X20000Y11000D01*
X19400Y8600D02*
X20000Y11000D01*
X24900Y8600D02*
X25500Y11000D01*
X24300Y8900D02*
X25500Y11000D01*
X23400Y9800D02*
X25500Y11000D01*
X23100Y10400D02*
X25500Y11000D01*
X23800Y9300D02*
X25500Y11000D01*
X25500Y11000D02*
X23000Y11000D01*
X25500Y8500D02*
X25500Y11000D01*
X28000Y11000D02*
X25500Y11000D01*
X25500Y11000D02*
X25500Y8500D01*
X27200Y9300D02*
X25500Y11000D01*
X26100Y8600D02*
X25500Y11000D01*
X26700Y8900D02*
X25500Y11000D01*
X27600Y9800D02*
X25500Y11000D01*
X27900Y10400D02*
X25500Y11000D01*
X23000Y11000D02*
X25500Y11000D01*
X25500Y11000D02*
X25500Y13500D01*
X23800Y12700D02*
X25500Y11000D01*
X24900Y13400D02*
X25500Y11000D01*
X24300Y13100D02*
X25500Y11000D01*
X23400Y12200D02*
X25500Y11000D01*
X23100Y11600D02*
X25500Y11000D01*
X26100Y13400D02*
X25500Y11000D01*
X26700Y13100D02*
X25500Y11000D01*
X27600Y12200D02*
X25500Y11000D01*
X27900Y11600D02*
X25500Y11000D01*
X27200Y12700D02*
X25500Y11000D01*
X25500Y11000D02*
X28000Y11000D01*
X25500Y13500D02*
X25500Y11000D01*
X31000Y13500D02*
X31000Y11000D01*
X31000Y11000D02*
X33500Y11000D01*
X32700Y12700D02*
X31000Y11000D01*
X33400Y11600D02*
X31000Y11000D01*
X33100Y12200D02*
X31000Y11000D01*
X32200Y13100D02*
X31000Y11000D01*
X31600Y13400D02*
X31000Y11000D01*
X28600Y11600D02*
X31000Y11000D01*
X28900Y12200D02*
X31000Y11000D01*
X29800Y13100D02*
X31000Y11000D01*
X30400Y13400D02*
X31000Y11000D01*
X29300Y12700D02*
X31000Y11000D01*
X31000Y11000D02*
X31000Y13500D01*
X28500Y11000D02*
X31000Y11000D01*
X33400Y10400D02*
X31000Y11000D01*
X33100Y9800D02*
X31000Y11000D01*
X32200Y8900D02*
X31000Y11000D01*
X31600Y8600D02*
X31000Y11000D01*
X32700Y9300D02*
X31000Y11000D01*
X31000Y11000D02*
X31000Y8500D01*
X33500Y11000D02*
X31000Y11000D01*
X31000Y8500D02*
X31000Y11000D01*
X31000Y11000D02*
X28500Y11000D01*
X29300Y9300D02*
X31000Y11000D01*
X28600Y10400D02*
X31000Y11000D01*
X28900Y9800D02*
X31000Y11000D01*
X29800Y8900D02*
X31000Y11000D01*
X30400Y8600D02*
X31000Y11000D01*
X13900Y8600D02*
X14500Y11000D01*
X13300Y8900D02*
X14500Y11000D01*
X12400Y9800D02*
X14500Y11000D01*
X12100Y10400D02*
X14500Y11000D01*
X12800Y9300D02*
X14500Y11000D01*
X14500Y11000D02*
X12000Y11000D01*
X14500Y8500D02*
X14500Y11000D01*
X17000Y11000D02*
X14500Y11000D01*
X14500Y11000D02*
X14500Y8500D01*
X16200Y9300D02*
X14500Y11000D01*
X15100Y8600D02*
X14500Y11000D01*
X15700Y8900D02*
X14500Y11000D01*
X16600Y9800D02*
X14500Y11000D01*
X16900Y10400D02*
X14500Y11000D01*
X12000Y11000D02*
X14500Y11000D01*
X14500Y11000D02*
X14500Y13500D01*
X12800Y12700D02*
X14500Y11000D01*
X13900Y13400D02*
X14500Y11000D01*
X13300Y13100D02*
X14500Y11000D01*
X12400Y12200D02*
X14500Y11000D01*
X12100Y11600D02*
X14500Y11000D01*
X15100Y13400D02*
X14500Y11000D01*
X15700Y13100D02*
X14500Y11000D01*
X16600Y12200D02*
X14500Y11000D01*
X16900Y11600D02*
X14500Y11000D01*
X16200Y12700D02*
X14500Y11000D01*
X14500Y11000D02*
X17000Y11000D01*
X14500Y13500D02*
X14500Y11000D01*
X9000Y13500D02*
X9000Y11000D01*
X9000Y11000D02*
X11500Y11000D01*
X10700Y12700D02*
X9000Y11000D01*
X11400Y11600D02*
X9000Y11000D01*
X11100Y12200D02*
X9000Y11000D01*
X10200Y13100D02*
X9000Y11000D01*
X9600Y13400D02*
X9000Y11000D01*
X6600Y11600D02*
X9000Y11000D01*
X6900Y12200D02*
X9000Y11000D01*
X7800Y13100D02*
X9000Y11000D01*
X8400Y13400D02*
X9000Y11000D01*
X7300Y12700D02*
X9000Y11000D01*
X9000Y11000D02*
X9000Y13500D01*
X6500Y11000D02*
X9000Y11000D01*
X11400Y10400D02*
X9000Y11000D01*
X11100Y9800D02*
X9000Y11000D01*
X10200Y8900D02*
X9000Y11000D01*
X9600Y8600D02*
X9000Y11000D01*
X10700Y9300D02*
X9000Y11000D01*
X9000Y11000D02*
X9000Y8500D01*
X11500Y11000D02*
X9000Y11000D01*
X9000Y8500D02*
X9000Y11000D01*
X9000Y11000D02*
X6500Y11000D01*
X7300Y9300D02*
X9000Y11000D01*
X6600Y10400D02*
X9000Y11000D01*
X6900Y9800D02*
X9000Y11000D01*
X7800Y8900D02*
X9000Y11000D01*
X8400Y8600D02*
X9000Y11000D01*
X2900Y8600D02*
X3500Y11000D01*
X2300Y8900D02*
X3500Y11000D01*
X1400Y9800D02*
X3500Y11000D01*
X1100Y10400D02*
X3500Y11000D01*
X1800Y9300D02*
X3500Y11000D01*
X3500Y11000D02*
X1000Y11000D01*
X3500Y8500D02*
X3500Y11000D01*
X6000Y11000D02*
X3500Y11000D01*
X3500Y11000D02*
X3500Y8500D01*
X5200Y9300D02*
X3500Y11000D01*
X4100Y8600D02*
X3500Y11000D01*
X4700Y8900D02*
X3500Y11000D01*
X5600Y9800D02*
X3500Y11000D01*
X5900Y10400D02*
X3500Y11000D01*
X1000Y11000D02*
X3500Y11000D01*
X3500Y11000D02*
X3500Y13500D01*
X1800Y12700D02*
X3500Y11000D01*
X2900Y13400D02*
X3500Y11000D01*
X2300Y13100D02*
X3500Y11000D01*
X1400Y12200D02*
X3500Y11000D01*
X1100Y11600D02*
X3500Y11000D01*
X4100Y13400D02*
X3500Y11000D01*
X4700Y13100D02*
X3500Y11000D01*
X5600Y12200D02*
X3500Y11000D01*
X5900Y11600D02*
X3500Y11000D01*
X5200Y12700D02*
X3500Y11000D01*
X3500Y11000D02*
X6000Y11000D01*
X3500Y13500D02*
X3500Y11000D01*
X24000Y18200D02*
X23800Y18200D01*
X27000Y18200D02*
X24000Y18200D01*
X27200Y18200D02*
X27000Y18200D01*
X27200Y18000D02*
X27200Y18200D01*
X27200Y17800D02*
X27200Y18000D01*
X27200Y14800D02*
X27200Y17800D01*
X23800Y14800D02*
X27200Y14800D01*
X23800Y15000D02*
X23800Y14800D01*
X23800Y17600D02*
X23800Y15000D01*
X23800Y17800D02*
X23800Y17600D01*
X23800Y18000D02*
X23800Y17800D01*
X23800Y18200D02*
X23800Y18000D01*
X23800Y18000D02*
X27200Y18000D01*
X27200Y17800D02*
X23800Y17800D01*
X27200Y15000D02*
X23800Y15000D01*
X27200Y15200D02*
X27200Y15000D01*
X23800Y15200D02*
X27200Y15200D01*
X23800Y15400D02*
X23800Y15200D01*
X27200Y15400D02*
X23800Y15400D01*
X27200Y15600D02*
X27200Y15400D01*
X23800Y15600D02*
X27200Y15600D01*
X23800Y15800D02*
X23800Y15600D01*
X27200Y15800D02*
X23800Y15800D01*
X27200Y16000D02*
X27200Y15800D01*
X23800Y16000D02*
X27200Y16000D01*
X23800Y16200D02*
X23800Y16000D01*
X27200Y16200D02*
X23800Y16200D01*
X27200Y16400D02*
X27200Y16200D01*
X23800Y16400D02*
X27200Y16400D01*
X23800Y16600D02*
X23800Y16400D01*
X27200Y16600D02*
X23800Y16600D01*
X27200Y16800D02*
X27200Y16600D01*
X23800Y16800D02*
X27200Y16800D01*
X23800Y17000D02*
X23800Y16800D01*
X27200Y17000D02*
X23800Y17000D01*
X27200Y16900D02*
X27200Y17000D01*
X27200Y17200D02*
X27200Y16900D01*
X23800Y17200D02*
X27200Y17200D01*
X23800Y17400D02*
X23800Y17200D01*
X27200Y17400D02*
X23800Y17400D01*
X27200Y17600D02*
X27200Y17400D01*
X23800Y17600D02*
X27200Y17600D01*
X27000Y14800D02*
X27000Y18200D01*
X26800Y14800D02*
X27000Y14800D01*
X26800Y18200D02*
X26800Y14800D01*
X26600Y18200D02*
X26800Y18200D01*
X26600Y14800D02*
X26600Y18200D01*
X26400Y14800D02*
X26600Y14800D01*
X26400Y18200D02*
X26400Y14800D01*
X26200Y18200D02*
X26400Y18200D01*
X26200Y14800D02*
X26200Y18200D01*
X26000Y14800D02*
X26200Y14800D01*
X26000Y18200D02*
X26000Y14800D01*
X25800Y18200D02*
X26000Y18200D01*
X25800Y14800D02*
X25800Y18200D01*
X25600Y14800D02*
X25800Y14800D01*
X25600Y18200D02*
X25600Y14800D01*
X25400Y18200D02*
X25600Y18200D01*
X25400Y14800D02*
X25400Y18200D01*
X25200Y14800D02*
X25400Y14800D01*
X25200Y18200D02*
X25200Y14800D01*
X25000Y18200D02*
X25200Y18200D01*
X25000Y14800D02*
X25000Y18200D01*
X24800Y14800D02*
X25000Y14800D01*
X24800Y18200D02*
X24800Y14800D01*
X24600Y18200D02*
X24800Y18200D01*
X24600Y14800D02*
X24600Y18200D01*
X24400Y14800D02*
X24600Y14800D01*
X24400Y18200D02*
X24400Y14800D01*
X24200Y18200D02*
X24400Y18200D01*
X24200Y14800D02*
X24200Y18200D01*
X24000Y14800D02*
X24200Y14800D01*
X24000Y18200D02*
X24000Y14800D01*
X23600Y15000D02*
X23800Y15000D01*
X23600Y15400D02*
X23600Y15000D01*
X23600Y17600D02*
X23600Y15400D01*
X23600Y18000D02*
X23600Y17600D01*
X23800Y18000D02*
X23600Y18000D01*
X23400Y17600D02*
X23600Y17600D01*
X23400Y17200D02*
X23400Y17600D01*
X23400Y15800D02*
X23400Y17200D01*
X23400Y15400D02*
X23400Y15800D01*
X23600Y15400D02*
X23400Y15400D01*
X23200Y15800D02*
X23400Y15800D01*
X23200Y16000D02*
X23200Y15800D01*
X23200Y16200D02*
X23200Y16000D01*
X23200Y17200D02*
X23200Y16200D01*
X23400Y17200D02*
X23200Y17200D01*
X23800Y16200D02*
X23200Y16200D01*
X23800Y16400D02*
X23800Y16200D01*
X23200Y16400D02*
X23800Y16400D01*
X23200Y16600D02*
X23200Y16400D01*
X23800Y16600D02*
X23200Y16600D01*
X23800Y16800D02*
X23800Y16600D01*
X23200Y16800D02*
X23800Y16800D01*
X23200Y17000D02*
X23200Y16800D01*
X23800Y17000D02*
X23200Y17000D01*
X23800Y17200D02*
X23800Y17000D01*
X23400Y17200D02*
X23800Y17200D01*
X23400Y17400D02*
X23400Y17200D01*
X23800Y17400D02*
X23400Y17400D01*
X23800Y17600D02*
X23800Y17400D01*
X23600Y17600D02*
X23800Y17600D01*
X23600Y17800D02*
X23600Y17600D01*
X23800Y17800D02*
X23600Y17800D01*
X23600Y15200D02*
X23800Y15200D01*
X23600Y15400D02*
X23600Y15200D01*
X23500Y15400D02*
X23600Y15400D01*
X23800Y15400D02*
X23500Y15400D01*
X23800Y15600D02*
X23800Y15400D01*
X23400Y15600D02*
X23800Y15600D01*
X23400Y15800D02*
X23400Y15600D01*
X23800Y15800D02*
X23400Y15800D01*
X23800Y16000D02*
X23800Y15800D01*
X23200Y16000D02*
X23800Y16000D01*
X24200Y18400D02*
X24200Y18200D01*
X24400Y18400D02*
X24200Y18400D01*
X24400Y18200D02*
X24400Y18400D01*
X24600Y18200D02*
X24400Y18200D01*
X24600Y18600D02*
X24600Y18200D01*
X24800Y18600D02*
X24600Y18600D01*
X24800Y18200D02*
X24800Y18600D01*
X25000Y18200D02*
X24800Y18200D01*
X25000Y18800D02*
X25000Y18200D01*
X25200Y18800D02*
X25000Y18800D01*
X25200Y18200D02*
X25200Y18800D01*
X25400Y18200D02*
X25200Y18200D01*
X25400Y18800D02*
X25400Y18200D01*
X25600Y18800D02*
X25400Y18800D01*
X25600Y18200D02*
X25600Y18800D01*
X25800Y18200D02*
X25600Y18200D01*
X25800Y18800D02*
X25800Y18200D01*
X26000Y18800D02*
X25800Y18800D01*
X26000Y18200D02*
X26000Y18800D01*
X26200Y18200D02*
X26000Y18200D01*
X26200Y18600D02*
X26200Y18200D01*
X26400Y18600D02*
X26200Y18600D01*
X26400Y18200D02*
X26400Y18600D01*
X26600Y18200D02*
X26400Y18200D01*
X26600Y18400D02*
X26600Y18200D01*
X26800Y18400D02*
X26600Y18400D01*
X26800Y18200D02*
X26800Y18400D01*
X27000Y18200D02*
X26800Y18200D01*
X27000Y18400D02*
X27000Y18200D01*
X26600Y18400D02*
X27000Y18400D01*
X26600Y18600D02*
X26600Y18400D01*
X26200Y18600D02*
X26600Y18600D01*
X26200Y18800D02*
X26200Y18600D01*
X24800Y18800D02*
X26200Y18800D01*
X24800Y18600D02*
X24800Y18800D01*
X24400Y18600D02*
X24800Y18600D01*
X24400Y18400D02*
X24400Y18600D01*
X24000Y18400D02*
X24400Y18400D01*
X24000Y18200D02*
X24000Y18400D01*
X26600Y18600D02*
X24800Y18600D01*
X26600Y18400D02*
X26600Y18600D01*
X24400Y18400D02*
X26600Y18400D01*
X27400Y17800D02*
X27200Y17800D01*
X27400Y17900D02*
X27400Y17800D01*
X27400Y17600D02*
X27400Y17900D01*
X27200Y17600D02*
X27400Y17600D01*
X27200Y17400D02*
X27200Y17600D01*
X27600Y17400D02*
X27200Y17400D01*
X27600Y17200D02*
X27600Y17400D01*
X27200Y17200D02*
X27600Y17200D01*
X27200Y17000D02*
X27200Y17200D01*
X27100Y17000D02*
X27200Y17000D01*
X27800Y17000D02*
X27100Y17000D01*
X27800Y16800D02*
X27800Y17000D01*
X27200Y16800D02*
X27800Y16800D01*
X27200Y16600D02*
X27200Y16800D01*
X27800Y16600D02*
X27200Y16600D01*
X27800Y16400D02*
X27800Y16600D01*
X27200Y16400D02*
X27800Y16400D01*
X27200Y16200D02*
X27200Y16400D01*
X27800Y16200D02*
X27200Y16200D01*
X27800Y16000D02*
X27800Y16200D01*
X27200Y16000D02*
X27800Y16000D01*
X27200Y15800D02*
X27200Y16000D01*
X27600Y15800D02*
X27200Y15800D01*
X27600Y15600D02*
X27600Y15800D01*
X27200Y15600D02*
X27600Y15600D01*
X27200Y15400D02*
X27200Y15600D01*
X27400Y15400D02*
X27200Y15400D01*
X27400Y15200D02*
X27400Y15400D01*
X27200Y15200D02*
X27400Y15200D01*
X27200Y15100D02*
X27200Y15200D01*
X27200Y15000D02*
X27200Y15100D01*
X27400Y15000D02*
X27200Y15000D01*
X27400Y15400D02*
X27400Y15000D01*
X27600Y15400D02*
X27400Y15400D01*
X27600Y15800D02*
X27600Y15400D01*
X27800Y15800D02*
X27600Y15800D01*
X27800Y17200D02*
X27800Y15800D01*
X27600Y17200D02*
X27800Y17200D01*
X27600Y17600D02*
X27600Y17200D01*
X27400Y17600D02*
X27600Y17600D01*
X27400Y18000D02*
X27400Y17600D01*
X27200Y18000D02*
X27400Y18000D01*
X27600Y15400D02*
X27600Y17200D01*
X27400Y15400D02*
X27600Y15400D01*
X27400Y17600D02*
X27400Y15400D01*
X24200Y14600D02*
X24200Y14800D01*
X24400Y14600D02*
X24200Y14600D01*
X24400Y14800D02*
X24400Y14600D01*
X24600Y14800D02*
X24400Y14800D01*
X24600Y14400D02*
X24600Y14800D01*
X24800Y14400D02*
X24600Y14400D01*
X24800Y14800D02*
X24800Y14400D01*
X25000Y14800D02*
X24800Y14800D01*
X25000Y14200D02*
X25000Y14800D01*
X25200Y14200D02*
X25000Y14200D01*
X25200Y14800D02*
X25200Y14200D01*
X25400Y14800D02*
X25200Y14800D01*
X25400Y14200D02*
X25400Y14800D01*
X25600Y14200D02*
X25400Y14200D01*
X25600Y14800D02*
X25600Y14200D01*
X25800Y14800D02*
X25600Y14800D01*
X25800Y14200D02*
X25800Y14800D01*
X26000Y14200D02*
X25800Y14200D01*
X26000Y14800D02*
X26000Y14200D01*
X26200Y14800D02*
X26000Y14800D01*
X26200Y14400D02*
X26200Y14800D01*
X26400Y14400D02*
X26200Y14400D01*
X26400Y14800D02*
X26400Y14400D01*
X26600Y14800D02*
X26400Y14800D01*
X26600Y14600D02*
X26600Y14800D01*
X26800Y14600D02*
X26600Y14600D01*
X26800Y14800D02*
X26800Y14600D01*
X27000Y14800D02*
X26800Y14800D01*
X27000Y14600D02*
X27000Y14800D01*
X26600Y14600D02*
X27000Y14600D01*
X26600Y14400D02*
X26600Y14600D01*
X26200Y14400D02*
X26600Y14400D01*
X26200Y14200D02*
X26200Y14400D01*
X24800Y14200D02*
X26200Y14200D01*
X24800Y14400D02*
X24800Y14200D01*
X24400Y14400D02*
X24800Y14400D01*
X24400Y14600D02*
X24400Y14400D01*
X24000Y14600D02*
X24400Y14600D01*
X24000Y14800D02*
X24000Y14600D01*
X26600Y14400D02*
X24800Y14400D01*
X26600Y14600D02*
X26600Y14400D01*
X24400Y14600D02*
X26600Y14600D01*
X35400Y14600D02*
X37600Y14600D01*
X37600Y14600D02*
X37600Y14400D01*
X37600Y14400D02*
X35800Y14400D01*
X35000Y14800D02*
X35000Y14600D01*
X35000Y14600D02*
X35400Y14600D01*
X35400Y14600D02*
X35400Y14400D01*
X35400Y14400D02*
X35800Y14400D01*
X35800Y14400D02*
X35800Y14200D01*
X35800Y14200D02*
X37200Y14200D01*
X37200Y14200D02*
X37200Y14400D01*
X37200Y14400D02*
X37600Y14400D01*
X37600Y14400D02*
X37600Y14600D01*
X37600Y14600D02*
X38000Y14600D01*
X38000Y14600D02*
X38000Y14800D01*
X38000Y14800D02*
X37800Y14800D01*
X37800Y14800D02*
X37800Y14600D01*
X37800Y14600D02*
X37600Y14600D01*
X37600Y14600D02*
X37600Y14800D01*
X37600Y14800D02*
X37400Y14800D01*
X37400Y14800D02*
X37400Y14400D01*
X37400Y14400D02*
X37200Y14400D01*
X37200Y14400D02*
X37200Y14800D01*
X37200Y14800D02*
X37000Y14800D01*
X37000Y14800D02*
X37000Y14200D01*
X37000Y14200D02*
X36800Y14200D01*
X36800Y14200D02*
X36800Y14800D01*
X36800Y14800D02*
X36600Y14800D01*
X36600Y14800D02*
X36600Y14200D01*
X36600Y14200D02*
X36400Y14200D01*
X36400Y14200D02*
X36400Y14800D01*
X36400Y14800D02*
X36200Y14800D01*
X36200Y14800D02*
X36200Y14200D01*
X36200Y14200D02*
X36000Y14200D01*
X36000Y14200D02*
X36000Y14800D01*
X36000Y14800D02*
X35800Y14800D01*
X35800Y14800D02*
X35800Y14400D01*
X35800Y14400D02*
X35600Y14400D01*
X35600Y14400D02*
X35600Y14800D01*
X35600Y14800D02*
X35400Y14800D01*
X35400Y14800D02*
X35400Y14600D01*
X35400Y14600D02*
X35200Y14600D01*
X35200Y14600D02*
X35200Y14800D01*
X38400Y17600D02*
X38400Y15400D01*
X38400Y15400D02*
X38600Y15400D01*
X38600Y15400D02*
X38600Y17200D01*
X38200Y18000D02*
X38400Y18000D01*
X38400Y18000D02*
X38400Y17600D01*
X38400Y17600D02*
X38600Y17600D01*
X38600Y17600D02*
X38600Y17200D01*
X38600Y17200D02*
X38800Y17200D01*
X38800Y17200D02*
X38800Y15800D01*
X38800Y15800D02*
X38600Y15800D01*
X38600Y15800D02*
X38600Y15400D01*
X38600Y15400D02*
X38400Y15400D01*
X38400Y15400D02*
X38400Y15000D01*
X38400Y15000D02*
X38200Y15000D01*
X38200Y15000D02*
X38200Y15100D01*
X38200Y15100D02*
X38200Y15200D01*
X38200Y15200D02*
X38400Y15200D01*
X38400Y15200D02*
X38400Y15400D01*
X38400Y15400D02*
X38200Y15400D01*
X38200Y15400D02*
X38200Y15600D01*
X38200Y15600D02*
X38600Y15600D01*
X38600Y15600D02*
X38600Y15800D01*
X38600Y15800D02*
X38200Y15800D01*
X38200Y15800D02*
X38200Y16000D01*
X38200Y16000D02*
X38800Y16000D01*
X38800Y16000D02*
X38800Y16200D01*
X38800Y16200D02*
X38200Y16200D01*
X38200Y16200D02*
X38200Y16400D01*
X38200Y16400D02*
X38800Y16400D01*
X38800Y16400D02*
X38800Y16600D01*
X38800Y16600D02*
X38200Y16600D01*
X38200Y16600D02*
X38200Y16800D01*
X38200Y16800D02*
X38800Y16800D01*
X38800Y16800D02*
X38800Y17000D01*
X38800Y17000D02*
X38100Y17000D01*
X38100Y17000D02*
X38200Y17000D01*
X38200Y17000D02*
X38200Y17200D01*
X38200Y17200D02*
X38600Y17200D01*
X38600Y17200D02*
X38600Y17400D01*
X38600Y17400D02*
X38200Y17400D01*
X38200Y17400D02*
X38200Y17600D01*
X38200Y17600D02*
X38400Y17600D01*
X38400Y17600D02*
X38400Y17900D01*
X38400Y17900D02*
X38400Y17800D01*
X38400Y17800D02*
X38200Y17800D01*
X35400Y18400D02*
X37600Y18400D01*
X37600Y18400D02*
X37600Y18600D01*
X37600Y18600D02*
X35800Y18600D01*
X35000Y18200D02*
X35000Y18400D01*
X35000Y18400D02*
X35400Y18400D01*
X35400Y18400D02*
X35400Y18600D01*
X35400Y18600D02*
X35800Y18600D01*
X35800Y18600D02*
X35800Y18800D01*
X35800Y18800D02*
X37200Y18800D01*
X37200Y18800D02*
X37200Y18600D01*
X37200Y18600D02*
X37600Y18600D01*
X37600Y18600D02*
X37600Y18400D01*
X37600Y18400D02*
X38000Y18400D01*
X38000Y18400D02*
X38000Y18200D01*
X38000Y18200D02*
X37800Y18200D01*
X37800Y18200D02*
X37800Y18400D01*
X37800Y18400D02*
X37600Y18400D01*
X37600Y18400D02*
X37600Y18200D01*
X37600Y18200D02*
X37400Y18200D01*
X37400Y18200D02*
X37400Y18600D01*
X37400Y18600D02*
X37200Y18600D01*
X37200Y18600D02*
X37200Y18200D01*
X37200Y18200D02*
X37000Y18200D01*
X37000Y18200D02*
X37000Y18800D01*
X37000Y18800D02*
X36800Y18800D01*
X36800Y18800D02*
X36800Y18200D01*
X36800Y18200D02*
X36600Y18200D01*
X36600Y18200D02*
X36600Y18800D01*
X36600Y18800D02*
X36400Y18800D01*
X36400Y18800D02*
X36400Y18200D01*
X36400Y18200D02*
X36200Y18200D01*
X36200Y18200D02*
X36200Y18800D01*
X36200Y18800D02*
X36000Y18800D01*
X36000Y18800D02*
X36000Y18200D01*
X36000Y18200D02*
X35800Y18200D01*
X35800Y18200D02*
X35800Y18600D01*
X35800Y18600D02*
X35600Y18600D01*
X35600Y18600D02*
X35600Y18200D01*
X35600Y18200D02*
X35400Y18200D01*
X35400Y18200D02*
X35400Y18400D01*
X35400Y18400D02*
X35200Y18400D01*
X35200Y18400D02*
X35200Y18200D01*
X34200Y16000D02*
X34800Y16000D01*
X34800Y16000D02*
X34800Y15800D01*
X34800Y15800D02*
X34400Y15800D01*
X34400Y15800D02*
X34400Y15600D01*
X34400Y15600D02*
X34800Y15600D01*
X34800Y15600D02*
X34800Y15400D01*
X34800Y15400D02*
X34500Y15400D01*
X34500Y15400D02*
X34600Y15400D01*
X34600Y15400D02*
X34600Y15200D01*
X34600Y15200D02*
X34800Y15200D01*
X34800Y17800D02*
X34600Y17800D01*
X34600Y17800D02*
X34600Y17600D01*
X34600Y17600D02*
X34800Y17600D01*
X34800Y17600D02*
X34800Y17400D01*
X34800Y17400D02*
X34400Y17400D01*
X34400Y17400D02*
X34400Y17200D01*
X34400Y17200D02*
X34800Y17200D01*
X34800Y17200D02*
X34800Y17000D01*
X34800Y17000D02*
X34200Y17000D01*
X34200Y17000D02*
X34200Y16800D01*
X34200Y16800D02*
X34800Y16800D01*
X34800Y16800D02*
X34800Y16600D01*
X34800Y16600D02*
X34200Y16600D01*
X34200Y16600D02*
X34200Y16400D01*
X34200Y16400D02*
X34800Y16400D01*
X34800Y16400D02*
X34800Y16200D01*
X34800Y16200D02*
X34200Y16200D01*
X34400Y17200D02*
X34200Y17200D01*
X34200Y17200D02*
X34200Y16200D01*
X34200Y16200D02*
X34200Y16000D01*
X34200Y16000D02*
X34200Y15800D01*
X34200Y15800D02*
X34400Y15800D01*
X34600Y15400D02*
X34400Y15400D01*
X34400Y15400D02*
X34400Y15800D01*
X34400Y15800D02*
X34400Y17200D01*
X34400Y17200D02*
X34400Y17600D01*
X34400Y17600D02*
X34600Y17600D01*
X34800Y18000D02*
X34600Y18000D01*
X34600Y18000D02*
X34600Y17600D01*
X34600Y17600D02*
X34600Y15400D01*
X34600Y15400D02*
X34600Y15000D01*
X34600Y15000D02*
X34800Y15000D01*
X35000Y18200D02*
X35000Y14800D01*
X35000Y14800D02*
X35200Y14800D01*
X35200Y14800D02*
X35200Y18200D01*
X35200Y18200D02*
X35400Y18200D01*
X35400Y18200D02*
X35400Y14800D01*
X35400Y14800D02*
X35600Y14800D01*
X35600Y14800D02*
X35600Y18200D01*
X35600Y18200D02*
X35800Y18200D01*
X35800Y18200D02*
X35800Y14800D01*
X35800Y14800D02*
X36000Y14800D01*
X36000Y14800D02*
X36000Y18200D01*
X36000Y18200D02*
X36200Y18200D01*
X36200Y18200D02*
X36200Y14800D01*
X36200Y14800D02*
X36400Y14800D01*
X36400Y14800D02*
X36400Y18200D01*
X36400Y18200D02*
X36600Y18200D01*
X36600Y18200D02*
X36600Y14800D01*
X36600Y14800D02*
X36800Y14800D01*
X36800Y14800D02*
X36800Y18200D01*
X36800Y18200D02*
X37000Y18200D01*
X37000Y18200D02*
X37000Y14800D01*
X37000Y14800D02*
X37200Y14800D01*
X37200Y14800D02*
X37200Y18200D01*
X37200Y18200D02*
X37400Y18200D01*
X37400Y18200D02*
X37400Y14800D01*
X37400Y14800D02*
X37600Y14800D01*
X37600Y14800D02*
X37600Y18200D01*
X37600Y18200D02*
X37800Y18200D01*
X37800Y18200D02*
X37800Y14800D01*
X37800Y14800D02*
X38000Y14800D01*
X38000Y14800D02*
X38000Y18200D01*
X34800Y17600D02*
X38200Y17600D01*
X38200Y17600D02*
X38200Y17400D01*
X38200Y17400D02*
X34800Y17400D01*
X34800Y17400D02*
X34800Y17200D01*
X34800Y17200D02*
X38200Y17200D01*
X38200Y17200D02*
X38200Y16900D01*
X38200Y16900D02*
X38200Y17000D01*
X38200Y17000D02*
X34800Y17000D01*
X34800Y17000D02*
X34800Y16800D01*
X34800Y16800D02*
X38200Y16800D01*
X38200Y16800D02*
X38200Y16600D01*
X38200Y16600D02*
X34800Y16600D01*
X34800Y16600D02*
X34800Y16400D01*
X34800Y16400D02*
X38200Y16400D01*
X38200Y16400D02*
X38200Y16200D01*
X38200Y16200D02*
X34800Y16200D01*
X34800Y16200D02*
X34800Y16000D01*
X34800Y16000D02*
X38200Y16000D01*
X38200Y16000D02*
X38200Y15800D01*
X38200Y15800D02*
X34800Y15800D01*
X34800Y15800D02*
X34800Y15600D01*
X34800Y15600D02*
X38200Y15600D01*
X38200Y15600D02*
X38200Y15400D01*
X38200Y15400D02*
X34800Y15400D01*
X34800Y15400D02*
X34800Y15200D01*
X34800Y15200D02*
X38200Y15200D01*
X38200Y15200D02*
X38200Y15000D01*
X38200Y15000D02*
X34800Y15000D01*
X38200Y17800D02*
X34800Y17800D01*
X34800Y18000D02*
X38200Y18000D01*
X34800Y18200D02*
X34800Y18000D01*
X34800Y18000D02*
X34800Y17800D01*
X34800Y17800D02*
X34800Y17600D01*
X34800Y17600D02*
X34800Y15000D01*
X34800Y15000D02*
X34800Y14800D01*
X34800Y14800D02*
X38200Y14800D01*
X38200Y14800D02*
X38200Y17800D01*
X38200Y17800D02*
X38200Y18000D01*
X38200Y18000D02*
X38200Y18200D01*
X38200Y18200D02*
X38000Y18200D01*
X38000Y18200D02*
X35000Y18200D01*
X35000Y18200D02*
X34800Y18200D01*
X29500Y18200D02*
X29300Y18200D01*
X32500Y18200D02*
X29500Y18200D01*
X32700Y18200D02*
X32500Y18200D01*
X32700Y18000D02*
X32700Y18200D01*
X32700Y17800D02*
X32700Y18000D01*
X32700Y14800D02*
X32700Y17800D01*
X29300Y14800D02*
X32700Y14800D01*
X29300Y15000D02*
X29300Y14800D01*
X29300Y17600D02*
X29300Y15000D01*
X29300Y17800D02*
X29300Y17600D01*
X29300Y18000D02*
X29300Y17800D01*
X29300Y18200D02*
X29300Y18000D01*
X29300Y18000D02*
X32700Y18000D01*
X32700Y17800D02*
X29300Y17800D01*
X32700Y15000D02*
X29300Y15000D01*
X32700Y15200D02*
X32700Y15000D01*
X29300Y15200D02*
X32700Y15200D01*
X29300Y15400D02*
X29300Y15200D01*
X32700Y15400D02*
X29300Y15400D01*
X32700Y15600D02*
X32700Y15400D01*
X29300Y15600D02*
X32700Y15600D01*
X29300Y15800D02*
X29300Y15600D01*
X32700Y15800D02*
X29300Y15800D01*
X32700Y16000D02*
X32700Y15800D01*
X29300Y16000D02*
X32700Y16000D01*
X29300Y16200D02*
X29300Y16000D01*
X32700Y16200D02*
X29300Y16200D01*
X32700Y16400D02*
X32700Y16200D01*
X29300Y16400D02*
X32700Y16400D01*
X29300Y16600D02*
X29300Y16400D01*
X32700Y16600D02*
X29300Y16600D01*
X32700Y16800D02*
X32700Y16600D01*
X29300Y16800D02*
X32700Y16800D01*
X29300Y17000D02*
X29300Y16800D01*
X32700Y17000D02*
X29300Y17000D01*
X32700Y16900D02*
X32700Y17000D01*
X32700Y17200D02*
X32700Y16900D01*
X29300Y17200D02*
X32700Y17200D01*
X29300Y17400D02*
X29300Y17200D01*
X32700Y17400D02*
X29300Y17400D01*
X32700Y17600D02*
X32700Y17400D01*
X29300Y17600D02*
X32700Y17600D01*
X32500Y14800D02*
X32500Y18200D01*
X32300Y14800D02*
X32500Y14800D01*
X32300Y18200D02*
X32300Y14800D01*
X32100Y18200D02*
X32300Y18200D01*
X32100Y14800D02*
X32100Y18200D01*
X31900Y14800D02*
X32100Y14800D01*
X31900Y18200D02*
X31900Y14800D01*
X31700Y18200D02*
X31900Y18200D01*
X31700Y14800D02*
X31700Y18200D01*
X31500Y14800D02*
X31700Y14800D01*
X31500Y18200D02*
X31500Y14800D01*
X31300Y18200D02*
X31500Y18200D01*
X31300Y14800D02*
X31300Y18200D01*
X31100Y14800D02*
X31300Y14800D01*
X31100Y18200D02*
X31100Y14800D01*
X30900Y18200D02*
X31100Y18200D01*
X30900Y14800D02*
X30900Y18200D01*
X30700Y14800D02*
X30900Y14800D01*
X30700Y18200D02*
X30700Y14800D01*
X30500Y18200D02*
X30700Y18200D01*
X30500Y14800D02*
X30500Y18200D01*
X30300Y14800D02*
X30500Y14800D01*
X30300Y18200D02*
X30300Y14800D01*
X30100Y18200D02*
X30300Y18200D01*
X30100Y14800D02*
X30100Y18200D01*
X29900Y14800D02*
X30100Y14800D01*
X29900Y18200D02*
X29900Y14800D01*
X29700Y18200D02*
X29900Y18200D01*
X29700Y14800D02*
X29700Y18200D01*
X29500Y14800D02*
X29700Y14800D01*
X29500Y18200D02*
X29500Y14800D01*
X29100Y15000D02*
X29300Y15000D01*
X29100Y15400D02*
X29100Y15000D01*
X29100Y17600D02*
X29100Y15400D01*
X29100Y18000D02*
X29100Y17600D01*
X29300Y18000D02*
X29100Y18000D01*
X28900Y17600D02*
X29100Y17600D01*
X28900Y17200D02*
X28900Y17600D01*
X28900Y15800D02*
X28900Y17200D01*
X28900Y15400D02*
X28900Y15800D01*
X29100Y15400D02*
X28900Y15400D01*
X28700Y15800D02*
X28900Y15800D01*
X28700Y16000D02*
X28700Y15800D01*
X28700Y16200D02*
X28700Y16000D01*
X28700Y17200D02*
X28700Y16200D01*
X28900Y17200D02*
X28700Y17200D01*
X29300Y16200D02*
X28700Y16200D01*
X29300Y16400D02*
X29300Y16200D01*
X28700Y16400D02*
X29300Y16400D01*
X28700Y16600D02*
X28700Y16400D01*
X29300Y16600D02*
X28700Y16600D01*
X29300Y16800D02*
X29300Y16600D01*
X28700Y16800D02*
X29300Y16800D01*
X28700Y17000D02*
X28700Y16800D01*
X29300Y17000D02*
X28700Y17000D01*
X29300Y17200D02*
X29300Y17000D01*
X28900Y17200D02*
X29300Y17200D01*
X28900Y17400D02*
X28900Y17200D01*
X29300Y17400D02*
X28900Y17400D01*
X29300Y17600D02*
X29300Y17400D01*
X29100Y17600D02*
X29300Y17600D01*
X29100Y17800D02*
X29100Y17600D01*
X29300Y17800D02*
X29100Y17800D01*
X29100Y15200D02*
X29300Y15200D01*
X29100Y15400D02*
X29100Y15200D01*
X29000Y15400D02*
X29100Y15400D01*
X29300Y15400D02*
X29000Y15400D01*
X29300Y15600D02*
X29300Y15400D01*
X28900Y15600D02*
X29300Y15600D01*
X28900Y15800D02*
X28900Y15600D01*
X29300Y15800D02*
X28900Y15800D01*
X29300Y16000D02*
X29300Y15800D01*
X28700Y16000D02*
X29300Y16000D01*
X29700Y18400D02*
X29700Y18200D01*
X29900Y18400D02*
X29700Y18400D01*
X29900Y18200D02*
X29900Y18400D01*
X30100Y18200D02*
X29900Y18200D01*
X30100Y18600D02*
X30100Y18200D01*
X30300Y18600D02*
X30100Y18600D01*
X30300Y18200D02*
X30300Y18600D01*
X30500Y18200D02*
X30300Y18200D01*
X30500Y18800D02*
X30500Y18200D01*
X30700Y18800D02*
X30500Y18800D01*
X30700Y18200D02*
X30700Y18800D01*
X30900Y18200D02*
X30700Y18200D01*
X30900Y18800D02*
X30900Y18200D01*
X31100Y18800D02*
X30900Y18800D01*
X31100Y18200D02*
X31100Y18800D01*
X31300Y18200D02*
X31100Y18200D01*
X31300Y18800D02*
X31300Y18200D01*
X31500Y18800D02*
X31300Y18800D01*
X31500Y18200D02*
X31500Y18800D01*
X31700Y18200D02*
X31500Y18200D01*
X31700Y18600D02*
X31700Y18200D01*
X31900Y18600D02*
X31700Y18600D01*
X31900Y18200D02*
X31900Y18600D01*
X32100Y18200D02*
X31900Y18200D01*
X32100Y18400D02*
X32100Y18200D01*
X32300Y18400D02*
X32100Y18400D01*
X32300Y18200D02*
X32300Y18400D01*
X32500Y18200D02*
X32300Y18200D01*
X32500Y18400D02*
X32500Y18200D01*
X32100Y18400D02*
X32500Y18400D01*
X32100Y18600D02*
X32100Y18400D01*
X31700Y18600D02*
X32100Y18600D01*
X31700Y18800D02*
X31700Y18600D01*
X30300Y18800D02*
X31700Y18800D01*
X30300Y18600D02*
X30300Y18800D01*
X29900Y18600D02*
X30300Y18600D01*
X29900Y18400D02*
X29900Y18600D01*
X29500Y18400D02*
X29900Y18400D01*
X29500Y18200D02*
X29500Y18400D01*
X32100Y18600D02*
X30300Y18600D01*
X32100Y18400D02*
X32100Y18600D01*
X29900Y18400D02*
X32100Y18400D01*
X32900Y17800D02*
X32700Y17800D01*
X32900Y17900D02*
X32900Y17800D01*
X32900Y17600D02*
X32900Y17900D01*
X32700Y17600D02*
X32900Y17600D01*
X32700Y17400D02*
X32700Y17600D01*
X33100Y17400D02*
X32700Y17400D01*
X33100Y17200D02*
X33100Y17400D01*
X32700Y17200D02*
X33100Y17200D01*
X32700Y17000D02*
X32700Y17200D01*
X32600Y17000D02*
X32700Y17000D01*
X33300Y17000D02*
X32600Y17000D01*
X33300Y16800D02*
X33300Y17000D01*
X32700Y16800D02*
X33300Y16800D01*
X32700Y16600D02*
X32700Y16800D01*
X33300Y16600D02*
X32700Y16600D01*
X33300Y16400D02*
X33300Y16600D01*
X32700Y16400D02*
X33300Y16400D01*
X32700Y16200D02*
X32700Y16400D01*
X33300Y16200D02*
X32700Y16200D01*
X33300Y16000D02*
X33300Y16200D01*
X32700Y16000D02*
X33300Y16000D01*
X32700Y15800D02*
X32700Y16000D01*
X33100Y15800D02*
X32700Y15800D01*
X33100Y15600D02*
X33100Y15800D01*
X32700Y15600D02*
X33100Y15600D01*
X32700Y15400D02*
X32700Y15600D01*
X32900Y15400D02*
X32700Y15400D01*
X32900Y15200D02*
X32900Y15400D01*
X32700Y15200D02*
X32900Y15200D01*
X32700Y15100D02*
X32700Y15200D01*
X32700Y15000D02*
X32700Y15100D01*
X32900Y15000D02*
X32700Y15000D01*
X32900Y15400D02*
X32900Y15000D01*
X33100Y15400D02*
X32900Y15400D01*
X33100Y15800D02*
X33100Y15400D01*
X33300Y15800D02*
X33100Y15800D01*
X33300Y17200D02*
X33300Y15800D01*
X33100Y17200D02*
X33300Y17200D01*
X33100Y17600D02*
X33100Y17200D01*
X32900Y17600D02*
X33100Y17600D01*
X32900Y18000D02*
X32900Y17600D01*
X32700Y18000D02*
X32900Y18000D01*
X33100Y15400D02*
X33100Y17200D01*
X32900Y15400D02*
X33100Y15400D01*
X32900Y17600D02*
X32900Y15400D01*
X29700Y14600D02*
X29700Y14800D01*
X29900Y14600D02*
X29700Y14600D01*
X29900Y14800D02*
X29900Y14600D01*
X30100Y14800D02*
X29900Y14800D01*
X30100Y14400D02*
X30100Y14800D01*
X30300Y14400D02*
X30100Y14400D01*
X30300Y14800D02*
X30300Y14400D01*
X30500Y14800D02*
X30300Y14800D01*
X30500Y14200D02*
X30500Y14800D01*
X30700Y14200D02*
X30500Y14200D01*
X30700Y14800D02*
X30700Y14200D01*
X30900Y14800D02*
X30700Y14800D01*
X30900Y14200D02*
X30900Y14800D01*
X31100Y14200D02*
X30900Y14200D01*
X31100Y14800D02*
X31100Y14200D01*
X31300Y14800D02*
X31100Y14800D01*
X31300Y14200D02*
X31300Y14800D01*
X31500Y14200D02*
X31300Y14200D01*
X31500Y14800D02*
X31500Y14200D01*
X31700Y14800D02*
X31500Y14800D01*
X31700Y14400D02*
X31700Y14800D01*
X31900Y14400D02*
X31700Y14400D01*
X31900Y14800D02*
X31900Y14400D01*
X32100Y14800D02*
X31900Y14800D01*
X32100Y14600D02*
X32100Y14800D01*
X32300Y14600D02*
X32100Y14600D01*
X32300Y14800D02*
X32300Y14600D01*
X32500Y14800D02*
X32300Y14800D01*
X32500Y14600D02*
X32500Y14800D01*
X32100Y14600D02*
X32500Y14600D01*
X32100Y14400D02*
X32100Y14600D01*
X31700Y14400D02*
X32100Y14400D01*
X31700Y14200D02*
X31700Y14400D01*
X30300Y14200D02*
X31700Y14200D01*
X30300Y14400D02*
X30300Y14200D01*
X29900Y14400D02*
X30300Y14400D01*
X29900Y14600D02*
X29900Y14400D01*
X29500Y14600D02*
X29900Y14600D01*
X29500Y14800D02*
X29500Y14600D01*
X32100Y14400D02*
X30300Y14400D01*
X32100Y14600D02*
X32100Y14400D01*
X29900Y14600D02*
X32100Y14600D01*
X13400Y14600D02*
X15600Y14600D01*
X15600Y14600D02*
X15600Y14400D01*
X15600Y14400D02*
X13800Y14400D01*
X13000Y14800D02*
X13000Y14600D01*
X13000Y14600D02*
X13400Y14600D01*
X13400Y14600D02*
X13400Y14400D01*
X13400Y14400D02*
X13800Y14400D01*
X13800Y14400D02*
X13800Y14200D01*
X13800Y14200D02*
X15200Y14200D01*
X15200Y14200D02*
X15200Y14400D01*
X15200Y14400D02*
X15600Y14400D01*
X15600Y14400D02*
X15600Y14600D01*
X15600Y14600D02*
X16000Y14600D01*
X16000Y14600D02*
X16000Y14800D01*
X16000Y14800D02*
X15800Y14800D01*
X15800Y14800D02*
X15800Y14600D01*
X15800Y14600D02*
X15600Y14600D01*
X15600Y14600D02*
X15600Y14800D01*
X15600Y14800D02*
X15400Y14800D01*
X15400Y14800D02*
X15400Y14400D01*
X15400Y14400D02*
X15200Y14400D01*
X15200Y14400D02*
X15200Y14800D01*
X15200Y14800D02*
X15000Y14800D01*
X15000Y14800D02*
X15000Y14200D01*
X15000Y14200D02*
X14800Y14200D01*
X14800Y14200D02*
X14800Y14800D01*
X14800Y14800D02*
X14600Y14800D01*
X14600Y14800D02*
X14600Y14200D01*
X14600Y14200D02*
X14400Y14200D01*
X14400Y14200D02*
X14400Y14800D01*
X14400Y14800D02*
X14200Y14800D01*
X14200Y14800D02*
X14200Y14200D01*
X14200Y14200D02*
X14000Y14200D01*
X14000Y14200D02*
X14000Y14800D01*
X14000Y14800D02*
X13800Y14800D01*
X13800Y14800D02*
X13800Y14400D01*
X13800Y14400D02*
X13600Y14400D01*
X13600Y14400D02*
X13600Y14800D01*
X13600Y14800D02*
X13400Y14800D01*
X13400Y14800D02*
X13400Y14600D01*
X13400Y14600D02*
X13200Y14600D01*
X13200Y14600D02*
X13200Y14800D01*
X16400Y17600D02*
X16400Y15400D01*
X16400Y15400D02*
X16600Y15400D01*
X16600Y15400D02*
X16600Y17200D01*
X16200Y18000D02*
X16400Y18000D01*
X16400Y18000D02*
X16400Y17600D01*
X16400Y17600D02*
X16600Y17600D01*
X16600Y17600D02*
X16600Y17200D01*
X16600Y17200D02*
X16800Y17200D01*
X16800Y17200D02*
X16800Y15800D01*
X16800Y15800D02*
X16600Y15800D01*
X16600Y15800D02*
X16600Y15400D01*
X16600Y15400D02*
X16400Y15400D01*
X16400Y15400D02*
X16400Y15000D01*
X16400Y15000D02*
X16200Y15000D01*
X16200Y15000D02*
X16200Y15100D01*
X16200Y15100D02*
X16200Y15200D01*
X16200Y15200D02*
X16400Y15200D01*
X16400Y15200D02*
X16400Y15400D01*
X16400Y15400D02*
X16200Y15400D01*
X16200Y15400D02*
X16200Y15600D01*
X16200Y15600D02*
X16600Y15600D01*
X16600Y15600D02*
X16600Y15800D01*
X16600Y15800D02*
X16200Y15800D01*
X16200Y15800D02*
X16200Y16000D01*
X16200Y16000D02*
X16800Y16000D01*
X16800Y16000D02*
X16800Y16200D01*
X16800Y16200D02*
X16200Y16200D01*
X16200Y16200D02*
X16200Y16400D01*
X16200Y16400D02*
X16800Y16400D01*
X16800Y16400D02*
X16800Y16600D01*
X16800Y16600D02*
X16200Y16600D01*
X16200Y16600D02*
X16200Y16800D01*
X16200Y16800D02*
X16800Y16800D01*
X16800Y16800D02*
X16800Y17000D01*
X16800Y17000D02*
X16100Y17000D01*
X16100Y17000D02*
X16200Y17000D01*
X16200Y17000D02*
X16200Y17200D01*
X16200Y17200D02*
X16600Y17200D01*
X16600Y17200D02*
X16600Y17400D01*
X16600Y17400D02*
X16200Y17400D01*
X16200Y17400D02*
X16200Y17600D01*
X16200Y17600D02*
X16400Y17600D01*
X16400Y17600D02*
X16400Y17900D01*
X16400Y17900D02*
X16400Y17800D01*
X16400Y17800D02*
X16200Y17800D01*
X13400Y18400D02*
X15600Y18400D01*
X15600Y18400D02*
X15600Y18600D01*
X15600Y18600D02*
X13800Y18600D01*
X13000Y18200D02*
X13000Y18400D01*
X13000Y18400D02*
X13400Y18400D01*
X13400Y18400D02*
X13400Y18600D01*
X13400Y18600D02*
X13800Y18600D01*
X13800Y18600D02*
X13800Y18800D01*
X13800Y18800D02*
X15200Y18800D01*
X15200Y18800D02*
X15200Y18600D01*
X15200Y18600D02*
X15600Y18600D01*
X15600Y18600D02*
X15600Y18400D01*
X15600Y18400D02*
X16000Y18400D01*
X16000Y18400D02*
X16000Y18200D01*
X16000Y18200D02*
X15800Y18200D01*
X15800Y18200D02*
X15800Y18400D01*
X15800Y18400D02*
X15600Y18400D01*
X15600Y18400D02*
X15600Y18200D01*
X15600Y18200D02*
X15400Y18200D01*
X15400Y18200D02*
X15400Y18600D01*
X15400Y18600D02*
X15200Y18600D01*
X15200Y18600D02*
X15200Y18200D01*
X15200Y18200D02*
X15000Y18200D01*
X15000Y18200D02*
X15000Y18800D01*
X15000Y18800D02*
X14800Y18800D01*
X14800Y18800D02*
X14800Y18200D01*
X14800Y18200D02*
X14600Y18200D01*
X14600Y18200D02*
X14600Y18800D01*
X14600Y18800D02*
X14400Y18800D01*
X14400Y18800D02*
X14400Y18200D01*
X14400Y18200D02*
X14200Y18200D01*
X14200Y18200D02*
X14200Y18800D01*
X14200Y18800D02*
X14000Y18800D01*
X14000Y18800D02*
X14000Y18200D01*
X14000Y18200D02*
X13800Y18200D01*
X13800Y18200D02*
X13800Y18600D01*
X13800Y18600D02*
X13600Y18600D01*
X13600Y18600D02*
X13600Y18200D01*
X13600Y18200D02*
X13400Y18200D01*
X13400Y18200D02*
X13400Y18400D01*
X13400Y18400D02*
X13200Y18400D01*
X13200Y18400D02*
X13200Y18200D01*
X12200Y16000D02*
X12800Y16000D01*
X12800Y16000D02*
X12800Y15800D01*
X12800Y15800D02*
X12400Y15800D01*
X12400Y15800D02*
X12400Y15600D01*
X12400Y15600D02*
X12800Y15600D01*
X12800Y15600D02*
X12800Y15400D01*
X12800Y15400D02*
X12500Y15400D01*
X12500Y15400D02*
X12600Y15400D01*
X12600Y15400D02*
X12600Y15200D01*
X12600Y15200D02*
X12800Y15200D01*
X12800Y17800D02*
X12600Y17800D01*
X12600Y17800D02*
X12600Y17600D01*
X12600Y17600D02*
X12800Y17600D01*
X12800Y17600D02*
X12800Y17400D01*
X12800Y17400D02*
X12400Y17400D01*
X12400Y17400D02*
X12400Y17200D01*
X12400Y17200D02*
X12800Y17200D01*
X12800Y17200D02*
X12800Y17000D01*
X12800Y17000D02*
X12200Y17000D01*
X12200Y17000D02*
X12200Y16800D01*
X12200Y16800D02*
X12800Y16800D01*
X12800Y16800D02*
X12800Y16600D01*
X12800Y16600D02*
X12200Y16600D01*
X12200Y16600D02*
X12200Y16400D01*
X12200Y16400D02*
X12800Y16400D01*
X12800Y16400D02*
X12800Y16200D01*
X12800Y16200D02*
X12200Y16200D01*
X12400Y17200D02*
X12200Y17200D01*
X12200Y17200D02*
X12200Y16200D01*
X12200Y16200D02*
X12200Y16000D01*
X12200Y16000D02*
X12200Y15800D01*
X12200Y15800D02*
X12400Y15800D01*
X12600Y15400D02*
X12400Y15400D01*
X12400Y15400D02*
X12400Y15800D01*
X12400Y15800D02*
X12400Y17200D01*
X12400Y17200D02*
X12400Y17600D01*
X12400Y17600D02*
X12600Y17600D01*
X12800Y18000D02*
X12600Y18000D01*
X12600Y18000D02*
X12600Y17600D01*
X12600Y17600D02*
X12600Y15400D01*
X12600Y15400D02*
X12600Y15000D01*
X12600Y15000D02*
X12800Y15000D01*
X13000Y18200D02*
X13000Y14800D01*
X13000Y14800D02*
X13200Y14800D01*
X13200Y14800D02*
X13200Y18200D01*
X13200Y18200D02*
X13400Y18200D01*
X13400Y18200D02*
X13400Y14800D01*
X13400Y14800D02*
X13600Y14800D01*
X13600Y14800D02*
X13600Y18200D01*
X13600Y18200D02*
X13800Y18200D01*
X13800Y18200D02*
X13800Y14800D01*
X13800Y14800D02*
X14000Y14800D01*
X14000Y14800D02*
X14000Y18200D01*
X14000Y18200D02*
X14200Y18200D01*
X14200Y18200D02*
X14200Y14800D01*
X14200Y14800D02*
X14400Y14800D01*
X14400Y14800D02*
X14400Y18200D01*
X14400Y18200D02*
X14600Y18200D01*
X14600Y18200D02*
X14600Y14800D01*
X14600Y14800D02*
X14800Y14800D01*
X14800Y14800D02*
X14800Y18200D01*
X14800Y18200D02*
X15000Y18200D01*
X15000Y18200D02*
X15000Y14800D01*
X15000Y14800D02*
X15200Y14800D01*
X15200Y14800D02*
X15200Y18200D01*
X15200Y18200D02*
X15400Y18200D01*
X15400Y18200D02*
X15400Y14800D01*
X15400Y14800D02*
X15600Y14800D01*
X15600Y14800D02*
X15600Y18200D01*
X15600Y18200D02*
X15800Y18200D01*
X15800Y18200D02*
X15800Y14800D01*
X15800Y14800D02*
X16000Y14800D01*
X16000Y14800D02*
X16000Y18200D01*
X12800Y17600D02*
X16200Y17600D01*
X16200Y17600D02*
X16200Y17400D01*
X16200Y17400D02*
X12800Y17400D01*
X12800Y17400D02*
X12800Y17200D01*
X12800Y17200D02*
X16200Y17200D01*
X16200Y17200D02*
X16200Y16900D01*
X16200Y16900D02*
X16200Y17000D01*
X16200Y17000D02*
X12800Y17000D01*
X12800Y17000D02*
X12800Y16800D01*
X12800Y16800D02*
X16200Y16800D01*
X16200Y16800D02*
X16200Y16600D01*
X16200Y16600D02*
X12800Y16600D01*
X12800Y16600D02*
X12800Y16400D01*
X12800Y16400D02*
X16200Y16400D01*
X16200Y16400D02*
X16200Y16200D01*
X16200Y16200D02*
X12800Y16200D01*
X12800Y16200D02*
X12800Y16000D01*
X12800Y16000D02*
X16200Y16000D01*
X16200Y16000D02*
X16200Y15800D01*
X16200Y15800D02*
X12800Y15800D01*
X12800Y15800D02*
X12800Y15600D01*
X12800Y15600D02*
X16200Y15600D01*
X16200Y15600D02*
X16200Y15400D01*
X16200Y15400D02*
X12800Y15400D01*
X12800Y15400D02*
X12800Y15200D01*
X12800Y15200D02*
X16200Y15200D01*
X16200Y15200D02*
X16200Y15000D01*
X16200Y15000D02*
X12800Y15000D01*
X16200Y17800D02*
X12800Y17800D01*
X12800Y18000D02*
X16200Y18000D01*
X12800Y18200D02*
X12800Y18000D01*
X12800Y18000D02*
X12800Y17800D01*
X12800Y17800D02*
X12800Y17600D01*
X12800Y17600D02*
X12800Y15000D01*
X12800Y15000D02*
X12800Y14800D01*
X12800Y14800D02*
X16200Y14800D01*
X16200Y14800D02*
X16200Y17800D01*
X16200Y17800D02*
X16200Y18000D01*
X16200Y18000D02*
X16200Y18200D01*
X16200Y18200D02*
X16000Y18200D01*
X16000Y18200D02*
X13000Y18200D01*
X13000Y18200D02*
X12800Y18200D01*
X18500Y18200D02*
X18300Y18200D01*
X21500Y18200D02*
X18500Y18200D01*
X21700Y18200D02*
X21500Y18200D01*
X21700Y18000D02*
X21700Y18200D01*
X21700Y17800D02*
X21700Y18000D01*
X21700Y14800D02*
X21700Y17800D01*
X18300Y14800D02*
X21700Y14800D01*
X18300Y15000D02*
X18300Y14800D01*
X18300Y17600D02*
X18300Y15000D01*
X18300Y17800D02*
X18300Y17600D01*
X18300Y18000D02*
X18300Y17800D01*
X18300Y18200D02*
X18300Y18000D01*
X18300Y18000D02*
X21700Y18000D01*
X21700Y17800D02*
X18300Y17800D01*
X21700Y15000D02*
X18300Y15000D01*
X21700Y15200D02*
X21700Y15000D01*
X18300Y15200D02*
X21700Y15200D01*
X18300Y15400D02*
X18300Y15200D01*
X21700Y15400D02*
X18300Y15400D01*
X21700Y15600D02*
X21700Y15400D01*
X18300Y15600D02*
X21700Y15600D01*
X18300Y15800D02*
X18300Y15600D01*
X21700Y15800D02*
X18300Y15800D01*
X21700Y16000D02*
X21700Y15800D01*
X18300Y16000D02*
X21700Y16000D01*
X18300Y16200D02*
X18300Y16000D01*
X21700Y16200D02*
X18300Y16200D01*
X21700Y16400D02*
X21700Y16200D01*
X18300Y16400D02*
X21700Y16400D01*
X18300Y16600D02*
X18300Y16400D01*
X21700Y16600D02*
X18300Y16600D01*
X21700Y16800D02*
X21700Y16600D01*
X18300Y16800D02*
X21700Y16800D01*
X18300Y17000D02*
X18300Y16800D01*
X21700Y17000D02*
X18300Y17000D01*
X21700Y16900D02*
X21700Y17000D01*
X21700Y17200D02*
X21700Y16900D01*
X18300Y17200D02*
X21700Y17200D01*
X18300Y17400D02*
X18300Y17200D01*
X21700Y17400D02*
X18300Y17400D01*
X21700Y17600D02*
X21700Y17400D01*
X18300Y17600D02*
X21700Y17600D01*
X21500Y14800D02*
X21500Y18200D01*
X21300Y14800D02*
X21500Y14800D01*
X21300Y18200D02*
X21300Y14800D01*
X21100Y18200D02*
X21300Y18200D01*
X21100Y14800D02*
X21100Y18200D01*
X20900Y14800D02*
X21100Y14800D01*
X20900Y18200D02*
X20900Y14800D01*
X20700Y18200D02*
X20900Y18200D01*
X20700Y14800D02*
X20700Y18200D01*
X20500Y14800D02*
X20700Y14800D01*
X20500Y18200D02*
X20500Y14800D01*
X20300Y18200D02*
X20500Y18200D01*
X20300Y14800D02*
X20300Y18200D01*
X20100Y14800D02*
X20300Y14800D01*
X20100Y18200D02*
X20100Y14800D01*
X19900Y18200D02*
X20100Y18200D01*
X19900Y14800D02*
X19900Y18200D01*
X19700Y14800D02*
X19900Y14800D01*
X19700Y18200D02*
X19700Y14800D01*
X19500Y18200D02*
X19700Y18200D01*
X19500Y14800D02*
X19500Y18200D01*
X19300Y14800D02*
X19500Y14800D01*
X19300Y18200D02*
X19300Y14800D01*
X19100Y18200D02*
X19300Y18200D01*
X19100Y14800D02*
X19100Y18200D01*
X18900Y14800D02*
X19100Y14800D01*
X18900Y18200D02*
X18900Y14800D01*
X18700Y18200D02*
X18900Y18200D01*
X18700Y14800D02*
X18700Y18200D01*
X18500Y14800D02*
X18700Y14800D01*
X18500Y18200D02*
X18500Y14800D01*
X18100Y15000D02*
X18300Y15000D01*
X18100Y15400D02*
X18100Y15000D01*
X18100Y17600D02*
X18100Y15400D01*
X18100Y18000D02*
X18100Y17600D01*
X18300Y18000D02*
X18100Y18000D01*
X17900Y17600D02*
X18100Y17600D01*
X17900Y17200D02*
X17900Y17600D01*
X17900Y15800D02*
X17900Y17200D01*
X17900Y15400D02*
X17900Y15800D01*
X18100Y15400D02*
X17900Y15400D01*
X17700Y15800D02*
X17900Y15800D01*
X17700Y16000D02*
X17700Y15800D01*
X17700Y16200D02*
X17700Y16000D01*
X17700Y17200D02*
X17700Y16200D01*
X17900Y17200D02*
X17700Y17200D01*
X18300Y16200D02*
X17700Y16200D01*
X18300Y16400D02*
X18300Y16200D01*
X17700Y16400D02*
X18300Y16400D01*
X17700Y16600D02*
X17700Y16400D01*
X18300Y16600D02*
X17700Y16600D01*
X18300Y16800D02*
X18300Y16600D01*
X17700Y16800D02*
X18300Y16800D01*
X17700Y17000D02*
X17700Y16800D01*
X18300Y17000D02*
X17700Y17000D01*
X18300Y17200D02*
X18300Y17000D01*
X17900Y17200D02*
X18300Y17200D01*
X17900Y17400D02*
X17900Y17200D01*
X18300Y17400D02*
X17900Y17400D01*
X18300Y17600D02*
X18300Y17400D01*
X18100Y17600D02*
X18300Y17600D01*
X18100Y17800D02*
X18100Y17600D01*
X18300Y17800D02*
X18100Y17800D01*
X18100Y15200D02*
X18300Y15200D01*
X18100Y15400D02*
X18100Y15200D01*
X18000Y15400D02*
X18100Y15400D01*
X18300Y15400D02*
X18000Y15400D01*
X18300Y15600D02*
X18300Y15400D01*
X17900Y15600D02*
X18300Y15600D01*
X17900Y15800D02*
X17900Y15600D01*
X18300Y15800D02*
X17900Y15800D01*
X18300Y16000D02*
X18300Y15800D01*
X17700Y16000D02*
X18300Y16000D01*
X18700Y18400D02*
X18700Y18200D01*
X18900Y18400D02*
X18700Y18400D01*
X18900Y18200D02*
X18900Y18400D01*
X19100Y18200D02*
X18900Y18200D01*
X19100Y18600D02*
X19100Y18200D01*
X19300Y18600D02*
X19100Y18600D01*
X19300Y18200D02*
X19300Y18600D01*
X19500Y18200D02*
X19300Y18200D01*
X19500Y18800D02*
X19500Y18200D01*
X19700Y18800D02*
X19500Y18800D01*
X19700Y18200D02*
X19700Y18800D01*
X19900Y18200D02*
X19700Y18200D01*
X19900Y18800D02*
X19900Y18200D01*
X20100Y18800D02*
X19900Y18800D01*
X20100Y18200D02*
X20100Y18800D01*
X20300Y18200D02*
X20100Y18200D01*
X20300Y18800D02*
X20300Y18200D01*
X20500Y18800D02*
X20300Y18800D01*
X20500Y18200D02*
X20500Y18800D01*
X20700Y18200D02*
X20500Y18200D01*
X20700Y18600D02*
X20700Y18200D01*
X20900Y18600D02*
X20700Y18600D01*
X20900Y18200D02*
X20900Y18600D01*
X21100Y18200D02*
X20900Y18200D01*
X21100Y18400D02*
X21100Y18200D01*
X21300Y18400D02*
X21100Y18400D01*
X21300Y18200D02*
X21300Y18400D01*
X21500Y18200D02*
X21300Y18200D01*
X21500Y18400D02*
X21500Y18200D01*
X21100Y18400D02*
X21500Y18400D01*
X21100Y18600D02*
X21100Y18400D01*
X20700Y18600D02*
X21100Y18600D01*
X20700Y18800D02*
X20700Y18600D01*
X19300Y18800D02*
X20700Y18800D01*
X19300Y18600D02*
X19300Y18800D01*
X18900Y18600D02*
X19300Y18600D01*
X18900Y18400D02*
X18900Y18600D01*
X18500Y18400D02*
X18900Y18400D01*
X18500Y18200D02*
X18500Y18400D01*
X21100Y18600D02*
X19300Y18600D01*
X21100Y18400D02*
X21100Y18600D01*
X18900Y18400D02*
X21100Y18400D01*
X21900Y17800D02*
X21700Y17800D01*
X21900Y17900D02*
X21900Y17800D01*
X21900Y17600D02*
X21900Y17900D01*
X21700Y17600D02*
X21900Y17600D01*
X21700Y17400D02*
X21700Y17600D01*
X22100Y17400D02*
X21700Y17400D01*
X22100Y17200D02*
X22100Y17400D01*
X21700Y17200D02*
X22100Y17200D01*
X21700Y17000D02*
X21700Y17200D01*
X21600Y17000D02*
X21700Y17000D01*
X22300Y17000D02*
X21600Y17000D01*
X22300Y16800D02*
X22300Y17000D01*
X21700Y16800D02*
X22300Y16800D01*
X21700Y16600D02*
X21700Y16800D01*
X22300Y16600D02*
X21700Y16600D01*
X22300Y16400D02*
X22300Y16600D01*
X21700Y16400D02*
X22300Y16400D01*
X21700Y16200D02*
X21700Y16400D01*
X22300Y16200D02*
X21700Y16200D01*
X22300Y16000D02*
X22300Y16200D01*
X21700Y16000D02*
X22300Y16000D01*
X21700Y15800D02*
X21700Y16000D01*
X22100Y15800D02*
X21700Y15800D01*
X22100Y15600D02*
X22100Y15800D01*
X21700Y15600D02*
X22100Y15600D01*
X21700Y15400D02*
X21700Y15600D01*
X21900Y15400D02*
X21700Y15400D01*
X21900Y15200D02*
X21900Y15400D01*
X21700Y15200D02*
X21900Y15200D01*
X21700Y15100D02*
X21700Y15200D01*
X21700Y15000D02*
X21700Y15100D01*
X21900Y15000D02*
X21700Y15000D01*
X21900Y15400D02*
X21900Y15000D01*
X22100Y15400D02*
X21900Y15400D01*
X22100Y15800D02*
X22100Y15400D01*
X22300Y15800D02*
X22100Y15800D01*
X22300Y17200D02*
X22300Y15800D01*
X22100Y17200D02*
X22300Y17200D01*
X22100Y17600D02*
X22100Y17200D01*
X21900Y17600D02*
X22100Y17600D01*
X21900Y18000D02*
X21900Y17600D01*
X21700Y18000D02*
X21900Y18000D01*
X22100Y15400D02*
X22100Y17200D01*
X21900Y15400D02*
X22100Y15400D01*
X21900Y17600D02*
X21900Y15400D01*
X18700Y14600D02*
X18700Y14800D01*
X18900Y14600D02*
X18700Y14600D01*
X18900Y14800D02*
X18900Y14600D01*
X19100Y14800D02*
X18900Y14800D01*
X19100Y14400D02*
X19100Y14800D01*
X19300Y14400D02*
X19100Y14400D01*
X19300Y14800D02*
X19300Y14400D01*
X19500Y14800D02*
X19300Y14800D01*
X19500Y14200D02*
X19500Y14800D01*
X19700Y14200D02*
X19500Y14200D01*
X19700Y14800D02*
X19700Y14200D01*
X19900Y14800D02*
X19700Y14800D01*
X19900Y14200D02*
X19900Y14800D01*
X20100Y14200D02*
X19900Y14200D01*
X20100Y14800D02*
X20100Y14200D01*
X20300Y14800D02*
X20100Y14800D01*
X20300Y14200D02*
X20300Y14800D01*
X20500Y14200D02*
X20300Y14200D01*
X20500Y14800D02*
X20500Y14200D01*
X20700Y14800D02*
X20500Y14800D01*
X20700Y14400D02*
X20700Y14800D01*
X20900Y14400D02*
X20700Y14400D01*
X20900Y14800D02*
X20900Y14400D01*
X21100Y14800D02*
X20900Y14800D01*
X21100Y14600D02*
X21100Y14800D01*
X21300Y14600D02*
X21100Y14600D01*
X21300Y14800D02*
X21300Y14600D01*
X21500Y14800D02*
X21300Y14800D01*
X21500Y14600D02*
X21500Y14800D01*
X21100Y14600D02*
X21500Y14600D01*
X21100Y14400D02*
X21100Y14600D01*
X20700Y14400D02*
X21100Y14400D01*
X20700Y14200D02*
X20700Y14400D01*
X19300Y14200D02*
X20700Y14200D01*
X19300Y14400D02*
X19300Y14200D01*
X18900Y14400D02*
X19300Y14400D01*
X18900Y14600D02*
X18900Y14400D01*
X18500Y14600D02*
X18900Y14600D01*
X18500Y14800D02*
X18500Y14600D01*
X21100Y14400D02*
X19300Y14400D01*
X21100Y14600D02*
X21100Y14400D01*
X18900Y14600D02*
X21100Y14600D01*
X7900Y14600D02*
X10100Y14600D01*
X10100Y14600D02*
X10100Y14400D01*
X10100Y14400D02*
X8300Y14400D01*
X7500Y14800D02*
X7500Y14600D01*
X7500Y14600D02*
X7900Y14600D01*
X7900Y14600D02*
X7900Y14400D01*
X7900Y14400D02*
X8300Y14400D01*
X8300Y14400D02*
X8300Y14200D01*
X8300Y14200D02*
X9700Y14200D01*
X9700Y14200D02*
X9700Y14400D01*
X9700Y14400D02*
X10100Y14400D01*
X10100Y14400D02*
X10100Y14600D01*
X10100Y14600D02*
X10500Y14600D01*
X10500Y14600D02*
X10500Y14800D01*
X10500Y14800D02*
X10300Y14800D01*
X10300Y14800D02*
X10300Y14600D01*
X10300Y14600D02*
X10100Y14600D01*
X10100Y14600D02*
X10100Y14800D01*
X10100Y14800D02*
X9900Y14800D01*
X9900Y14800D02*
X9900Y14400D01*
X9900Y14400D02*
X9700Y14400D01*
X9700Y14400D02*
X9700Y14800D01*
X9700Y14800D02*
X9500Y14800D01*
X9500Y14800D02*
X9500Y14200D01*
X9500Y14200D02*
X9300Y14200D01*
X9300Y14200D02*
X9300Y14800D01*
X9300Y14800D02*
X9100Y14800D01*
X9100Y14800D02*
X9100Y14200D01*
X9100Y14200D02*
X8900Y14200D01*
X8900Y14200D02*
X8900Y14800D01*
X8900Y14800D02*
X8700Y14800D01*
X8700Y14800D02*
X8700Y14200D01*
X8700Y14200D02*
X8500Y14200D01*
X8500Y14200D02*
X8500Y14800D01*
X8500Y14800D02*
X8300Y14800D01*
X8300Y14800D02*
X8300Y14400D01*
X8300Y14400D02*
X8100Y14400D01*
X8100Y14400D02*
X8100Y14800D01*
X8100Y14800D02*
X7900Y14800D01*
X7900Y14800D02*
X7900Y14600D01*
X7900Y14600D02*
X7700Y14600D01*
X7700Y14600D02*
X7700Y14800D01*
X10900Y17600D02*
X10900Y15400D01*
X10900Y15400D02*
X11100Y15400D01*
X11100Y15400D02*
X11100Y17200D01*
X10700Y18000D02*
X10900Y18000D01*
X10900Y18000D02*
X10900Y17600D01*
X10900Y17600D02*
X11100Y17600D01*
X11100Y17600D02*
X11100Y17200D01*
X11100Y17200D02*
X11300Y17200D01*
X11300Y17200D02*
X11300Y15800D01*
X11300Y15800D02*
X11100Y15800D01*
X11100Y15800D02*
X11100Y15400D01*
X11100Y15400D02*
X10900Y15400D01*
X10900Y15400D02*
X10900Y15000D01*
X10900Y15000D02*
X10700Y15000D01*
X10700Y15000D02*
X10700Y15100D01*
X10700Y15100D02*
X10700Y15200D01*
X10700Y15200D02*
X10900Y15200D01*
X10900Y15200D02*
X10900Y15400D01*
X10900Y15400D02*
X10700Y15400D01*
X10700Y15400D02*
X10700Y15600D01*
X10700Y15600D02*
X11100Y15600D01*
X11100Y15600D02*
X11100Y15800D01*
X11100Y15800D02*
X10700Y15800D01*
X10700Y15800D02*
X10700Y16000D01*
X10700Y16000D02*
X11300Y16000D01*
X11300Y16000D02*
X11300Y16200D01*
X11300Y16200D02*
X10700Y16200D01*
X10700Y16200D02*
X10700Y16400D01*
X10700Y16400D02*
X11300Y16400D01*
X11300Y16400D02*
X11300Y16600D01*
X11300Y16600D02*
X10700Y16600D01*
X10700Y16600D02*
X10700Y16800D01*
X10700Y16800D02*
X11300Y16800D01*
X11300Y16800D02*
X11300Y17000D01*
X11300Y17000D02*
X10600Y17000D01*
X10600Y17000D02*
X10700Y17000D01*
X10700Y17000D02*
X10700Y17200D01*
X10700Y17200D02*
X11100Y17200D01*
X11100Y17200D02*
X11100Y17400D01*
X11100Y17400D02*
X10700Y17400D01*
X10700Y17400D02*
X10700Y17600D01*
X10700Y17600D02*
X10900Y17600D01*
X10900Y17600D02*
X10900Y17900D01*
X10900Y17900D02*
X10900Y17800D01*
X10900Y17800D02*
X10700Y17800D01*
X7900Y18400D02*
X10100Y18400D01*
X10100Y18400D02*
X10100Y18600D01*
X10100Y18600D02*
X8300Y18600D01*
X7500Y18200D02*
X7500Y18400D01*
X7500Y18400D02*
X7900Y18400D01*
X7900Y18400D02*
X7900Y18600D01*
X7900Y18600D02*
X8300Y18600D01*
X8300Y18600D02*
X8300Y18800D01*
X8300Y18800D02*
X9700Y18800D01*
X9700Y18800D02*
X9700Y18600D01*
X9700Y18600D02*
X10100Y18600D01*
X10100Y18600D02*
X10100Y18400D01*
X10100Y18400D02*
X10500Y18400D01*
X10500Y18400D02*
X10500Y18200D01*
X10500Y18200D02*
X10300Y18200D01*
X10300Y18200D02*
X10300Y18400D01*
X10300Y18400D02*
X10100Y18400D01*
X10100Y18400D02*
X10100Y18200D01*
X10100Y18200D02*
X9900Y18200D01*
X9900Y18200D02*
X9900Y18600D01*
X9900Y18600D02*
X9700Y18600D01*
X9700Y18600D02*
X9700Y18200D01*
X9700Y18200D02*
X9500Y18200D01*
X9500Y18200D02*
X9500Y18800D01*
X9500Y18800D02*
X9300Y18800D01*
X9300Y18800D02*
X9300Y18200D01*
X9300Y18200D02*
X9100Y18200D01*
X9100Y18200D02*
X9100Y18800D01*
X9100Y18800D02*
X8900Y18800D01*
X8900Y18800D02*
X8900Y18200D01*
X8900Y18200D02*
X8700Y18200D01*
X8700Y18200D02*
X8700Y18800D01*
X8700Y18800D02*
X8500Y18800D01*
X8500Y18800D02*
X8500Y18200D01*
X8500Y18200D02*
X8300Y18200D01*
X8300Y18200D02*
X8300Y18600D01*
X8300Y18600D02*
X8100Y18600D01*
X8100Y18600D02*
X8100Y18200D01*
X8100Y18200D02*
X7900Y18200D01*
X7900Y18200D02*
X7900Y18400D01*
X7900Y18400D02*
X7700Y18400D01*
X7700Y18400D02*
X7700Y18200D01*
X6700Y16000D02*
X7300Y16000D01*
X7300Y16000D02*
X7300Y15800D01*
X7300Y15800D02*
X6900Y15800D01*
X6900Y15800D02*
X6900Y15600D01*
X6900Y15600D02*
X7300Y15600D01*
X7300Y15600D02*
X7300Y15400D01*
X7300Y15400D02*
X7000Y15400D01*
X7000Y15400D02*
X7100Y15400D01*
X7100Y15400D02*
X7100Y15200D01*
X7100Y15200D02*
X7300Y15200D01*
X7300Y17800D02*
X7100Y17800D01*
X7100Y17800D02*
X7100Y17600D01*
X7100Y17600D02*
X7300Y17600D01*
X7300Y17600D02*
X7300Y17400D01*
X7300Y17400D02*
X6900Y17400D01*
X6900Y17400D02*
X6900Y17200D01*
X6900Y17200D02*
X7300Y17200D01*
X7300Y17200D02*
X7300Y17000D01*
X7300Y17000D02*
X6700Y17000D01*
X6700Y17000D02*
X6700Y16800D01*
X6700Y16800D02*
X7300Y16800D01*
X7300Y16800D02*
X7300Y16600D01*
X7300Y16600D02*
X6700Y16600D01*
X6700Y16600D02*
X6700Y16400D01*
X6700Y16400D02*
X7300Y16400D01*
X7300Y16400D02*
X7300Y16200D01*
X7300Y16200D02*
X6700Y16200D01*
X6900Y17200D02*
X6700Y17200D01*
X6700Y17200D02*
X6700Y16200D01*
X6700Y16200D02*
X6700Y16000D01*
X6700Y16000D02*
X6700Y15800D01*
X6700Y15800D02*
X6900Y15800D01*
X7100Y15400D02*
X6900Y15400D01*
X6900Y15400D02*
X6900Y15800D01*
X6900Y15800D02*
X6900Y17200D01*
X6900Y17200D02*
X6900Y17600D01*
X6900Y17600D02*
X7100Y17600D01*
X7300Y18000D02*
X7100Y18000D01*
X7100Y18000D02*
X7100Y17600D01*
X7100Y17600D02*
X7100Y15400D01*
X7100Y15400D02*
X7100Y15000D01*
X7100Y15000D02*
X7300Y15000D01*
X7500Y18200D02*
X7500Y14800D01*
X7500Y14800D02*
X7700Y14800D01*
X7700Y14800D02*
X7700Y18200D01*
X7700Y18200D02*
X7900Y18200D01*
X7900Y18200D02*
X7900Y14800D01*
X7900Y14800D02*
X8100Y14800D01*
X8100Y14800D02*
X8100Y18200D01*
X8100Y18200D02*
X8300Y18200D01*
X8300Y18200D02*
X8300Y14800D01*
X8300Y14800D02*
X8500Y14800D01*
X8500Y14800D02*
X8500Y18200D01*
X8500Y18200D02*
X8700Y18200D01*
X8700Y18200D02*
X8700Y14800D01*
X8700Y14800D02*
X8900Y14800D01*
X8900Y14800D02*
X8900Y18200D01*
X8900Y18200D02*
X9100Y18200D01*
X9100Y18200D02*
X9100Y14800D01*
X9100Y14800D02*
X9300Y14800D01*
X9300Y14800D02*
X9300Y18200D01*
X9300Y18200D02*
X9500Y18200D01*
X9500Y18200D02*
X9500Y14800D01*
X9500Y14800D02*
X9700Y14800D01*
X9700Y14800D02*
X9700Y18200D01*
X9700Y18200D02*
X9900Y18200D01*
X9900Y18200D02*
X9900Y14800D01*
X9900Y14800D02*
X10100Y14800D01*
X10100Y14800D02*
X10100Y18200D01*
X10100Y18200D02*
X10300Y18200D01*
X10300Y18200D02*
X10300Y14800D01*
X10300Y14800D02*
X10500Y14800D01*
X10500Y14800D02*
X10500Y18200D01*
X7300Y17600D02*
X10700Y17600D01*
X10700Y17600D02*
X10700Y17400D01*
X10700Y17400D02*
X7300Y17400D01*
X7300Y17400D02*
X7300Y17200D01*
X7300Y17200D02*
X10700Y17200D01*
X10700Y17200D02*
X10700Y16900D01*
X10700Y16900D02*
X10700Y17000D01*
X10700Y17000D02*
X7300Y17000D01*
X7300Y17000D02*
X7300Y16800D01*
X7300Y16800D02*
X10700Y16800D01*
X10700Y16800D02*
X10700Y16600D01*
X10700Y16600D02*
X7300Y16600D01*
X7300Y16600D02*
X7300Y16400D01*
X7300Y16400D02*
X10700Y16400D01*
X10700Y16400D02*
X10700Y16200D01*
X10700Y16200D02*
X7300Y16200D01*
X7300Y16200D02*
X7300Y16000D01*
X7300Y16000D02*
X10700Y16000D01*
X10700Y16000D02*
X10700Y15800D01*
X10700Y15800D02*
X7300Y15800D01*
X7300Y15800D02*
X7300Y15600D01*
X7300Y15600D02*
X10700Y15600D01*
X10700Y15600D02*
X10700Y15400D01*
X10700Y15400D02*
X7300Y15400D01*
X7300Y15400D02*
X7300Y15200D01*
X7300Y15200D02*
X10700Y15200D01*
X10700Y15200D02*
X10700Y15000D01*
X10700Y15000D02*
X7300Y15000D01*
X10700Y17800D02*
X7300Y17800D01*
X7300Y18000D02*
X10700Y18000D01*
X7300Y18200D02*
X7300Y18000D01*
X7300Y18000D02*
X7300Y17800D01*
X7300Y17800D02*
X7300Y17600D01*
X7300Y17600D02*
X7300Y15000D01*
X7300Y15000D02*
X7300Y14800D01*
X7300Y14800D02*
X10700Y14800D01*
X10700Y14800D02*
X10700Y17800D01*
X10700Y17800D02*
X10700Y18000D01*
X10700Y18000D02*
X10700Y18200D01*
X10700Y18200D02*
X10500Y18200D01*
X10500Y18200D02*
X7500Y18200D01*
X7500Y18200D02*
X7300Y18200D01*
X2000Y18200D02*
X1800Y18200D01*
X5000Y18200D02*
X2000Y18200D01*
X5200Y18200D02*
X5000Y18200D01*
X5200Y18000D02*
X5200Y18200D01*
X5200Y17800D02*
X5200Y18000D01*
X5200Y14800D02*
X5200Y17800D01*
X1800Y14800D02*
X5200Y14800D01*
X1800Y15000D02*
X1800Y14800D01*
X1800Y17600D02*
X1800Y15000D01*
X1800Y17800D02*
X1800Y17600D01*
X1800Y18000D02*
X1800Y17800D01*
X1800Y18200D02*
X1800Y18000D01*
X1800Y18000D02*
X5200Y18000D01*
X5200Y17800D02*
X1800Y17800D01*
X5200Y15000D02*
X1800Y15000D01*
X5200Y15200D02*
X5200Y15000D01*
X1800Y15200D02*
X5200Y15200D01*
X1800Y15400D02*
X1800Y15200D01*
X5200Y15400D02*
X1800Y15400D01*
X5200Y15600D02*
X5200Y15400D01*
X1800Y15600D02*
X5200Y15600D01*
X1800Y15800D02*
X1800Y15600D01*
X5200Y15800D02*
X1800Y15800D01*
X5200Y16000D02*
X5200Y15800D01*
X1800Y16000D02*
X5200Y16000D01*
X1800Y16200D02*
X1800Y16000D01*
X5200Y16200D02*
X1800Y16200D01*
X5200Y16400D02*
X5200Y16200D01*
X1800Y16400D02*
X5200Y16400D01*
X1800Y16600D02*
X1800Y16400D01*
X5200Y16600D02*
X1800Y16600D01*
X5200Y16800D02*
X5200Y16600D01*
X1800Y16800D02*
X5200Y16800D01*
X1800Y17000D02*
X1800Y16800D01*
X5200Y17000D02*
X1800Y17000D01*
X5200Y16900D02*
X5200Y17000D01*
X5200Y17200D02*
X5200Y16900D01*
X1800Y17200D02*
X5200Y17200D01*
X1800Y17400D02*
X1800Y17200D01*
X5200Y17400D02*
X1800Y17400D01*
X5200Y17600D02*
X5200Y17400D01*
X1800Y17600D02*
X5200Y17600D01*
X5000Y14800D02*
X5000Y18200D01*
X4800Y14800D02*
X5000Y14800D01*
X4800Y18200D02*
X4800Y14800D01*
X4600Y18200D02*
X4800Y18200D01*
X4600Y14800D02*
X4600Y18200D01*
X4400Y14800D02*
X4600Y14800D01*
X4400Y18200D02*
X4400Y14800D01*
X4200Y18200D02*
X4400Y18200D01*
X4200Y14800D02*
X4200Y18200D01*
X4000Y14800D02*
X4200Y14800D01*
X4000Y18200D02*
X4000Y14800D01*
X3800Y18200D02*
X4000Y18200D01*
X3800Y14800D02*
X3800Y18200D01*
X3600Y14800D02*
X3800Y14800D01*
X3600Y18200D02*
X3600Y14800D01*
X3400Y18200D02*
X3600Y18200D01*
X3400Y14800D02*
X3400Y18200D01*
X3200Y14800D02*
X3400Y14800D01*
X3200Y18200D02*
X3200Y14800D01*
X3000Y18200D02*
X3200Y18200D01*
X3000Y14800D02*
X3000Y18200D01*
X2800Y14800D02*
X3000Y14800D01*
X2800Y18200D02*
X2800Y14800D01*
X2600Y18200D02*
X2800Y18200D01*
X2600Y14800D02*
X2600Y18200D01*
X2400Y14800D02*
X2600Y14800D01*
X2400Y18200D02*
X2400Y14800D01*
X2200Y18200D02*
X2400Y18200D01*
X2200Y14800D02*
X2200Y18200D01*
X2000Y14800D02*
X2200Y14800D01*
X2000Y18200D02*
X2000Y14800D01*
X1600Y15000D02*
X1800Y15000D01*
X1600Y15400D02*
X1600Y15000D01*
X1600Y17600D02*
X1600Y15400D01*
X1600Y18000D02*
X1600Y17600D01*
X1800Y18000D02*
X1600Y18000D01*
X1400Y17600D02*
X1600Y17600D01*
X1400Y17200D02*
X1400Y17600D01*
X1400Y15800D02*
X1400Y17200D01*
X1400Y15400D02*
X1400Y15800D01*
X1600Y15400D02*
X1400Y15400D01*
X1200Y15800D02*
X1400Y15800D01*
X1200Y16000D02*
X1200Y15800D01*
X1200Y16200D02*
X1200Y16000D01*
X1200Y17200D02*
X1200Y16200D01*
X1400Y17200D02*
X1200Y17200D01*
X1800Y16200D02*
X1200Y16200D01*
X1800Y16400D02*
X1800Y16200D01*
X1200Y16400D02*
X1800Y16400D01*
X1200Y16600D02*
X1200Y16400D01*
X1800Y16600D02*
X1200Y16600D01*
X1800Y16800D02*
X1800Y16600D01*
X1200Y16800D02*
X1800Y16800D01*
X1200Y17000D02*
X1200Y16800D01*
X1800Y17000D02*
X1200Y17000D01*
X1800Y17200D02*
X1800Y17000D01*
X1400Y17200D02*
X1800Y17200D01*
X1400Y17400D02*
X1400Y17200D01*
X1800Y17400D02*
X1400Y17400D01*
X1800Y17600D02*
X1800Y17400D01*
X1600Y17600D02*
X1800Y17600D01*
X1600Y17800D02*
X1600Y17600D01*
X1800Y17800D02*
X1600Y17800D01*
X1600Y15200D02*
X1800Y15200D01*
X1600Y15400D02*
X1600Y15200D01*
X1500Y15400D02*
X1600Y15400D01*
X1800Y15400D02*
X1500Y15400D01*
X1800Y15600D02*
X1800Y15400D01*
X1400Y15600D02*
X1800Y15600D01*
X1400Y15800D02*
X1400Y15600D01*
X1800Y15800D02*
X1400Y15800D01*
X1800Y16000D02*
X1800Y15800D01*
X1200Y16000D02*
X1800Y16000D01*
X2200Y18400D02*
X2200Y18200D01*
X2400Y18400D02*
X2200Y18400D01*
X2400Y18200D02*
X2400Y18400D01*
X2600Y18200D02*
X2400Y18200D01*
X2600Y18600D02*
X2600Y18200D01*
X2800Y18600D02*
X2600Y18600D01*
X2800Y18200D02*
X2800Y18600D01*
X3000Y18200D02*
X2800Y18200D01*
X3000Y18800D02*
X3000Y18200D01*
X3200Y18800D02*
X3000Y18800D01*
X3200Y18200D02*
X3200Y18800D01*
X3400Y18200D02*
X3200Y18200D01*
X3400Y18800D02*
X3400Y18200D01*
X3600Y18800D02*
X3400Y18800D01*
X3600Y18200D02*
X3600Y18800D01*
X3800Y18200D02*
X3600Y18200D01*
X3800Y18800D02*
X3800Y18200D01*
X4000Y18800D02*
X3800Y18800D01*
X4000Y18200D02*
X4000Y18800D01*
X4200Y18200D02*
X4000Y18200D01*
X4200Y18600D02*
X4200Y18200D01*
X4400Y18600D02*
X4200Y18600D01*
X4400Y18200D02*
X4400Y18600D01*
X4600Y18200D02*
X4400Y18200D01*
X4600Y18400D02*
X4600Y18200D01*
X4800Y18400D02*
X4600Y18400D01*
X4800Y18200D02*
X4800Y18400D01*
X5000Y18200D02*
X4800Y18200D01*
X5000Y18400D02*
X5000Y18200D01*
X4600Y18400D02*
X5000Y18400D01*
X4600Y18600D02*
X4600Y18400D01*
X4200Y18600D02*
X4600Y18600D01*
X4200Y18800D02*
X4200Y18600D01*
X2800Y18800D02*
X4200Y18800D01*
X2800Y18600D02*
X2800Y18800D01*
X2400Y18600D02*
X2800Y18600D01*
X2400Y18400D02*
X2400Y18600D01*
X2000Y18400D02*
X2400Y18400D01*
X2000Y18200D02*
X2000Y18400D01*
X4600Y18600D02*
X2800Y18600D01*
X4600Y18400D02*
X4600Y18600D01*
X2400Y18400D02*
X4600Y18400D01*
X5400Y17800D02*
X5200Y17800D01*
X5400Y17900D02*
X5400Y17800D01*
X5400Y17600D02*
X5400Y17900D01*
X5200Y17600D02*
X5400Y17600D01*
X5200Y17400D02*
X5200Y17600D01*
X5600Y17400D02*
X5200Y17400D01*
X5600Y17200D02*
X5600Y17400D01*
X5200Y17200D02*
X5600Y17200D01*
X5200Y17000D02*
X5200Y17200D01*
X5100Y17000D02*
X5200Y17000D01*
X5800Y17000D02*
X5100Y17000D01*
X5800Y16800D02*
X5800Y17000D01*
X5200Y16800D02*
X5800Y16800D01*
X5200Y16600D02*
X5200Y16800D01*
X5800Y16600D02*
X5200Y16600D01*
X5800Y16400D02*
X5800Y16600D01*
X5200Y16400D02*
X5800Y16400D01*
X5200Y16200D02*
X5200Y16400D01*
X5800Y16200D02*
X5200Y16200D01*
X5800Y16000D02*
X5800Y16200D01*
X5200Y16000D02*
X5800Y16000D01*
X5200Y15800D02*
X5200Y16000D01*
X5600Y15800D02*
X5200Y15800D01*
X5600Y15600D02*
X5600Y15800D01*
X5200Y15600D02*
X5600Y15600D01*
X5200Y15400D02*
X5200Y15600D01*
X5400Y15400D02*
X5200Y15400D01*
X5400Y15200D02*
X5400Y15400D01*
X5200Y15200D02*
X5400Y15200D01*
X5200Y15100D02*
X5200Y15200D01*
X5200Y15000D02*
X5200Y15100D01*
X5400Y15000D02*
X5200Y15000D01*
X5400Y15400D02*
X5400Y15000D01*
X5600Y15400D02*
X5400Y15400D01*
X5600Y15800D02*
X5600Y15400D01*
X5800Y15800D02*
X5600Y15800D01*
X5800Y17200D02*
X5800Y15800D01*
X5600Y17200D02*
X5800Y17200D01*
X5600Y17600D02*
X5600Y17200D01*
X5400Y17600D02*
X5600Y17600D01*
X5400Y18000D02*
X5400Y17600D01*
X5200Y18000D02*
X5400Y18000D01*
X5600Y15400D02*
X5600Y17200D01*
X5400Y15400D02*
X5600Y15400D01*
X5400Y17600D02*
X5400Y15400D01*
X2200Y14600D02*
X2200Y14800D01*
X2400Y14600D02*
X2200Y14600D01*
X2400Y14800D02*
X2400Y14600D01*
X2600Y14800D02*
X2400Y14800D01*
X2600Y14400D02*
X2600Y14800D01*
X2800Y14400D02*
X2600Y14400D01*
X2800Y14800D02*
X2800Y14400D01*
X3000Y14800D02*
X2800Y14800D01*
X3000Y14200D02*
X3000Y14800D01*
X3200Y14200D02*
X3000Y14200D01*
X3200Y14800D02*
X3200Y14200D01*
X3400Y14800D02*
X3200Y14800D01*
X3400Y14200D02*
X3400Y14800D01*
X3600Y14200D02*
X3400Y14200D01*
X3600Y14800D02*
X3600Y14200D01*
X3800Y14800D02*
X3600Y14800D01*
X3800Y14200D02*
X3800Y14800D01*
X4000Y14200D02*
X3800Y14200D01*
X4000Y14800D02*
X4000Y14200D01*
X4200Y14800D02*
X4000Y14800D01*
X4200Y14400D02*
X4200Y14800D01*
X4400Y14400D02*
X4200Y14400D01*
X4400Y14800D02*
X4400Y14400D01*
X4600Y14800D02*
X4400Y14800D01*
X4600Y14600D02*
X4600Y14800D01*
X4800Y14600D02*
X4600Y14600D01*
X4800Y14800D02*
X4800Y14600D01*
X5000Y14800D02*
X4800Y14800D01*
X5000Y14600D02*
X5000Y14800D01*
X4600Y14600D02*
X5000Y14600D01*
X4600Y14400D02*
X4600Y14600D01*
X4200Y14400D02*
X4600Y14400D01*
X4200Y14200D02*
X4200Y14400D01*
X2800Y14200D02*
X4200Y14200D01*
X2800Y14400D02*
X2800Y14200D01*
X2400Y14400D02*
X2800Y14400D01*
X2400Y14600D02*
X2400Y14400D01*
X2000Y14600D02*
X2400Y14600D01*
X2000Y14800D02*
X2000Y14600D01*
X4600Y14400D02*
X2800Y14400D01*
X4600Y14600D02*
X4600Y14400D01*
X2400Y14600D02*
X4600Y14600D01*
X29300Y22200D02*
X29300Y22700D01*
X29300Y21300D02*
X29300Y21800D01*
X29300Y21300D02*
X31000Y22000D01*
X29300Y20800D02*
X29300Y21300D01*
X29300Y22700D02*
X31000Y22000D01*
X29300Y22700D02*
X29300Y23200D01*
X29300Y23200D02*
X31000Y22000D01*
X29300Y23200D02*
X29300Y23700D01*
X29300Y23700D02*
X31000Y22000D01*
X29300Y23700D02*
X29800Y23700D01*
X7900Y20100D02*
X10100Y20100D01*
X10100Y20100D02*
X10100Y19900D01*
X10100Y19900D02*
X8300Y19900D01*
X7500Y20300D02*
X7500Y20100D01*
X7500Y20100D02*
X7900Y20100D01*
X7900Y20100D02*
X7900Y19900D01*
X7900Y19900D02*
X8300Y19900D01*
X8300Y19900D02*
X8300Y19700D01*
X8300Y19700D02*
X9700Y19700D01*
X9700Y19700D02*
X9700Y19900D01*
X9700Y19900D02*
X10100Y19900D01*
X10100Y19900D02*
X10100Y20100D01*
X10100Y20100D02*
X10500Y20100D01*
X10500Y20100D02*
X10500Y20300D01*
X10500Y20300D02*
X10300Y20300D01*
X10300Y20300D02*
X10300Y20100D01*
X10300Y20100D02*
X10100Y20100D01*
X10100Y20100D02*
X10100Y20300D01*
X10100Y20300D02*
X9900Y20300D01*
X9900Y20300D02*
X9900Y19900D01*
X9900Y19900D02*
X9700Y19900D01*
X9700Y19900D02*
X9700Y20300D01*
X9700Y20300D02*
X9500Y20300D01*
X9500Y20300D02*
X9500Y19700D01*
X9500Y19700D02*
X9300Y19700D01*
X9300Y19700D02*
X9300Y20300D01*
X9300Y20300D02*
X9100Y20300D01*
X9100Y20300D02*
X9100Y19700D01*
X9100Y19700D02*
X8900Y19700D01*
X8900Y19700D02*
X8900Y20300D01*
X8900Y20300D02*
X8700Y20300D01*
X8700Y20300D02*
X8700Y19700D01*
X8700Y19700D02*
X8500Y19700D01*
X8500Y19700D02*
X8500Y20300D01*
X8500Y20300D02*
X8300Y20300D01*
X8300Y20300D02*
X8300Y19900D01*
X8300Y19900D02*
X8100Y19900D01*
X8100Y19900D02*
X8100Y20300D01*
X8100Y20300D02*
X7900Y20300D01*
X7900Y20300D02*
X7900Y20100D01*
X7900Y20100D02*
X7700Y20100D01*
X7700Y20100D02*
X7700Y20300D01*
X10900Y23100D02*
X10900Y20900D01*
X10900Y20900D02*
X11100Y20900D01*
X11100Y20900D02*
X11100Y22700D01*
X10700Y23500D02*
X10900Y23500D01*
X10900Y23500D02*
X10900Y23100D01*
X10900Y23100D02*
X11100Y23100D01*
X11100Y23100D02*
X11100Y22700D01*
X11100Y22700D02*
X11300Y22700D01*
X11300Y22700D02*
X11300Y21300D01*
X11300Y21300D02*
X11100Y21300D01*
X11100Y21300D02*
X11100Y20900D01*
X11100Y20900D02*
X10900Y20900D01*
X10900Y20900D02*
X10900Y20500D01*
X10900Y20500D02*
X10700Y20500D01*
X10700Y20500D02*
X10700Y20600D01*
X10700Y20600D02*
X10700Y20700D01*
X10700Y20700D02*
X10900Y20700D01*
X10900Y20700D02*
X10900Y20900D01*
X10900Y20900D02*
X10700Y20900D01*
X10700Y20900D02*
X10700Y21100D01*
X10700Y21100D02*
X11100Y21100D01*
X11100Y21100D02*
X11100Y21300D01*
X11100Y21300D02*
X10700Y21300D01*
X10700Y21300D02*
X10700Y21500D01*
X10700Y21500D02*
X11300Y21500D01*
X11300Y21500D02*
X11300Y21700D01*
X11300Y21700D02*
X10700Y21700D01*
X10700Y21700D02*
X10700Y21900D01*
X10700Y21900D02*
X11300Y21900D01*
X11300Y21900D02*
X11300Y22100D01*
X11300Y22100D02*
X10700Y22100D01*
X10700Y22100D02*
X10700Y22300D01*
X10700Y22300D02*
X11300Y22300D01*
X11300Y22300D02*
X11300Y22500D01*
X11300Y22500D02*
X10600Y22500D01*
X10600Y22500D02*
X10700Y22500D01*
X10700Y22500D02*
X10700Y22700D01*
X10700Y22700D02*
X11100Y22700D01*
X11100Y22700D02*
X11100Y22900D01*
X11100Y22900D02*
X10700Y22900D01*
X10700Y22900D02*
X10700Y23100D01*
X10700Y23100D02*
X10900Y23100D01*
X10900Y23100D02*
X10900Y23400D01*
X10900Y23400D02*
X10900Y23300D01*
X10900Y23300D02*
X10700Y23300D01*
X7900Y23900D02*
X10100Y23900D01*
X10100Y23900D02*
X10100Y24100D01*
X10100Y24100D02*
X8300Y24100D01*
X7500Y23700D02*
X7500Y23900D01*
X7500Y23900D02*
X7900Y23900D01*
X7900Y23900D02*
X7900Y24100D01*
X7900Y24100D02*
X8300Y24100D01*
X8300Y24100D02*
X8300Y24300D01*
X8300Y24300D02*
X9700Y24300D01*
X9700Y24300D02*
X9700Y24100D01*
X9700Y24100D02*
X10100Y24100D01*
X10100Y24100D02*
X10100Y23900D01*
X10100Y23900D02*
X10500Y23900D01*
X10500Y23900D02*
X10500Y23700D01*
X10500Y23700D02*
X10300Y23700D01*
X10300Y23700D02*
X10300Y23900D01*
X10300Y23900D02*
X10100Y23900D01*
X10100Y23900D02*
X10100Y23700D01*
X10100Y23700D02*
X9900Y23700D01*
X9900Y23700D02*
X9900Y24100D01*
X9900Y24100D02*
X9700Y24100D01*
X9700Y24100D02*
X9700Y23700D01*
X9700Y23700D02*
X9500Y23700D01*
X9500Y23700D02*
X9500Y24300D01*
X9500Y24300D02*
X9300Y24300D01*
X9300Y24300D02*
X9300Y23700D01*
X9300Y23700D02*
X9100Y23700D01*
X9100Y23700D02*
X9100Y24300D01*
X9100Y24300D02*
X8900Y24300D01*
X8900Y24300D02*
X8900Y23700D01*
X8900Y23700D02*
X8700Y23700D01*
X8700Y23700D02*
X8700Y24300D01*
X8700Y24300D02*
X8500Y24300D01*
X8500Y24300D02*
X8500Y23700D01*
X8500Y23700D02*
X8300Y23700D01*
X8300Y23700D02*
X8300Y24100D01*
X8300Y24100D02*
X8100Y24100D01*
X8100Y24100D02*
X8100Y23700D01*
X8100Y23700D02*
X7900Y23700D01*
X7900Y23700D02*
X7900Y23900D01*
X7900Y23900D02*
X7700Y23900D01*
X7700Y23900D02*
X7700Y23700D01*
X6700Y21500D02*
X7300Y21500D01*
X7300Y21500D02*
X7300Y21300D01*
X7300Y21300D02*
X6900Y21300D01*
X6900Y21300D02*
X6900Y21100D01*
X6900Y21100D02*
X7300Y21100D01*
X7300Y21100D02*
X7300Y20900D01*
X7300Y20900D02*
X7000Y20900D01*
X7000Y20900D02*
X7100Y20900D01*
X7100Y20900D02*
X7100Y20700D01*
X7100Y20700D02*
X7300Y20700D01*
X7300Y23300D02*
X7100Y23300D01*
X7100Y23300D02*
X7100Y23100D01*
X7100Y23100D02*
X7300Y23100D01*
X7300Y23100D02*
X7300Y22900D01*
X7300Y22900D02*
X6900Y22900D01*
X6900Y22900D02*
X6900Y22700D01*
X6900Y22700D02*
X7300Y22700D01*
X7300Y22700D02*
X7300Y22500D01*
X7300Y22500D02*
X6700Y22500D01*
X6700Y22500D02*
X6700Y22300D01*
X6700Y22300D02*
X7300Y22300D01*
X7300Y22300D02*
X7300Y22100D01*
X7300Y22100D02*
X6700Y22100D01*
X6700Y22100D02*
X6700Y21900D01*
X6700Y21900D02*
X7300Y21900D01*
X7300Y21900D02*
X7300Y21700D01*
X7300Y21700D02*
X6700Y21700D01*
X6900Y22700D02*
X6700Y22700D01*
X6700Y22700D02*
X6700Y21700D01*
X6700Y21700D02*
X6700Y21500D01*
X6700Y21500D02*
X6700Y21300D01*
X6700Y21300D02*
X6900Y21300D01*
X7100Y20900D02*
X6900Y20900D01*
X6900Y20900D02*
X6900Y21300D01*
X6900Y21300D02*
X6900Y22700D01*
X6900Y22700D02*
X6900Y23100D01*
X6900Y23100D02*
X7100Y23100D01*
X7300Y23500D02*
X7100Y23500D01*
X7100Y23500D02*
X7100Y23100D01*
X7100Y23100D02*
X7100Y20900D01*
X7100Y20900D02*
X7100Y20500D01*
X7100Y20500D02*
X7300Y20500D01*
X36400Y21900D02*
X36600Y22100D01*
X36400Y22100D02*
X36600Y21900D01*
X36400Y21900D02*
X36400Y22100D01*
X36600Y21900D02*
X36400Y21900D01*
X36600Y22100D02*
X36600Y21900D01*
X36400Y22100D02*
X36600Y22100D01*
X36200Y21700D02*
X36200Y22300D01*
X36800Y21700D02*
X36200Y21700D01*
X36800Y22300D02*
X36800Y21700D01*
X36200Y22300D02*
X36800Y22300D01*
X36000Y21500D02*
X36000Y22000D01*
X37000Y21500D02*
X36000Y21500D01*
X37000Y22500D02*
X37000Y21500D01*
X36000Y22500D02*
X37000Y22500D01*
X36000Y22000D02*
X36000Y22500D01*
X35800Y21300D02*
X35800Y22000D01*
X37200Y21300D02*
X35800Y21300D01*
X37200Y22700D02*
X37200Y21300D01*
X35800Y22700D02*
X37200Y22700D01*
X35800Y22000D02*
X35800Y22700D01*
X35600Y21100D02*
X35600Y22000D01*
X37400Y21100D02*
X35600Y21100D01*
X37400Y22900D02*
X37400Y21100D01*
X35600Y22900D02*
X37400Y22900D01*
X35600Y22000D02*
X35600Y22900D01*
X35400Y20900D02*
X35400Y22000D01*
X37600Y20900D02*
X35400Y20900D01*
X37600Y22000D02*
X37600Y20900D01*
X37600Y23100D02*
X37600Y22000D01*
X35400Y23100D02*
X37600Y23100D01*
X35400Y22000D02*
X35400Y23100D01*
X35200Y20700D02*
X35200Y22000D01*
X37800Y20700D02*
X35200Y20700D01*
X37800Y23300D02*
X37800Y20700D01*
X35200Y23300D02*
X37800Y23300D01*
X35200Y22000D02*
X35200Y23300D01*
X35000Y20500D02*
X35000Y22000D01*
X38000Y20500D02*
X35000Y20500D01*
X38000Y23500D02*
X38000Y20500D01*
X35000Y23500D02*
X38000Y23500D01*
X35000Y23400D02*
X35000Y23500D01*
X35000Y22000D02*
X35000Y23400D01*
X34800Y20300D02*
X34800Y23700D01*
X38200Y20300D02*
X34800Y20300D01*
X38200Y23700D02*
X38200Y20300D01*
X34800Y23700D02*
X38200Y23700D01*
X32700Y23200D02*
X31000Y22000D01*
X32700Y22700D02*
X31000Y22000D01*
X32700Y22200D02*
X31000Y22000D01*
X32700Y21800D02*
X31000Y22000D01*
X32700Y21300D02*
X31000Y22000D01*
X32700Y20800D02*
X31000Y22000D01*
X32700Y20300D02*
X31000Y22000D01*
X32200Y20300D02*
X31000Y22000D01*
X31700Y20300D02*
X31000Y22000D01*
X31200Y20300D02*
X31000Y22000D01*
X30800Y20300D02*
X31000Y22000D01*
X30300Y20300D02*
X31000Y22000D01*
X29800Y20300D02*
X31000Y22000D01*
X29300Y20800D02*
X31000Y22000D01*
X29300Y20300D02*
X31000Y22000D01*
X29300Y21800D02*
X31000Y22000D01*
X29300Y22200D02*
X31000Y22000D01*
X31700Y23700D02*
X31000Y22000D01*
X32200Y23700D02*
X31000Y22000D01*
X32700Y23700D02*
X31000Y22000D01*
X31200Y23700D02*
X31000Y22000D01*
X30800Y23700D02*
X31000Y22000D01*
X30300Y23700D02*
X31000Y22000D01*
X29800Y23700D02*
X31000Y22000D01*
X29800Y23700D02*
X30300Y23700D01*
X30300Y23700D02*
X30800Y23700D01*
X30800Y23700D02*
X31200Y23700D01*
X31200Y23700D02*
X31700Y23700D01*
X31700Y23700D02*
X32200Y23700D01*
X32200Y23700D02*
X32700Y23700D01*
X32700Y23700D02*
X32700Y23200D01*
X32700Y23200D02*
X32700Y22700D01*
X32700Y22700D02*
X32700Y22200D01*
X32700Y22200D02*
X32700Y21800D01*
X32700Y21800D02*
X32700Y21300D01*
X32700Y21300D02*
X32700Y20800D01*
X32700Y20800D02*
X32700Y20300D01*
X32700Y20300D02*
X32200Y20300D01*
X32200Y20300D02*
X31700Y20300D01*
X31700Y20300D02*
X31200Y20300D01*
X31200Y20300D02*
X30800Y20300D01*
X30800Y20300D02*
X30300Y20300D01*
X30300Y20300D02*
X29800Y20300D01*
X29800Y20300D02*
X29300Y20300D01*
X29300Y20300D02*
X29300Y20800D01*
X29300Y21800D02*
X29300Y22200D01*
X23800Y23700D02*
X27200Y23700D01*
X27200Y23700D02*
X27200Y20300D01*
X27200Y20300D02*
X23800Y20300D01*
X23800Y20300D02*
X23800Y23700D01*
X24000Y22000D02*
X24000Y23400D01*
X24000Y23400D02*
X24000Y23500D01*
X24000Y23500D02*
X27000Y23500D01*
X27000Y23500D02*
X27000Y20500D01*
X27000Y20500D02*
X24000Y20500D01*
X24000Y20500D02*
X24000Y22000D01*
X24200Y22000D02*
X24200Y23300D01*
X24200Y23300D02*
X26800Y23300D01*
X26800Y23300D02*
X26800Y20700D01*
X26800Y20700D02*
X24200Y20700D01*
X24200Y20700D02*
X24200Y22000D01*
X24400Y22000D02*
X24400Y23100D01*
X24400Y23100D02*
X26600Y23100D01*
X26600Y23100D02*
X26600Y22000D01*
X26600Y22000D02*
X26600Y20900D01*
X26600Y20900D02*
X24400Y20900D01*
X24400Y20900D02*
X24400Y22000D01*
X24600Y22000D02*
X24600Y22900D01*
X24600Y22900D02*
X26400Y22900D01*
X26400Y22900D02*
X26400Y21100D01*
X26400Y21100D02*
X24600Y21100D01*
X24600Y21100D02*
X24600Y22000D01*
X24800Y22000D02*
X24800Y22700D01*
X24800Y22700D02*
X26200Y22700D01*
X26200Y22700D02*
X26200Y21300D01*
X26200Y21300D02*
X24800Y21300D01*
X24800Y21300D02*
X24800Y22000D01*
X25000Y22000D02*
X25000Y22500D01*
X25000Y22500D02*
X26000Y22500D01*
X26000Y22500D02*
X26000Y21500D01*
X26000Y21500D02*
X25000Y21500D01*
X25000Y21500D02*
X25000Y22000D01*
X25200Y22300D02*
X25800Y22300D01*
X25800Y22300D02*
X25800Y21700D01*
X25800Y21700D02*
X25200Y21700D01*
X25200Y21700D02*
X25200Y22300D01*
X25400Y22100D02*
X25600Y22100D01*
X25600Y22100D02*
X25600Y21900D01*
X25600Y21900D02*
X25400Y21900D01*
X25400Y21900D02*
X25400Y22100D01*
X20000Y22000D02*
X21700Y20300D01*
X20000Y22000D02*
X18300Y20300D01*
X20000Y22000D02*
X21700Y23700D01*
X20000Y22000D02*
X18300Y23700D01*
X20000Y23700D02*
X20000Y22000D01*
X20000Y22000D02*
X20000Y20300D01*
X18300Y22000D02*
X21700Y22000D01*
X18600Y20300D02*
X18600Y23700D01*
X18600Y23700D02*
X18900Y23700D01*
X18900Y23700D02*
X18900Y20300D01*
X18900Y20300D02*
X19200Y20300D01*
X19200Y20300D02*
X19200Y23700D01*
X19200Y23700D02*
X19500Y23700D01*
X19500Y23700D02*
X19500Y20300D01*
X19500Y20300D02*
X19800Y20300D01*
X19800Y20300D02*
X19800Y23700D01*
X19800Y23700D02*
X20000Y23700D01*
X20000Y23700D02*
X20200Y23700D01*
X20200Y23700D02*
X20200Y20300D01*
X20200Y20300D02*
X20500Y20300D01*
X20500Y20300D02*
X20500Y23700D01*
X20500Y23700D02*
X20800Y23700D01*
X20800Y23700D02*
X20800Y20300D01*
X20800Y20300D02*
X21100Y20300D01*
X21100Y20300D02*
X21100Y23700D01*
X21100Y23700D02*
X21400Y23700D01*
X21400Y23700D02*
X21400Y20300D01*
X18300Y20900D02*
X21700Y20900D01*
X21700Y20900D02*
X21700Y20600D01*
X21700Y20600D02*
X18300Y20600D01*
X21700Y21800D02*
X18300Y21800D01*
X18300Y21800D02*
X18300Y21500D01*
X18300Y21500D02*
X21700Y21500D01*
X21700Y21500D02*
X21700Y21200D01*
X21700Y21200D02*
X18300Y21200D01*
X18300Y22200D02*
X21700Y22200D01*
X21700Y22200D02*
X21700Y22500D01*
X21700Y22500D02*
X18300Y22500D01*
X18300Y22500D02*
X18300Y22800D01*
X18300Y22800D02*
X21700Y22800D01*
X21700Y22800D02*
X21700Y23100D01*
X21700Y23100D02*
X18300Y23100D01*
X18300Y23100D02*
X18300Y23400D01*
X18300Y23400D02*
X21700Y23400D01*
X18300Y23700D02*
X21700Y23700D01*
X21700Y23700D02*
X21700Y23400D01*
X21700Y23400D02*
X21700Y22000D01*
X21700Y22000D02*
X21700Y21800D01*
X21700Y21800D02*
X21700Y20300D01*
X21700Y20300D02*
X21400Y20300D01*
X21400Y20300D02*
X20000Y20300D01*
X20000Y20300D02*
X18600Y20300D01*
X18600Y20300D02*
X18300Y20300D01*
X18300Y20300D02*
X18300Y20600D01*
X18300Y20600D02*
X18300Y20900D01*
X18300Y20900D02*
X18300Y21200D01*
X18300Y21200D02*
X18300Y22000D01*
X18300Y22000D02*
X18300Y22200D01*
X18300Y22200D02*
X18300Y23700D01*
X14100Y23700D02*
X14100Y20300D01*
X14100Y20300D02*
X13700Y20300D01*
X13700Y20300D02*
X13700Y23700D01*
X13700Y23700D02*
X13200Y23700D01*
X13200Y23700D02*
X13200Y20300D01*
X14400Y23700D02*
X14400Y20300D01*
X14400Y20300D02*
X14600Y20300D01*
X14600Y20300D02*
X14600Y23700D01*
X14600Y23700D02*
X14900Y23700D01*
X14900Y23700D02*
X14900Y20300D01*
X14900Y20300D02*
X15300Y20300D01*
X15300Y20300D02*
X15300Y23700D01*
X15300Y23700D02*
X15800Y23700D01*
X15800Y23700D02*
X15800Y20300D01*
X12800Y22400D02*
X16200Y22400D01*
X16200Y22400D02*
X16200Y22700D01*
X16200Y22700D02*
X16200Y22800D01*
X16200Y22800D02*
X12800Y22800D01*
X12800Y22800D02*
X12800Y23300D01*
X12800Y23300D02*
X16200Y23300D01*
X12800Y22100D02*
X16200Y22100D01*
X16200Y22100D02*
X16200Y21900D01*
X16200Y21900D02*
X12800Y21900D01*
X12800Y21900D02*
X12800Y21600D01*
X12800Y21600D02*
X16200Y21600D01*
X16200Y21600D02*
X16200Y21200D01*
X16200Y21200D02*
X12800Y21200D01*
X12800Y21200D02*
X12800Y20700D01*
X12800Y20700D02*
X12800Y20800D01*
X12800Y20800D02*
X12800Y20700D01*
X12800Y20700D02*
X16200Y20700D01*
X12800Y23700D02*
X14100Y23700D01*
X14100Y23700D02*
X14400Y23700D01*
X14400Y23700D02*
X16200Y23700D01*
X16200Y23700D02*
X16200Y23300D01*
X16200Y23300D02*
X16200Y20700D01*
X16200Y20700D02*
X16200Y20300D01*
X16200Y20300D02*
X15800Y20300D01*
X15800Y20300D02*
X13200Y20300D01*
X13200Y20300D02*
X12800Y20300D01*
X12800Y20300D02*
X12800Y22100D01*
X12800Y22100D02*
X12800Y22400D01*
X12800Y22400D02*
X12800Y23700D01*
X7500Y23700D02*
X7500Y20300D01*
X7500Y20300D02*
X7700Y20300D01*
X7700Y20300D02*
X7700Y23700D01*
X7700Y23700D02*
X7900Y23700D01*
X7900Y23700D02*
X7900Y20300D01*
X7900Y20300D02*
X8100Y20300D01*
X8100Y20300D02*
X8100Y23700D01*
X8100Y23700D02*
X8300Y23700D01*
X8300Y23700D02*
X8300Y20300D01*
X8300Y20300D02*
X8500Y20300D01*
X8500Y20300D02*
X8500Y23700D01*
X8500Y23700D02*
X8700Y23700D01*
X8700Y23700D02*
X8700Y20300D01*
X8700Y20300D02*
X8900Y20300D01*
X8900Y20300D02*
X8900Y23700D01*
X8900Y23700D02*
X9100Y23700D01*
X9100Y23700D02*
X9100Y20300D01*
X9100Y20300D02*
X9300Y20300D01*
X9300Y20300D02*
X9300Y23700D01*
X9300Y23700D02*
X9500Y23700D01*
X9500Y23700D02*
X9500Y20300D01*
X9500Y20300D02*
X9700Y20300D01*
X9700Y20300D02*
X9700Y23700D01*
X9700Y23700D02*
X9900Y23700D01*
X9900Y23700D02*
X9900Y20300D01*
X9900Y20300D02*
X10100Y20300D01*
X10100Y20300D02*
X10100Y23700D01*
X10100Y23700D02*
X10300Y23700D01*
X10300Y23700D02*
X10300Y20300D01*
X10300Y20300D02*
X10500Y20300D01*
X10500Y20300D02*
X10500Y23700D01*
X7300Y23100D02*
X10700Y23100D01*
X10700Y23100D02*
X10700Y22900D01*
X10700Y22900D02*
X7300Y22900D01*
X7300Y22900D02*
X7300Y22700D01*
X7300Y22700D02*
X10700Y22700D01*
X10700Y22700D02*
X10700Y22400D01*
X10700Y22400D02*
X10700Y22500D01*
X10700Y22500D02*
X7300Y22500D01*
X7300Y22500D02*
X7300Y22300D01*
X7300Y22300D02*
X10700Y22300D01*
X10700Y22300D02*
X10700Y22100D01*
X10700Y22100D02*
X7300Y22100D01*
X7300Y22100D02*
X7300Y21900D01*
X7300Y21900D02*
X10700Y21900D01*
X10700Y21900D02*
X10700Y21700D01*
X10700Y21700D02*
X7300Y21700D01*
X7300Y21700D02*
X7300Y21500D01*
X7300Y21500D02*
X10700Y21500D01*
X10700Y21500D02*
X10700Y21300D01*
X10700Y21300D02*
X7300Y21300D01*
X7300Y21300D02*
X7300Y21100D01*
X7300Y21100D02*
X10700Y21100D01*
X10700Y21100D02*
X10700Y20900D01*
X10700Y20900D02*
X7300Y20900D01*
X7300Y20900D02*
X7300Y20700D01*
X7300Y20700D02*
X10700Y20700D01*
X10700Y20700D02*
X10700Y20500D01*
X10700Y20500D02*
X7300Y20500D01*
X10700Y23300D02*
X7300Y23300D01*
X7300Y23500D02*
X10700Y23500D01*
X7300Y23700D02*
X7300Y23500D01*
X7300Y23500D02*
X7300Y23300D01*
X7300Y23300D02*
X7300Y23100D01*
X7300Y23100D02*
X7300Y20500D01*
X7300Y20500D02*
X7300Y20300D01*
X7300Y20300D02*
X10700Y20300D01*
X10700Y20300D02*
X10700Y23300D01*
X10700Y23300D02*
X10700Y23500D01*
X10700Y23500D02*
X10700Y23700D01*
X10700Y23700D02*
X10500Y23700D01*
X10500Y23700D02*
X7500Y23700D01*
X7500Y23700D02*
X7300Y23700D01*
X4600Y23100D02*
X4600Y20900D01*
X4600Y20900D02*
X2400Y20900D01*
X2400Y20900D02*
X2400Y23100D01*
X2400Y23100D02*
X4600Y23100D01*
X3000Y22500D02*
X3000Y21500D01*
X3000Y21500D02*
X4000Y21500D01*
X4000Y21500D02*
X4000Y22500D01*
X4000Y22500D02*
X3000Y22500D01*
X3500Y22000D02*
X5200Y22000D01*
X3500Y22000D02*
X3500Y20300D01*
X1800Y22000D02*
X3500Y22000D01*
X3500Y22000D02*
X3500Y23700D01*
X3500Y22000D02*
X3000Y22500D01*
X3000Y22500D02*
X2400Y23100D01*
X2400Y23100D02*
X1800Y23700D01*
X1800Y23700D02*
X1800Y22000D01*
X1800Y22000D02*
X1800Y20300D01*
X1800Y20300D02*
X3500Y20300D01*
X3500Y20300D02*
X5200Y20300D01*
X5200Y20300D02*
X5200Y22000D01*
X5200Y22000D02*
X5200Y23700D01*
X5200Y23700D02*
X3500Y23700D01*
X3500Y23700D02*
X1800Y23700D01*
X3500Y22000D02*
X4600Y23100D01*
X4600Y23100D02*
X5200Y23700D01*
X3500Y22000D02*
X5200Y20300D01*
X3500Y22000D02*
X1800Y20300D01*
X3300Y22000D02*
X3500Y22000D01*
X3500Y22000D02*
X3700Y22000D01*
X3500Y22200D02*
X3500Y21800D01*
X35400Y1800D02*
X35000Y1800D01*
X38000Y1800D02*
X35800Y1800D01*
X37200Y1800D02*
X37600Y1800D01*
X29900Y1800D02*
X29500Y1800D01*
X32500Y1800D02*
X30300Y1800D01*
X31700Y1800D02*
X32100Y1800D01*
X31350Y3700D02*
X31300Y3750D01*
X31000Y3700D02*
X30650Y3700D01*
X36500Y3700D02*
X36150Y3700D01*
X3100Y1100D02*
X2600Y1600D01*
X2600Y1600D02*
X2600Y2400D01*
X2600Y2400D02*
X2800Y2600D01*
X2800Y2600D02*
X4600Y2600D01*
X4600Y2600D02*
X5100Y3100D01*
X1914Y400D02*
X1900Y400D01*
X3314Y400D02*
X3300Y400D01*
X4714Y400D02*
X4700Y400D01*
X6114Y400D02*
X6100Y400D01*
X514Y400D02*
X1900Y400D01*
X1900Y400D02*
X3300Y400D01*
X3300Y400D02*
X4700Y400D01*
X4700Y400D02*
X6100Y400D01*
X12900Y400D02*
X14300Y400D01*
X11500Y400D02*
X12900Y400D01*
X10100Y400D02*
X11500Y400D01*
X8714Y400D02*
X10100Y400D01*
X14314Y400D02*
X14300Y400D01*
X12914Y400D02*
X12900Y400D01*
X11514Y400D02*
X11500Y400D01*
X10114Y400D02*
X10100Y400D01*
X12800Y2600D02*
X13300Y3100D01*
X11000Y2600D02*
X12800Y2600D01*
X10800Y2400D02*
X11000Y2600D01*
X10800Y1600D02*
X10800Y2400D01*
X11300Y1100D02*
X10800Y1600D01*
X13800Y1600D02*
X14300Y1100D01*
X11800Y1600D02*
X13800Y1600D01*
X11300Y2100D02*
X11800Y1600D01*
X3100Y2100D02*
X3600Y1600D01*
X3600Y1600D02*
X5600Y1600D01*
X5600Y1600D02*
X6100Y1100D01*
G54D10*
G36*
X38850Y2679D02*
X38838Y2651D01*
X38831Y2618D01*
X38831Y2616D01*
X38785Y2147D01*
X38653Y1712D01*
X38440Y1310D01*
X38152Y958D01*
X37802Y668D01*
X37402Y452D01*
X37201Y390D01*
X37201Y2416D01*
X37201Y2512D01*
X37163Y2550D01*
X36550Y2550D01*
X36550Y2290D01*
X36587Y2253D01*
X37065Y2253D01*
X37094Y2258D01*
X37121Y2270D01*
X37146Y2286D01*
X37167Y2307D01*
X37183Y2331D01*
X37195Y2358D01*
X37201Y2387D01*
X37201Y2416D01*
X37201Y390D01*
X36968Y318D01*
X36508Y269D01*
X36508Y269D01*
X36450Y275D01*
X36450Y2290D01*
X36450Y2550D01*
X35836Y2550D01*
X35798Y2512D01*
X35798Y2416D01*
X35798Y2387D01*
X35804Y2358D01*
X35816Y2331D01*
X35832Y2307D01*
X35853Y2286D01*
X35878Y2270D01*
X35905Y2258D01*
X35934Y2253D01*
X36412Y2253D01*
X36450Y2290D01*
X36450Y275D01*
X36047Y314D01*
X35612Y446D01*
X35210Y659D01*
X34858Y947D01*
X34568Y1297D01*
X34352Y1697D01*
X34218Y2131D01*
X34169Y2591D01*
X34169Y2600D01*
X34166Y2633D01*
X34157Y2662D01*
X34267Y2750D01*
X35798Y2750D01*
X35798Y2687D01*
X35836Y2650D01*
X36450Y2650D01*
X36450Y2657D01*
X36550Y2657D01*
X36550Y2650D01*
X37163Y2650D01*
X37201Y2687D01*
X37201Y2750D01*
X38779Y2750D01*
X38850Y2679D01*
X38850Y2679D01*
G37*
G54D16*
X38850Y2679D02*
X38838Y2651D01*
X38831Y2618D01*
X38831Y2616D01*
X38785Y2147D01*
X38653Y1712D01*
X38440Y1310D01*
X38152Y958D01*
X37802Y668D01*
X37402Y452D01*
X37201Y390D01*
X37201Y2416D01*
X37201Y2512D01*
X37163Y2550D01*
X36550Y2550D01*
X36550Y2290D01*
X36587Y2253D01*
X37065Y2253D01*
X37094Y2258D01*
X37121Y2270D01*
X37146Y2286D01*
X37167Y2307D01*
X37183Y2331D01*
X37195Y2358D01*
X37201Y2387D01*
X37201Y2416D01*
X37201Y390D01*
X36968Y318D01*
X36508Y269D01*
X36508Y269D01*
X36450Y275D01*
X36450Y2290D01*
X36450Y2550D01*
X35836Y2550D01*
X35798Y2512D01*
X35798Y2416D01*
X35798Y2387D01*
X35804Y2358D01*
X35816Y2331D01*
X35832Y2307D01*
X35853Y2286D01*
X35878Y2270D01*
X35905Y2258D01*
X35934Y2253D01*
X36412Y2253D01*
X36450Y2290D01*
X36450Y275D01*
X36047Y314D01*
X35612Y446D01*
X35210Y659D01*
X34858Y947D01*
X34568Y1297D01*
X34352Y1697D01*
X34218Y2131D01*
X34169Y2591D01*
X34169Y2600D01*
X34166Y2633D01*
X34157Y2662D01*
X34267Y2750D01*
X35798Y2750D01*
X35798Y2687D01*
X35836Y2650D01*
X36450Y2650D01*
X36450Y2657D01*
X36550Y2657D01*
X36550Y2650D01*
X37163Y2650D01*
X37201Y2687D01*
X37201Y2750D01*
X38779Y2750D01*
X38850Y2679D01*
G54D10*
G36*
X38794Y2950D02*
X34250Y2950D01*
X34204Y2950D01*
X34214Y3052D01*
X34346Y3487D01*
X34559Y3889D01*
X34847Y4241D01*
X35197Y4531D01*
X35597Y4747D01*
X36031Y4881D01*
X36491Y4930D01*
X36491Y4930D01*
X36952Y4885D01*
X37387Y4753D01*
X37789Y4540D01*
X38141Y4252D01*
X38431Y3902D01*
X38647Y3502D01*
X38781Y3068D01*
X38794Y2950D01*
X38794Y2950D01*
G37*
G54D16*
X38794Y2950D02*
X34250Y2950D01*
X34204Y2950D01*
X34214Y3052D01*
X34346Y3487D01*
X34559Y3889D01*
X34847Y4241D01*
X35197Y4531D01*
X35597Y4747D01*
X36031Y4881D01*
X36491Y4930D01*
X36491Y4930D01*
X36952Y4885D01*
X37387Y4753D01*
X37789Y4540D01*
X38141Y4252D01*
X38431Y3902D01*
X38647Y3502D01*
X38781Y3068D01*
X38794Y2950D01*
G54D10*
G36*
X33350Y2679D02*
X33338Y2651D01*
X33331Y2618D01*
X33331Y2616D01*
X33285Y2147D01*
X33153Y1712D01*
X32940Y1310D01*
X32652Y958D01*
X32302Y668D01*
X31902Y452D01*
X31701Y390D01*
X31701Y2416D01*
X31701Y2512D01*
X31663Y2550D01*
X31050Y2550D01*
X31050Y2290D01*
X31087Y2253D01*
X31565Y2253D01*
X31594Y2258D01*
X31621Y2270D01*
X31646Y2286D01*
X31667Y2307D01*
X31683Y2331D01*
X31695Y2358D01*
X31701Y2387D01*
X31701Y2416D01*
X31701Y390D01*
X31468Y318D01*
X31008Y269D01*
X31008Y269D01*
X30950Y275D01*
X30950Y2290D01*
X30950Y2550D01*
X30336Y2550D01*
X30298Y2512D01*
X30298Y2416D01*
X30298Y2387D01*
X30304Y2358D01*
X30316Y2331D01*
X30332Y2307D01*
X30353Y2286D01*
X30378Y2270D01*
X30405Y2258D01*
X30434Y2253D01*
X30912Y2253D01*
X30950Y2290D01*
X30950Y275D01*
X30547Y314D01*
X30112Y446D01*
X29710Y659D01*
X29358Y947D01*
X29068Y1297D01*
X28852Y1697D01*
X28718Y2131D01*
X28669Y2591D01*
X28669Y2600D01*
X28666Y2633D01*
X28657Y2662D01*
X28767Y2750D01*
X30298Y2750D01*
X30298Y2687D01*
X30336Y2650D01*
X30950Y2650D01*
X30950Y2657D01*
X31050Y2657D01*
X31050Y2650D01*
X31663Y2650D01*
X31701Y2687D01*
X31701Y2750D01*
X33279Y2750D01*
X33350Y2679D01*
X33350Y2679D01*
G37*
G54D16*
X33350Y2679D02*
X33338Y2651D01*
X33331Y2618D01*
X33331Y2616D01*
X33285Y2147D01*
X33153Y1712D01*
X32940Y1310D01*
X32652Y958D01*
X32302Y668D01*
X31902Y452D01*
X31701Y390D01*
X31701Y2416D01*
X31701Y2512D01*
X31663Y2550D01*
X31050Y2550D01*
X31050Y2290D01*
X31087Y2253D01*
X31565Y2253D01*
X31594Y2258D01*
X31621Y2270D01*
X31646Y2286D01*
X31667Y2307D01*
X31683Y2331D01*
X31695Y2358D01*
X31701Y2387D01*
X31701Y2416D01*
X31701Y390D01*
X31468Y318D01*
X31008Y269D01*
X31008Y269D01*
X30950Y275D01*
X30950Y2290D01*
X30950Y2550D01*
X30336Y2550D01*
X30298Y2512D01*
X30298Y2416D01*
X30298Y2387D01*
X30304Y2358D01*
X30316Y2331D01*
X30332Y2307D01*
X30353Y2286D01*
X30378Y2270D01*
X30405Y2258D01*
X30434Y2253D01*
X30912Y2253D01*
X30950Y2290D01*
X30950Y275D01*
X30547Y314D01*
X30112Y446D01*
X29710Y659D01*
X29358Y947D01*
X29068Y1297D01*
X28852Y1697D01*
X28718Y2131D01*
X28669Y2591D01*
X28669Y2600D01*
X28666Y2633D01*
X28657Y2662D01*
X28767Y2750D01*
X30298Y2750D01*
X30298Y2687D01*
X30336Y2650D01*
X30950Y2650D01*
X30950Y2657D01*
X31050Y2657D01*
X31050Y2650D01*
X31663Y2650D01*
X31701Y2687D01*
X31701Y2750D01*
X33279Y2750D01*
X33350Y2679D01*
G54D10*
G36*
X33294Y2950D02*
X28750Y2950D01*
X28704Y2950D01*
X28714Y3052D01*
X28846Y3487D01*
X29059Y3889D01*
X29347Y4241D01*
X29697Y4531D01*
X30097Y4747D01*
X30531Y4881D01*
X30991Y4930D01*
X30991Y4930D01*
X31452Y4885D01*
X31887Y4753D01*
X32289Y4540D01*
X32641Y4252D01*
X32931Y3902D01*
X33147Y3502D01*
X33281Y3068D01*
X33294Y2950D01*
X33294Y2950D01*
G37*
G54D16*
X33294Y2950D02*
X28750Y2950D01*
X28704Y2950D01*
X28714Y3052D01*
X28846Y3487D01*
X29059Y3889D01*
X29347Y4241D01*
X29697Y4531D01*
X30097Y4747D01*
X30531Y4881D01*
X30991Y4930D01*
X30991Y4930D01*
X31452Y4885D01*
X31887Y4753D01*
X32289Y4540D01*
X32641Y4252D01*
X32931Y3902D01*
X33147Y3502D01*
X33281Y3068D01*
X33294Y2950D01*
M02*
