G04 (created by PCBNEW (2013-07-07 BZR 4022)-stable) date 2/6/2014 2:53:49 PM*
%MOIN*%
G04 Gerber Fmt 3.4, Leading zero omitted, Abs format*
%FSLAX34Y34*%
G01*
G70*
G90*
G04 APERTURE LIST*
%ADD10C,0.007*%
%ADD11R,0.039X0.16*%
%ADD12R,0.055X0.055*%
%ADD13C,0.055*%
%ADD14R,0.0433071X0.0551181*%
%ADD15R,0.0374016X0.0374016*%
%ADD16R,0.023622X0.0216535*%
%ADD17R,0.059X0.0512*%
%ADD18C,0.03*%
%ADD19C,0.01*%
G04 APERTURE END LIST*
G54D10*
G54D11*
X30000Y3400D03*
X31000Y1800D03*
X32000Y3400D03*
G54D12*
X10300Y3100D03*
G54D13*
X11300Y3100D03*
X12300Y3100D03*
X13300Y3100D03*
X13300Y2100D03*
X12300Y2100D03*
X11300Y2100D03*
X10300Y2100D03*
G54D12*
X2100Y3100D03*
G54D13*
X3100Y3100D03*
X4100Y3100D03*
X5100Y3100D03*
X5100Y2100D03*
X4100Y2100D03*
X3100Y2100D03*
X2100Y2100D03*
G54D14*
X25155Y2600D03*
X25844Y2600D03*
G54D15*
X25214Y2600D03*
X25785Y2600D03*
G54D16*
X25332Y2600D03*
X25667Y2600D03*
G54D11*
X24500Y2600D03*
X25500Y1000D03*
X26500Y2600D03*
X19000Y2600D03*
X20000Y1000D03*
X21000Y2600D03*
G54D16*
X19832Y2600D03*
X20167Y2600D03*
G54D15*
X19714Y2600D03*
X20285Y2600D03*
G54D14*
X19655Y2600D03*
X20344Y2600D03*
G54D11*
X35500Y11000D03*
X36500Y9400D03*
X37500Y11000D03*
G54D16*
X36332Y11000D03*
X36667Y11000D03*
G54D15*
X36214Y11000D03*
X36785Y11000D03*
G54D14*
X36155Y11000D03*
X36844Y11000D03*
X19655Y11000D03*
X20344Y11000D03*
G54D15*
X19714Y11000D03*
X20285Y11000D03*
G54D16*
X19832Y11000D03*
X20167Y11000D03*
G54D11*
X19000Y11000D03*
X20000Y9400D03*
X21000Y11000D03*
X24500Y11000D03*
X25500Y9400D03*
X26500Y11000D03*
G54D16*
X25332Y11000D03*
X25667Y11000D03*
G54D15*
X25214Y11000D03*
X25785Y11000D03*
G54D14*
X25155Y11000D03*
X25844Y11000D03*
X30655Y11000D03*
X31344Y11000D03*
G54D15*
X30714Y11000D03*
X31285Y11000D03*
G54D16*
X30832Y11000D03*
X31167Y11000D03*
G54D11*
X30000Y11000D03*
X31000Y9400D03*
X32000Y11000D03*
X13500Y11000D03*
X14500Y9400D03*
X15500Y11000D03*
G54D16*
X14332Y11000D03*
X14667Y11000D03*
G54D15*
X14214Y11000D03*
X14785Y11000D03*
G54D14*
X14155Y11000D03*
X14844Y11000D03*
X8655Y11000D03*
X9344Y11000D03*
G54D15*
X8714Y11000D03*
X9285Y11000D03*
G54D16*
X8832Y11000D03*
X9167Y11000D03*
G54D11*
X8000Y11000D03*
X9000Y9400D03*
X10000Y11000D03*
X2500Y11000D03*
X3500Y9400D03*
X4500Y11000D03*
G54D16*
X3332Y11000D03*
X3667Y11000D03*
G54D15*
X3214Y11000D03*
X3785Y11000D03*
G54D14*
X3155Y11000D03*
X3844Y11000D03*
G54D11*
X24500Y16500D03*
X25500Y14900D03*
X26500Y16500D03*
G54D16*
X25332Y16500D03*
X25667Y16500D03*
G54D15*
X25214Y16500D03*
X25785Y16500D03*
G54D14*
X25155Y16500D03*
X25844Y16500D03*
X36155Y16500D03*
X36844Y16500D03*
G54D15*
X36214Y16500D03*
X36785Y16500D03*
G54D16*
X36332Y16500D03*
X36667Y16500D03*
G54D11*
X35500Y16500D03*
X36500Y14900D03*
X37500Y16500D03*
X30000Y16500D03*
X31000Y14900D03*
X32000Y16500D03*
G54D16*
X30832Y16500D03*
X31167Y16500D03*
G54D15*
X30714Y16500D03*
X31285Y16500D03*
G54D14*
X30655Y16500D03*
X31344Y16500D03*
X14155Y16500D03*
X14844Y16500D03*
G54D15*
X14214Y16500D03*
X14785Y16500D03*
G54D16*
X14332Y16500D03*
X14667Y16500D03*
G54D11*
X13500Y16500D03*
X14500Y14900D03*
X15500Y16500D03*
X19000Y16500D03*
X20000Y14900D03*
X21000Y16500D03*
G54D16*
X19832Y16500D03*
X20167Y16500D03*
G54D15*
X19714Y16500D03*
X20285Y16500D03*
G54D14*
X19655Y16500D03*
X20344Y16500D03*
X8655Y16500D03*
X9344Y16500D03*
G54D15*
X8714Y16500D03*
X9285Y16500D03*
G54D16*
X8832Y16500D03*
X9167Y16500D03*
G54D11*
X8000Y16500D03*
X9000Y14900D03*
X10000Y16500D03*
X2500Y16500D03*
X3500Y14900D03*
X4500Y16500D03*
G54D16*
X3332Y16500D03*
X3667Y16500D03*
G54D15*
X3214Y16500D03*
X3785Y16500D03*
G54D14*
X3155Y16500D03*
X3844Y16500D03*
G54D15*
X10114Y400D03*
X10685Y400D03*
X11514Y400D03*
X12085Y400D03*
X12914Y400D03*
X13485Y400D03*
X14314Y400D03*
X14885Y400D03*
X8714Y400D03*
X9285Y400D03*
G54D12*
X9300Y1100D03*
G54D13*
X10300Y1100D03*
X11300Y1100D03*
X12300Y1100D03*
X13300Y1100D03*
X14300Y1100D03*
X14300Y4100D03*
X13300Y4100D03*
X12300Y4100D03*
X11300Y4100D03*
X10300Y4100D03*
X9300Y4100D03*
G54D12*
X1100Y1100D03*
G54D13*
X2100Y1100D03*
X3100Y1100D03*
X4100Y1100D03*
X5100Y1100D03*
X6100Y1100D03*
X6100Y4100D03*
X5100Y4100D03*
X4100Y4100D03*
X3100Y4100D03*
X2100Y4100D03*
X1100Y4100D03*
G54D14*
X36155Y22000D03*
X36844Y22000D03*
X30655Y22000D03*
X31344Y22000D03*
X14155Y22000D03*
X14844Y22000D03*
X19655Y22000D03*
X20344Y22000D03*
X8655Y22000D03*
X9344Y22000D03*
X3155Y22000D03*
X3844Y22000D03*
X25155Y22000D03*
X25844Y22000D03*
G54D15*
X19714Y22000D03*
X20285Y22000D03*
X8714Y22000D03*
X9285Y22000D03*
X25214Y22000D03*
X25785Y22000D03*
X14214Y22000D03*
X14785Y22000D03*
X30714Y22000D03*
X31285Y22000D03*
X3214Y22000D03*
X3785Y22000D03*
X36214Y22000D03*
X36785Y22000D03*
G54D16*
X30832Y22000D03*
X31167Y22000D03*
X25332Y22000D03*
X25667Y22000D03*
X36332Y22000D03*
X36667Y22000D03*
X19832Y22000D03*
X20167Y22000D03*
X14332Y22000D03*
X14667Y22000D03*
X8832Y22000D03*
X9167Y22000D03*
X3332Y22000D03*
X3667Y22000D03*
G54D11*
X24500Y22000D03*
X25500Y20400D03*
X26500Y22000D03*
X19000Y22000D03*
X20000Y20400D03*
X21000Y22000D03*
X30000Y22000D03*
X31000Y20400D03*
X32000Y22000D03*
X13500Y22000D03*
X14500Y20400D03*
X15500Y22000D03*
X8000Y22000D03*
X9000Y20400D03*
X10000Y22000D03*
X35500Y22000D03*
X36500Y20400D03*
X37500Y22000D03*
X2500Y22000D03*
X3500Y20400D03*
X4500Y22000D03*
G54D15*
X514Y400D03*
X1085Y400D03*
X6114Y400D03*
X6685Y400D03*
X4714Y400D03*
X5285Y400D03*
X3314Y400D03*
X3885Y400D03*
X1914Y400D03*
X2485Y400D03*
G54D11*
X35500Y3400D03*
X36500Y1800D03*
X37500Y3400D03*
G54D17*
X3500Y22925D03*
X3500Y23675D03*
X31000Y22925D03*
X31000Y23675D03*
X9000Y22925D03*
X9000Y23675D03*
X36500Y22925D03*
X36500Y23675D03*
X25500Y22925D03*
X25500Y23675D03*
X14500Y22925D03*
X14500Y23675D03*
X20000Y22925D03*
X20000Y23675D03*
X3500Y17425D03*
X3500Y18175D03*
X9000Y17425D03*
X9000Y18175D03*
X20000Y17425D03*
X20000Y18175D03*
X14500Y17425D03*
X14500Y18175D03*
X31000Y17425D03*
X31000Y18175D03*
X36500Y17425D03*
X36500Y18175D03*
X25500Y17425D03*
X25500Y18175D03*
X3500Y11925D03*
X3500Y12675D03*
X9000Y11925D03*
X9000Y12675D03*
X14500Y11925D03*
X14500Y12675D03*
X31000Y11925D03*
X31000Y12675D03*
X25500Y11925D03*
X25500Y12675D03*
X20000Y11925D03*
X20000Y12675D03*
X36500Y11925D03*
X36500Y12675D03*
X20000Y3525D03*
X20000Y4275D03*
X25500Y3525D03*
X25500Y4275D03*
G54D18*
X35000Y1800D03*
X35400Y1800D03*
X35800Y1800D03*
X38000Y1800D03*
X37600Y1800D03*
X37200Y1800D03*
X29500Y1800D03*
X29900Y1800D03*
X30300Y1800D03*
X32500Y1800D03*
X32100Y1800D03*
X31700Y1800D03*
X31350Y3700D03*
X30650Y3700D03*
X31000Y3700D03*
X36850Y3700D03*
X36150Y3700D03*
X36500Y3700D03*
X1914Y400D03*
X3314Y400D03*
X4714Y400D03*
X6114Y400D03*
X514Y400D03*
X8714Y400D03*
X14314Y400D03*
X12914Y400D03*
X11514Y400D03*
X10114Y400D03*
G54D19*
X36500Y1800D02*
X37200Y1800D01*
X35800Y1800D02*
X35400Y1800D01*
X37600Y1800D02*
X38000Y1800D01*
X31000Y1800D02*
X31700Y1800D01*
X30300Y1800D02*
X29900Y1800D01*
X32100Y1800D02*
X32500Y1800D01*
X32000Y3400D02*
X32000Y2300D01*
X37500Y3400D02*
X37500Y2300D01*
X30000Y3400D02*
X30700Y3400D01*
X30650Y3700D02*
X31350Y3700D01*
X30700Y3400D02*
X31000Y3700D01*
X35500Y3400D02*
X36200Y3400D01*
X36150Y3700D02*
X36850Y3700D01*
X36200Y3400D02*
X36500Y3700D01*
X4500Y22000D02*
X4500Y23500D01*
X4325Y23675D02*
X3500Y23675D01*
X4500Y23500D02*
X4325Y23675D01*
X3500Y20400D02*
X4500Y20400D01*
X4500Y20400D02*
X4500Y22000D01*
X2500Y22000D02*
X3155Y22000D01*
X26500Y14900D02*
X26500Y16500D01*
X25500Y14900D02*
X26500Y14900D01*
X26500Y18000D02*
X26325Y18175D01*
X26325Y18175D02*
X25500Y18175D01*
X26500Y16500D02*
X26500Y18000D01*
X37500Y16500D02*
X37500Y18000D01*
X37325Y18175D02*
X36500Y18175D01*
X37500Y18000D02*
X37325Y18175D01*
X36500Y14900D02*
X37500Y14900D01*
X37500Y14900D02*
X37500Y16500D01*
X32000Y14900D02*
X32000Y16500D01*
X31000Y14900D02*
X32000Y14900D01*
X32000Y18000D02*
X31825Y18175D01*
X31825Y18175D02*
X31000Y18175D01*
X32000Y16500D02*
X32000Y18000D01*
X15500Y16500D02*
X15500Y18000D01*
X15325Y18175D02*
X14500Y18175D01*
X15500Y18000D02*
X15325Y18175D01*
X14500Y14900D02*
X15500Y14900D01*
X15500Y14900D02*
X15500Y16500D01*
X21000Y14900D02*
X21000Y16500D01*
X20000Y14900D02*
X21000Y14900D01*
X21000Y18000D02*
X20825Y18175D01*
X20825Y18175D02*
X20000Y18175D01*
X21000Y16500D02*
X21000Y18000D01*
X10000Y16500D02*
X10000Y18000D01*
X9825Y18175D02*
X9000Y18175D01*
X10000Y18000D02*
X9825Y18175D01*
X9000Y14900D02*
X10000Y14900D01*
X10000Y14900D02*
X10000Y16500D01*
X4500Y14900D02*
X4500Y16500D01*
X3500Y14900D02*
X4500Y14900D01*
X4500Y18000D02*
X4325Y18175D01*
X4325Y18175D02*
X3500Y18175D01*
X4500Y16500D02*
X4500Y18000D01*
X10000Y22000D02*
X10000Y23500D01*
X9825Y23675D02*
X9000Y23675D01*
X10000Y23500D02*
X9825Y23675D01*
X9000Y20400D02*
X10000Y20400D01*
X10000Y20400D02*
X10000Y22000D01*
X24500Y16500D02*
X25155Y16500D01*
X35500Y16500D02*
X36155Y16500D01*
X30000Y16500D02*
X30655Y16500D01*
X13500Y16500D02*
X14155Y16500D01*
X19000Y16500D02*
X19655Y16500D01*
X8000Y16500D02*
X8655Y16500D01*
X2500Y16500D02*
X3155Y16500D01*
X8000Y22000D02*
X8655Y22000D01*
X15500Y22000D02*
X15500Y23500D01*
X15325Y23675D02*
X14500Y23675D01*
X15500Y23500D02*
X15325Y23675D01*
X14500Y20400D02*
X15500Y20400D01*
X15500Y20400D02*
X15500Y22000D01*
X13500Y22000D02*
X14155Y22000D01*
X21000Y22000D02*
X21000Y23500D01*
X20825Y23675D02*
X20000Y23675D01*
X21000Y23500D02*
X20825Y23675D01*
X20000Y20400D02*
X21000Y20400D01*
X21000Y20400D02*
X21000Y22000D01*
X19000Y22000D02*
X19655Y22000D01*
X26500Y22000D02*
X26500Y23500D01*
X26325Y23675D02*
X25500Y23675D01*
X26500Y23500D02*
X26325Y23675D01*
X25500Y20400D02*
X26500Y20400D01*
X26500Y20400D02*
X26500Y22000D01*
X24500Y22000D02*
X25155Y22000D01*
X26500Y2600D02*
X26500Y4100D01*
X26325Y4275D02*
X25500Y4275D01*
X26500Y4100D02*
X26325Y4275D01*
X25500Y1000D02*
X26500Y1000D01*
X26500Y1000D02*
X26500Y2600D01*
X21000Y1000D02*
X21000Y2600D01*
X20000Y1000D02*
X21000Y1000D01*
X21000Y4100D02*
X20825Y4275D01*
X20825Y4275D02*
X20000Y4275D01*
X21000Y2600D02*
X21000Y4100D01*
X37500Y9400D02*
X37500Y11000D01*
X36500Y9400D02*
X37500Y9400D01*
X37500Y12500D02*
X37325Y12675D01*
X37325Y12675D02*
X36500Y12675D01*
X37500Y11000D02*
X37500Y12500D01*
X21000Y11000D02*
X21000Y12500D01*
X20825Y12675D02*
X20000Y12675D01*
X21000Y12500D02*
X20825Y12675D01*
X20000Y9400D02*
X21000Y9400D01*
X21000Y9400D02*
X21000Y11000D01*
X26500Y9400D02*
X26500Y11000D01*
X25500Y9400D02*
X26500Y9400D01*
X26500Y12500D02*
X26325Y12675D01*
X26325Y12675D02*
X25500Y12675D01*
X26500Y11000D02*
X26500Y12500D01*
X32000Y11000D02*
X32000Y12500D01*
X31825Y12675D02*
X31000Y12675D01*
X32000Y12500D02*
X31825Y12675D01*
X31000Y9400D02*
X32000Y9400D01*
X32000Y9400D02*
X32000Y11000D01*
X15500Y9400D02*
X15500Y11000D01*
X14500Y9400D02*
X15500Y9400D01*
X15500Y12500D02*
X15325Y12675D01*
X15325Y12675D02*
X14500Y12675D01*
X15500Y11000D02*
X15500Y12500D01*
X10000Y11000D02*
X10000Y12500D01*
X9825Y12675D02*
X9000Y12675D01*
X10000Y12500D02*
X9825Y12675D01*
X9000Y9400D02*
X10000Y9400D01*
X10000Y9400D02*
X10000Y11000D01*
X4500Y9400D02*
X4500Y11000D01*
X3500Y9400D02*
X4500Y9400D01*
X4500Y12500D02*
X4325Y12675D01*
X4325Y12675D02*
X3500Y12675D01*
X4500Y11000D02*
X4500Y12500D01*
X32000Y22000D02*
X32000Y23500D01*
X31825Y23675D02*
X31000Y23675D01*
X32000Y23500D02*
X31825Y23675D01*
X31000Y20400D02*
X32000Y20400D01*
X32000Y20400D02*
X32000Y22000D01*
X24500Y2600D02*
X25155Y2600D01*
X19000Y2600D02*
X19655Y2600D01*
X35500Y11000D02*
X36155Y11000D01*
X19000Y11000D02*
X19655Y11000D01*
X24500Y11000D02*
X25155Y11000D01*
X30000Y11000D02*
X30655Y11000D01*
X13500Y11000D02*
X14155Y11000D01*
X8000Y11000D02*
X8655Y11000D01*
X2500Y11000D02*
X3155Y11000D01*
X30000Y22000D02*
X30655Y22000D01*
X36500Y20400D02*
X37500Y20400D01*
X37500Y20400D02*
X37500Y22000D01*
X37500Y22000D02*
X37500Y23500D01*
X37325Y23675D02*
X36500Y23675D01*
X37500Y23500D02*
X37325Y23675D01*
X35500Y22000D02*
X36155Y22000D01*
X4100Y2100D02*
X4100Y1900D01*
X4100Y1900D02*
X4900Y1100D01*
X4900Y1100D02*
X5100Y1100D01*
X5100Y2100D02*
X5700Y2700D01*
X5700Y2700D02*
X5700Y3500D01*
X5700Y3500D02*
X5100Y4100D01*
X3100Y4100D02*
X4100Y3100D01*
X2100Y4100D02*
X3100Y3100D01*
X12800Y3600D02*
X12300Y4100D01*
X12800Y1800D02*
X12800Y3600D01*
X13000Y1600D02*
X12800Y1800D01*
X13600Y1600D02*
X13000Y1600D01*
X13800Y1400D02*
X13600Y1600D01*
X13800Y700D02*
X13800Y1400D01*
X13500Y400D02*
X13800Y700D01*
X13485Y400D02*
X13500Y400D01*
X10300Y4100D02*
X11300Y3100D01*
X514Y400D02*
X514Y1685D01*
X514Y1685D02*
X929Y2100D01*
X929Y2100D02*
X2100Y2100D01*
X11300Y4100D02*
X12300Y3100D01*
X5285Y400D02*
X5300Y400D01*
X5300Y400D02*
X5600Y700D01*
X5600Y700D02*
X5600Y1400D01*
X5600Y1400D02*
X5400Y1600D01*
X5400Y1600D02*
X4800Y1600D01*
X4800Y1600D02*
X4600Y1800D01*
X4600Y1800D02*
X4600Y3600D01*
X4600Y3600D02*
X4100Y4100D01*
X3885Y400D02*
X3885Y885D01*
X3885Y885D02*
X4100Y1100D01*
X14885Y3514D02*
X14300Y4100D01*
X14885Y400D02*
X14885Y3514D01*
X13900Y3500D02*
X13300Y4100D01*
X13900Y2700D02*
X13900Y3500D01*
X13300Y2100D02*
X13900Y2700D01*
X2485Y400D02*
X2485Y785D01*
X2485Y785D02*
X2600Y900D01*
X2600Y900D02*
X2600Y1500D01*
X2600Y1500D02*
X2500Y1600D01*
X2500Y1600D02*
X1600Y1600D01*
X1600Y1600D02*
X1100Y1100D01*
X6685Y400D02*
X6685Y3514D01*
X6685Y3514D02*
X6100Y4100D01*
X9129Y2100D02*
X10300Y2100D01*
X8714Y1685D02*
X9129Y2100D01*
X8714Y400D02*
X8714Y1685D01*
X1100Y4100D02*
X2100Y3100D01*
X1085Y400D02*
X1200Y400D01*
X1200Y400D02*
X1900Y1100D01*
X1900Y1100D02*
X2100Y1100D01*
X12085Y885D02*
X12300Y1100D01*
X12085Y400D02*
X12085Y885D01*
X9800Y1600D02*
X9300Y1100D01*
X10700Y1600D02*
X9800Y1600D01*
X10800Y1500D02*
X10700Y1600D01*
X10800Y900D02*
X10800Y1500D01*
X10685Y785D02*
X10800Y900D01*
X10685Y400D02*
X10685Y785D01*
X10100Y1100D02*
X10300Y1100D01*
X9400Y400D02*
X10100Y1100D01*
X9285Y400D02*
X9400Y400D01*
X36500Y17425D02*
X36500Y17200D01*
X36844Y16855D02*
X36844Y16500D01*
X36500Y17200D02*
X36844Y16855D01*
X31000Y17200D02*
X31344Y16855D01*
X31344Y16855D02*
X31344Y16500D01*
X31000Y17425D02*
X31000Y17200D01*
X14500Y17425D02*
X14500Y17200D01*
X14844Y16855D02*
X14844Y16500D01*
X14500Y17200D02*
X14844Y16855D01*
X20000Y17200D02*
X20344Y16855D01*
X20344Y16855D02*
X20344Y16500D01*
X20000Y17425D02*
X20000Y17200D01*
X9000Y17425D02*
X9000Y17200D01*
X9344Y16855D02*
X9344Y16500D01*
X9000Y17200D02*
X9344Y16855D01*
X3500Y17200D02*
X3844Y16855D01*
X3844Y16855D02*
X3844Y16500D01*
X3500Y17425D02*
X3500Y17200D01*
X9000Y22925D02*
X9000Y22700D01*
X9344Y22355D02*
X9344Y22000D01*
X9000Y22700D02*
X9344Y22355D01*
X3500Y22925D02*
X3500Y22700D01*
X3844Y22355D02*
X3844Y22000D01*
X3500Y22700D02*
X3844Y22355D01*
X25500Y17200D02*
X25844Y16855D01*
X25844Y16855D02*
X25844Y16500D01*
X25500Y17425D02*
X25500Y17200D01*
X14500Y22925D02*
X14500Y22700D01*
X14844Y22355D02*
X14844Y22000D01*
X14500Y22700D02*
X14844Y22355D01*
X20000Y22925D02*
X20000Y22700D01*
X20344Y22355D02*
X20344Y22000D01*
X20000Y22700D02*
X20344Y22355D01*
X25500Y3525D02*
X25500Y3300D01*
X25844Y2955D02*
X25844Y2600D01*
X25500Y3300D02*
X25844Y2955D01*
X20000Y3300D02*
X20344Y2955D01*
X20344Y2955D02*
X20344Y2600D01*
X20000Y3525D02*
X20000Y3300D01*
X36500Y11700D02*
X36844Y11355D01*
X36844Y11355D02*
X36844Y11000D01*
X36500Y11925D02*
X36500Y11700D01*
X20000Y11925D02*
X20000Y11700D01*
X20344Y11355D02*
X20344Y11000D01*
X20000Y11700D02*
X20344Y11355D01*
X25500Y11700D02*
X25844Y11355D01*
X25844Y11355D02*
X25844Y11000D01*
X25500Y11925D02*
X25500Y11700D01*
X31000Y11925D02*
X31000Y11700D01*
X31344Y11355D02*
X31344Y11000D01*
X31000Y11700D02*
X31344Y11355D01*
X14500Y11700D02*
X14844Y11355D01*
X14844Y11355D02*
X14844Y11000D01*
X14500Y11925D02*
X14500Y11700D01*
X9000Y11925D02*
X9000Y11700D01*
X9344Y11355D02*
X9344Y11000D01*
X9000Y11700D02*
X9344Y11355D01*
X3500Y11700D02*
X3844Y11355D01*
X3844Y11355D02*
X3844Y11000D01*
X3500Y11925D02*
X3500Y11700D01*
X31000Y22925D02*
X31000Y22700D01*
X31344Y22355D02*
X31344Y22000D01*
X31000Y22700D02*
X31344Y22355D01*
X25500Y22925D02*
X25500Y22700D01*
X25844Y22355D02*
X25844Y22000D01*
X25500Y22700D02*
X25844Y22355D01*
X36500Y22925D02*
X36500Y22700D01*
X36844Y22355D02*
X36844Y22000D01*
X36500Y22700D02*
X36844Y22355D01*
X13100Y1100D02*
X13300Y1100D01*
X12300Y1900D02*
X13100Y1100D01*
X12300Y2100D02*
X12300Y1900D01*
X9300Y4100D02*
X10300Y3100D01*
G54D10*
G36*
X38820Y2700D02*
X37845Y2700D01*
X37845Y4214D01*
X37839Y4243D01*
X37828Y4270D01*
X37811Y4295D01*
X37791Y4316D01*
X37766Y4332D01*
X37739Y4343D01*
X37710Y4349D01*
X37681Y4350D01*
X37290Y4350D01*
X37261Y4344D01*
X37234Y4333D01*
X37209Y4316D01*
X37188Y4296D01*
X37172Y4271D01*
X37161Y4244D01*
X37155Y4215D01*
X37154Y4186D01*
X37154Y2700D01*
X36807Y2700D01*
X36791Y2716D01*
X36766Y2732D01*
X36739Y2743D01*
X36710Y2749D01*
X36681Y2750D01*
X36290Y2750D01*
X36261Y2744D01*
X36234Y2733D01*
X36209Y2716D01*
X36192Y2700D01*
X35945Y2700D01*
X35945Y4177D01*
X35944Y4226D01*
X35934Y4274D01*
X35915Y4319D01*
X35888Y4360D01*
X35853Y4394D01*
X35812Y4421D01*
X35767Y4440D01*
X35719Y4450D01*
X35612Y4450D01*
X35550Y4387D01*
X35550Y3450D01*
X35882Y3450D01*
X35945Y3512D01*
X35945Y4177D01*
X35945Y2700D01*
X35945Y2700D01*
X35945Y3287D01*
X35882Y3350D01*
X35550Y3350D01*
X35550Y3342D01*
X35450Y3342D01*
X35450Y3350D01*
X35450Y3450D01*
X35450Y4387D01*
X35387Y4450D01*
X35280Y4450D01*
X35232Y4440D01*
X35187Y4421D01*
X35146Y4394D01*
X35111Y4360D01*
X35084Y4319D01*
X35065Y4274D01*
X35055Y4226D01*
X35054Y4177D01*
X35055Y3512D01*
X35117Y3450D01*
X35450Y3450D01*
X35450Y3350D01*
X35117Y3350D01*
X35055Y3287D01*
X35054Y2700D01*
X34180Y2700D01*
X34214Y3052D01*
X34346Y3487D01*
X34559Y3889D01*
X34847Y4241D01*
X35197Y4531D01*
X35597Y4747D01*
X36031Y4881D01*
X36491Y4930D01*
X36491Y4930D01*
X36952Y4885D01*
X37387Y4753D01*
X37789Y4540D01*
X38141Y4252D01*
X38431Y3902D01*
X38647Y3502D01*
X38781Y3068D01*
X38820Y2700D01*
X38820Y2700D01*
G37*
G54D19*
X38820Y2700D02*
X37845Y2700D01*
X37845Y4214D01*
X37839Y4243D01*
X37828Y4270D01*
X37811Y4295D01*
X37791Y4316D01*
X37766Y4332D01*
X37739Y4343D01*
X37710Y4349D01*
X37681Y4350D01*
X37290Y4350D01*
X37261Y4344D01*
X37234Y4333D01*
X37209Y4316D01*
X37188Y4296D01*
X37172Y4271D01*
X37161Y4244D01*
X37155Y4215D01*
X37154Y4186D01*
X37154Y2700D01*
X36807Y2700D01*
X36791Y2716D01*
X36766Y2732D01*
X36739Y2743D01*
X36710Y2749D01*
X36681Y2750D01*
X36290Y2750D01*
X36261Y2744D01*
X36234Y2733D01*
X36209Y2716D01*
X36192Y2700D01*
X35945Y2700D01*
X35945Y4177D01*
X35944Y4226D01*
X35934Y4274D01*
X35915Y4319D01*
X35888Y4360D01*
X35853Y4394D01*
X35812Y4421D01*
X35767Y4440D01*
X35719Y4450D01*
X35612Y4450D01*
X35550Y4387D01*
X35550Y3450D01*
X35882Y3450D01*
X35945Y3512D01*
X35945Y4177D01*
X35945Y2700D01*
X35945Y2700D01*
X35945Y3287D01*
X35882Y3350D01*
X35550Y3350D01*
X35550Y3342D01*
X35450Y3342D01*
X35450Y3350D01*
X35450Y3450D01*
X35450Y4387D01*
X35387Y4450D01*
X35280Y4450D01*
X35232Y4440D01*
X35187Y4421D01*
X35146Y4394D01*
X35111Y4360D01*
X35084Y4319D01*
X35065Y4274D01*
X35055Y4226D01*
X35054Y4177D01*
X35055Y3512D01*
X35117Y3450D01*
X35450Y3450D01*
X35450Y3350D01*
X35117Y3350D01*
X35055Y3287D01*
X35054Y2700D01*
X34180Y2700D01*
X34214Y3052D01*
X34346Y3487D01*
X34559Y3889D01*
X34847Y4241D01*
X35197Y4531D01*
X35597Y4747D01*
X36031Y4881D01*
X36491Y4930D01*
X36491Y4930D01*
X36952Y4885D01*
X37387Y4753D01*
X37789Y4540D01*
X38141Y4252D01*
X38431Y3902D01*
X38647Y3502D01*
X38781Y3068D01*
X38820Y2700D01*
G54D10*
G36*
X38804Y2350D02*
X38785Y2147D01*
X38653Y1712D01*
X38440Y1310D01*
X38152Y958D01*
X37802Y668D01*
X37402Y452D01*
X36968Y318D01*
X36945Y315D01*
X36945Y1022D01*
X36945Y1687D01*
X36882Y1750D01*
X36550Y1750D01*
X36550Y812D01*
X36612Y750D01*
X36719Y749D01*
X36767Y759D01*
X36812Y778D01*
X36853Y805D01*
X36888Y839D01*
X36915Y880D01*
X36934Y925D01*
X36944Y973D01*
X36945Y1022D01*
X36945Y315D01*
X36508Y269D01*
X36508Y269D01*
X36450Y275D01*
X36450Y812D01*
X36450Y1750D01*
X36117Y1750D01*
X36055Y1687D01*
X36054Y1022D01*
X36055Y973D01*
X36065Y925D01*
X36084Y880D01*
X36111Y839D01*
X36146Y805D01*
X36187Y778D01*
X36232Y759D01*
X36280Y749D01*
X36387Y750D01*
X36450Y812D01*
X36450Y275D01*
X36047Y314D01*
X35612Y446D01*
X35210Y659D01*
X34858Y947D01*
X34568Y1297D01*
X34352Y1697D01*
X34218Y2131D01*
X34195Y2350D01*
X36054Y2350D01*
X36055Y1912D01*
X36117Y1850D01*
X36450Y1850D01*
X36450Y1857D01*
X36550Y1857D01*
X36550Y1850D01*
X36882Y1850D01*
X36945Y1912D01*
X36945Y2350D01*
X37280Y2350D01*
X37280Y2349D01*
X37387Y2350D01*
X37612Y2350D01*
X37719Y2349D01*
X37719Y2350D01*
X38804Y2350D01*
X38804Y2350D01*
G37*
G54D19*
X38804Y2350D02*
X38785Y2147D01*
X38653Y1712D01*
X38440Y1310D01*
X38152Y958D01*
X37802Y668D01*
X37402Y452D01*
X36968Y318D01*
X36945Y315D01*
X36945Y1022D01*
X36945Y1687D01*
X36882Y1750D01*
X36550Y1750D01*
X36550Y812D01*
X36612Y750D01*
X36719Y749D01*
X36767Y759D01*
X36812Y778D01*
X36853Y805D01*
X36888Y839D01*
X36915Y880D01*
X36934Y925D01*
X36944Y973D01*
X36945Y1022D01*
X36945Y315D01*
X36508Y269D01*
X36508Y269D01*
X36450Y275D01*
X36450Y812D01*
X36450Y1750D01*
X36117Y1750D01*
X36055Y1687D01*
X36054Y1022D01*
X36055Y973D01*
X36065Y925D01*
X36084Y880D01*
X36111Y839D01*
X36146Y805D01*
X36187Y778D01*
X36232Y759D01*
X36280Y749D01*
X36387Y750D01*
X36450Y812D01*
X36450Y275D01*
X36047Y314D01*
X35612Y446D01*
X35210Y659D01*
X34858Y947D01*
X34568Y1297D01*
X34352Y1697D01*
X34218Y2131D01*
X34195Y2350D01*
X36054Y2350D01*
X36055Y1912D01*
X36117Y1850D01*
X36450Y1850D01*
X36450Y1857D01*
X36550Y1857D01*
X36550Y1850D01*
X36882Y1850D01*
X36945Y1912D01*
X36945Y2350D01*
X37280Y2350D01*
X37280Y2349D01*
X37387Y2350D01*
X37612Y2350D01*
X37719Y2349D01*
X37719Y2350D01*
X38804Y2350D01*
G54D10*
G36*
X33320Y2700D02*
X32345Y2700D01*
X32345Y4214D01*
X32339Y4243D01*
X32328Y4270D01*
X32311Y4295D01*
X32291Y4316D01*
X32266Y4332D01*
X32239Y4343D01*
X32210Y4349D01*
X32181Y4350D01*
X31790Y4350D01*
X31761Y4344D01*
X31734Y4333D01*
X31709Y4316D01*
X31688Y4296D01*
X31672Y4271D01*
X31661Y4244D01*
X31655Y4215D01*
X31654Y4186D01*
X31654Y2700D01*
X31307Y2700D01*
X31291Y2716D01*
X31266Y2732D01*
X31239Y2743D01*
X31210Y2749D01*
X31181Y2750D01*
X30790Y2750D01*
X30761Y2744D01*
X30734Y2733D01*
X30709Y2716D01*
X30692Y2700D01*
X30445Y2700D01*
X30445Y4177D01*
X30444Y4226D01*
X30434Y4274D01*
X30415Y4319D01*
X30388Y4360D01*
X30353Y4394D01*
X30312Y4421D01*
X30267Y4440D01*
X30219Y4450D01*
X30112Y4450D01*
X30050Y4387D01*
X30050Y3450D01*
X30382Y3450D01*
X30445Y3512D01*
X30445Y4177D01*
X30445Y2700D01*
X30445Y2700D01*
X30445Y3287D01*
X30382Y3350D01*
X30050Y3350D01*
X30050Y3342D01*
X29950Y3342D01*
X29950Y3350D01*
X29950Y3450D01*
X29950Y4387D01*
X29887Y4450D01*
X29780Y4450D01*
X29732Y4440D01*
X29687Y4421D01*
X29646Y4394D01*
X29611Y4360D01*
X29584Y4319D01*
X29565Y4274D01*
X29555Y4226D01*
X29554Y4177D01*
X29555Y3512D01*
X29617Y3450D01*
X29950Y3450D01*
X29950Y3350D01*
X29617Y3350D01*
X29555Y3287D01*
X29554Y2700D01*
X28680Y2700D01*
X28714Y3052D01*
X28846Y3487D01*
X29059Y3889D01*
X29347Y4241D01*
X29697Y4531D01*
X30097Y4747D01*
X30531Y4881D01*
X30991Y4930D01*
X30991Y4930D01*
X31452Y4885D01*
X31887Y4753D01*
X32289Y4540D01*
X32641Y4252D01*
X32931Y3902D01*
X33147Y3502D01*
X33281Y3068D01*
X33320Y2700D01*
X33320Y2700D01*
G37*
G54D19*
X33320Y2700D02*
X32345Y2700D01*
X32345Y4214D01*
X32339Y4243D01*
X32328Y4270D01*
X32311Y4295D01*
X32291Y4316D01*
X32266Y4332D01*
X32239Y4343D01*
X32210Y4349D01*
X32181Y4350D01*
X31790Y4350D01*
X31761Y4344D01*
X31734Y4333D01*
X31709Y4316D01*
X31688Y4296D01*
X31672Y4271D01*
X31661Y4244D01*
X31655Y4215D01*
X31654Y4186D01*
X31654Y2700D01*
X31307Y2700D01*
X31291Y2716D01*
X31266Y2732D01*
X31239Y2743D01*
X31210Y2749D01*
X31181Y2750D01*
X30790Y2750D01*
X30761Y2744D01*
X30734Y2733D01*
X30709Y2716D01*
X30692Y2700D01*
X30445Y2700D01*
X30445Y4177D01*
X30444Y4226D01*
X30434Y4274D01*
X30415Y4319D01*
X30388Y4360D01*
X30353Y4394D01*
X30312Y4421D01*
X30267Y4440D01*
X30219Y4450D01*
X30112Y4450D01*
X30050Y4387D01*
X30050Y3450D01*
X30382Y3450D01*
X30445Y3512D01*
X30445Y4177D01*
X30445Y2700D01*
X30445Y2700D01*
X30445Y3287D01*
X30382Y3350D01*
X30050Y3350D01*
X30050Y3342D01*
X29950Y3342D01*
X29950Y3350D01*
X29950Y3450D01*
X29950Y4387D01*
X29887Y4450D01*
X29780Y4450D01*
X29732Y4440D01*
X29687Y4421D01*
X29646Y4394D01*
X29611Y4360D01*
X29584Y4319D01*
X29565Y4274D01*
X29555Y4226D01*
X29554Y4177D01*
X29555Y3512D01*
X29617Y3450D01*
X29950Y3450D01*
X29950Y3350D01*
X29617Y3350D01*
X29555Y3287D01*
X29554Y2700D01*
X28680Y2700D01*
X28714Y3052D01*
X28846Y3487D01*
X29059Y3889D01*
X29347Y4241D01*
X29697Y4531D01*
X30097Y4747D01*
X30531Y4881D01*
X30991Y4930D01*
X30991Y4930D01*
X31452Y4885D01*
X31887Y4753D01*
X32289Y4540D01*
X32641Y4252D01*
X32931Y3902D01*
X33147Y3502D01*
X33281Y3068D01*
X33320Y2700D01*
G54D10*
G36*
X33304Y2350D02*
X33285Y2147D01*
X33153Y1712D01*
X32940Y1310D01*
X32652Y958D01*
X32302Y668D01*
X31902Y452D01*
X31468Y318D01*
X31445Y315D01*
X31445Y1022D01*
X31445Y1687D01*
X31382Y1750D01*
X31050Y1750D01*
X31050Y812D01*
X31112Y750D01*
X31219Y749D01*
X31267Y759D01*
X31312Y778D01*
X31353Y805D01*
X31388Y839D01*
X31415Y880D01*
X31434Y925D01*
X31444Y973D01*
X31445Y1022D01*
X31445Y315D01*
X31008Y269D01*
X31008Y269D01*
X30950Y275D01*
X30950Y812D01*
X30950Y1750D01*
X30617Y1750D01*
X30555Y1687D01*
X30554Y1022D01*
X30555Y973D01*
X30565Y925D01*
X30584Y880D01*
X30611Y839D01*
X30646Y805D01*
X30687Y778D01*
X30732Y759D01*
X30780Y749D01*
X30887Y750D01*
X30950Y812D01*
X30950Y275D01*
X30547Y314D01*
X30112Y446D01*
X29710Y659D01*
X29358Y947D01*
X29068Y1297D01*
X28852Y1697D01*
X28718Y2131D01*
X28695Y2350D01*
X30554Y2350D01*
X30555Y1912D01*
X30617Y1850D01*
X30950Y1850D01*
X30950Y1857D01*
X31050Y1857D01*
X31050Y1850D01*
X31382Y1850D01*
X31445Y1912D01*
X31445Y2350D01*
X31780Y2350D01*
X31780Y2349D01*
X31887Y2350D01*
X32112Y2350D01*
X32219Y2349D01*
X32219Y2350D01*
X33304Y2350D01*
X33304Y2350D01*
G37*
G54D19*
X33304Y2350D02*
X33285Y2147D01*
X33153Y1712D01*
X32940Y1310D01*
X32652Y958D01*
X32302Y668D01*
X31902Y452D01*
X31468Y318D01*
X31445Y315D01*
X31445Y1022D01*
X31445Y1687D01*
X31382Y1750D01*
X31050Y1750D01*
X31050Y812D01*
X31112Y750D01*
X31219Y749D01*
X31267Y759D01*
X31312Y778D01*
X31353Y805D01*
X31388Y839D01*
X31415Y880D01*
X31434Y925D01*
X31444Y973D01*
X31445Y1022D01*
X31445Y315D01*
X31008Y269D01*
X31008Y269D01*
X30950Y275D01*
X30950Y812D01*
X30950Y1750D01*
X30617Y1750D01*
X30555Y1687D01*
X30554Y1022D01*
X30555Y973D01*
X30565Y925D01*
X30584Y880D01*
X30611Y839D01*
X30646Y805D01*
X30687Y778D01*
X30732Y759D01*
X30780Y749D01*
X30887Y750D01*
X30950Y812D01*
X30950Y275D01*
X30547Y314D01*
X30112Y446D01*
X29710Y659D01*
X29358Y947D01*
X29068Y1297D01*
X28852Y1697D01*
X28718Y2131D01*
X28695Y2350D01*
X30554Y2350D01*
X30555Y1912D01*
X30617Y1850D01*
X30950Y1850D01*
X30950Y1857D01*
X31050Y1857D01*
X31050Y1850D01*
X31382Y1850D01*
X31445Y1912D01*
X31445Y2350D01*
X31780Y2350D01*
X31780Y2349D01*
X31887Y2350D01*
X32112Y2350D01*
X32219Y2349D01*
X32219Y2350D01*
X33304Y2350D01*
M02*
