G04 (created by PCBNEW (2013-07-07 BZR 4022)-stable) date 2/17/2014 3:29:35 PM*
%MOIN*%
G04 Gerber Fmt 3.4, Leading zero omitted, Abs format*
%FSLAX34Y34*%
G01*
G70*
G90*
G04 APERTURE LIST*
%ADD10C,0.007*%
%ADD11C,0.001*%
G04 APERTURE END LIST*
G54D10*
G54D11*
X36700Y7950D02*
X34300Y7950D01*
X34300Y7750D02*
X36700Y7750D01*
X36700Y7550D02*
X34300Y7550D01*
X34300Y7350D02*
X36700Y7350D01*
X34300Y6550D02*
X36700Y6550D01*
X36700Y6750D02*
X34300Y6750D01*
X34300Y6950D02*
X36700Y6950D01*
X36700Y7150D02*
X34300Y7150D01*
X39450Y7150D02*
X37050Y7150D01*
X37050Y6950D02*
X39450Y6950D01*
X39450Y6750D02*
X37050Y6750D01*
X37050Y6550D02*
X39450Y6550D01*
X37050Y7350D02*
X39450Y7350D01*
X39450Y7550D02*
X37050Y7550D01*
X37050Y7750D02*
X39450Y7750D01*
X39450Y7950D02*
X37050Y7950D01*
X33500Y2600D02*
G75*
G03X33500Y2600I-2500J0D01*
G74*
G01*
X39000Y2600D02*
G75*
G03X39000Y2600I-2500J0D01*
G74*
G01*
X28000Y2600D02*
G75*
G03X28000Y2600I-2500J0D01*
G74*
G01*
X22500Y2600D02*
G75*
G03X22500Y2600I-2500J0D01*
G74*
G01*
X39000Y11000D02*
G75*
G03X39000Y11000I-2500J0D01*
G74*
G01*
X22500Y11000D02*
G75*
G03X22500Y11000I-2500J0D01*
G74*
G01*
X28000Y11000D02*
G75*
G03X28000Y11000I-2500J0D01*
G74*
G01*
X33500Y11000D02*
G75*
G03X33500Y11000I-2500J0D01*
G74*
G01*
X17000Y11000D02*
G75*
G03X17000Y11000I-2500J0D01*
G74*
G01*
X11500Y11000D02*
G75*
G03X11500Y11000I-2500J0D01*
G74*
G01*
X6000Y11000D02*
G75*
G03X6000Y11000I-2500J0D01*
G74*
G01*
X28000Y16500D02*
G75*
G03X28000Y16500I-2500J0D01*
G74*
G01*
X39000Y16500D02*
G75*
G03X39000Y16500I-2500J0D01*
G74*
G01*
X33500Y16500D02*
G75*
G03X33500Y16500I-2500J0D01*
G74*
G01*
X17000Y16500D02*
G75*
G03X17000Y16500I-2500J0D01*
G74*
G01*
X22500Y16500D02*
G75*
G03X22500Y16500I-2500J0D01*
G74*
G01*
X11500Y16500D02*
G75*
G03X11500Y16500I-2500J0D01*
G74*
G01*
X6000Y16500D02*
G75*
G03X6000Y16500I-2500J0D01*
G74*
G01*
X8300Y5100D02*
X15300Y5100D01*
X15300Y5100D02*
X15300Y100D01*
X15300Y100D02*
X8300Y100D01*
X8300Y100D02*
X8300Y5100D01*
X100Y100D02*
X100Y5100D01*
X7100Y100D02*
X100Y100D01*
X7100Y5100D02*
X7100Y100D01*
X100Y5100D02*
X7100Y5100D01*
X39000Y22000D02*
G75*
G03X39000Y22000I-2500J0D01*
G74*
G01*
X28000Y22000D02*
G75*
G03X28000Y22000I-2500J0D01*
G74*
G01*
X22500Y22000D02*
G75*
G03X22500Y22000I-2500J0D01*
G74*
G01*
X33500Y22000D02*
G75*
G03X33500Y22000I-2500J0D01*
G74*
G01*
X17000Y22000D02*
G75*
G03X17000Y22000I-2500J0D01*
G74*
G01*
X6000Y22000D02*
G75*
G03X6000Y22000I-2500J0D01*
G74*
G01*
X11500Y22000D02*
G75*
G03X11500Y22000I-2500J0D01*
G74*
G01*
M02*
