G04 (created by PCBNEW (2013-07-07 BZR 4022)-stable) date 2/5/2014 8:06:17 PM*
%MOIN*%
G04 Gerber Fmt 3.4, Leading zero omitted, Abs format*
%FSLAX34Y34*%
G01*
G70*
G90*
G04 APERTURE LIST*
%ADD10C,0.007*%
%ADD11C,0.00787402*%
%ADD12C,0.01*%
%ADD13C,0.00590551*%
%ADD14R,0.069X0.069*%
%ADD15C,0.069*%
%ADD16R,0.073X0.0652*%
%ADD17R,0.0573071X0.0691181*%
%ADD18R,0.0514016X0.0514016*%
%ADD19R,0.037622X0.0356535*%
%ADD20R,0.053X0.174*%
G04 APERTURE END LIST*
G54D10*
G54D11*
X39000Y25400D02*
X39000Y25600D01*
X39000Y25000D02*
X39000Y25200D01*
X39000Y21400D02*
X39000Y21600D01*
X39000Y21000D02*
X39000Y21200D01*
X39000Y20600D02*
X39000Y20800D01*
X39000Y20200D02*
X39000Y20400D01*
X39000Y19800D02*
X39000Y20000D01*
X39000Y19400D02*
X39000Y19600D01*
X39000Y19000D02*
X39000Y19200D01*
X39000Y18600D02*
X39000Y18800D01*
X39000Y18200D02*
X39000Y18400D01*
X39000Y21800D02*
X39000Y22000D01*
X39000Y22200D02*
X39000Y22400D01*
X39000Y22600D02*
X39000Y22800D01*
X39000Y23000D02*
X39000Y23200D01*
X39000Y23400D02*
X39000Y23600D01*
X39000Y23800D02*
X39000Y24000D01*
X39000Y24200D02*
X39000Y24400D01*
X39000Y24600D02*
X39000Y24800D01*
X39000Y25000D02*
X39000Y25200D01*
X39000Y17800D02*
X39000Y18000D01*
X39000Y17400D02*
X39000Y17600D01*
X39000Y17000D02*
X39000Y17200D01*
X39000Y16600D02*
X39000Y16800D01*
X39000Y16200D02*
X39000Y16400D01*
X39000Y15800D02*
X39000Y16000D01*
X39000Y15400D02*
X39000Y15600D01*
X39000Y15000D02*
X39000Y15200D01*
X39000Y14600D02*
X39000Y14800D01*
X39000Y11000D02*
X39000Y11200D01*
X39000Y11400D02*
X39000Y11600D01*
X39000Y11800D02*
X39000Y12000D01*
X39000Y12200D02*
X39000Y12400D01*
X39000Y12600D02*
X39000Y12800D01*
X39000Y13000D02*
X39000Y13200D01*
X39000Y13400D02*
X39000Y13600D01*
X39000Y13800D02*
X39000Y14000D01*
X39000Y14200D02*
X39000Y14400D01*
X34000Y25400D02*
X34000Y25600D01*
X34000Y25000D02*
X34000Y25200D01*
X34000Y21400D02*
X34000Y21600D01*
X34000Y21000D02*
X34000Y21200D01*
X34000Y20600D02*
X34000Y20800D01*
X34000Y20200D02*
X34000Y20400D01*
X34000Y19800D02*
X34000Y20000D01*
X34000Y19400D02*
X34000Y19600D01*
X34000Y19000D02*
X34000Y19200D01*
X34000Y18600D02*
X34000Y18800D01*
X34000Y18200D02*
X34000Y18400D01*
X34000Y21800D02*
X34000Y22000D01*
X34000Y22200D02*
X34000Y22400D01*
X34000Y22600D02*
X34000Y22800D01*
X34000Y23000D02*
X34000Y23200D01*
X34000Y23400D02*
X34000Y23600D01*
X34000Y23800D02*
X34000Y24000D01*
X34000Y24200D02*
X34000Y24400D01*
X34000Y24600D02*
X34000Y24800D01*
X34000Y25000D02*
X34000Y25200D01*
X34000Y17800D02*
X34000Y18000D01*
X34000Y17400D02*
X34000Y17600D01*
X34000Y17000D02*
X34000Y17200D01*
X34000Y16600D02*
X34000Y16800D01*
X34000Y16200D02*
X34000Y16400D01*
X34000Y15800D02*
X34000Y16000D01*
X34000Y15400D02*
X34000Y15600D01*
X34000Y15000D02*
X34000Y15200D01*
X34000Y14600D02*
X34000Y14800D01*
X34000Y11000D02*
X34000Y11200D01*
X34000Y11400D02*
X34000Y11600D01*
X34000Y11800D02*
X34000Y12000D01*
X34000Y12200D02*
X34000Y12400D01*
X34000Y12600D02*
X34000Y12800D01*
X34000Y13000D02*
X34000Y13200D01*
X34000Y13400D02*
X34000Y13600D01*
X34000Y13800D02*
X34000Y14000D01*
X34000Y14200D02*
X34000Y14400D01*
X33500Y25400D02*
X33500Y25600D01*
X33500Y25000D02*
X33500Y25200D01*
X33500Y21400D02*
X33500Y21600D01*
X33500Y21000D02*
X33500Y21200D01*
X33500Y20600D02*
X33500Y20800D01*
X33500Y20200D02*
X33500Y20400D01*
X33500Y19800D02*
X33500Y20000D01*
X33500Y19400D02*
X33500Y19600D01*
X33500Y19000D02*
X33500Y19200D01*
X33500Y18600D02*
X33500Y18800D01*
X33500Y18200D02*
X33500Y18400D01*
X33500Y21800D02*
X33500Y22000D01*
X33500Y22200D02*
X33500Y22400D01*
X33500Y22600D02*
X33500Y22800D01*
X33500Y23000D02*
X33500Y23200D01*
X33500Y23400D02*
X33500Y23600D01*
X33500Y23800D02*
X33500Y24000D01*
X33500Y24200D02*
X33500Y24400D01*
X33500Y24600D02*
X33500Y24800D01*
X33500Y25000D02*
X33500Y25200D01*
X33500Y17800D02*
X33500Y18000D01*
X33500Y17400D02*
X33500Y17600D01*
X33500Y17000D02*
X33500Y17200D01*
X33500Y16600D02*
X33500Y16800D01*
X33500Y16200D02*
X33500Y16400D01*
X33500Y15800D02*
X33500Y16000D01*
X33500Y15400D02*
X33500Y15600D01*
X33500Y15000D02*
X33500Y15200D01*
X33500Y14600D02*
X33500Y14800D01*
X33500Y11000D02*
X33500Y11200D01*
X33500Y11400D02*
X33500Y11600D01*
X33500Y11800D02*
X33500Y12000D01*
X33500Y12200D02*
X33500Y12400D01*
X33500Y12600D02*
X33500Y12800D01*
X33500Y13000D02*
X33500Y13200D01*
X33500Y13400D02*
X33500Y13600D01*
X33500Y13800D02*
X33500Y14000D01*
X33500Y14200D02*
X33500Y14400D01*
X28500Y25400D02*
X28500Y25600D01*
X28500Y25000D02*
X28500Y25200D01*
X28500Y21400D02*
X28500Y21600D01*
X28500Y21000D02*
X28500Y21200D01*
X28500Y20600D02*
X28500Y20800D01*
X28500Y20200D02*
X28500Y20400D01*
X28500Y19800D02*
X28500Y20000D01*
X28500Y19400D02*
X28500Y19600D01*
X28500Y19000D02*
X28500Y19200D01*
X28500Y18600D02*
X28500Y18800D01*
X28500Y18200D02*
X28500Y18400D01*
X28500Y21800D02*
X28500Y22000D01*
X28500Y22200D02*
X28500Y22400D01*
X28500Y22600D02*
X28500Y22800D01*
X28500Y23000D02*
X28500Y23200D01*
X28500Y23400D02*
X28500Y23600D01*
X28500Y23800D02*
X28500Y24000D01*
X28500Y24200D02*
X28500Y24400D01*
X28500Y24600D02*
X28500Y24800D01*
X28500Y25000D02*
X28500Y25200D01*
X28500Y17800D02*
X28500Y18000D01*
X28500Y17400D02*
X28500Y17600D01*
X28500Y17000D02*
X28500Y17200D01*
X28500Y16600D02*
X28500Y16800D01*
X28500Y16200D02*
X28500Y16400D01*
X28500Y15800D02*
X28500Y16000D01*
X28500Y15400D02*
X28500Y15600D01*
X28500Y15000D02*
X28500Y15200D01*
X28500Y14600D02*
X28500Y14800D01*
X28500Y11000D02*
X28500Y11200D01*
X28500Y11400D02*
X28500Y11600D01*
X28500Y11800D02*
X28500Y12000D01*
X28500Y12200D02*
X28500Y12400D01*
X28500Y12600D02*
X28500Y12800D01*
X28500Y13000D02*
X28500Y13200D01*
X28500Y13400D02*
X28500Y13600D01*
X28500Y13800D02*
X28500Y14000D01*
X28500Y14200D02*
X28500Y14400D01*
X28000Y25400D02*
X28000Y25600D01*
X28000Y25000D02*
X28000Y25200D01*
X28000Y21400D02*
X28000Y21600D01*
X28000Y21000D02*
X28000Y21200D01*
X28000Y20600D02*
X28000Y20800D01*
X28000Y20200D02*
X28000Y20400D01*
X28000Y19800D02*
X28000Y20000D01*
X28000Y19400D02*
X28000Y19600D01*
X28000Y19000D02*
X28000Y19200D01*
X28000Y18600D02*
X28000Y18800D01*
X28000Y18200D02*
X28000Y18400D01*
X28000Y21800D02*
X28000Y22000D01*
X28000Y22200D02*
X28000Y22400D01*
X28000Y22600D02*
X28000Y22800D01*
X28000Y23000D02*
X28000Y23200D01*
X28000Y23400D02*
X28000Y23600D01*
X28000Y23800D02*
X28000Y24000D01*
X28000Y24200D02*
X28000Y24400D01*
X28000Y24600D02*
X28000Y24800D01*
X28000Y25000D02*
X28000Y25200D01*
X28000Y17800D02*
X28000Y18000D01*
X28000Y17400D02*
X28000Y17600D01*
X28000Y17000D02*
X28000Y17200D01*
X28000Y16600D02*
X28000Y16800D01*
X28000Y16200D02*
X28000Y16400D01*
X28000Y15800D02*
X28000Y16000D01*
X28000Y15400D02*
X28000Y15600D01*
X28000Y15000D02*
X28000Y15200D01*
X28000Y14600D02*
X28000Y14800D01*
X28000Y11000D02*
X28000Y11200D01*
X28000Y11400D02*
X28000Y11600D01*
X28000Y11800D02*
X28000Y12000D01*
X28000Y12200D02*
X28000Y12400D01*
X28000Y12600D02*
X28000Y12800D01*
X28000Y13000D02*
X28000Y13200D01*
X28000Y13400D02*
X28000Y13600D01*
X28000Y13800D02*
X28000Y14000D01*
X28000Y14200D02*
X28000Y14400D01*
X23000Y25400D02*
X23000Y25600D01*
X23000Y25000D02*
X23000Y25200D01*
X23000Y21400D02*
X23000Y21600D01*
X23000Y21000D02*
X23000Y21200D01*
X23000Y20600D02*
X23000Y20800D01*
X23000Y20200D02*
X23000Y20400D01*
X23000Y19800D02*
X23000Y20000D01*
X23000Y19400D02*
X23000Y19600D01*
X23000Y19000D02*
X23000Y19200D01*
X23000Y18600D02*
X23000Y18800D01*
X23000Y18200D02*
X23000Y18400D01*
X23000Y21800D02*
X23000Y22000D01*
X23000Y22200D02*
X23000Y22400D01*
X23000Y22600D02*
X23000Y22800D01*
X23000Y23000D02*
X23000Y23200D01*
X23000Y23400D02*
X23000Y23600D01*
X23000Y23800D02*
X23000Y24000D01*
X23000Y24200D02*
X23000Y24400D01*
X23000Y24600D02*
X23000Y24800D01*
X23000Y25000D02*
X23000Y25200D01*
X23000Y17800D02*
X23000Y18000D01*
X23000Y17400D02*
X23000Y17600D01*
X23000Y17000D02*
X23000Y17200D01*
X23000Y16600D02*
X23000Y16800D01*
X23000Y16200D02*
X23000Y16400D01*
X23000Y15800D02*
X23000Y16000D01*
X23000Y15400D02*
X23000Y15600D01*
X23000Y15000D02*
X23000Y15200D01*
X23000Y14600D02*
X23000Y14800D01*
X23000Y11000D02*
X23000Y11200D01*
X23000Y11400D02*
X23000Y11600D01*
X23000Y11800D02*
X23000Y12000D01*
X23000Y12200D02*
X23000Y12400D01*
X23000Y12600D02*
X23000Y12800D01*
X23000Y13000D02*
X23000Y13200D01*
X23000Y13400D02*
X23000Y13600D01*
X23000Y13800D02*
X23000Y14000D01*
X23000Y14200D02*
X23000Y14400D01*
X22500Y25400D02*
X22500Y25600D01*
X22500Y25000D02*
X22500Y25200D01*
X22500Y21400D02*
X22500Y21600D01*
X22500Y21000D02*
X22500Y21200D01*
X22500Y20600D02*
X22500Y20800D01*
X22500Y20200D02*
X22500Y20400D01*
X22500Y19800D02*
X22500Y20000D01*
X22500Y19400D02*
X22500Y19600D01*
X22500Y19000D02*
X22500Y19200D01*
X22500Y18600D02*
X22500Y18800D01*
X22500Y18200D02*
X22500Y18400D01*
X22500Y21800D02*
X22500Y22000D01*
X22500Y22200D02*
X22500Y22400D01*
X22500Y22600D02*
X22500Y22800D01*
X22500Y23000D02*
X22500Y23200D01*
X22500Y23400D02*
X22500Y23600D01*
X22500Y23800D02*
X22500Y24000D01*
X22500Y24200D02*
X22500Y24400D01*
X22500Y24600D02*
X22500Y24800D01*
X22500Y25000D02*
X22500Y25200D01*
X22500Y17800D02*
X22500Y18000D01*
X22500Y17400D02*
X22500Y17600D01*
X22500Y17000D02*
X22500Y17200D01*
X22500Y16600D02*
X22500Y16800D01*
X22500Y16200D02*
X22500Y16400D01*
X22500Y15800D02*
X22500Y16000D01*
X22500Y15400D02*
X22500Y15600D01*
X22500Y15000D02*
X22500Y15200D01*
X22500Y14600D02*
X22500Y14800D01*
X22500Y11000D02*
X22500Y11200D01*
X22500Y11400D02*
X22500Y11600D01*
X22500Y11800D02*
X22500Y12000D01*
X22500Y12200D02*
X22500Y12400D01*
X22500Y12600D02*
X22500Y12800D01*
X22500Y13000D02*
X22500Y13200D01*
X22500Y13400D02*
X22500Y13600D01*
X22500Y13800D02*
X22500Y14000D01*
X22500Y14200D02*
X22500Y14400D01*
X17500Y25400D02*
X17500Y25600D01*
X17500Y25000D02*
X17500Y25200D01*
X17500Y21400D02*
X17500Y21600D01*
X17500Y21000D02*
X17500Y21200D01*
X17500Y20600D02*
X17500Y20800D01*
X17500Y20200D02*
X17500Y20400D01*
X17500Y19800D02*
X17500Y20000D01*
X17500Y19400D02*
X17500Y19600D01*
X17500Y19000D02*
X17500Y19200D01*
X17500Y18600D02*
X17500Y18800D01*
X17500Y18200D02*
X17500Y18400D01*
X17500Y21800D02*
X17500Y22000D01*
X17500Y22200D02*
X17500Y22400D01*
X17500Y22600D02*
X17500Y22800D01*
X17500Y23000D02*
X17500Y23200D01*
X17500Y23400D02*
X17500Y23600D01*
X17500Y23800D02*
X17500Y24000D01*
X17500Y24200D02*
X17500Y24400D01*
X17500Y24600D02*
X17500Y24800D01*
X17500Y25000D02*
X17500Y25200D01*
X17500Y17800D02*
X17500Y18000D01*
X17500Y17400D02*
X17500Y17600D01*
X17500Y17000D02*
X17500Y17200D01*
X17500Y16600D02*
X17500Y16800D01*
X17500Y16200D02*
X17500Y16400D01*
X17500Y15800D02*
X17500Y16000D01*
X17500Y15400D02*
X17500Y15600D01*
X17500Y15000D02*
X17500Y15200D01*
X17500Y14600D02*
X17500Y14800D01*
X17500Y11000D02*
X17500Y11200D01*
X17500Y11400D02*
X17500Y11600D01*
X17500Y11800D02*
X17500Y12000D01*
X17500Y12200D02*
X17500Y12400D01*
X17500Y12600D02*
X17500Y12800D01*
X17500Y13000D02*
X17500Y13200D01*
X17500Y13400D02*
X17500Y13600D01*
X17500Y13800D02*
X17500Y14000D01*
X17500Y14200D02*
X17500Y14400D01*
X17500Y25400D02*
X17500Y25600D01*
X17500Y25000D02*
X17500Y25200D01*
X17500Y21400D02*
X17500Y21600D01*
X17500Y21000D02*
X17500Y21200D01*
X17500Y20600D02*
X17500Y20800D01*
X17500Y20200D02*
X17500Y20400D01*
X17500Y19800D02*
X17500Y20000D01*
X17500Y19400D02*
X17500Y19600D01*
X17500Y19000D02*
X17500Y19200D01*
X17500Y18600D02*
X17500Y18800D01*
X17500Y18200D02*
X17500Y18400D01*
X17500Y21800D02*
X17500Y22000D01*
X17500Y22200D02*
X17500Y22400D01*
X17500Y22600D02*
X17500Y22800D01*
X17500Y23000D02*
X17500Y23200D01*
X17500Y23400D02*
X17500Y23600D01*
X17500Y23800D02*
X17500Y24000D01*
X17500Y24200D02*
X17500Y24400D01*
X17500Y24600D02*
X17500Y24800D01*
X17500Y25000D02*
X17500Y25200D01*
X17500Y17800D02*
X17500Y18000D01*
X17500Y17400D02*
X17500Y17600D01*
X17500Y17000D02*
X17500Y17200D01*
X17500Y16600D02*
X17500Y16800D01*
X17500Y16200D02*
X17500Y16400D01*
X17500Y15800D02*
X17500Y16000D01*
X17500Y15400D02*
X17500Y15600D01*
X17500Y15000D02*
X17500Y15200D01*
X17500Y14600D02*
X17500Y14800D01*
X17500Y11000D02*
X17500Y11200D01*
X17500Y11400D02*
X17500Y11600D01*
X17500Y11800D02*
X17500Y12000D01*
X17500Y12200D02*
X17500Y12400D01*
X17500Y12600D02*
X17500Y12800D01*
X17500Y13000D02*
X17500Y13200D01*
X17500Y13400D02*
X17500Y13600D01*
X17500Y13800D02*
X17500Y14000D01*
X17500Y14200D02*
X17500Y14400D01*
X17000Y25400D02*
X17000Y25600D01*
X17000Y25000D02*
X17000Y25200D01*
X17000Y21400D02*
X17000Y21600D01*
X17000Y21000D02*
X17000Y21200D01*
X17000Y20600D02*
X17000Y20800D01*
X17000Y20200D02*
X17000Y20400D01*
X17000Y19800D02*
X17000Y20000D01*
X17000Y19400D02*
X17000Y19600D01*
X17000Y19000D02*
X17000Y19200D01*
X17000Y18600D02*
X17000Y18800D01*
X17000Y18200D02*
X17000Y18400D01*
X17000Y21800D02*
X17000Y22000D01*
X17000Y22200D02*
X17000Y22400D01*
X17000Y22600D02*
X17000Y22800D01*
X17000Y23000D02*
X17000Y23200D01*
X17000Y23400D02*
X17000Y23600D01*
X17000Y23800D02*
X17000Y24000D01*
X17000Y24200D02*
X17000Y24400D01*
X17000Y24600D02*
X17000Y24800D01*
X17000Y25000D02*
X17000Y25200D01*
X17000Y17800D02*
X17000Y18000D01*
X17000Y17400D02*
X17000Y17600D01*
X17000Y17000D02*
X17000Y17200D01*
X17000Y16600D02*
X17000Y16800D01*
X17000Y16200D02*
X17000Y16400D01*
X17000Y15800D02*
X17000Y16000D01*
X17000Y15400D02*
X17000Y15600D01*
X17000Y15000D02*
X17000Y15200D01*
X17000Y14600D02*
X17000Y14800D01*
X17000Y11000D02*
X17000Y11200D01*
X17000Y11400D02*
X17000Y11600D01*
X17000Y11800D02*
X17000Y12000D01*
X17000Y12200D02*
X17000Y12400D01*
X17000Y12600D02*
X17000Y12800D01*
X17000Y13000D02*
X17000Y13200D01*
X17000Y13400D02*
X17000Y13600D01*
X17000Y13800D02*
X17000Y14000D01*
X17000Y14200D02*
X17000Y14400D01*
X12000Y25400D02*
X12000Y25600D01*
X12000Y25000D02*
X12000Y25200D01*
X12000Y21400D02*
X12000Y21600D01*
X12000Y21000D02*
X12000Y21200D01*
X12000Y20600D02*
X12000Y20800D01*
X12000Y20200D02*
X12000Y20400D01*
X12000Y19800D02*
X12000Y20000D01*
X12000Y19400D02*
X12000Y19600D01*
X12000Y19000D02*
X12000Y19200D01*
X12000Y18600D02*
X12000Y18800D01*
X12000Y18200D02*
X12000Y18400D01*
X12000Y21800D02*
X12000Y22000D01*
X12000Y22200D02*
X12000Y22400D01*
X12000Y22600D02*
X12000Y22800D01*
X12000Y23000D02*
X12000Y23200D01*
X12000Y23400D02*
X12000Y23600D01*
X12000Y23800D02*
X12000Y24000D01*
X12000Y24200D02*
X12000Y24400D01*
X12000Y24600D02*
X12000Y24800D01*
X12000Y25000D02*
X12000Y25200D01*
X12000Y17800D02*
X12000Y18000D01*
X12000Y17400D02*
X12000Y17600D01*
X12000Y17000D02*
X12000Y17200D01*
X12000Y16600D02*
X12000Y16800D01*
X12000Y16200D02*
X12000Y16400D01*
X12000Y15800D02*
X12000Y16000D01*
X12000Y15400D02*
X12000Y15600D01*
X12000Y15000D02*
X12000Y15200D01*
X12000Y14600D02*
X12000Y14800D01*
X12000Y11000D02*
X12000Y11200D01*
X12000Y11400D02*
X12000Y11600D01*
X12000Y11800D02*
X12000Y12000D01*
X12000Y12200D02*
X12000Y12400D01*
X12000Y12600D02*
X12000Y12800D01*
X12000Y13000D02*
X12000Y13200D01*
X12000Y13400D02*
X12000Y13600D01*
X12000Y13800D02*
X12000Y14000D01*
X12000Y14200D02*
X12000Y14400D01*
X11500Y25400D02*
X11500Y25600D01*
X11500Y25000D02*
X11500Y25200D01*
X11500Y21400D02*
X11500Y21600D01*
X11500Y21000D02*
X11500Y21200D01*
X11500Y20600D02*
X11500Y20800D01*
X11500Y20200D02*
X11500Y20400D01*
X11500Y19800D02*
X11500Y20000D01*
X11500Y19400D02*
X11500Y19600D01*
X11500Y19000D02*
X11500Y19200D01*
X11500Y18600D02*
X11500Y18800D01*
X11500Y18200D02*
X11500Y18400D01*
X11500Y21800D02*
X11500Y22000D01*
X11500Y22200D02*
X11500Y22400D01*
X11500Y22600D02*
X11500Y22800D01*
X11500Y23000D02*
X11500Y23200D01*
X11500Y23400D02*
X11500Y23600D01*
X11500Y23800D02*
X11500Y24000D01*
X11500Y24200D02*
X11500Y24400D01*
X11500Y24600D02*
X11500Y24800D01*
X11500Y25000D02*
X11500Y25200D01*
X11500Y17800D02*
X11500Y18000D01*
X11500Y17400D02*
X11500Y17600D01*
X11500Y17000D02*
X11500Y17200D01*
X11500Y16600D02*
X11500Y16800D01*
X11500Y16200D02*
X11500Y16400D01*
X11500Y15800D02*
X11500Y16000D01*
X11500Y15400D02*
X11500Y15600D01*
X11500Y15000D02*
X11500Y15200D01*
X11500Y14600D02*
X11500Y14800D01*
X11500Y11000D02*
X11500Y11200D01*
X11500Y11400D02*
X11500Y11600D01*
X11500Y11800D02*
X11500Y12000D01*
X11500Y12200D02*
X11500Y12400D01*
X11500Y12600D02*
X11500Y12800D01*
X11500Y13000D02*
X11500Y13200D01*
X11500Y13400D02*
X11500Y13600D01*
X11500Y13800D02*
X11500Y14000D01*
X11500Y14200D02*
X11500Y14400D01*
X6500Y25400D02*
X6500Y25600D01*
X6500Y25000D02*
X6500Y25200D01*
X6500Y21400D02*
X6500Y21600D01*
X6500Y21000D02*
X6500Y21200D01*
X6500Y20600D02*
X6500Y20800D01*
X6500Y20200D02*
X6500Y20400D01*
X6500Y19800D02*
X6500Y20000D01*
X6500Y19400D02*
X6500Y19600D01*
X6500Y19000D02*
X6500Y19200D01*
X6500Y18600D02*
X6500Y18800D01*
X6500Y18200D02*
X6500Y18400D01*
X6500Y21800D02*
X6500Y22000D01*
X6500Y22200D02*
X6500Y22400D01*
X6500Y22600D02*
X6500Y22800D01*
X6500Y23000D02*
X6500Y23200D01*
X6500Y23400D02*
X6500Y23600D01*
X6500Y23800D02*
X6500Y24000D01*
X6500Y24200D02*
X6500Y24400D01*
X6500Y24600D02*
X6500Y24800D01*
X6500Y25000D02*
X6500Y25200D01*
X6500Y17800D02*
X6500Y18000D01*
X6500Y17400D02*
X6500Y17600D01*
X6500Y17000D02*
X6500Y17200D01*
X6500Y16600D02*
X6500Y16800D01*
X6500Y16200D02*
X6500Y16400D01*
X6500Y15800D02*
X6500Y16000D01*
X6500Y15400D02*
X6500Y15600D01*
X6500Y15000D02*
X6500Y15200D01*
X6500Y14600D02*
X6500Y14800D01*
X6500Y11000D02*
X6500Y11200D01*
X6500Y11400D02*
X6500Y11600D01*
X6500Y11800D02*
X6500Y12000D01*
X6500Y12200D02*
X6500Y12400D01*
X6500Y12600D02*
X6500Y12800D01*
X6500Y13000D02*
X6500Y13200D01*
X6500Y13400D02*
X6500Y13600D01*
X6500Y13800D02*
X6500Y14000D01*
X6500Y14200D02*
X6500Y14400D01*
X1000Y25400D02*
X1000Y25600D01*
X1000Y25000D02*
X1000Y25200D01*
X1000Y21400D02*
X1000Y21600D01*
X1000Y21000D02*
X1000Y21200D01*
X1000Y20600D02*
X1000Y20800D01*
X1000Y20200D02*
X1000Y20400D01*
X1000Y19800D02*
X1000Y20000D01*
X1000Y19400D02*
X1000Y19600D01*
X1000Y19000D02*
X1000Y19200D01*
X1000Y18600D02*
X1000Y18800D01*
X1000Y18200D02*
X1000Y18400D01*
X1000Y21800D02*
X1000Y22000D01*
X1000Y22200D02*
X1000Y22400D01*
X1000Y22600D02*
X1000Y22800D01*
X1000Y23000D02*
X1000Y23200D01*
X1000Y23400D02*
X1000Y23600D01*
X1000Y23800D02*
X1000Y24000D01*
X1000Y24200D02*
X1000Y24400D01*
X1000Y24600D02*
X1000Y24800D01*
X1000Y25000D02*
X1000Y25200D01*
X1000Y17800D02*
X1000Y18000D01*
X1000Y17400D02*
X1000Y17600D01*
X1000Y17000D02*
X1000Y17200D01*
X1000Y16600D02*
X1000Y16800D01*
X1000Y16200D02*
X1000Y16400D01*
X1000Y15800D02*
X1000Y16000D01*
X1000Y15400D02*
X1000Y15600D01*
X1000Y15000D02*
X1000Y15200D01*
X1000Y14600D02*
X1000Y14800D01*
X1000Y11000D02*
X1000Y11200D01*
X1000Y11400D02*
X1000Y11600D01*
X1000Y11800D02*
X1000Y12000D01*
X1000Y12200D02*
X1000Y12400D01*
X1000Y12600D02*
X1000Y12800D01*
X1000Y13000D02*
X1000Y13200D01*
X1000Y13400D02*
X1000Y13600D01*
X1000Y13800D02*
X1000Y14000D01*
X1000Y14200D02*
X1000Y14400D01*
X6000Y25350D02*
X6000Y25550D01*
X6000Y24950D02*
X6000Y25150D01*
X6000Y21350D02*
X6000Y21550D01*
X6000Y20950D02*
X6000Y21150D01*
X6000Y20550D02*
X6000Y20750D01*
X6000Y20150D02*
X6000Y20350D01*
X6000Y19750D02*
X6000Y19950D01*
X6000Y19350D02*
X6000Y19550D01*
X6000Y18950D02*
X6000Y19150D01*
X6000Y18550D02*
X6000Y18750D01*
X6000Y18150D02*
X6000Y18350D01*
X6000Y21750D02*
X6000Y21950D01*
X6000Y22150D02*
X6000Y22350D01*
X6000Y22550D02*
X6000Y22750D01*
X6000Y22950D02*
X6000Y23150D01*
X6000Y23350D02*
X6000Y23550D01*
X6000Y23750D02*
X6000Y23950D01*
X6000Y24150D02*
X6000Y24350D01*
X6000Y24550D02*
X6000Y24750D01*
X6000Y24950D02*
X6000Y25150D01*
X6000Y17750D02*
X6000Y17950D01*
X6000Y17350D02*
X6000Y17550D01*
X6000Y16950D02*
X6000Y17150D01*
X6000Y16550D02*
X6000Y16750D01*
X6000Y16150D02*
X6000Y16350D01*
X6000Y15750D02*
X6000Y15950D01*
X6000Y15350D02*
X6000Y15550D01*
X6000Y14950D02*
X6000Y15150D01*
X6000Y14550D02*
X6000Y14750D01*
X6000Y10950D02*
X6000Y11150D01*
X6000Y11350D02*
X6000Y11550D01*
X6000Y11750D02*
X6000Y11950D01*
X6000Y12150D02*
X6000Y12350D01*
X6000Y12550D02*
X6000Y12750D01*
X6000Y12950D02*
X6000Y13150D01*
X6000Y13350D02*
X6000Y13550D01*
X6000Y13750D02*
X6000Y13950D01*
X6000Y14150D02*
X6000Y14350D01*
X15500Y5100D02*
X15700Y5100D01*
X15900Y5100D02*
X16100Y5100D01*
X23100Y5100D02*
X23300Y5100D01*
X22700Y5100D02*
X22900Y5100D01*
X22300Y5100D02*
X22500Y5100D01*
X21900Y5100D02*
X22100Y5100D01*
X21500Y5100D02*
X21700Y5100D01*
X21100Y5100D02*
X21300Y5100D01*
X20700Y5100D02*
X20900Y5100D01*
X20300Y5100D02*
X20500Y5100D01*
X19900Y5100D02*
X20100Y5100D01*
X16300Y5100D02*
X16500Y5100D01*
X16700Y5100D02*
X16900Y5100D01*
X17100Y5100D02*
X17300Y5100D01*
X17500Y5100D02*
X17700Y5100D01*
X17900Y5100D02*
X18100Y5100D01*
X18300Y5100D02*
X18500Y5100D01*
X18700Y5100D02*
X18900Y5100D01*
X19100Y5100D02*
X19300Y5100D01*
X19500Y5100D02*
X19700Y5100D01*
X33500Y5100D02*
X33700Y5100D01*
X33100Y5100D02*
X33300Y5100D01*
X32700Y5100D02*
X32900Y5100D01*
X32300Y5100D02*
X32500Y5100D01*
X31900Y5100D02*
X32100Y5100D01*
X31500Y5100D02*
X31700Y5100D01*
X31100Y5100D02*
X31300Y5100D01*
X30700Y5100D02*
X30900Y5100D01*
X30300Y5100D02*
X30500Y5100D01*
X33900Y5100D02*
X34100Y5100D01*
X34300Y5100D02*
X34500Y5100D01*
X34700Y5100D02*
X34900Y5100D01*
X35100Y5100D02*
X35300Y5100D01*
X35500Y5100D02*
X35700Y5100D01*
X35900Y5100D02*
X36100Y5100D01*
X36300Y5100D02*
X36500Y5100D01*
X36700Y5100D02*
X36900Y5100D01*
X37100Y5100D02*
X37300Y5100D01*
X29900Y5100D02*
X30100Y5100D01*
X29500Y5100D02*
X29700Y5100D01*
X29100Y5100D02*
X29300Y5100D01*
X28700Y5100D02*
X28900Y5100D01*
X28300Y5100D02*
X28500Y5100D01*
X27900Y5100D02*
X28100Y5100D01*
X27500Y5100D02*
X27700Y5100D01*
X27100Y5100D02*
X27300Y5100D01*
X26700Y5100D02*
X26900Y5100D01*
X23100Y5100D02*
X23300Y5100D01*
X23500Y5100D02*
X23700Y5100D01*
X23900Y5100D02*
X24100Y5100D01*
X24300Y5100D02*
X24500Y5100D01*
X24700Y5100D02*
X24900Y5100D01*
X25100Y5100D02*
X25300Y5100D01*
X25500Y5100D02*
X25700Y5100D01*
X25900Y5100D02*
X26100Y5100D01*
X26300Y5100D02*
X26500Y5100D01*
X11500Y8500D02*
X11700Y8500D01*
X11100Y8500D02*
X11300Y8500D01*
X10700Y8500D02*
X10900Y8500D01*
X10300Y8500D02*
X10500Y8500D01*
X9900Y8500D02*
X10100Y8500D01*
X9500Y8500D02*
X9700Y8500D01*
X9100Y8500D02*
X9300Y8500D01*
X8700Y8500D02*
X8900Y8500D01*
X8300Y8500D02*
X8500Y8500D01*
X11900Y8500D02*
X12100Y8500D01*
X12300Y8500D02*
X12500Y8500D01*
X12700Y8500D02*
X12900Y8500D01*
X13100Y8500D02*
X13300Y8500D01*
X13500Y8500D02*
X13700Y8500D01*
X13900Y8500D02*
X14100Y8500D01*
X14300Y8500D02*
X14500Y8500D01*
X14700Y8500D02*
X14900Y8500D01*
X15100Y8500D02*
X15300Y8500D01*
X22300Y8500D02*
X22500Y8500D01*
X21900Y8500D02*
X22100Y8500D01*
X21500Y8500D02*
X21700Y8500D01*
X21100Y8500D02*
X21300Y8500D01*
X20700Y8500D02*
X20900Y8500D01*
X20300Y8500D02*
X20500Y8500D01*
X19900Y8500D02*
X20100Y8500D01*
X19500Y8500D02*
X19700Y8500D01*
X19100Y8500D02*
X19300Y8500D01*
X15500Y8500D02*
X15700Y8500D01*
X15900Y8500D02*
X16100Y8500D01*
X16300Y8500D02*
X16500Y8500D01*
X16700Y8500D02*
X16900Y8500D01*
X17100Y8500D02*
X17300Y8500D01*
X17500Y8500D02*
X17700Y8500D01*
X17900Y8500D02*
X18100Y8500D01*
X18300Y8500D02*
X18500Y8500D01*
X18700Y8500D02*
X18900Y8500D01*
X32700Y8500D02*
X32900Y8500D01*
X32300Y8500D02*
X32500Y8500D01*
X31900Y8500D02*
X32100Y8500D01*
X31500Y8500D02*
X31700Y8500D01*
X31100Y8500D02*
X31300Y8500D01*
X30700Y8500D02*
X30900Y8500D01*
X30300Y8500D02*
X30500Y8500D01*
X29900Y8500D02*
X30100Y8500D01*
X29500Y8500D02*
X29700Y8500D01*
X33100Y8500D02*
X33300Y8500D01*
X33500Y8500D02*
X33700Y8500D01*
X33900Y8500D02*
X34100Y8500D01*
X34300Y8500D02*
X34500Y8500D01*
X34700Y8500D02*
X34900Y8500D01*
X35100Y8500D02*
X35300Y8500D01*
X35500Y8500D02*
X35700Y8500D01*
X35900Y8500D02*
X36100Y8500D01*
X36300Y8500D02*
X36500Y8500D01*
X29100Y8500D02*
X29300Y8500D01*
X28700Y8500D02*
X28900Y8500D01*
X28300Y8500D02*
X28500Y8500D01*
X27900Y8500D02*
X28100Y8500D01*
X27500Y8500D02*
X27700Y8500D01*
X27100Y8500D02*
X27300Y8500D01*
X26700Y8500D02*
X26900Y8500D01*
X26300Y8500D02*
X26500Y8500D01*
X25900Y8500D02*
X26100Y8500D01*
X22300Y8500D02*
X22500Y8500D01*
X22700Y8500D02*
X22900Y8500D01*
X23100Y8500D02*
X23300Y8500D01*
X23500Y8500D02*
X23700Y8500D01*
X23900Y8500D02*
X24100Y8500D01*
X24300Y8500D02*
X24500Y8500D01*
X24700Y8500D02*
X24900Y8500D01*
X25100Y8500D02*
X25300Y8500D01*
X25500Y8500D02*
X25700Y8500D01*
X300Y8500D02*
X500Y8500D01*
X700Y8500D02*
X900Y8500D01*
X1100Y8500D02*
X1300Y8500D01*
X8300Y8500D02*
X8500Y8500D01*
X7900Y8500D02*
X8100Y8500D01*
X7500Y8500D02*
X7700Y8500D01*
X7100Y8500D02*
X7300Y8500D01*
X6700Y8500D02*
X6900Y8500D01*
X6300Y8500D02*
X6500Y8500D01*
X5900Y8500D02*
X6100Y8500D01*
X5500Y8500D02*
X5700Y8500D01*
X5100Y8500D02*
X5300Y8500D01*
X1500Y8500D02*
X1700Y8500D01*
X1900Y8500D02*
X2100Y8500D01*
X2300Y8500D02*
X2500Y8500D01*
X2700Y8500D02*
X2900Y8500D01*
X3100Y8500D02*
X3300Y8500D01*
X3500Y8500D02*
X3700Y8500D01*
X3900Y8500D02*
X4100Y8500D01*
X4300Y8500D02*
X4500Y8500D01*
X4700Y8500D02*
X4900Y8500D01*
X11500Y14000D02*
X11700Y14000D01*
X11100Y14000D02*
X11300Y14000D01*
X10700Y14000D02*
X10900Y14000D01*
X10300Y14000D02*
X10500Y14000D01*
X9900Y14000D02*
X10100Y14000D01*
X9500Y14000D02*
X9700Y14000D01*
X9100Y14000D02*
X9300Y14000D01*
X8700Y14000D02*
X8900Y14000D01*
X8300Y14000D02*
X8500Y14000D01*
X11900Y14000D02*
X12100Y14000D01*
X12300Y14000D02*
X12500Y14000D01*
X12700Y14000D02*
X12900Y14000D01*
X13100Y14000D02*
X13300Y14000D01*
X13500Y14000D02*
X13700Y14000D01*
X13900Y14000D02*
X14100Y14000D01*
X14300Y14000D02*
X14500Y14000D01*
X14700Y14000D02*
X14900Y14000D01*
X15100Y14000D02*
X15300Y14000D01*
X22300Y14000D02*
X22500Y14000D01*
X21900Y14000D02*
X22100Y14000D01*
X21500Y14000D02*
X21700Y14000D01*
X21100Y14000D02*
X21300Y14000D01*
X20700Y14000D02*
X20900Y14000D01*
X20300Y14000D02*
X20500Y14000D01*
X19900Y14000D02*
X20100Y14000D01*
X19500Y14000D02*
X19700Y14000D01*
X19100Y14000D02*
X19300Y14000D01*
X15500Y14000D02*
X15700Y14000D01*
X15900Y14000D02*
X16100Y14000D01*
X16300Y14000D02*
X16500Y14000D01*
X16700Y14000D02*
X16900Y14000D01*
X17100Y14000D02*
X17300Y14000D01*
X17500Y14000D02*
X17700Y14000D01*
X17900Y14000D02*
X18100Y14000D01*
X18300Y14000D02*
X18500Y14000D01*
X18700Y14000D02*
X18900Y14000D01*
X32700Y14000D02*
X32900Y14000D01*
X32300Y14000D02*
X32500Y14000D01*
X31900Y14000D02*
X32100Y14000D01*
X31500Y14000D02*
X31700Y14000D01*
X31100Y14000D02*
X31300Y14000D01*
X30700Y14000D02*
X30900Y14000D01*
X30300Y14000D02*
X30500Y14000D01*
X29900Y14000D02*
X30100Y14000D01*
X29500Y14000D02*
X29700Y14000D01*
X33100Y14000D02*
X33300Y14000D01*
X33500Y14000D02*
X33700Y14000D01*
X33900Y14000D02*
X34100Y14000D01*
X34300Y14000D02*
X34500Y14000D01*
X34700Y14000D02*
X34900Y14000D01*
X35100Y14000D02*
X35300Y14000D01*
X35500Y14000D02*
X35700Y14000D01*
X35900Y14000D02*
X36100Y14000D01*
X36300Y14000D02*
X36500Y14000D01*
X29100Y14000D02*
X29300Y14000D01*
X28700Y14000D02*
X28900Y14000D01*
X28300Y14000D02*
X28500Y14000D01*
X27900Y14000D02*
X28100Y14000D01*
X27500Y14000D02*
X27700Y14000D01*
X27100Y14000D02*
X27300Y14000D01*
X26700Y14000D02*
X26900Y14000D01*
X26300Y14000D02*
X26500Y14000D01*
X25900Y14000D02*
X26100Y14000D01*
X22300Y14000D02*
X22500Y14000D01*
X22700Y14000D02*
X22900Y14000D01*
X23100Y14000D02*
X23300Y14000D01*
X23500Y14000D02*
X23700Y14000D01*
X23900Y14000D02*
X24100Y14000D01*
X24300Y14000D02*
X24500Y14000D01*
X24700Y14000D02*
X24900Y14000D01*
X25100Y14000D02*
X25300Y14000D01*
X25500Y14000D02*
X25700Y14000D01*
X300Y14000D02*
X500Y14000D01*
X700Y14000D02*
X900Y14000D01*
X1100Y14000D02*
X1300Y14000D01*
X8300Y14000D02*
X8500Y14000D01*
X7900Y14000D02*
X8100Y14000D01*
X7500Y14000D02*
X7700Y14000D01*
X7100Y14000D02*
X7300Y14000D01*
X6700Y14000D02*
X6900Y14000D01*
X6300Y14000D02*
X6500Y14000D01*
X5900Y14000D02*
X6100Y14000D01*
X5500Y14000D02*
X5700Y14000D01*
X5100Y14000D02*
X5300Y14000D01*
X1500Y14000D02*
X1700Y14000D01*
X1900Y14000D02*
X2100Y14000D01*
X2300Y14000D02*
X2500Y14000D01*
X2700Y14000D02*
X2900Y14000D01*
X3100Y14000D02*
X3300Y14000D01*
X3500Y14000D02*
X3700Y14000D01*
X3900Y14000D02*
X4100Y14000D01*
X4300Y14000D02*
X4500Y14000D01*
X4700Y14000D02*
X4900Y14000D01*
X11500Y19500D02*
X11700Y19500D01*
X11100Y19500D02*
X11300Y19500D01*
X10700Y19500D02*
X10900Y19500D01*
X10300Y19500D02*
X10500Y19500D01*
X9900Y19500D02*
X10100Y19500D01*
X9500Y19500D02*
X9700Y19500D01*
X9100Y19500D02*
X9300Y19500D01*
X8700Y19500D02*
X8900Y19500D01*
X8300Y19500D02*
X8500Y19500D01*
X11900Y19500D02*
X12100Y19500D01*
X12300Y19500D02*
X12500Y19500D01*
X12700Y19500D02*
X12900Y19500D01*
X13100Y19500D02*
X13300Y19500D01*
X13500Y19500D02*
X13700Y19500D01*
X13900Y19500D02*
X14100Y19500D01*
X14300Y19500D02*
X14500Y19500D01*
X14700Y19500D02*
X14900Y19500D01*
X15100Y19500D02*
X15300Y19500D01*
X22300Y19500D02*
X22500Y19500D01*
X21900Y19500D02*
X22100Y19500D01*
X21500Y19500D02*
X21700Y19500D01*
X21100Y19500D02*
X21300Y19500D01*
X20700Y19500D02*
X20900Y19500D01*
X20300Y19500D02*
X20500Y19500D01*
X19900Y19500D02*
X20100Y19500D01*
X19500Y19500D02*
X19700Y19500D01*
X19100Y19500D02*
X19300Y19500D01*
X15500Y19500D02*
X15700Y19500D01*
X15900Y19500D02*
X16100Y19500D01*
X16300Y19500D02*
X16500Y19500D01*
X16700Y19500D02*
X16900Y19500D01*
X17100Y19500D02*
X17300Y19500D01*
X17500Y19500D02*
X17700Y19500D01*
X17900Y19500D02*
X18100Y19500D01*
X18300Y19500D02*
X18500Y19500D01*
X18700Y19500D02*
X18900Y19500D01*
X32700Y19500D02*
X32900Y19500D01*
X32300Y19500D02*
X32500Y19500D01*
X31900Y19500D02*
X32100Y19500D01*
X31500Y19500D02*
X31700Y19500D01*
X31100Y19500D02*
X31300Y19500D01*
X30700Y19500D02*
X30900Y19500D01*
X30300Y19500D02*
X30500Y19500D01*
X29900Y19500D02*
X30100Y19500D01*
X29500Y19500D02*
X29700Y19500D01*
X33100Y19500D02*
X33300Y19500D01*
X33500Y19500D02*
X33700Y19500D01*
X33900Y19500D02*
X34100Y19500D01*
X34300Y19500D02*
X34500Y19500D01*
X34700Y19500D02*
X34900Y19500D01*
X35100Y19500D02*
X35300Y19500D01*
X35500Y19500D02*
X35700Y19500D01*
X35900Y19500D02*
X36100Y19500D01*
X36300Y19500D02*
X36500Y19500D01*
X29100Y19500D02*
X29300Y19500D01*
X28700Y19500D02*
X28900Y19500D01*
X28300Y19500D02*
X28500Y19500D01*
X27900Y19500D02*
X28100Y19500D01*
X27500Y19500D02*
X27700Y19500D01*
X27100Y19500D02*
X27300Y19500D01*
X26700Y19500D02*
X26900Y19500D01*
X26300Y19500D02*
X26500Y19500D01*
X25900Y19500D02*
X26100Y19500D01*
X22300Y19500D02*
X22500Y19500D01*
X22700Y19500D02*
X22900Y19500D01*
X23100Y19500D02*
X23300Y19500D01*
X23500Y19500D02*
X23700Y19500D01*
X23900Y19500D02*
X24100Y19500D01*
X24300Y19500D02*
X24500Y19500D01*
X24700Y19500D02*
X24900Y19500D01*
X25100Y19500D02*
X25300Y19500D01*
X25500Y19500D02*
X25700Y19500D01*
X300Y19500D02*
X500Y19500D01*
X700Y19500D02*
X900Y19500D01*
X1100Y19500D02*
X1300Y19500D01*
X8300Y19500D02*
X8500Y19500D01*
X7900Y19500D02*
X8100Y19500D01*
X7500Y19500D02*
X7700Y19500D01*
X7100Y19500D02*
X7300Y19500D01*
X6700Y19500D02*
X6900Y19500D01*
X6300Y19500D02*
X6500Y19500D01*
X5900Y19500D02*
X6100Y19500D01*
X5500Y19500D02*
X5700Y19500D01*
X5100Y19500D02*
X5300Y19500D01*
X1500Y19500D02*
X1700Y19500D01*
X1900Y19500D02*
X2100Y19500D01*
X2300Y19500D02*
X2500Y19500D01*
X2700Y19500D02*
X2900Y19500D01*
X3100Y19500D02*
X3300Y19500D01*
X3500Y19500D02*
X3700Y19500D01*
X3900Y19500D02*
X4100Y19500D01*
X4300Y19500D02*
X4500Y19500D01*
X4700Y19500D02*
X4900Y19500D01*
X11500Y13500D02*
X11700Y13500D01*
X11100Y13500D02*
X11300Y13500D01*
X10700Y13500D02*
X10900Y13500D01*
X10300Y13500D02*
X10500Y13500D01*
X9900Y13500D02*
X10100Y13500D01*
X9500Y13500D02*
X9700Y13500D01*
X9100Y13500D02*
X9300Y13500D01*
X8700Y13500D02*
X8900Y13500D01*
X8300Y13500D02*
X8500Y13500D01*
X11900Y13500D02*
X12100Y13500D01*
X12300Y13500D02*
X12500Y13500D01*
X12700Y13500D02*
X12900Y13500D01*
X13100Y13500D02*
X13300Y13500D01*
X13500Y13500D02*
X13700Y13500D01*
X13900Y13500D02*
X14100Y13500D01*
X14300Y13500D02*
X14500Y13500D01*
X14700Y13500D02*
X14900Y13500D01*
X15100Y13500D02*
X15300Y13500D01*
X22300Y13500D02*
X22500Y13500D01*
X21900Y13500D02*
X22100Y13500D01*
X21500Y13500D02*
X21700Y13500D01*
X21100Y13500D02*
X21300Y13500D01*
X20700Y13500D02*
X20900Y13500D01*
X20300Y13500D02*
X20500Y13500D01*
X19900Y13500D02*
X20100Y13500D01*
X19500Y13500D02*
X19700Y13500D01*
X19100Y13500D02*
X19300Y13500D01*
X15500Y13500D02*
X15700Y13500D01*
X15900Y13500D02*
X16100Y13500D01*
X16300Y13500D02*
X16500Y13500D01*
X16700Y13500D02*
X16900Y13500D01*
X17100Y13500D02*
X17300Y13500D01*
X17500Y13500D02*
X17700Y13500D01*
X17900Y13500D02*
X18100Y13500D01*
X18300Y13500D02*
X18500Y13500D01*
X18700Y13500D02*
X18900Y13500D01*
X32700Y13500D02*
X32900Y13500D01*
X32300Y13500D02*
X32500Y13500D01*
X31900Y13500D02*
X32100Y13500D01*
X31500Y13500D02*
X31700Y13500D01*
X31100Y13500D02*
X31300Y13500D01*
X30700Y13500D02*
X30900Y13500D01*
X30300Y13500D02*
X30500Y13500D01*
X29900Y13500D02*
X30100Y13500D01*
X29500Y13500D02*
X29700Y13500D01*
X33100Y13500D02*
X33300Y13500D01*
X33500Y13500D02*
X33700Y13500D01*
X33900Y13500D02*
X34100Y13500D01*
X34300Y13500D02*
X34500Y13500D01*
X34700Y13500D02*
X34900Y13500D01*
X35100Y13500D02*
X35300Y13500D01*
X35500Y13500D02*
X35700Y13500D01*
X35900Y13500D02*
X36100Y13500D01*
X36300Y13500D02*
X36500Y13500D01*
X29100Y13500D02*
X29300Y13500D01*
X28700Y13500D02*
X28900Y13500D01*
X28300Y13500D02*
X28500Y13500D01*
X27900Y13500D02*
X28100Y13500D01*
X27500Y13500D02*
X27700Y13500D01*
X27100Y13500D02*
X27300Y13500D01*
X26700Y13500D02*
X26900Y13500D01*
X26300Y13500D02*
X26500Y13500D01*
X25900Y13500D02*
X26100Y13500D01*
X22300Y13500D02*
X22500Y13500D01*
X22700Y13500D02*
X22900Y13500D01*
X23100Y13500D02*
X23300Y13500D01*
X23500Y13500D02*
X23700Y13500D01*
X23900Y13500D02*
X24100Y13500D01*
X24300Y13500D02*
X24500Y13500D01*
X24700Y13500D02*
X24900Y13500D01*
X25100Y13500D02*
X25300Y13500D01*
X25500Y13500D02*
X25700Y13500D01*
X300Y13500D02*
X500Y13500D01*
X700Y13500D02*
X900Y13500D01*
X1100Y13500D02*
X1300Y13500D01*
X8300Y13500D02*
X8500Y13500D01*
X7900Y13500D02*
X8100Y13500D01*
X7500Y13500D02*
X7700Y13500D01*
X7100Y13500D02*
X7300Y13500D01*
X6700Y13500D02*
X6900Y13500D01*
X6300Y13500D02*
X6500Y13500D01*
X5900Y13500D02*
X6100Y13500D01*
X5500Y13500D02*
X5700Y13500D01*
X5100Y13500D02*
X5300Y13500D01*
X1500Y13500D02*
X1700Y13500D01*
X1900Y13500D02*
X2100Y13500D01*
X2300Y13500D02*
X2500Y13500D01*
X2700Y13500D02*
X2900Y13500D01*
X3100Y13500D02*
X3300Y13500D01*
X3500Y13500D02*
X3700Y13500D01*
X3900Y13500D02*
X4100Y13500D01*
X4300Y13500D02*
X4500Y13500D01*
X4700Y13500D02*
X4900Y13500D01*
X11500Y13500D02*
X11700Y13500D01*
X11100Y13500D02*
X11300Y13500D01*
X10700Y13500D02*
X10900Y13500D01*
X10300Y13500D02*
X10500Y13500D01*
X9900Y13500D02*
X10100Y13500D01*
X9500Y13500D02*
X9700Y13500D01*
X9100Y13500D02*
X9300Y13500D01*
X8700Y13500D02*
X8900Y13500D01*
X8300Y13500D02*
X8500Y13500D01*
X11900Y13500D02*
X12100Y13500D01*
X12300Y13500D02*
X12500Y13500D01*
X12700Y13500D02*
X12900Y13500D01*
X13100Y13500D02*
X13300Y13500D01*
X13500Y13500D02*
X13700Y13500D01*
X13900Y13500D02*
X14100Y13500D01*
X14300Y13500D02*
X14500Y13500D01*
X14700Y13500D02*
X14900Y13500D01*
X15100Y13500D02*
X15300Y13500D01*
X22300Y13500D02*
X22500Y13500D01*
X21900Y13500D02*
X22100Y13500D01*
X21500Y13500D02*
X21700Y13500D01*
X21100Y13500D02*
X21300Y13500D01*
X20700Y13500D02*
X20900Y13500D01*
X20300Y13500D02*
X20500Y13500D01*
X19900Y13500D02*
X20100Y13500D01*
X19500Y13500D02*
X19700Y13500D01*
X19100Y13500D02*
X19300Y13500D01*
X15500Y13500D02*
X15700Y13500D01*
X15900Y13500D02*
X16100Y13500D01*
X16300Y13500D02*
X16500Y13500D01*
X16700Y13500D02*
X16900Y13500D01*
X17100Y13500D02*
X17300Y13500D01*
X17500Y13500D02*
X17700Y13500D01*
X17900Y13500D02*
X18100Y13500D01*
X18300Y13500D02*
X18500Y13500D01*
X18700Y13500D02*
X18900Y13500D01*
X32700Y13500D02*
X32900Y13500D01*
X32300Y13500D02*
X32500Y13500D01*
X31900Y13500D02*
X32100Y13500D01*
X31500Y13500D02*
X31700Y13500D01*
X31100Y13500D02*
X31300Y13500D01*
X30700Y13500D02*
X30900Y13500D01*
X30300Y13500D02*
X30500Y13500D01*
X29900Y13500D02*
X30100Y13500D01*
X29500Y13500D02*
X29700Y13500D01*
X33100Y13500D02*
X33300Y13500D01*
X33500Y13500D02*
X33700Y13500D01*
X33900Y13500D02*
X34100Y13500D01*
X34300Y13500D02*
X34500Y13500D01*
X34700Y13500D02*
X34900Y13500D01*
X35100Y13500D02*
X35300Y13500D01*
X35500Y13500D02*
X35700Y13500D01*
X35900Y13500D02*
X36100Y13500D01*
X36300Y13500D02*
X36500Y13500D01*
X29100Y13500D02*
X29300Y13500D01*
X28700Y13500D02*
X28900Y13500D01*
X28300Y13500D02*
X28500Y13500D01*
X27900Y13500D02*
X28100Y13500D01*
X27500Y13500D02*
X27700Y13500D01*
X27100Y13500D02*
X27300Y13500D01*
X26700Y13500D02*
X26900Y13500D01*
X26300Y13500D02*
X26500Y13500D01*
X25900Y13500D02*
X26100Y13500D01*
X22300Y13500D02*
X22500Y13500D01*
X22700Y13500D02*
X22900Y13500D01*
X23100Y13500D02*
X23300Y13500D01*
X23500Y13500D02*
X23700Y13500D01*
X23900Y13500D02*
X24100Y13500D01*
X24300Y13500D02*
X24500Y13500D01*
X24700Y13500D02*
X24900Y13500D01*
X25100Y13500D02*
X25300Y13500D01*
X25500Y13500D02*
X25700Y13500D01*
X300Y13500D02*
X500Y13500D01*
X700Y13500D02*
X900Y13500D01*
X1100Y13500D02*
X1300Y13500D01*
X8300Y13500D02*
X8500Y13500D01*
X7900Y13500D02*
X8100Y13500D01*
X7500Y13500D02*
X7700Y13500D01*
X7100Y13500D02*
X7300Y13500D01*
X6700Y13500D02*
X6900Y13500D01*
X6300Y13500D02*
X6500Y13500D01*
X5900Y13500D02*
X6100Y13500D01*
X5500Y13500D02*
X5700Y13500D01*
X5100Y13500D02*
X5300Y13500D01*
X1500Y13500D02*
X1700Y13500D01*
X1900Y13500D02*
X2100Y13500D01*
X2300Y13500D02*
X2500Y13500D01*
X2700Y13500D02*
X2900Y13500D01*
X3100Y13500D02*
X3300Y13500D01*
X3500Y13500D02*
X3700Y13500D01*
X3900Y13500D02*
X4100Y13500D01*
X4300Y13500D02*
X4500Y13500D01*
X4700Y13500D02*
X4900Y13500D01*
X11500Y19000D02*
X11700Y19000D01*
X11100Y19000D02*
X11300Y19000D01*
X10700Y19000D02*
X10900Y19000D01*
X10300Y19000D02*
X10500Y19000D01*
X9900Y19000D02*
X10100Y19000D01*
X9500Y19000D02*
X9700Y19000D01*
X9100Y19000D02*
X9300Y19000D01*
X8700Y19000D02*
X8900Y19000D01*
X8300Y19000D02*
X8500Y19000D01*
X11900Y19000D02*
X12100Y19000D01*
X12300Y19000D02*
X12500Y19000D01*
X12700Y19000D02*
X12900Y19000D01*
X13100Y19000D02*
X13300Y19000D01*
X13500Y19000D02*
X13700Y19000D01*
X13900Y19000D02*
X14100Y19000D01*
X14300Y19000D02*
X14500Y19000D01*
X14700Y19000D02*
X14900Y19000D01*
X15100Y19000D02*
X15300Y19000D01*
X22300Y19000D02*
X22500Y19000D01*
X21900Y19000D02*
X22100Y19000D01*
X21500Y19000D02*
X21700Y19000D01*
X21100Y19000D02*
X21300Y19000D01*
X20700Y19000D02*
X20900Y19000D01*
X20300Y19000D02*
X20500Y19000D01*
X19900Y19000D02*
X20100Y19000D01*
X19500Y19000D02*
X19700Y19000D01*
X19100Y19000D02*
X19300Y19000D01*
X15500Y19000D02*
X15700Y19000D01*
X15900Y19000D02*
X16100Y19000D01*
X16300Y19000D02*
X16500Y19000D01*
X16700Y19000D02*
X16900Y19000D01*
X17100Y19000D02*
X17300Y19000D01*
X17500Y19000D02*
X17700Y19000D01*
X17900Y19000D02*
X18100Y19000D01*
X18300Y19000D02*
X18500Y19000D01*
X18700Y19000D02*
X18900Y19000D01*
X32700Y19000D02*
X32900Y19000D01*
X32300Y19000D02*
X32500Y19000D01*
X31900Y19000D02*
X32100Y19000D01*
X31500Y19000D02*
X31700Y19000D01*
X31100Y19000D02*
X31300Y19000D01*
X30700Y19000D02*
X30900Y19000D01*
X30300Y19000D02*
X30500Y19000D01*
X29900Y19000D02*
X30100Y19000D01*
X29500Y19000D02*
X29700Y19000D01*
X33100Y19000D02*
X33300Y19000D01*
X33500Y19000D02*
X33700Y19000D01*
X33900Y19000D02*
X34100Y19000D01*
X34300Y19000D02*
X34500Y19000D01*
X34700Y19000D02*
X34900Y19000D01*
X35100Y19000D02*
X35300Y19000D01*
X35500Y19000D02*
X35700Y19000D01*
X35900Y19000D02*
X36100Y19000D01*
X36300Y19000D02*
X36500Y19000D01*
X29100Y19000D02*
X29300Y19000D01*
X28700Y19000D02*
X28900Y19000D01*
X28300Y19000D02*
X28500Y19000D01*
X27900Y19000D02*
X28100Y19000D01*
X27500Y19000D02*
X27700Y19000D01*
X27100Y19000D02*
X27300Y19000D01*
X26700Y19000D02*
X26900Y19000D01*
X26300Y19000D02*
X26500Y19000D01*
X25900Y19000D02*
X26100Y19000D01*
X22300Y19000D02*
X22500Y19000D01*
X22700Y19000D02*
X22900Y19000D01*
X23100Y19000D02*
X23300Y19000D01*
X23500Y19000D02*
X23700Y19000D01*
X23900Y19000D02*
X24100Y19000D01*
X24300Y19000D02*
X24500Y19000D01*
X24700Y19000D02*
X24900Y19000D01*
X25100Y19000D02*
X25300Y19000D01*
X25500Y19000D02*
X25700Y19000D01*
X300Y19000D02*
X500Y19000D01*
X700Y19000D02*
X900Y19000D01*
X1100Y19000D02*
X1300Y19000D01*
X8300Y19000D02*
X8500Y19000D01*
X7900Y19000D02*
X8100Y19000D01*
X7500Y19000D02*
X7700Y19000D01*
X7100Y19000D02*
X7300Y19000D01*
X6700Y19000D02*
X6900Y19000D01*
X6300Y19000D02*
X6500Y19000D01*
X5900Y19000D02*
X6100Y19000D01*
X5500Y19000D02*
X5700Y19000D01*
X5100Y19000D02*
X5300Y19000D01*
X1500Y19000D02*
X1700Y19000D01*
X1900Y19000D02*
X2100Y19000D01*
X2300Y19000D02*
X2500Y19000D01*
X2700Y19000D02*
X2900Y19000D01*
X3100Y19000D02*
X3300Y19000D01*
X3500Y19000D02*
X3700Y19000D01*
X3900Y19000D02*
X4100Y19000D01*
X4300Y19000D02*
X4500Y19000D01*
X4700Y19000D02*
X4900Y19000D01*
X11550Y24500D02*
X11750Y24500D01*
X11150Y24500D02*
X11350Y24500D01*
X10750Y24500D02*
X10950Y24500D01*
X10350Y24500D02*
X10550Y24500D01*
X9950Y24500D02*
X10150Y24500D01*
X9550Y24500D02*
X9750Y24500D01*
X9150Y24500D02*
X9350Y24500D01*
X8750Y24500D02*
X8950Y24500D01*
X8350Y24500D02*
X8550Y24500D01*
X11950Y24500D02*
X12150Y24500D01*
X12350Y24500D02*
X12550Y24500D01*
X12750Y24500D02*
X12950Y24500D01*
X13150Y24500D02*
X13350Y24500D01*
X13550Y24500D02*
X13750Y24500D01*
X13950Y24500D02*
X14150Y24500D01*
X14350Y24500D02*
X14550Y24500D01*
X14750Y24500D02*
X14950Y24500D01*
X15150Y24500D02*
X15350Y24500D01*
X22350Y24500D02*
X22550Y24500D01*
X21950Y24500D02*
X22150Y24500D01*
X21550Y24500D02*
X21750Y24500D01*
X21150Y24500D02*
X21350Y24500D01*
X20750Y24500D02*
X20950Y24500D01*
X20350Y24500D02*
X20550Y24500D01*
X19950Y24500D02*
X20150Y24500D01*
X19550Y24500D02*
X19750Y24500D01*
X19150Y24500D02*
X19350Y24500D01*
X15550Y24500D02*
X15750Y24500D01*
X15950Y24500D02*
X16150Y24500D01*
X16350Y24500D02*
X16550Y24500D01*
X16750Y24500D02*
X16950Y24500D01*
X17150Y24500D02*
X17350Y24500D01*
X17550Y24500D02*
X17750Y24500D01*
X17950Y24500D02*
X18150Y24500D01*
X18350Y24500D02*
X18550Y24500D01*
X18750Y24500D02*
X18950Y24500D01*
X32750Y24500D02*
X32950Y24500D01*
X32350Y24500D02*
X32550Y24500D01*
X31950Y24500D02*
X32150Y24500D01*
X31550Y24500D02*
X31750Y24500D01*
X31150Y24500D02*
X31350Y24500D01*
X30750Y24500D02*
X30950Y24500D01*
X30350Y24500D02*
X30550Y24500D01*
X29950Y24500D02*
X30150Y24500D01*
X29550Y24500D02*
X29750Y24500D01*
X33150Y24500D02*
X33350Y24500D01*
X33550Y24500D02*
X33750Y24500D01*
X33950Y24500D02*
X34150Y24500D01*
X34350Y24500D02*
X34550Y24500D01*
X34750Y24500D02*
X34950Y24500D01*
X35150Y24500D02*
X35350Y24500D01*
X35550Y24500D02*
X35750Y24500D01*
X35950Y24500D02*
X36150Y24500D01*
X36350Y24500D02*
X36550Y24500D01*
X29150Y24500D02*
X29350Y24500D01*
X28750Y24500D02*
X28950Y24500D01*
X28350Y24500D02*
X28550Y24500D01*
X27950Y24500D02*
X28150Y24500D01*
X27550Y24500D02*
X27750Y24500D01*
X27150Y24500D02*
X27350Y24500D01*
X26750Y24500D02*
X26950Y24500D01*
X26350Y24500D02*
X26550Y24500D01*
X25950Y24500D02*
X26150Y24500D01*
X22350Y24500D02*
X22550Y24500D01*
X22750Y24500D02*
X22950Y24500D01*
X23150Y24500D02*
X23350Y24500D01*
X23550Y24500D02*
X23750Y24500D01*
X23950Y24500D02*
X24150Y24500D01*
X24350Y24500D02*
X24550Y24500D01*
X24750Y24500D02*
X24950Y24500D01*
X25150Y24500D02*
X25350Y24500D01*
X25550Y24500D02*
X25750Y24500D01*
X350Y24500D02*
X550Y24500D01*
X750Y24500D02*
X950Y24500D01*
X1150Y24500D02*
X1350Y24500D01*
X8350Y24500D02*
X8550Y24500D01*
X7950Y24500D02*
X8150Y24500D01*
X7550Y24500D02*
X7750Y24500D01*
X7150Y24500D02*
X7350Y24500D01*
X6750Y24500D02*
X6950Y24500D01*
X6350Y24500D02*
X6550Y24500D01*
X5950Y24500D02*
X6150Y24500D01*
X5550Y24500D02*
X5750Y24500D01*
X5150Y24500D02*
X5350Y24500D01*
X1550Y24500D02*
X1750Y24500D01*
X1950Y24500D02*
X2150Y24500D01*
X2350Y24500D02*
X2550Y24500D01*
X2750Y24500D02*
X2950Y24500D01*
X3150Y24500D02*
X3350Y24500D01*
X3550Y24500D02*
X3750Y24500D01*
X3950Y24500D02*
X4150Y24500D01*
X4350Y24500D02*
X4550Y24500D01*
X4750Y24500D02*
X4950Y24500D01*
X18700Y5100D02*
X18900Y5100D01*
X18300Y5100D02*
X18500Y5100D01*
X17900Y5100D02*
X18100Y5100D01*
X17500Y5100D02*
X17700Y5100D01*
X17100Y5100D02*
X17300Y5100D01*
X16700Y5100D02*
X16900Y5100D01*
X7800Y5100D02*
X8000Y5100D01*
X7400Y5100D02*
X7600Y5100D01*
X15300Y6100D02*
X15300Y6300D01*
X15300Y5700D02*
X15300Y5900D01*
X15300Y5300D02*
X15300Y5500D01*
X16300Y5100D02*
X16500Y5100D01*
X15900Y5100D02*
X16100Y5100D01*
X15500Y5100D02*
X15700Y5100D01*
X7100Y6100D02*
X7100Y6300D01*
X7100Y5700D02*
X7100Y5900D01*
X7100Y5300D02*
X7100Y5500D01*
X39000Y2600D02*
G75*
G03X39000Y2600I-2500J0D01*
G74*
G01*
X33500Y2600D02*
G75*
G03X33500Y2600I-2500J0D01*
G74*
G01*
X28000Y2600D02*
G75*
G03X28000Y2600I-2500J0D01*
G74*
G01*
X22500Y2600D02*
G75*
G03X22500Y2600I-2500J0D01*
G74*
G01*
G54D12*
X290Y4938D02*
X423Y4538D01*
X557Y4938D01*
X900Y4538D02*
X671Y4538D01*
X785Y4538D02*
X785Y4938D01*
X747Y4880D01*
X709Y4842D01*
X671Y4823D01*
X1071Y4576D02*
X1090Y4557D01*
X1071Y4538D01*
X1052Y4557D01*
X1071Y4576D01*
X1071Y4538D01*
X1338Y4938D02*
X1376Y4938D01*
X1414Y4919D01*
X1433Y4900D01*
X1452Y4861D01*
X1471Y4785D01*
X1471Y4690D01*
X1452Y4614D01*
X1433Y4576D01*
X1414Y4557D01*
X1376Y4538D01*
X1338Y4538D01*
X1300Y4557D01*
X1280Y4576D01*
X1261Y4614D01*
X1242Y4690D01*
X1242Y4785D01*
X1261Y4861D01*
X1280Y4900D01*
X1300Y4919D01*
X1338Y4938D01*
X8490Y4938D02*
X8623Y4538D01*
X8757Y4938D01*
X9100Y4538D02*
X8871Y4538D01*
X8985Y4538D02*
X8985Y4938D01*
X8947Y4880D01*
X8909Y4842D01*
X8871Y4823D01*
X9271Y4576D02*
X9290Y4557D01*
X9271Y4538D01*
X9252Y4557D01*
X9271Y4576D01*
X9271Y4538D01*
X9538Y4938D02*
X9576Y4938D01*
X9614Y4919D01*
X9633Y4900D01*
X9652Y4861D01*
X9671Y4785D01*
X9671Y4690D01*
X9652Y4614D01*
X9633Y4576D01*
X9614Y4557D01*
X9576Y4538D01*
X9538Y4538D01*
X9500Y4557D01*
X9480Y4576D01*
X9461Y4614D01*
X9442Y4690D01*
X9442Y4785D01*
X9461Y4861D01*
X9480Y4900D01*
X9500Y4919D01*
X9538Y4938D01*
G54D11*
X39000Y11000D02*
G75*
G03X39000Y11000I-2500J0D01*
G74*
G01*
X22500Y11000D02*
G75*
G03X22500Y11000I-2500J0D01*
G74*
G01*
X28000Y11000D02*
G75*
G03X28000Y11000I-2500J0D01*
G74*
G01*
X33500Y11000D02*
G75*
G03X33500Y11000I-2500J0D01*
G74*
G01*
X17000Y11000D02*
G75*
G03X17000Y11000I-2500J0D01*
G74*
G01*
X11500Y11000D02*
G75*
G03X11500Y11000I-2500J0D01*
G74*
G01*
X6000Y11000D02*
G75*
G03X6000Y11000I-2500J0D01*
G74*
G01*
X28000Y16500D02*
G75*
G03X28000Y16500I-2500J0D01*
G74*
G01*
X39000Y16500D02*
G75*
G03X39000Y16500I-2500J0D01*
G74*
G01*
X33500Y16500D02*
G75*
G03X33500Y16500I-2500J0D01*
G74*
G01*
X17000Y16500D02*
G75*
G03X17000Y16500I-2500J0D01*
G74*
G01*
X22500Y16500D02*
G75*
G03X22500Y16500I-2500J0D01*
G74*
G01*
X11500Y16500D02*
G75*
G03X11500Y16500I-2500J0D01*
G74*
G01*
X6000Y16500D02*
G75*
G03X6000Y16500I-2500J0D01*
G74*
G01*
G54D12*
X8761Y1676D02*
X8742Y1657D01*
X8685Y1638D01*
X8647Y1638D01*
X8590Y1657D01*
X8552Y1695D01*
X8533Y1733D01*
X8514Y1809D01*
X8514Y1866D01*
X8533Y1942D01*
X8552Y1980D01*
X8590Y2019D01*
X8647Y2038D01*
X8685Y2038D01*
X8742Y2019D01*
X8761Y2000D01*
X9009Y2038D02*
X9085Y2038D01*
X9123Y2019D01*
X9161Y1980D01*
X9180Y1904D01*
X9180Y1771D01*
X9161Y1695D01*
X9123Y1657D01*
X9085Y1638D01*
X9009Y1638D01*
X8971Y1657D01*
X8933Y1695D01*
X8914Y1771D01*
X8914Y1904D01*
X8933Y1980D01*
X8971Y2019D01*
X9009Y2038D01*
X9542Y1638D02*
X9352Y1638D01*
X9352Y2038D01*
X9885Y1638D02*
X9657Y1638D01*
X9771Y1638D02*
X9771Y2038D01*
X9733Y1980D01*
X9695Y1942D01*
X9657Y1923D01*
G54D11*
X8500Y1500D02*
X8500Y800D01*
G54D12*
X14061Y1676D02*
X14042Y1657D01*
X13985Y1638D01*
X13947Y1638D01*
X13890Y1657D01*
X13852Y1695D01*
X13833Y1733D01*
X13814Y1809D01*
X13814Y1866D01*
X13833Y1942D01*
X13852Y1980D01*
X13890Y2019D01*
X13947Y2038D01*
X13985Y2038D01*
X14042Y2019D01*
X14061Y2000D01*
X14309Y2038D02*
X14385Y2038D01*
X14423Y2019D01*
X14461Y1980D01*
X14480Y1904D01*
X14480Y1771D01*
X14461Y1695D01*
X14423Y1657D01*
X14385Y1638D01*
X14309Y1638D01*
X14271Y1657D01*
X14233Y1695D01*
X14214Y1771D01*
X14214Y1904D01*
X14233Y1980D01*
X14271Y2019D01*
X14309Y2038D01*
X14842Y1638D02*
X14652Y1638D01*
X14652Y2038D01*
X15166Y2038D02*
X14976Y2038D01*
X14957Y1847D01*
X14976Y1866D01*
X15014Y1885D01*
X15109Y1885D01*
X15147Y1866D01*
X15166Y1847D01*
X15185Y1809D01*
X15185Y1714D01*
X15166Y1676D01*
X15147Y1657D01*
X15109Y1638D01*
X15014Y1638D01*
X14976Y1657D01*
X14957Y1676D01*
G54D11*
X15100Y1500D02*
X15100Y800D01*
X9800Y3600D02*
X13800Y3600D01*
X13800Y3600D02*
X13800Y1600D01*
X13800Y1600D02*
X10800Y1600D01*
X10800Y1600D02*
X10800Y2600D01*
X10800Y2600D02*
X9800Y2600D01*
X9800Y2600D02*
X9800Y3600D01*
G54D12*
X9247Y3090D02*
X9552Y3090D01*
X9400Y2938D02*
X9400Y3242D01*
X8747Y2490D02*
X9052Y2490D01*
G54D11*
X9700Y3100D02*
G75*
G03X9700Y3100I-300J0D01*
G74*
G01*
X9700Y3100D02*
X9800Y3100D01*
X9200Y2500D02*
X9600Y2500D01*
X9600Y2500D02*
X9900Y2200D01*
X9200Y2500D02*
G75*
G03X9200Y2500I-300J0D01*
G74*
G01*
X9700Y200D02*
X9700Y600D01*
X11100Y200D02*
X11100Y600D01*
X12500Y200D02*
X12500Y600D01*
X13900Y200D02*
X13900Y600D01*
X10300Y3600D02*
X10300Y5100D01*
X11300Y3600D02*
X11300Y5100D01*
X12300Y3600D02*
X12300Y5100D01*
X13300Y3600D02*
X13300Y5100D01*
X8300Y5100D02*
X15300Y5100D01*
X15300Y5100D02*
X15300Y100D01*
X15300Y100D02*
X8300Y100D01*
X8300Y100D02*
X8300Y5100D01*
X8300Y800D02*
X15300Y800D01*
X9700Y800D02*
X9700Y100D01*
X11100Y800D02*
X11100Y100D01*
X12500Y800D02*
X12500Y100D01*
X13900Y800D02*
X13900Y100D01*
G54D12*
X14214Y4652D02*
X14404Y4652D01*
X14176Y4538D02*
X14309Y4938D01*
X14442Y4538D01*
X14576Y4538D02*
X14576Y4938D01*
X14728Y4938D01*
X14766Y4919D01*
X14785Y4900D01*
X14804Y4861D01*
X14804Y4804D01*
X14785Y4766D01*
X14766Y4747D01*
X14728Y4728D01*
X14576Y4728D01*
X14957Y4557D02*
X15014Y4538D01*
X15109Y4538D01*
X15147Y4557D01*
X15166Y4576D01*
X15185Y4614D01*
X15185Y4652D01*
X15166Y4690D01*
X15147Y4709D01*
X15109Y4728D01*
X15033Y4747D01*
X14995Y4766D01*
X14976Y4785D01*
X14957Y4823D01*
X14957Y4861D01*
X14976Y4900D01*
X14995Y4919D01*
X15033Y4938D01*
X15128Y4938D01*
X15185Y4919D01*
X6014Y4652D02*
X6204Y4652D01*
X5976Y4538D02*
X6109Y4938D01*
X6242Y4538D01*
X6376Y4538D02*
X6376Y4938D01*
X6528Y4938D01*
X6566Y4919D01*
X6585Y4900D01*
X6604Y4861D01*
X6604Y4804D01*
X6585Y4766D01*
X6566Y4747D01*
X6528Y4728D01*
X6376Y4728D01*
X6757Y4557D02*
X6814Y4538D01*
X6909Y4538D01*
X6947Y4557D01*
X6966Y4576D01*
X6985Y4614D01*
X6985Y4652D01*
X6966Y4690D01*
X6947Y4709D01*
X6909Y4728D01*
X6833Y4747D01*
X6795Y4766D01*
X6776Y4785D01*
X6757Y4823D01*
X6757Y4861D01*
X6776Y4900D01*
X6795Y4919D01*
X6833Y4938D01*
X6928Y4938D01*
X6985Y4919D01*
G54D11*
X5700Y800D02*
X5700Y100D01*
X4300Y800D02*
X4300Y100D01*
X2900Y800D02*
X2900Y100D01*
X1500Y800D02*
X1500Y100D01*
X100Y800D02*
X7100Y800D01*
X100Y100D02*
X100Y5100D01*
X7100Y100D02*
X100Y100D01*
X7100Y5100D02*
X7100Y100D01*
X100Y5100D02*
X7100Y5100D01*
X5100Y3600D02*
X5100Y5100D01*
X4100Y3600D02*
X4100Y5100D01*
X3100Y3600D02*
X3100Y5100D01*
X2100Y3600D02*
X2100Y5100D01*
X5700Y200D02*
X5700Y600D01*
X4300Y200D02*
X4300Y600D01*
X2900Y200D02*
X2900Y600D01*
X1500Y200D02*
X1500Y600D01*
X1000Y2500D02*
G75*
G03X1000Y2500I-300J0D01*
G74*
G01*
X1400Y2500D02*
X1700Y2200D01*
X1000Y2500D02*
X1400Y2500D01*
X1500Y3100D02*
X1600Y3100D01*
X1500Y3100D02*
G75*
G03X1500Y3100I-300J0D01*
G74*
G01*
G54D12*
X547Y2490D02*
X852Y2490D01*
X1047Y3090D02*
X1352Y3090D01*
X1200Y2938D02*
X1200Y3242D01*
G54D11*
X1600Y2600D02*
X1600Y3600D01*
X2600Y2600D02*
X1600Y2600D01*
X2600Y1600D02*
X2600Y2600D01*
X5600Y1600D02*
X2600Y1600D01*
X5600Y3600D02*
X5600Y1600D01*
X1600Y3600D02*
X5600Y3600D01*
X6900Y1500D02*
X6900Y800D01*
G54D12*
X5861Y1676D02*
X5842Y1657D01*
X5785Y1638D01*
X5747Y1638D01*
X5690Y1657D01*
X5652Y1695D01*
X5633Y1733D01*
X5614Y1809D01*
X5614Y1866D01*
X5633Y1942D01*
X5652Y1980D01*
X5690Y2019D01*
X5747Y2038D01*
X5785Y2038D01*
X5842Y2019D01*
X5861Y2000D01*
X6109Y2038D02*
X6185Y2038D01*
X6223Y2019D01*
X6261Y1980D01*
X6280Y1904D01*
X6280Y1771D01*
X6261Y1695D01*
X6223Y1657D01*
X6185Y1638D01*
X6109Y1638D01*
X6071Y1657D01*
X6033Y1695D01*
X6014Y1771D01*
X6014Y1904D01*
X6033Y1980D01*
X6071Y2019D01*
X6109Y2038D01*
X6642Y1638D02*
X6452Y1638D01*
X6452Y2038D01*
X6966Y2038D02*
X6776Y2038D01*
X6757Y1847D01*
X6776Y1866D01*
X6814Y1885D01*
X6909Y1885D01*
X6947Y1866D01*
X6966Y1847D01*
X6985Y1809D01*
X6985Y1714D01*
X6966Y1676D01*
X6947Y1657D01*
X6909Y1638D01*
X6814Y1638D01*
X6776Y1657D01*
X6757Y1676D01*
G54D11*
X300Y1500D02*
X300Y800D01*
G54D12*
X561Y1676D02*
X542Y1657D01*
X485Y1638D01*
X447Y1638D01*
X390Y1657D01*
X352Y1695D01*
X333Y1733D01*
X314Y1809D01*
X314Y1866D01*
X333Y1942D01*
X352Y1980D01*
X390Y2019D01*
X447Y2038D01*
X485Y2038D01*
X542Y2019D01*
X561Y2000D01*
X809Y2038D02*
X885Y2038D01*
X923Y2019D01*
X961Y1980D01*
X980Y1904D01*
X980Y1771D01*
X961Y1695D01*
X923Y1657D01*
X885Y1638D01*
X809Y1638D01*
X771Y1657D01*
X733Y1695D01*
X714Y1771D01*
X714Y1904D01*
X733Y1980D01*
X771Y2019D01*
X809Y2038D01*
X1342Y1638D02*
X1152Y1638D01*
X1152Y2038D01*
X1685Y1638D02*
X1457Y1638D01*
X1571Y1638D02*
X1571Y2038D01*
X1533Y1980D01*
X1495Y1942D01*
X1457Y1923D01*
G54D11*
X39000Y22000D02*
G75*
G03X39000Y22000I-2500J0D01*
G74*
G01*
X28000Y22000D02*
G75*
G03X28000Y22000I-2500J0D01*
G74*
G01*
X22500Y22000D02*
G75*
G03X22500Y22000I-2500J0D01*
G74*
G01*
X33500Y22000D02*
G75*
G03X33500Y22000I-2500J0D01*
G74*
G01*
X17000Y22000D02*
G75*
G03X17000Y22000I-2500J0D01*
G74*
G01*
X6000Y22000D02*
G75*
G03X6000Y22000I-2500J0D01*
G74*
G01*
X11500Y22000D02*
G75*
G03X11500Y22000I-2500J0D01*
G74*
G01*
G54D13*
X36204Y3211D02*
X36106Y3211D01*
X36106Y3211D02*
X36106Y3309D01*
X36795Y4588D02*
X36893Y4588D01*
X36893Y4588D02*
X36893Y4490D01*
X36893Y3309D02*
X36893Y3211D01*
X36893Y3211D02*
X36795Y3211D01*
X36204Y4588D02*
X36106Y4588D01*
X36106Y4588D02*
X36106Y4490D01*
X35100Y3300D02*
X35100Y3600D01*
X35100Y3600D02*
X35900Y3600D01*
X35900Y3600D02*
X35900Y3300D01*
X34940Y2300D02*
X38060Y2300D01*
X38060Y2300D02*
X38060Y1300D01*
X34940Y1300D02*
X38060Y1300D01*
X34940Y2300D02*
X34940Y1300D01*
X29600Y3300D02*
X29600Y3600D01*
X29600Y3600D02*
X30400Y3600D01*
X30400Y3600D02*
X30400Y3300D01*
X29440Y2300D02*
X32560Y2300D01*
X32560Y2300D02*
X32560Y1300D01*
X29440Y1300D02*
X32560Y1300D01*
X29440Y2300D02*
X29440Y1300D01*
X30704Y3211D02*
X30606Y3211D01*
X30606Y3211D02*
X30606Y3309D01*
X31295Y4588D02*
X31393Y4588D01*
X31393Y4588D02*
X31393Y4490D01*
X31393Y3309D02*
X31393Y3211D01*
X31393Y3211D02*
X31295Y3211D01*
X30704Y4588D02*
X30606Y4588D01*
X30606Y4588D02*
X30606Y4490D01*
X25204Y3211D02*
X25106Y3211D01*
X25106Y3211D02*
X25106Y3309D01*
X25795Y4588D02*
X25893Y4588D01*
X25893Y4588D02*
X25893Y4490D01*
X25893Y3309D02*
X25893Y3211D01*
X25893Y3211D02*
X25795Y3211D01*
X25204Y4588D02*
X25106Y4588D01*
X25106Y4588D02*
X25106Y4490D01*
X24100Y3300D02*
X24100Y3600D01*
X24100Y3600D02*
X24900Y3600D01*
X24900Y3600D02*
X24900Y3300D01*
X23940Y2300D02*
X27060Y2300D01*
X27060Y2300D02*
X27060Y1300D01*
X23940Y1300D02*
X27060Y1300D01*
X23940Y2300D02*
X23940Y1300D01*
X18600Y3300D02*
X18600Y3600D01*
X18600Y3600D02*
X19400Y3600D01*
X19400Y3600D02*
X19400Y3300D01*
X18440Y2300D02*
X21560Y2300D01*
X21560Y2300D02*
X21560Y1300D01*
X18440Y1300D02*
X21560Y1300D01*
X18440Y2300D02*
X18440Y1300D01*
X19704Y3211D02*
X19606Y3211D01*
X19606Y3211D02*
X19606Y3309D01*
X20295Y4588D02*
X20393Y4588D01*
X20393Y4588D02*
X20393Y4490D01*
X20393Y3309D02*
X20393Y3211D01*
X20393Y3211D02*
X20295Y3211D01*
X19704Y4588D02*
X19606Y4588D01*
X19606Y4588D02*
X19606Y4490D01*
X35100Y11700D02*
X35100Y12000D01*
X35100Y12000D02*
X35900Y12000D01*
X35900Y12000D02*
X35900Y11700D01*
X34940Y10700D02*
X38060Y10700D01*
X38060Y10700D02*
X38060Y9700D01*
X34940Y9700D02*
X38060Y9700D01*
X34940Y10700D02*
X34940Y9700D01*
X36204Y11611D02*
X36106Y11611D01*
X36106Y11611D02*
X36106Y11709D01*
X36795Y12988D02*
X36893Y12988D01*
X36893Y12988D02*
X36893Y12890D01*
X36893Y11709D02*
X36893Y11611D01*
X36893Y11611D02*
X36795Y11611D01*
X36204Y12988D02*
X36106Y12988D01*
X36106Y12988D02*
X36106Y12890D01*
X19704Y11611D02*
X19606Y11611D01*
X19606Y11611D02*
X19606Y11709D01*
X20295Y12988D02*
X20393Y12988D01*
X20393Y12988D02*
X20393Y12890D01*
X20393Y11709D02*
X20393Y11611D01*
X20393Y11611D02*
X20295Y11611D01*
X19704Y12988D02*
X19606Y12988D01*
X19606Y12988D02*
X19606Y12890D01*
X18600Y11700D02*
X18600Y12000D01*
X18600Y12000D02*
X19400Y12000D01*
X19400Y12000D02*
X19400Y11700D01*
X18440Y10700D02*
X21560Y10700D01*
X21560Y10700D02*
X21560Y9700D01*
X18440Y9700D02*
X21560Y9700D01*
X18440Y10700D02*
X18440Y9700D01*
X24100Y11700D02*
X24100Y12000D01*
X24100Y12000D02*
X24900Y12000D01*
X24900Y12000D02*
X24900Y11700D01*
X23940Y10700D02*
X27060Y10700D01*
X27060Y10700D02*
X27060Y9700D01*
X23940Y9700D02*
X27060Y9700D01*
X23940Y10700D02*
X23940Y9700D01*
X25204Y11611D02*
X25106Y11611D01*
X25106Y11611D02*
X25106Y11709D01*
X25795Y12988D02*
X25893Y12988D01*
X25893Y12988D02*
X25893Y12890D01*
X25893Y11709D02*
X25893Y11611D01*
X25893Y11611D02*
X25795Y11611D01*
X25204Y12988D02*
X25106Y12988D01*
X25106Y12988D02*
X25106Y12890D01*
X30704Y11611D02*
X30606Y11611D01*
X30606Y11611D02*
X30606Y11709D01*
X31295Y12988D02*
X31393Y12988D01*
X31393Y12988D02*
X31393Y12890D01*
X31393Y11709D02*
X31393Y11611D01*
X31393Y11611D02*
X31295Y11611D01*
X30704Y12988D02*
X30606Y12988D01*
X30606Y12988D02*
X30606Y12890D01*
X29600Y11700D02*
X29600Y12000D01*
X29600Y12000D02*
X30400Y12000D01*
X30400Y12000D02*
X30400Y11700D01*
X29440Y10700D02*
X32560Y10700D01*
X32560Y10700D02*
X32560Y9700D01*
X29440Y9700D02*
X32560Y9700D01*
X29440Y10700D02*
X29440Y9700D01*
X13100Y11700D02*
X13100Y12000D01*
X13100Y12000D02*
X13900Y12000D01*
X13900Y12000D02*
X13900Y11700D01*
X12940Y10700D02*
X16060Y10700D01*
X16060Y10700D02*
X16060Y9700D01*
X12940Y9700D02*
X16060Y9700D01*
X12940Y10700D02*
X12940Y9700D01*
X14204Y11611D02*
X14106Y11611D01*
X14106Y11611D02*
X14106Y11709D01*
X14795Y12988D02*
X14893Y12988D01*
X14893Y12988D02*
X14893Y12890D01*
X14893Y11709D02*
X14893Y11611D01*
X14893Y11611D02*
X14795Y11611D01*
X14204Y12988D02*
X14106Y12988D01*
X14106Y12988D02*
X14106Y12890D01*
X8704Y11611D02*
X8606Y11611D01*
X8606Y11611D02*
X8606Y11709D01*
X9295Y12988D02*
X9393Y12988D01*
X9393Y12988D02*
X9393Y12890D01*
X9393Y11709D02*
X9393Y11611D01*
X9393Y11611D02*
X9295Y11611D01*
X8704Y12988D02*
X8606Y12988D01*
X8606Y12988D02*
X8606Y12890D01*
X7600Y11700D02*
X7600Y12000D01*
X7600Y12000D02*
X8400Y12000D01*
X8400Y12000D02*
X8400Y11700D01*
X7440Y10700D02*
X10560Y10700D01*
X10560Y10700D02*
X10560Y9700D01*
X7440Y9700D02*
X10560Y9700D01*
X7440Y10700D02*
X7440Y9700D01*
X2100Y11700D02*
X2100Y12000D01*
X2100Y12000D02*
X2900Y12000D01*
X2900Y12000D02*
X2900Y11700D01*
X1940Y10700D02*
X5060Y10700D01*
X5060Y10700D02*
X5060Y9700D01*
X1940Y9700D02*
X5060Y9700D01*
X1940Y10700D02*
X1940Y9700D01*
X3204Y11611D02*
X3106Y11611D01*
X3106Y11611D02*
X3106Y11709D01*
X3795Y12988D02*
X3893Y12988D01*
X3893Y12988D02*
X3893Y12890D01*
X3893Y11709D02*
X3893Y11611D01*
X3893Y11611D02*
X3795Y11611D01*
X3204Y12988D02*
X3106Y12988D01*
X3106Y12988D02*
X3106Y12890D01*
X24100Y17200D02*
X24100Y17500D01*
X24100Y17500D02*
X24900Y17500D01*
X24900Y17500D02*
X24900Y17200D01*
X23940Y16200D02*
X27060Y16200D01*
X27060Y16200D02*
X27060Y15200D01*
X23940Y15200D02*
X27060Y15200D01*
X23940Y16200D02*
X23940Y15200D01*
X25204Y17111D02*
X25106Y17111D01*
X25106Y17111D02*
X25106Y17209D01*
X25795Y18488D02*
X25893Y18488D01*
X25893Y18488D02*
X25893Y18390D01*
X25893Y17209D02*
X25893Y17111D01*
X25893Y17111D02*
X25795Y17111D01*
X25204Y18488D02*
X25106Y18488D01*
X25106Y18488D02*
X25106Y18390D01*
X36204Y17111D02*
X36106Y17111D01*
X36106Y17111D02*
X36106Y17209D01*
X36795Y18488D02*
X36893Y18488D01*
X36893Y18488D02*
X36893Y18390D01*
X36893Y17209D02*
X36893Y17111D01*
X36893Y17111D02*
X36795Y17111D01*
X36204Y18488D02*
X36106Y18488D01*
X36106Y18488D02*
X36106Y18390D01*
X35100Y17200D02*
X35100Y17500D01*
X35100Y17500D02*
X35900Y17500D01*
X35900Y17500D02*
X35900Y17200D01*
X34940Y16200D02*
X38060Y16200D01*
X38060Y16200D02*
X38060Y15200D01*
X34940Y15200D02*
X38060Y15200D01*
X34940Y16200D02*
X34940Y15200D01*
X29600Y17200D02*
X29600Y17500D01*
X29600Y17500D02*
X30400Y17500D01*
X30400Y17500D02*
X30400Y17200D01*
X29440Y16200D02*
X32560Y16200D01*
X32560Y16200D02*
X32560Y15200D01*
X29440Y15200D02*
X32560Y15200D01*
X29440Y16200D02*
X29440Y15200D01*
X30704Y17111D02*
X30606Y17111D01*
X30606Y17111D02*
X30606Y17209D01*
X31295Y18488D02*
X31393Y18488D01*
X31393Y18488D02*
X31393Y18390D01*
X31393Y17209D02*
X31393Y17111D01*
X31393Y17111D02*
X31295Y17111D01*
X30704Y18488D02*
X30606Y18488D01*
X30606Y18488D02*
X30606Y18390D01*
X14204Y17111D02*
X14106Y17111D01*
X14106Y17111D02*
X14106Y17209D01*
X14795Y18488D02*
X14893Y18488D01*
X14893Y18488D02*
X14893Y18390D01*
X14893Y17209D02*
X14893Y17111D01*
X14893Y17111D02*
X14795Y17111D01*
X14204Y18488D02*
X14106Y18488D01*
X14106Y18488D02*
X14106Y18390D01*
X13100Y17200D02*
X13100Y17500D01*
X13100Y17500D02*
X13900Y17500D01*
X13900Y17500D02*
X13900Y17200D01*
X12940Y16200D02*
X16060Y16200D01*
X16060Y16200D02*
X16060Y15200D01*
X12940Y15200D02*
X16060Y15200D01*
X12940Y16200D02*
X12940Y15200D01*
X18600Y17200D02*
X18600Y17500D01*
X18600Y17500D02*
X19400Y17500D01*
X19400Y17500D02*
X19400Y17200D01*
X18440Y16200D02*
X21560Y16200D01*
X21560Y16200D02*
X21560Y15200D01*
X18440Y15200D02*
X21560Y15200D01*
X18440Y16200D02*
X18440Y15200D01*
X19704Y17111D02*
X19606Y17111D01*
X19606Y17111D02*
X19606Y17209D01*
X20295Y18488D02*
X20393Y18488D01*
X20393Y18488D02*
X20393Y18390D01*
X20393Y17209D02*
X20393Y17111D01*
X20393Y17111D02*
X20295Y17111D01*
X19704Y18488D02*
X19606Y18488D01*
X19606Y18488D02*
X19606Y18390D01*
X8704Y17111D02*
X8606Y17111D01*
X8606Y17111D02*
X8606Y17209D01*
X9295Y18488D02*
X9393Y18488D01*
X9393Y18488D02*
X9393Y18390D01*
X9393Y17209D02*
X9393Y17111D01*
X9393Y17111D02*
X9295Y17111D01*
X8704Y18488D02*
X8606Y18488D01*
X8606Y18488D02*
X8606Y18390D01*
X7600Y17200D02*
X7600Y17500D01*
X7600Y17500D02*
X8400Y17500D01*
X8400Y17500D02*
X8400Y17200D01*
X7440Y16200D02*
X10560Y16200D01*
X10560Y16200D02*
X10560Y15200D01*
X7440Y15200D02*
X10560Y15200D01*
X7440Y16200D02*
X7440Y15200D01*
X2100Y17200D02*
X2100Y17500D01*
X2100Y17500D02*
X2900Y17500D01*
X2900Y17500D02*
X2900Y17200D01*
X1940Y16200D02*
X5060Y16200D01*
X5060Y16200D02*
X5060Y15200D01*
X1940Y15200D02*
X5060Y15200D01*
X1940Y16200D02*
X1940Y15200D01*
X3204Y17111D02*
X3106Y17111D01*
X3106Y17111D02*
X3106Y17209D01*
X3795Y18488D02*
X3893Y18488D01*
X3893Y18488D02*
X3893Y18390D01*
X3893Y17209D02*
X3893Y17111D01*
X3893Y17111D02*
X3795Y17111D01*
X3204Y18488D02*
X3106Y18488D01*
X3106Y18488D02*
X3106Y18390D01*
X8310Y5090D02*
X15290Y5090D01*
X15290Y5090D02*
X15290Y110D01*
X15290Y110D02*
X8310Y110D01*
X8310Y110D02*
X8310Y5090D01*
X19704Y22611D02*
X19606Y22611D01*
X19606Y22611D02*
X19606Y22709D01*
X20295Y23988D02*
X20393Y23988D01*
X20393Y23988D02*
X20393Y23890D01*
X20393Y22709D02*
X20393Y22611D01*
X20393Y22611D02*
X20295Y22611D01*
X19704Y23988D02*
X19606Y23988D01*
X19606Y23988D02*
X19606Y23890D01*
X14204Y22611D02*
X14106Y22611D01*
X14106Y22611D02*
X14106Y22709D01*
X14795Y23988D02*
X14893Y23988D01*
X14893Y23988D02*
X14893Y23890D01*
X14893Y22709D02*
X14893Y22611D01*
X14893Y22611D02*
X14795Y22611D01*
X14204Y23988D02*
X14106Y23988D01*
X14106Y23988D02*
X14106Y23890D01*
X25204Y22611D02*
X25106Y22611D01*
X25106Y22611D02*
X25106Y22709D01*
X25795Y23988D02*
X25893Y23988D01*
X25893Y23988D02*
X25893Y23890D01*
X25893Y22709D02*
X25893Y22611D01*
X25893Y22611D02*
X25795Y22611D01*
X25204Y23988D02*
X25106Y23988D01*
X25106Y23988D02*
X25106Y23890D01*
X36204Y22611D02*
X36106Y22611D01*
X36106Y22611D02*
X36106Y22709D01*
X36795Y23988D02*
X36893Y23988D01*
X36893Y23988D02*
X36893Y23890D01*
X36893Y22709D02*
X36893Y22611D01*
X36893Y22611D02*
X36795Y22611D01*
X36204Y23988D02*
X36106Y23988D01*
X36106Y23988D02*
X36106Y23890D01*
X8704Y22611D02*
X8606Y22611D01*
X8606Y22611D02*
X8606Y22709D01*
X9295Y23988D02*
X9393Y23988D01*
X9393Y23988D02*
X9393Y23890D01*
X9393Y22709D02*
X9393Y22611D01*
X9393Y22611D02*
X9295Y22611D01*
X8704Y23988D02*
X8606Y23988D01*
X8606Y23988D02*
X8606Y23890D01*
X30704Y22611D02*
X30606Y22611D01*
X30606Y22611D02*
X30606Y22709D01*
X31295Y23988D02*
X31393Y23988D01*
X31393Y23988D02*
X31393Y23890D01*
X31393Y22709D02*
X31393Y22611D01*
X31393Y22611D02*
X31295Y22611D01*
X30704Y23988D02*
X30606Y23988D01*
X30606Y23988D02*
X30606Y23890D01*
X3204Y22611D02*
X3106Y22611D01*
X3106Y22611D02*
X3106Y22709D01*
X3795Y23988D02*
X3893Y23988D01*
X3893Y23988D02*
X3893Y23890D01*
X3893Y22709D02*
X3893Y22611D01*
X3893Y22611D02*
X3795Y22611D01*
X3204Y23988D02*
X3106Y23988D01*
X3106Y23988D02*
X3106Y23890D01*
X110Y5090D02*
X7090Y5090D01*
X7090Y5090D02*
X7090Y110D01*
X7090Y110D02*
X110Y110D01*
X110Y110D02*
X110Y5090D01*
X24100Y22700D02*
X24100Y23000D01*
X24100Y23000D02*
X24900Y23000D01*
X24900Y23000D02*
X24900Y22700D01*
X23940Y21700D02*
X27060Y21700D01*
X27060Y21700D02*
X27060Y20700D01*
X23940Y20700D02*
X27060Y20700D01*
X23940Y21700D02*
X23940Y20700D01*
X18600Y22700D02*
X18600Y23000D01*
X18600Y23000D02*
X19400Y23000D01*
X19400Y23000D02*
X19400Y22700D01*
X18440Y21700D02*
X21560Y21700D01*
X21560Y21700D02*
X21560Y20700D01*
X18440Y20700D02*
X21560Y20700D01*
X18440Y21700D02*
X18440Y20700D01*
X29600Y22700D02*
X29600Y23000D01*
X29600Y23000D02*
X30400Y23000D01*
X30400Y23000D02*
X30400Y22700D01*
X29440Y21700D02*
X32560Y21700D01*
X32560Y21700D02*
X32560Y20700D01*
X29440Y20700D02*
X32560Y20700D01*
X29440Y21700D02*
X29440Y20700D01*
X13100Y22700D02*
X13100Y23000D01*
X13100Y23000D02*
X13900Y23000D01*
X13900Y23000D02*
X13900Y22700D01*
X12940Y21700D02*
X16060Y21700D01*
X16060Y21700D02*
X16060Y20700D01*
X12940Y20700D02*
X16060Y20700D01*
X12940Y21700D02*
X12940Y20700D01*
X7600Y22700D02*
X7600Y23000D01*
X7600Y23000D02*
X8400Y23000D01*
X8400Y23000D02*
X8400Y22700D01*
X7440Y21700D02*
X10560Y21700D01*
X10560Y21700D02*
X10560Y20700D01*
X7440Y20700D02*
X10560Y20700D01*
X7440Y21700D02*
X7440Y20700D01*
X35100Y22700D02*
X35100Y23000D01*
X35100Y23000D02*
X35900Y23000D01*
X35900Y23000D02*
X35900Y22700D01*
X34940Y21700D02*
X38060Y21700D01*
X38060Y21700D02*
X38060Y20700D01*
X34940Y20700D02*
X38060Y20700D01*
X34940Y21700D02*
X34940Y20700D01*
X2100Y22700D02*
X2100Y23000D01*
X2100Y23000D02*
X2900Y23000D01*
X2900Y23000D02*
X2900Y22700D01*
X1940Y21700D02*
X5060Y21700D01*
X5060Y21700D02*
X5060Y20700D01*
X1940Y20700D02*
X5060Y20700D01*
X1940Y21700D02*
X1940Y20700D01*
%LPC*%
G54D14*
X10300Y3100D03*
G54D15*
X11300Y3100D03*
X12300Y3100D03*
X13300Y3100D03*
X13300Y2100D03*
X12300Y2100D03*
X11300Y2100D03*
X10300Y2100D03*
G54D14*
X2100Y3100D03*
G54D15*
X3100Y3100D03*
X4100Y3100D03*
X5100Y3100D03*
X5100Y2100D03*
X4100Y2100D03*
X3100Y2100D03*
X2100Y2100D03*
G54D16*
X36500Y3525D03*
X36500Y4275D03*
G54D17*
X36155Y2600D03*
X36844Y2600D03*
G54D18*
X36214Y2600D03*
X36785Y2600D03*
G54D19*
X36332Y2600D03*
X36667Y2600D03*
G54D20*
X35500Y2600D03*
X36500Y1000D03*
X37500Y2600D03*
X30000Y2600D03*
X31000Y1000D03*
X32000Y2600D03*
G54D19*
X30832Y2600D03*
X31167Y2600D03*
G54D18*
X30714Y2600D03*
X31285Y2600D03*
G54D17*
X30655Y2600D03*
X31344Y2600D03*
G54D16*
X31000Y3525D03*
X31000Y4275D03*
X25500Y3525D03*
X25500Y4275D03*
G54D17*
X25155Y2600D03*
X25844Y2600D03*
G54D18*
X25214Y2600D03*
X25785Y2600D03*
G54D19*
X25332Y2600D03*
X25667Y2600D03*
G54D20*
X24500Y2600D03*
X25500Y1000D03*
X26500Y2600D03*
X19000Y2600D03*
X20000Y1000D03*
X21000Y2600D03*
G54D19*
X19832Y2600D03*
X20167Y2600D03*
G54D18*
X19714Y2600D03*
X20285Y2600D03*
G54D17*
X19655Y2600D03*
X20344Y2600D03*
G54D16*
X20000Y3525D03*
X20000Y4275D03*
G54D20*
X35500Y11000D03*
X36500Y9400D03*
X37500Y11000D03*
G54D19*
X36332Y11000D03*
X36667Y11000D03*
G54D18*
X36214Y11000D03*
X36785Y11000D03*
G54D17*
X36155Y11000D03*
X36844Y11000D03*
G54D16*
X36500Y11925D03*
X36500Y12675D03*
X20000Y11925D03*
X20000Y12675D03*
G54D17*
X19655Y11000D03*
X20344Y11000D03*
G54D18*
X19714Y11000D03*
X20285Y11000D03*
G54D19*
X19832Y11000D03*
X20167Y11000D03*
G54D20*
X19000Y11000D03*
X20000Y9400D03*
X21000Y11000D03*
X24500Y11000D03*
X25500Y9400D03*
X26500Y11000D03*
G54D19*
X25332Y11000D03*
X25667Y11000D03*
G54D18*
X25214Y11000D03*
X25785Y11000D03*
G54D17*
X25155Y11000D03*
X25844Y11000D03*
G54D16*
X25500Y11925D03*
X25500Y12675D03*
X31000Y11925D03*
X31000Y12675D03*
G54D17*
X30655Y11000D03*
X31344Y11000D03*
G54D18*
X30714Y11000D03*
X31285Y11000D03*
G54D19*
X30832Y11000D03*
X31167Y11000D03*
G54D20*
X30000Y11000D03*
X31000Y9400D03*
X32000Y11000D03*
X13500Y11000D03*
X14500Y9400D03*
X15500Y11000D03*
G54D19*
X14332Y11000D03*
X14667Y11000D03*
G54D18*
X14214Y11000D03*
X14785Y11000D03*
G54D17*
X14155Y11000D03*
X14844Y11000D03*
G54D16*
X14500Y11925D03*
X14500Y12675D03*
X9000Y11925D03*
X9000Y12675D03*
G54D17*
X8655Y11000D03*
X9344Y11000D03*
G54D18*
X8714Y11000D03*
X9285Y11000D03*
G54D19*
X8832Y11000D03*
X9167Y11000D03*
G54D20*
X8000Y11000D03*
X9000Y9400D03*
X10000Y11000D03*
X2500Y11000D03*
X3500Y9400D03*
X4500Y11000D03*
G54D19*
X3332Y11000D03*
X3667Y11000D03*
G54D18*
X3214Y11000D03*
X3785Y11000D03*
G54D17*
X3155Y11000D03*
X3844Y11000D03*
G54D16*
X3500Y11925D03*
X3500Y12675D03*
G54D20*
X24500Y16500D03*
X25500Y14900D03*
X26500Y16500D03*
G54D19*
X25332Y16500D03*
X25667Y16500D03*
G54D18*
X25214Y16500D03*
X25785Y16500D03*
G54D17*
X25155Y16500D03*
X25844Y16500D03*
G54D16*
X25500Y17425D03*
X25500Y18175D03*
X36500Y17425D03*
X36500Y18175D03*
G54D17*
X36155Y16500D03*
X36844Y16500D03*
G54D18*
X36214Y16500D03*
X36785Y16500D03*
G54D19*
X36332Y16500D03*
X36667Y16500D03*
G54D20*
X35500Y16500D03*
X36500Y14900D03*
X37500Y16500D03*
X30000Y16500D03*
X31000Y14900D03*
X32000Y16500D03*
G54D19*
X30832Y16500D03*
X31167Y16500D03*
G54D18*
X30714Y16500D03*
X31285Y16500D03*
G54D17*
X30655Y16500D03*
X31344Y16500D03*
G54D16*
X31000Y17425D03*
X31000Y18175D03*
X14500Y17425D03*
X14500Y18175D03*
G54D17*
X14155Y16500D03*
X14844Y16500D03*
G54D18*
X14214Y16500D03*
X14785Y16500D03*
G54D19*
X14332Y16500D03*
X14667Y16500D03*
G54D20*
X13500Y16500D03*
X14500Y14900D03*
X15500Y16500D03*
X19000Y16500D03*
X20000Y14900D03*
X21000Y16500D03*
G54D19*
X19832Y16500D03*
X20167Y16500D03*
G54D18*
X19714Y16500D03*
X20285Y16500D03*
G54D17*
X19655Y16500D03*
X20344Y16500D03*
G54D16*
X20000Y17425D03*
X20000Y18175D03*
X9000Y17425D03*
X9000Y18175D03*
G54D17*
X8655Y16500D03*
X9344Y16500D03*
G54D18*
X8714Y16500D03*
X9285Y16500D03*
G54D19*
X8832Y16500D03*
X9167Y16500D03*
G54D20*
X8000Y16500D03*
X9000Y14900D03*
X10000Y16500D03*
X2500Y16500D03*
X3500Y14900D03*
X4500Y16500D03*
G54D19*
X3332Y16500D03*
X3667Y16500D03*
G54D18*
X3214Y16500D03*
X3785Y16500D03*
G54D17*
X3155Y16500D03*
X3844Y16500D03*
G54D16*
X3500Y17425D03*
X3500Y18175D03*
G54D18*
X10114Y400D03*
X10685Y400D03*
X11514Y400D03*
X12085Y400D03*
X12914Y400D03*
X13485Y400D03*
X14314Y400D03*
X14885Y400D03*
X8714Y400D03*
X9285Y400D03*
G54D14*
X9300Y1100D03*
G54D15*
X10300Y1100D03*
X11300Y1100D03*
X12300Y1100D03*
X13300Y1100D03*
X14300Y1100D03*
X14300Y4100D03*
X13300Y4100D03*
X12300Y4100D03*
X11300Y4100D03*
X10300Y4100D03*
X9300Y4100D03*
G54D16*
X20000Y22925D03*
X20000Y23675D03*
X14500Y22925D03*
X14500Y23675D03*
X25500Y22925D03*
X25500Y23675D03*
X36500Y22925D03*
X36500Y23675D03*
X9000Y22925D03*
X9000Y23675D03*
X31000Y22925D03*
X31000Y23675D03*
X3500Y22925D03*
X3500Y23675D03*
G54D14*
X1100Y1100D03*
G54D15*
X2100Y1100D03*
X3100Y1100D03*
X4100Y1100D03*
X5100Y1100D03*
X6100Y1100D03*
X6100Y4100D03*
X5100Y4100D03*
X4100Y4100D03*
X3100Y4100D03*
X2100Y4100D03*
X1100Y4100D03*
G54D17*
X36155Y22000D03*
X36844Y22000D03*
X30655Y22000D03*
X31344Y22000D03*
X14155Y22000D03*
X14844Y22000D03*
X19655Y22000D03*
X20344Y22000D03*
X8655Y22000D03*
X9344Y22000D03*
X3155Y22000D03*
X3844Y22000D03*
X25155Y22000D03*
X25844Y22000D03*
G54D18*
X19714Y22000D03*
X20285Y22000D03*
X8714Y22000D03*
X9285Y22000D03*
X25214Y22000D03*
X25785Y22000D03*
X14214Y22000D03*
X14785Y22000D03*
X30714Y22000D03*
X31285Y22000D03*
X3214Y22000D03*
X3785Y22000D03*
X36214Y22000D03*
X36785Y22000D03*
G54D19*
X30832Y22000D03*
X31167Y22000D03*
X25332Y22000D03*
X25667Y22000D03*
X36332Y22000D03*
X36667Y22000D03*
X19832Y22000D03*
X20167Y22000D03*
X14332Y22000D03*
X14667Y22000D03*
X8832Y22000D03*
X9167Y22000D03*
X3332Y22000D03*
X3667Y22000D03*
G54D20*
X24500Y22000D03*
X25500Y20400D03*
X26500Y22000D03*
X19000Y22000D03*
X20000Y20400D03*
X21000Y22000D03*
X30000Y22000D03*
X31000Y20400D03*
X32000Y22000D03*
X13500Y22000D03*
X14500Y20400D03*
X15500Y22000D03*
X8000Y22000D03*
X9000Y20400D03*
X10000Y22000D03*
X35500Y22000D03*
X36500Y20400D03*
X37500Y22000D03*
X2500Y22000D03*
X3500Y20400D03*
X4500Y22000D03*
G54D18*
X514Y400D03*
X1085Y400D03*
X6114Y400D03*
X6685Y400D03*
X4714Y400D03*
X5285Y400D03*
X3314Y400D03*
X3885Y400D03*
X1914Y400D03*
X2485Y400D03*
M02*
