G04 (created by PCBNEW (2013-07-07 BZR 4022)-stable) date 2/5/2014 8:32:32 PM*
%MOIN*%
G04 Gerber Fmt 3.4, Leading zero omitted, Abs format*
%FSLAX34Y34*%
G01*
G70*
G90*
G04 APERTURE LIST*
%ADD10C,0.007*%
G04 APERTURE END LIST*
G54D10*
G36*
X1445Y4131D02*
X1444Y4058D01*
X1428Y3988D01*
X1402Y3930D01*
X1360Y3871D01*
X1315Y3828D01*
X1254Y3789D01*
X1195Y3766D01*
X1123Y3753D01*
X1061Y3755D01*
X990Y3770D01*
X933Y3795D01*
X872Y3837D01*
X829Y3882D01*
X790Y3943D01*
X767Y4001D01*
X754Y4073D01*
X754Y4135D01*
X770Y4207D01*
X794Y4264D01*
X836Y4325D01*
X880Y4368D01*
X942Y4408D01*
X999Y4431D01*
X1071Y4445D01*
X1133Y4445D01*
X1205Y4430D01*
X1262Y4406D01*
X1323Y4365D01*
X1366Y4321D01*
X1407Y4259D01*
X1431Y4203D01*
X1445Y4131D01*
X1445Y4131D01*
G37*
G36*
X1445Y754D02*
X754Y754D01*
X754Y1445D01*
X1445Y1445D01*
X1445Y754D01*
X1445Y754D01*
G37*
G36*
X2445Y4131D02*
X2444Y4058D01*
X2428Y3988D01*
X2402Y3930D01*
X2360Y3871D01*
X2315Y3828D01*
X2254Y3789D01*
X2195Y3766D01*
X2123Y3753D01*
X2061Y3755D01*
X1990Y3770D01*
X1933Y3795D01*
X1872Y3837D01*
X1829Y3882D01*
X1790Y3943D01*
X1767Y4001D01*
X1754Y4073D01*
X1754Y4135D01*
X1770Y4207D01*
X1794Y4264D01*
X1836Y4325D01*
X1880Y4368D01*
X1942Y4408D01*
X1999Y4431D01*
X2071Y4445D01*
X2133Y4445D01*
X2205Y4430D01*
X2262Y4406D01*
X2323Y4365D01*
X2366Y4321D01*
X2407Y4259D01*
X2431Y4203D01*
X2445Y4131D01*
X2445Y4131D01*
G37*
G36*
X2445Y2131D02*
X2444Y2058D01*
X2428Y1988D01*
X2402Y1930D01*
X2360Y1871D01*
X2315Y1828D01*
X2254Y1789D01*
X2195Y1766D01*
X2123Y1753D01*
X2061Y1755D01*
X1990Y1770D01*
X1933Y1795D01*
X1872Y1837D01*
X1829Y1882D01*
X1790Y1943D01*
X1767Y2001D01*
X1754Y2073D01*
X1754Y2135D01*
X1770Y2207D01*
X1794Y2264D01*
X1836Y2325D01*
X1880Y2368D01*
X1942Y2408D01*
X1999Y2431D01*
X2071Y2445D01*
X2133Y2445D01*
X2205Y2430D01*
X2262Y2406D01*
X2323Y2365D01*
X2366Y2321D01*
X2407Y2259D01*
X2431Y2203D01*
X2445Y2131D01*
X2445Y2131D01*
G37*
G36*
X2445Y1131D02*
X2444Y1058D01*
X2428Y988D01*
X2402Y930D01*
X2360Y871D01*
X2315Y828D01*
X2254Y789D01*
X2195Y766D01*
X2123Y753D01*
X2061Y755D01*
X1990Y770D01*
X1933Y795D01*
X1872Y837D01*
X1829Y882D01*
X1790Y943D01*
X1767Y1001D01*
X1754Y1073D01*
X1754Y1135D01*
X1770Y1207D01*
X1794Y1264D01*
X1836Y1325D01*
X1880Y1368D01*
X1942Y1408D01*
X1999Y1431D01*
X2071Y1445D01*
X2133Y1445D01*
X2205Y1430D01*
X2262Y1406D01*
X2323Y1365D01*
X2366Y1321D01*
X2407Y1259D01*
X2431Y1203D01*
X2445Y1131D01*
X2445Y1131D01*
G37*
G36*
X2445Y2754D02*
X1754Y2754D01*
X1754Y3445D01*
X2445Y3445D01*
X2445Y2754D01*
X2445Y2754D01*
G37*
G36*
X3445Y4131D02*
X3444Y4058D01*
X3428Y3988D01*
X3402Y3930D01*
X3360Y3871D01*
X3315Y3828D01*
X3254Y3789D01*
X3195Y3766D01*
X3123Y3753D01*
X3061Y3755D01*
X2990Y3770D01*
X2933Y3795D01*
X2872Y3837D01*
X2829Y3882D01*
X2790Y3943D01*
X2767Y4001D01*
X2754Y4073D01*
X2754Y4135D01*
X2770Y4207D01*
X2794Y4264D01*
X2836Y4325D01*
X2880Y4368D01*
X2942Y4408D01*
X2999Y4431D01*
X3071Y4445D01*
X3133Y4445D01*
X3205Y4430D01*
X3262Y4406D01*
X3323Y4365D01*
X3366Y4321D01*
X3407Y4259D01*
X3431Y4203D01*
X3445Y4131D01*
X3445Y4131D01*
G37*
G36*
X3445Y3131D02*
X3444Y3058D01*
X3428Y2988D01*
X3402Y2930D01*
X3360Y2871D01*
X3315Y2828D01*
X3254Y2789D01*
X3195Y2766D01*
X3123Y2753D01*
X3061Y2755D01*
X2990Y2770D01*
X2933Y2795D01*
X2872Y2837D01*
X2829Y2882D01*
X2790Y2943D01*
X2767Y3001D01*
X2754Y3073D01*
X2754Y3135D01*
X2770Y3207D01*
X2794Y3264D01*
X2836Y3325D01*
X2880Y3368D01*
X2942Y3408D01*
X2999Y3431D01*
X3071Y3445D01*
X3133Y3445D01*
X3205Y3430D01*
X3262Y3406D01*
X3323Y3365D01*
X3366Y3321D01*
X3407Y3259D01*
X3431Y3203D01*
X3445Y3131D01*
X3445Y3131D01*
G37*
G36*
X3445Y2131D02*
X3444Y2058D01*
X3428Y1988D01*
X3402Y1930D01*
X3360Y1871D01*
X3315Y1828D01*
X3254Y1789D01*
X3195Y1766D01*
X3123Y1753D01*
X3061Y1755D01*
X2990Y1770D01*
X2933Y1795D01*
X2872Y1837D01*
X2829Y1882D01*
X2790Y1943D01*
X2767Y2001D01*
X2754Y2073D01*
X2754Y2135D01*
X2770Y2207D01*
X2794Y2264D01*
X2836Y2325D01*
X2880Y2368D01*
X2942Y2408D01*
X2999Y2431D01*
X3071Y2445D01*
X3133Y2445D01*
X3205Y2430D01*
X3262Y2406D01*
X3323Y2365D01*
X3366Y2321D01*
X3407Y2259D01*
X3431Y2203D01*
X3445Y2131D01*
X3445Y2131D01*
G37*
G36*
X3445Y1131D02*
X3444Y1058D01*
X3428Y988D01*
X3402Y930D01*
X3360Y871D01*
X3315Y828D01*
X3254Y789D01*
X3195Y766D01*
X3123Y753D01*
X3061Y755D01*
X2990Y770D01*
X2933Y795D01*
X2872Y837D01*
X2829Y882D01*
X2790Y943D01*
X2767Y1001D01*
X2754Y1073D01*
X2754Y1135D01*
X2770Y1207D01*
X2794Y1264D01*
X2836Y1325D01*
X2880Y1368D01*
X2942Y1408D01*
X2999Y1431D01*
X3071Y1445D01*
X3133Y1445D01*
X3205Y1430D01*
X3262Y1406D01*
X3323Y1365D01*
X3366Y1321D01*
X3407Y1259D01*
X3431Y1203D01*
X3445Y1131D01*
X3445Y1131D01*
G37*
G36*
X4445Y4131D02*
X4444Y4058D01*
X4428Y3988D01*
X4402Y3930D01*
X4360Y3871D01*
X4315Y3828D01*
X4254Y3789D01*
X4195Y3766D01*
X4123Y3753D01*
X4061Y3755D01*
X3990Y3770D01*
X3933Y3795D01*
X3872Y3837D01*
X3829Y3882D01*
X3790Y3943D01*
X3767Y4001D01*
X3754Y4073D01*
X3754Y4135D01*
X3770Y4207D01*
X3794Y4264D01*
X3836Y4325D01*
X3880Y4368D01*
X3942Y4408D01*
X3999Y4431D01*
X4071Y4445D01*
X4133Y4445D01*
X4205Y4430D01*
X4262Y4406D01*
X4323Y4365D01*
X4366Y4321D01*
X4407Y4259D01*
X4431Y4203D01*
X4445Y4131D01*
X4445Y4131D01*
G37*
G36*
X4445Y3131D02*
X4444Y3058D01*
X4428Y2988D01*
X4402Y2930D01*
X4360Y2871D01*
X4315Y2828D01*
X4254Y2789D01*
X4195Y2766D01*
X4123Y2753D01*
X4061Y2755D01*
X3990Y2770D01*
X3933Y2795D01*
X3872Y2837D01*
X3829Y2882D01*
X3790Y2943D01*
X3767Y3001D01*
X3754Y3073D01*
X3754Y3135D01*
X3770Y3207D01*
X3794Y3264D01*
X3836Y3325D01*
X3880Y3368D01*
X3942Y3408D01*
X3999Y3431D01*
X4071Y3445D01*
X4133Y3445D01*
X4205Y3430D01*
X4262Y3406D01*
X4323Y3365D01*
X4366Y3321D01*
X4407Y3259D01*
X4431Y3203D01*
X4445Y3131D01*
X4445Y3131D01*
G37*
G36*
X4445Y2131D02*
X4444Y2058D01*
X4428Y1988D01*
X4402Y1930D01*
X4360Y1871D01*
X4315Y1828D01*
X4254Y1789D01*
X4195Y1766D01*
X4123Y1753D01*
X4061Y1755D01*
X3990Y1770D01*
X3933Y1795D01*
X3872Y1837D01*
X3829Y1882D01*
X3790Y1943D01*
X3767Y2001D01*
X3754Y2073D01*
X3754Y2135D01*
X3770Y2207D01*
X3794Y2264D01*
X3836Y2325D01*
X3880Y2368D01*
X3942Y2408D01*
X3999Y2431D01*
X4071Y2445D01*
X4133Y2445D01*
X4205Y2430D01*
X4262Y2406D01*
X4323Y2365D01*
X4366Y2321D01*
X4407Y2259D01*
X4431Y2203D01*
X4445Y2131D01*
X4445Y2131D01*
G37*
G36*
X4445Y1131D02*
X4444Y1058D01*
X4428Y988D01*
X4402Y930D01*
X4360Y871D01*
X4315Y828D01*
X4254Y789D01*
X4195Y766D01*
X4123Y753D01*
X4061Y755D01*
X3990Y770D01*
X3933Y795D01*
X3872Y837D01*
X3829Y882D01*
X3790Y943D01*
X3767Y1001D01*
X3754Y1073D01*
X3754Y1135D01*
X3770Y1207D01*
X3794Y1264D01*
X3836Y1325D01*
X3880Y1368D01*
X3942Y1408D01*
X3999Y1431D01*
X4071Y1445D01*
X4133Y1445D01*
X4205Y1430D01*
X4262Y1406D01*
X4323Y1365D01*
X4366Y1321D01*
X4407Y1259D01*
X4431Y1203D01*
X4445Y1131D01*
X4445Y1131D01*
G37*
G36*
X5445Y4131D02*
X5444Y4058D01*
X5428Y3988D01*
X5402Y3930D01*
X5360Y3871D01*
X5315Y3828D01*
X5254Y3789D01*
X5195Y3766D01*
X5123Y3753D01*
X5061Y3755D01*
X4990Y3770D01*
X4933Y3795D01*
X4872Y3837D01*
X4829Y3882D01*
X4790Y3943D01*
X4767Y4001D01*
X4754Y4073D01*
X4754Y4135D01*
X4770Y4207D01*
X4794Y4264D01*
X4836Y4325D01*
X4880Y4368D01*
X4942Y4408D01*
X4999Y4431D01*
X5071Y4445D01*
X5133Y4445D01*
X5205Y4430D01*
X5262Y4406D01*
X5323Y4365D01*
X5366Y4321D01*
X5407Y4259D01*
X5431Y4203D01*
X5445Y4131D01*
X5445Y4131D01*
G37*
G36*
X5445Y3131D02*
X5444Y3058D01*
X5428Y2988D01*
X5402Y2930D01*
X5360Y2871D01*
X5315Y2828D01*
X5254Y2789D01*
X5195Y2766D01*
X5123Y2753D01*
X5061Y2755D01*
X4990Y2770D01*
X4933Y2795D01*
X4872Y2837D01*
X4829Y2882D01*
X4790Y2943D01*
X4767Y3001D01*
X4754Y3073D01*
X4754Y3135D01*
X4770Y3207D01*
X4794Y3264D01*
X4836Y3325D01*
X4880Y3368D01*
X4942Y3408D01*
X4999Y3431D01*
X5071Y3445D01*
X5133Y3445D01*
X5205Y3430D01*
X5262Y3406D01*
X5323Y3365D01*
X5366Y3321D01*
X5407Y3259D01*
X5431Y3203D01*
X5445Y3131D01*
X5445Y3131D01*
G37*
G36*
X5445Y2131D02*
X5444Y2058D01*
X5428Y1988D01*
X5402Y1930D01*
X5360Y1871D01*
X5315Y1828D01*
X5254Y1789D01*
X5195Y1766D01*
X5123Y1753D01*
X5061Y1755D01*
X4990Y1770D01*
X4933Y1795D01*
X4872Y1837D01*
X4829Y1882D01*
X4790Y1943D01*
X4767Y2001D01*
X4754Y2073D01*
X4754Y2135D01*
X4770Y2207D01*
X4794Y2264D01*
X4836Y2325D01*
X4880Y2368D01*
X4942Y2408D01*
X4999Y2431D01*
X5071Y2445D01*
X5133Y2445D01*
X5205Y2430D01*
X5262Y2406D01*
X5323Y2365D01*
X5366Y2321D01*
X5407Y2259D01*
X5431Y2203D01*
X5445Y2131D01*
X5445Y2131D01*
G37*
G36*
X5445Y1131D02*
X5444Y1058D01*
X5428Y988D01*
X5402Y930D01*
X5360Y871D01*
X5315Y828D01*
X5254Y789D01*
X5195Y766D01*
X5123Y753D01*
X5061Y755D01*
X4990Y770D01*
X4933Y795D01*
X4872Y837D01*
X4829Y882D01*
X4790Y943D01*
X4767Y1001D01*
X4754Y1073D01*
X4754Y1135D01*
X4770Y1207D01*
X4794Y1264D01*
X4836Y1325D01*
X4880Y1368D01*
X4942Y1408D01*
X4999Y1431D01*
X5071Y1445D01*
X5133Y1445D01*
X5205Y1430D01*
X5262Y1406D01*
X5323Y1365D01*
X5366Y1321D01*
X5407Y1259D01*
X5431Y1203D01*
X5445Y1131D01*
X5445Y1131D01*
G37*
G36*
X6445Y4131D02*
X6444Y4058D01*
X6428Y3988D01*
X6402Y3930D01*
X6360Y3871D01*
X6315Y3828D01*
X6254Y3789D01*
X6195Y3766D01*
X6123Y3753D01*
X6061Y3755D01*
X5990Y3770D01*
X5933Y3795D01*
X5872Y3837D01*
X5829Y3882D01*
X5790Y3943D01*
X5767Y4001D01*
X5754Y4073D01*
X5754Y4135D01*
X5770Y4207D01*
X5794Y4264D01*
X5836Y4325D01*
X5880Y4368D01*
X5942Y4408D01*
X5999Y4431D01*
X6071Y4445D01*
X6133Y4445D01*
X6205Y4430D01*
X6262Y4406D01*
X6323Y4365D01*
X6366Y4321D01*
X6407Y4259D01*
X6431Y4203D01*
X6445Y4131D01*
X6445Y4131D01*
G37*
G36*
X6445Y1131D02*
X6444Y1058D01*
X6428Y988D01*
X6402Y930D01*
X6360Y871D01*
X6315Y828D01*
X6254Y789D01*
X6195Y766D01*
X6123Y753D01*
X6061Y755D01*
X5990Y770D01*
X5933Y795D01*
X5872Y837D01*
X5829Y882D01*
X5790Y943D01*
X5767Y1001D01*
X5754Y1073D01*
X5754Y1135D01*
X5770Y1207D01*
X5794Y1264D01*
X5836Y1325D01*
X5880Y1368D01*
X5942Y1408D01*
X5999Y1431D01*
X6071Y1445D01*
X6133Y1445D01*
X6205Y1430D01*
X6262Y1406D01*
X6323Y1365D01*
X6366Y1321D01*
X6407Y1259D01*
X6431Y1203D01*
X6445Y1131D01*
X6445Y1131D01*
G37*
G36*
X9645Y4131D02*
X9644Y4058D01*
X9628Y3988D01*
X9602Y3930D01*
X9560Y3871D01*
X9515Y3828D01*
X9454Y3789D01*
X9395Y3766D01*
X9323Y3753D01*
X9261Y3755D01*
X9190Y3770D01*
X9133Y3795D01*
X9072Y3837D01*
X9029Y3882D01*
X8990Y3943D01*
X8967Y4001D01*
X8954Y4073D01*
X8954Y4135D01*
X8970Y4207D01*
X8994Y4264D01*
X9036Y4325D01*
X9080Y4368D01*
X9142Y4408D01*
X9199Y4431D01*
X9271Y4445D01*
X9333Y4445D01*
X9405Y4430D01*
X9462Y4406D01*
X9523Y4365D01*
X9566Y4321D01*
X9607Y4259D01*
X9631Y4203D01*
X9645Y4131D01*
X9645Y4131D01*
G37*
G36*
X9645Y754D02*
X8954Y754D01*
X8954Y1445D01*
X9645Y1445D01*
X9645Y754D01*
X9645Y754D01*
G37*
G36*
X10645Y4131D02*
X10644Y4058D01*
X10628Y3988D01*
X10602Y3930D01*
X10560Y3871D01*
X10515Y3828D01*
X10454Y3789D01*
X10395Y3766D01*
X10323Y3753D01*
X10261Y3755D01*
X10190Y3770D01*
X10133Y3795D01*
X10072Y3837D01*
X10029Y3882D01*
X9990Y3943D01*
X9967Y4001D01*
X9954Y4073D01*
X9954Y4135D01*
X9970Y4207D01*
X9994Y4264D01*
X10036Y4325D01*
X10080Y4368D01*
X10142Y4408D01*
X10199Y4431D01*
X10271Y4445D01*
X10333Y4445D01*
X10405Y4430D01*
X10462Y4406D01*
X10523Y4365D01*
X10566Y4321D01*
X10607Y4259D01*
X10631Y4203D01*
X10645Y4131D01*
X10645Y4131D01*
G37*
G36*
X10645Y2131D02*
X10644Y2058D01*
X10628Y1988D01*
X10602Y1930D01*
X10560Y1871D01*
X10515Y1828D01*
X10454Y1789D01*
X10395Y1766D01*
X10323Y1753D01*
X10261Y1755D01*
X10190Y1770D01*
X10133Y1795D01*
X10072Y1837D01*
X10029Y1882D01*
X9990Y1943D01*
X9967Y2001D01*
X9954Y2073D01*
X9954Y2135D01*
X9970Y2207D01*
X9994Y2264D01*
X10036Y2325D01*
X10080Y2368D01*
X10142Y2408D01*
X10199Y2431D01*
X10271Y2445D01*
X10333Y2445D01*
X10405Y2430D01*
X10462Y2406D01*
X10523Y2365D01*
X10566Y2321D01*
X10607Y2259D01*
X10631Y2203D01*
X10645Y2131D01*
X10645Y2131D01*
G37*
G36*
X10645Y1131D02*
X10644Y1058D01*
X10628Y988D01*
X10602Y930D01*
X10560Y871D01*
X10515Y828D01*
X10454Y789D01*
X10395Y766D01*
X10323Y753D01*
X10261Y755D01*
X10190Y770D01*
X10133Y795D01*
X10072Y837D01*
X10029Y882D01*
X9990Y943D01*
X9967Y1001D01*
X9954Y1073D01*
X9954Y1135D01*
X9970Y1207D01*
X9994Y1264D01*
X10036Y1325D01*
X10080Y1368D01*
X10142Y1408D01*
X10199Y1431D01*
X10271Y1445D01*
X10333Y1445D01*
X10405Y1430D01*
X10462Y1406D01*
X10523Y1365D01*
X10566Y1321D01*
X10607Y1259D01*
X10631Y1203D01*
X10645Y1131D01*
X10645Y1131D01*
G37*
G36*
X10645Y2754D02*
X9954Y2754D01*
X9954Y3445D01*
X10645Y3445D01*
X10645Y2754D01*
X10645Y2754D01*
G37*
G36*
X11645Y4131D02*
X11644Y4058D01*
X11628Y3988D01*
X11602Y3930D01*
X11560Y3871D01*
X11515Y3828D01*
X11454Y3789D01*
X11395Y3766D01*
X11323Y3753D01*
X11261Y3755D01*
X11190Y3770D01*
X11133Y3795D01*
X11072Y3837D01*
X11029Y3882D01*
X10990Y3943D01*
X10967Y4001D01*
X10954Y4073D01*
X10954Y4135D01*
X10970Y4207D01*
X10994Y4264D01*
X11036Y4325D01*
X11080Y4368D01*
X11142Y4408D01*
X11199Y4431D01*
X11271Y4445D01*
X11333Y4445D01*
X11405Y4430D01*
X11462Y4406D01*
X11523Y4365D01*
X11566Y4321D01*
X11607Y4259D01*
X11631Y4203D01*
X11645Y4131D01*
X11645Y4131D01*
G37*
G36*
X11645Y3131D02*
X11644Y3058D01*
X11628Y2988D01*
X11602Y2930D01*
X11560Y2871D01*
X11515Y2828D01*
X11454Y2789D01*
X11395Y2766D01*
X11323Y2753D01*
X11261Y2755D01*
X11190Y2770D01*
X11133Y2795D01*
X11072Y2837D01*
X11029Y2882D01*
X10990Y2943D01*
X10967Y3001D01*
X10954Y3073D01*
X10954Y3135D01*
X10970Y3207D01*
X10994Y3264D01*
X11036Y3325D01*
X11080Y3368D01*
X11142Y3408D01*
X11199Y3431D01*
X11271Y3445D01*
X11333Y3445D01*
X11405Y3430D01*
X11462Y3406D01*
X11523Y3365D01*
X11566Y3321D01*
X11607Y3259D01*
X11631Y3203D01*
X11645Y3131D01*
X11645Y3131D01*
G37*
G36*
X11645Y2131D02*
X11644Y2058D01*
X11628Y1988D01*
X11602Y1930D01*
X11560Y1871D01*
X11515Y1828D01*
X11454Y1789D01*
X11395Y1766D01*
X11323Y1753D01*
X11261Y1755D01*
X11190Y1770D01*
X11133Y1795D01*
X11072Y1837D01*
X11029Y1882D01*
X10990Y1943D01*
X10967Y2001D01*
X10954Y2073D01*
X10954Y2135D01*
X10970Y2207D01*
X10994Y2264D01*
X11036Y2325D01*
X11080Y2368D01*
X11142Y2408D01*
X11199Y2431D01*
X11271Y2445D01*
X11333Y2445D01*
X11405Y2430D01*
X11462Y2406D01*
X11523Y2365D01*
X11566Y2321D01*
X11607Y2259D01*
X11631Y2203D01*
X11645Y2131D01*
X11645Y2131D01*
G37*
G36*
X11645Y1131D02*
X11644Y1058D01*
X11628Y988D01*
X11602Y930D01*
X11560Y871D01*
X11515Y828D01*
X11454Y789D01*
X11395Y766D01*
X11323Y753D01*
X11261Y755D01*
X11190Y770D01*
X11133Y795D01*
X11072Y837D01*
X11029Y882D01*
X10990Y943D01*
X10967Y1001D01*
X10954Y1073D01*
X10954Y1135D01*
X10970Y1207D01*
X10994Y1264D01*
X11036Y1325D01*
X11080Y1368D01*
X11142Y1408D01*
X11199Y1431D01*
X11271Y1445D01*
X11333Y1445D01*
X11405Y1430D01*
X11462Y1406D01*
X11523Y1365D01*
X11566Y1321D01*
X11607Y1259D01*
X11631Y1203D01*
X11645Y1131D01*
X11645Y1131D01*
G37*
G36*
X12645Y4131D02*
X12644Y4058D01*
X12628Y3988D01*
X12602Y3930D01*
X12560Y3871D01*
X12515Y3828D01*
X12454Y3789D01*
X12395Y3766D01*
X12323Y3753D01*
X12261Y3755D01*
X12190Y3770D01*
X12133Y3795D01*
X12072Y3837D01*
X12029Y3882D01*
X11990Y3943D01*
X11967Y4001D01*
X11954Y4073D01*
X11954Y4135D01*
X11970Y4207D01*
X11994Y4264D01*
X12036Y4325D01*
X12080Y4368D01*
X12142Y4408D01*
X12199Y4431D01*
X12271Y4445D01*
X12333Y4445D01*
X12405Y4430D01*
X12462Y4406D01*
X12523Y4365D01*
X12566Y4321D01*
X12607Y4259D01*
X12631Y4203D01*
X12645Y4131D01*
X12645Y4131D01*
G37*
G36*
X12645Y3131D02*
X12644Y3058D01*
X12628Y2988D01*
X12602Y2930D01*
X12560Y2871D01*
X12515Y2828D01*
X12454Y2789D01*
X12395Y2766D01*
X12323Y2753D01*
X12261Y2755D01*
X12190Y2770D01*
X12133Y2795D01*
X12072Y2837D01*
X12029Y2882D01*
X11990Y2943D01*
X11967Y3001D01*
X11954Y3073D01*
X11954Y3135D01*
X11970Y3207D01*
X11994Y3264D01*
X12036Y3325D01*
X12080Y3368D01*
X12142Y3408D01*
X12199Y3431D01*
X12271Y3445D01*
X12333Y3445D01*
X12405Y3430D01*
X12462Y3406D01*
X12523Y3365D01*
X12566Y3321D01*
X12607Y3259D01*
X12631Y3203D01*
X12645Y3131D01*
X12645Y3131D01*
G37*
G36*
X12645Y2131D02*
X12644Y2058D01*
X12628Y1988D01*
X12602Y1930D01*
X12560Y1871D01*
X12515Y1828D01*
X12454Y1789D01*
X12395Y1766D01*
X12323Y1753D01*
X12261Y1755D01*
X12190Y1770D01*
X12133Y1795D01*
X12072Y1837D01*
X12029Y1882D01*
X11990Y1943D01*
X11967Y2001D01*
X11954Y2073D01*
X11954Y2135D01*
X11970Y2207D01*
X11994Y2264D01*
X12036Y2325D01*
X12080Y2368D01*
X12142Y2408D01*
X12199Y2431D01*
X12271Y2445D01*
X12333Y2445D01*
X12405Y2430D01*
X12462Y2406D01*
X12523Y2365D01*
X12566Y2321D01*
X12607Y2259D01*
X12631Y2203D01*
X12645Y2131D01*
X12645Y2131D01*
G37*
G36*
X12645Y1131D02*
X12644Y1058D01*
X12628Y988D01*
X12602Y930D01*
X12560Y871D01*
X12515Y828D01*
X12454Y789D01*
X12395Y766D01*
X12323Y753D01*
X12261Y755D01*
X12190Y770D01*
X12133Y795D01*
X12072Y837D01*
X12029Y882D01*
X11990Y943D01*
X11967Y1001D01*
X11954Y1073D01*
X11954Y1135D01*
X11970Y1207D01*
X11994Y1264D01*
X12036Y1325D01*
X12080Y1368D01*
X12142Y1408D01*
X12199Y1431D01*
X12271Y1445D01*
X12333Y1445D01*
X12405Y1430D01*
X12462Y1406D01*
X12523Y1365D01*
X12566Y1321D01*
X12607Y1259D01*
X12631Y1203D01*
X12645Y1131D01*
X12645Y1131D01*
G37*
G36*
X13645Y4131D02*
X13644Y4058D01*
X13628Y3988D01*
X13602Y3930D01*
X13560Y3871D01*
X13515Y3828D01*
X13454Y3789D01*
X13395Y3766D01*
X13323Y3753D01*
X13261Y3755D01*
X13190Y3770D01*
X13133Y3795D01*
X13072Y3837D01*
X13029Y3882D01*
X12990Y3943D01*
X12967Y4001D01*
X12954Y4073D01*
X12954Y4135D01*
X12970Y4207D01*
X12994Y4264D01*
X13036Y4325D01*
X13080Y4368D01*
X13142Y4408D01*
X13199Y4431D01*
X13271Y4445D01*
X13333Y4445D01*
X13405Y4430D01*
X13462Y4406D01*
X13523Y4365D01*
X13566Y4321D01*
X13607Y4259D01*
X13631Y4203D01*
X13645Y4131D01*
X13645Y4131D01*
G37*
G36*
X13645Y3131D02*
X13644Y3058D01*
X13628Y2988D01*
X13602Y2930D01*
X13560Y2871D01*
X13515Y2828D01*
X13454Y2789D01*
X13395Y2766D01*
X13323Y2753D01*
X13261Y2755D01*
X13190Y2770D01*
X13133Y2795D01*
X13072Y2837D01*
X13029Y2882D01*
X12990Y2943D01*
X12967Y3001D01*
X12954Y3073D01*
X12954Y3135D01*
X12970Y3207D01*
X12994Y3264D01*
X13036Y3325D01*
X13080Y3368D01*
X13142Y3408D01*
X13199Y3431D01*
X13271Y3445D01*
X13333Y3445D01*
X13405Y3430D01*
X13462Y3406D01*
X13523Y3365D01*
X13566Y3321D01*
X13607Y3259D01*
X13631Y3203D01*
X13645Y3131D01*
X13645Y3131D01*
G37*
G36*
X13645Y2131D02*
X13644Y2058D01*
X13628Y1988D01*
X13602Y1930D01*
X13560Y1871D01*
X13515Y1828D01*
X13454Y1789D01*
X13395Y1766D01*
X13323Y1753D01*
X13261Y1755D01*
X13190Y1770D01*
X13133Y1795D01*
X13072Y1837D01*
X13029Y1882D01*
X12990Y1943D01*
X12967Y2001D01*
X12954Y2073D01*
X12954Y2135D01*
X12970Y2207D01*
X12994Y2264D01*
X13036Y2325D01*
X13080Y2368D01*
X13142Y2408D01*
X13199Y2431D01*
X13271Y2445D01*
X13333Y2445D01*
X13405Y2430D01*
X13462Y2406D01*
X13523Y2365D01*
X13566Y2321D01*
X13607Y2259D01*
X13631Y2203D01*
X13645Y2131D01*
X13645Y2131D01*
G37*
G36*
X13645Y1131D02*
X13644Y1058D01*
X13628Y988D01*
X13602Y930D01*
X13560Y871D01*
X13515Y828D01*
X13454Y789D01*
X13395Y766D01*
X13323Y753D01*
X13261Y755D01*
X13190Y770D01*
X13133Y795D01*
X13072Y837D01*
X13029Y882D01*
X12990Y943D01*
X12967Y1001D01*
X12954Y1073D01*
X12954Y1135D01*
X12970Y1207D01*
X12994Y1264D01*
X13036Y1325D01*
X13080Y1368D01*
X13142Y1408D01*
X13199Y1431D01*
X13271Y1445D01*
X13333Y1445D01*
X13405Y1430D01*
X13462Y1406D01*
X13523Y1365D01*
X13566Y1321D01*
X13607Y1259D01*
X13631Y1203D01*
X13645Y1131D01*
X13645Y1131D01*
G37*
G36*
X14645Y4131D02*
X14644Y4058D01*
X14628Y3988D01*
X14602Y3930D01*
X14560Y3871D01*
X14515Y3828D01*
X14454Y3789D01*
X14395Y3766D01*
X14323Y3753D01*
X14261Y3755D01*
X14190Y3770D01*
X14133Y3795D01*
X14072Y3837D01*
X14029Y3882D01*
X13990Y3943D01*
X13967Y4001D01*
X13954Y4073D01*
X13954Y4135D01*
X13970Y4207D01*
X13994Y4264D01*
X14036Y4325D01*
X14080Y4368D01*
X14142Y4408D01*
X14199Y4431D01*
X14271Y4445D01*
X14333Y4445D01*
X14405Y4430D01*
X14462Y4406D01*
X14523Y4365D01*
X14566Y4321D01*
X14607Y4259D01*
X14631Y4203D01*
X14645Y4131D01*
X14645Y4131D01*
G37*
G36*
X14645Y1131D02*
X14644Y1058D01*
X14628Y988D01*
X14602Y930D01*
X14560Y871D01*
X14515Y828D01*
X14454Y789D01*
X14395Y766D01*
X14323Y753D01*
X14261Y755D01*
X14190Y770D01*
X14133Y795D01*
X14072Y837D01*
X14029Y882D01*
X13990Y943D01*
X13967Y1001D01*
X13954Y1073D01*
X13954Y1135D01*
X13970Y1207D01*
X13994Y1264D01*
X14036Y1325D01*
X14080Y1368D01*
X14142Y1408D01*
X14199Y1431D01*
X14271Y1445D01*
X14333Y1445D01*
X14405Y1430D01*
X14462Y1406D01*
X14523Y1365D01*
X14566Y1321D01*
X14607Y1259D01*
X14631Y1203D01*
X14645Y1131D01*
X14645Y1131D01*
G37*
M02*
