M48
;DRILL file {Pcbnew (2013-07-07 BZR 4022)-stable} date 2/6/2014 2:51:54 PM
;FORMAT={2:4/ absolute / inch / keep zeros}
FMAT,2
INCH,TZ
T1C0.015
T2C0.035
%
G90
G05
M72
T1
X000515Y000400
X001915Y000400
X003315Y000400
X004715Y000400
X006115Y000400
X008715Y000400
X010115Y000400
X011515Y000400
X012915Y000400
X014315Y000400
X029500Y001800
X029900Y001800
X030300Y001800
X030650Y003700
X031000Y003700
X031350Y003700
X031700Y001800
X032100Y001800
X032500Y001800
X035000Y001800
X035400Y001800
X035800Y001800
X036150Y003700
X036500Y003700
X036850Y003700
X037200Y001800
X037600Y001800
X038000Y001800
T2
X001100Y004100
X001100Y001100
X002100Y004100
X002100Y003100
X002100Y002100
X002100Y001100
X003100Y004100
X003100Y003100
X003100Y002100
X003100Y001100
X004100Y004100
X004100Y003100
X004100Y002100
X004100Y001100
X005100Y004100
X005100Y003100
X005100Y002100
X005100Y001100
X006100Y004100
X006100Y001100
X009300Y004100
X009300Y001100
X010300Y004100
X010300Y003100
X010300Y002100
X010300Y001100
X011300Y004100
X011300Y003100
X011300Y002100
X011300Y001100
X012300Y004100
X012300Y003100
X012300Y002100
X012300Y001100
X013300Y004100
X013300Y003100
X013300Y002100
X013300Y001100
X014300Y004100
X014300Y001100
T0
M30
