G04 (created by PCBNEW (2013-07-07 BZR 4022)-stable) date 2/5/2014 8:06:20 PM*
%MOIN*%
G04 Gerber Fmt 3.4, Leading zero omitted, Abs format*
%FSLAX34Y34*%
G01*
G70*
G90*
G04 APERTURE LIST*
%ADD10C,0.007*%
G04 APERTURE END LIST*
G54D10*
G36*
X1343Y142D02*
X813Y142D01*
X800Y142D01*
X799Y142D01*
X786Y142D01*
X256Y142D01*
X256Y657D01*
X786Y657D01*
X799Y657D01*
X800Y657D01*
X813Y657D01*
X1343Y657D01*
X1343Y142D01*
X1343Y142D01*
G37*
G36*
X1445Y4131D02*
X1444Y4058D01*
X1428Y3988D01*
X1402Y3930D01*
X1360Y3871D01*
X1315Y3828D01*
X1254Y3789D01*
X1195Y3766D01*
X1123Y3753D01*
X1061Y3755D01*
X990Y3770D01*
X933Y3795D01*
X872Y3837D01*
X829Y3882D01*
X790Y3943D01*
X767Y4001D01*
X754Y4073D01*
X754Y4135D01*
X770Y4207D01*
X794Y4264D01*
X836Y4325D01*
X880Y4368D01*
X942Y4408D01*
X999Y4431D01*
X1071Y4445D01*
X1133Y4445D01*
X1205Y4430D01*
X1262Y4406D01*
X1323Y4365D01*
X1366Y4321D01*
X1407Y4259D01*
X1431Y4203D01*
X1445Y4131D01*
X1445Y4131D01*
G37*
G36*
X1445Y754D02*
X754Y754D01*
X754Y1445D01*
X1445Y1445D01*
X1445Y754D01*
X1445Y754D01*
G37*
G36*
X2445Y4131D02*
X2444Y4058D01*
X2428Y3988D01*
X2402Y3930D01*
X2360Y3871D01*
X2315Y3828D01*
X2254Y3789D01*
X2195Y3766D01*
X2123Y3753D01*
X2061Y3755D01*
X1990Y3770D01*
X1933Y3795D01*
X1872Y3837D01*
X1829Y3882D01*
X1790Y3943D01*
X1767Y4001D01*
X1754Y4073D01*
X1754Y4135D01*
X1770Y4207D01*
X1794Y4264D01*
X1836Y4325D01*
X1880Y4368D01*
X1942Y4408D01*
X1999Y4431D01*
X2071Y4445D01*
X2133Y4445D01*
X2205Y4430D01*
X2262Y4406D01*
X2323Y4365D01*
X2366Y4321D01*
X2407Y4259D01*
X2431Y4203D01*
X2445Y4131D01*
X2445Y4131D01*
G37*
G36*
X2445Y2131D02*
X2444Y2058D01*
X2428Y1988D01*
X2402Y1930D01*
X2360Y1871D01*
X2315Y1828D01*
X2254Y1789D01*
X2195Y1766D01*
X2123Y1753D01*
X2061Y1755D01*
X1990Y1770D01*
X1933Y1795D01*
X1872Y1837D01*
X1829Y1882D01*
X1790Y1943D01*
X1767Y2001D01*
X1754Y2073D01*
X1754Y2135D01*
X1770Y2207D01*
X1794Y2264D01*
X1836Y2325D01*
X1880Y2368D01*
X1942Y2408D01*
X1999Y2431D01*
X2071Y2445D01*
X2133Y2445D01*
X2205Y2430D01*
X2262Y2406D01*
X2323Y2365D01*
X2366Y2321D01*
X2407Y2259D01*
X2431Y2203D01*
X2445Y2131D01*
X2445Y2131D01*
G37*
G36*
X2445Y1131D02*
X2444Y1058D01*
X2428Y988D01*
X2402Y930D01*
X2360Y871D01*
X2315Y828D01*
X2254Y789D01*
X2195Y766D01*
X2123Y753D01*
X2061Y755D01*
X1990Y770D01*
X1933Y795D01*
X1872Y837D01*
X1829Y882D01*
X1790Y943D01*
X1767Y1001D01*
X1754Y1073D01*
X1754Y1135D01*
X1770Y1207D01*
X1794Y1264D01*
X1836Y1325D01*
X1880Y1368D01*
X1942Y1408D01*
X1999Y1431D01*
X2071Y1445D01*
X2133Y1445D01*
X2205Y1430D01*
X2262Y1406D01*
X2323Y1365D01*
X2366Y1321D01*
X2407Y1259D01*
X2431Y1203D01*
X2445Y1131D01*
X2445Y1131D01*
G37*
G36*
X2445Y2754D02*
X1754Y2754D01*
X1754Y3445D01*
X2445Y3445D01*
X2445Y2754D01*
X2445Y2754D01*
G37*
G36*
X2743Y142D02*
X2213Y142D01*
X2200Y142D01*
X2199Y142D01*
X2186Y142D01*
X1656Y142D01*
X1656Y657D01*
X2186Y657D01*
X2199Y657D01*
X2200Y657D01*
X2213Y657D01*
X2743Y657D01*
X2743Y142D01*
X2743Y142D01*
G37*
G36*
X2765Y21129D02*
X2234Y21129D01*
X2234Y22870D01*
X2765Y22870D01*
X2765Y21129D01*
X2765Y21129D01*
G37*
G36*
X2765Y15629D02*
X2234Y15629D01*
X2234Y17370D01*
X2765Y17370D01*
X2765Y15629D01*
X2765Y15629D01*
G37*
G36*
X2765Y10129D02*
X2234Y10129D01*
X2234Y11870D01*
X2765Y11870D01*
X2765Y10129D01*
X2765Y10129D01*
G37*
G36*
X3445Y4131D02*
X3444Y4058D01*
X3428Y3988D01*
X3402Y3930D01*
X3360Y3871D01*
X3315Y3828D01*
X3254Y3789D01*
X3195Y3766D01*
X3123Y3753D01*
X3061Y3755D01*
X2990Y3770D01*
X2933Y3795D01*
X2872Y3837D01*
X2829Y3882D01*
X2790Y3943D01*
X2767Y4001D01*
X2754Y4073D01*
X2754Y4135D01*
X2770Y4207D01*
X2794Y4264D01*
X2836Y4325D01*
X2880Y4368D01*
X2942Y4408D01*
X2999Y4431D01*
X3071Y4445D01*
X3133Y4445D01*
X3205Y4430D01*
X3262Y4406D01*
X3323Y4365D01*
X3366Y4321D01*
X3407Y4259D01*
X3431Y4203D01*
X3445Y4131D01*
X3445Y4131D01*
G37*
G36*
X3445Y3131D02*
X3444Y3058D01*
X3428Y2988D01*
X3402Y2930D01*
X3360Y2871D01*
X3315Y2828D01*
X3254Y2789D01*
X3195Y2766D01*
X3123Y2753D01*
X3061Y2755D01*
X2990Y2770D01*
X2933Y2795D01*
X2872Y2837D01*
X2829Y2882D01*
X2790Y2943D01*
X2767Y3001D01*
X2754Y3073D01*
X2754Y3135D01*
X2770Y3207D01*
X2794Y3264D01*
X2836Y3325D01*
X2880Y3368D01*
X2942Y3408D01*
X2999Y3431D01*
X3071Y3445D01*
X3133Y3445D01*
X3205Y3430D01*
X3262Y3406D01*
X3323Y3365D01*
X3366Y3321D01*
X3407Y3259D01*
X3431Y3203D01*
X3445Y3131D01*
X3445Y3131D01*
G37*
G36*
X3445Y2131D02*
X3444Y2058D01*
X3428Y1988D01*
X3402Y1930D01*
X3360Y1871D01*
X3315Y1828D01*
X3254Y1789D01*
X3195Y1766D01*
X3123Y1753D01*
X3061Y1755D01*
X2990Y1770D01*
X2933Y1795D01*
X2872Y1837D01*
X2829Y1882D01*
X2790Y1943D01*
X2767Y2001D01*
X2754Y2073D01*
X2754Y2135D01*
X2770Y2207D01*
X2794Y2264D01*
X2836Y2325D01*
X2880Y2368D01*
X2942Y2408D01*
X2999Y2431D01*
X3071Y2445D01*
X3133Y2445D01*
X3205Y2430D01*
X3262Y2406D01*
X3323Y2365D01*
X3366Y2321D01*
X3407Y2259D01*
X3431Y2203D01*
X3445Y2131D01*
X3445Y2131D01*
G37*
G36*
X3445Y1131D02*
X3444Y1058D01*
X3428Y988D01*
X3402Y930D01*
X3360Y871D01*
X3315Y828D01*
X3254Y789D01*
X3195Y766D01*
X3123Y753D01*
X3061Y755D01*
X2990Y770D01*
X2933Y795D01*
X2872Y837D01*
X2829Y882D01*
X2790Y943D01*
X2767Y1001D01*
X2754Y1073D01*
X2754Y1135D01*
X2770Y1207D01*
X2794Y1264D01*
X2836Y1325D01*
X2880Y1368D01*
X2942Y1408D01*
X2999Y1431D01*
X3071Y1445D01*
X3133Y1445D01*
X3205Y1430D01*
X3262Y1406D01*
X3323Y1365D01*
X3366Y1321D01*
X3407Y1259D01*
X3431Y1203D01*
X3445Y1131D01*
X3445Y1131D01*
G37*
G36*
X3765Y19529D02*
X3234Y19529D01*
X3234Y21270D01*
X3765Y21270D01*
X3765Y19529D01*
X3765Y19529D01*
G37*
G36*
X3765Y14029D02*
X3234Y14029D01*
X3234Y15770D01*
X3765Y15770D01*
X3765Y14029D01*
X3765Y14029D01*
G37*
G36*
X3765Y8529D02*
X3234Y8529D01*
X3234Y10270D01*
X3765Y10270D01*
X3765Y8529D01*
X3765Y8529D01*
G37*
G36*
X3865Y23348D02*
X3134Y23348D01*
X3134Y24001D01*
X3865Y24001D01*
X3865Y23348D01*
X3865Y23348D01*
G37*
G36*
X3865Y22598D02*
X3134Y22598D01*
X3134Y23251D01*
X3865Y23251D01*
X3865Y22598D01*
X3865Y22598D01*
G37*
G36*
X3865Y17848D02*
X3134Y17848D01*
X3134Y18501D01*
X3865Y18501D01*
X3865Y17848D01*
X3865Y17848D01*
G37*
G36*
X3865Y17098D02*
X3134Y17098D01*
X3134Y17751D01*
X3865Y17751D01*
X3865Y17098D01*
X3865Y17098D01*
G37*
G36*
X3865Y12348D02*
X3134Y12348D01*
X3134Y13001D01*
X3865Y13001D01*
X3865Y12348D01*
X3865Y12348D01*
G37*
G36*
X3865Y11598D02*
X3134Y11598D01*
X3134Y12251D01*
X3865Y12251D01*
X3865Y11598D01*
X3865Y11598D01*
G37*
G36*
X4131Y21653D02*
X3557Y21653D01*
X3557Y21701D01*
X3557Y21714D01*
X3552Y21727D01*
X3542Y21737D01*
X3529Y21742D01*
X3516Y21742D01*
X3513Y21742D01*
X3500Y21742D01*
X3499Y21742D01*
X3486Y21742D01*
X3483Y21742D01*
X3470Y21742D01*
X3457Y21737D01*
X3447Y21727D01*
X3442Y21714D01*
X3442Y21701D01*
X3442Y21653D01*
X2868Y21653D01*
X2868Y22346D01*
X3442Y22346D01*
X3442Y22298D01*
X3442Y22285D01*
X3447Y22272D01*
X3457Y22262D01*
X3470Y22257D01*
X3483Y22257D01*
X3486Y22257D01*
X3499Y22257D01*
X3500Y22257D01*
X3513Y22257D01*
X3516Y22257D01*
X3529Y22257D01*
X3542Y22262D01*
X3552Y22272D01*
X3557Y22285D01*
X3557Y22298D01*
X3557Y22346D01*
X4131Y22346D01*
X4131Y21653D01*
X4131Y21653D01*
G37*
G36*
X4131Y16153D02*
X3557Y16153D01*
X3557Y16201D01*
X3557Y16214D01*
X3552Y16227D01*
X3542Y16237D01*
X3529Y16242D01*
X3516Y16242D01*
X3513Y16242D01*
X3500Y16242D01*
X3499Y16242D01*
X3486Y16242D01*
X3483Y16242D01*
X3470Y16242D01*
X3457Y16237D01*
X3447Y16227D01*
X3442Y16214D01*
X3442Y16201D01*
X3442Y16153D01*
X2868Y16153D01*
X2868Y16846D01*
X3442Y16846D01*
X3442Y16798D01*
X3442Y16785D01*
X3447Y16772D01*
X3457Y16762D01*
X3470Y16757D01*
X3483Y16757D01*
X3486Y16757D01*
X3499Y16757D01*
X3500Y16757D01*
X3513Y16757D01*
X3516Y16757D01*
X3529Y16757D01*
X3542Y16762D01*
X3552Y16772D01*
X3557Y16785D01*
X3557Y16798D01*
X3557Y16846D01*
X4131Y16846D01*
X4131Y16153D01*
X4131Y16153D01*
G37*
G36*
X4131Y10653D02*
X3557Y10653D01*
X3557Y10701D01*
X3557Y10714D01*
X3552Y10727D01*
X3542Y10737D01*
X3529Y10742D01*
X3516Y10742D01*
X3513Y10742D01*
X3500Y10742D01*
X3499Y10742D01*
X3486Y10742D01*
X3483Y10742D01*
X3470Y10742D01*
X3457Y10737D01*
X3447Y10727D01*
X3442Y10714D01*
X3442Y10701D01*
X3442Y10653D01*
X2868Y10653D01*
X2868Y11346D01*
X3442Y11346D01*
X3442Y11298D01*
X3442Y11285D01*
X3447Y11272D01*
X3457Y11262D01*
X3470Y11257D01*
X3483Y11257D01*
X3486Y11257D01*
X3499Y11257D01*
X3500Y11257D01*
X3513Y11257D01*
X3516Y11257D01*
X3529Y11257D01*
X3542Y11262D01*
X3552Y11272D01*
X3557Y11285D01*
X3557Y11298D01*
X3557Y11346D01*
X4131Y11346D01*
X4131Y10653D01*
X4131Y10653D01*
G37*
G36*
X4143Y142D02*
X3613Y142D01*
X3600Y142D01*
X3599Y142D01*
X3586Y142D01*
X3056Y142D01*
X3056Y657D01*
X3586Y657D01*
X3599Y657D01*
X3600Y657D01*
X3613Y657D01*
X4143Y657D01*
X4143Y142D01*
X4143Y142D01*
G37*
G36*
X4445Y4131D02*
X4444Y4058D01*
X4428Y3988D01*
X4402Y3930D01*
X4360Y3871D01*
X4315Y3828D01*
X4254Y3789D01*
X4195Y3766D01*
X4123Y3753D01*
X4061Y3755D01*
X3990Y3770D01*
X3933Y3795D01*
X3872Y3837D01*
X3829Y3882D01*
X3790Y3943D01*
X3767Y4001D01*
X3754Y4073D01*
X3754Y4135D01*
X3770Y4207D01*
X3794Y4264D01*
X3836Y4325D01*
X3880Y4368D01*
X3942Y4408D01*
X3999Y4431D01*
X4071Y4445D01*
X4133Y4445D01*
X4205Y4430D01*
X4262Y4406D01*
X4323Y4365D01*
X4366Y4321D01*
X4407Y4259D01*
X4431Y4203D01*
X4445Y4131D01*
X4445Y4131D01*
G37*
G36*
X4445Y3131D02*
X4444Y3058D01*
X4428Y2988D01*
X4402Y2930D01*
X4360Y2871D01*
X4315Y2828D01*
X4254Y2789D01*
X4195Y2766D01*
X4123Y2753D01*
X4061Y2755D01*
X3990Y2770D01*
X3933Y2795D01*
X3872Y2837D01*
X3829Y2882D01*
X3790Y2943D01*
X3767Y3001D01*
X3754Y3073D01*
X3754Y3135D01*
X3770Y3207D01*
X3794Y3264D01*
X3836Y3325D01*
X3880Y3368D01*
X3942Y3408D01*
X3999Y3431D01*
X4071Y3445D01*
X4133Y3445D01*
X4205Y3430D01*
X4262Y3406D01*
X4323Y3365D01*
X4366Y3321D01*
X4407Y3259D01*
X4431Y3203D01*
X4445Y3131D01*
X4445Y3131D01*
G37*
G36*
X4445Y2131D02*
X4444Y2058D01*
X4428Y1988D01*
X4402Y1930D01*
X4360Y1871D01*
X4315Y1828D01*
X4254Y1789D01*
X4195Y1766D01*
X4123Y1753D01*
X4061Y1755D01*
X3990Y1770D01*
X3933Y1795D01*
X3872Y1837D01*
X3829Y1882D01*
X3790Y1943D01*
X3767Y2001D01*
X3754Y2073D01*
X3754Y2135D01*
X3770Y2207D01*
X3794Y2264D01*
X3836Y2325D01*
X3880Y2368D01*
X3942Y2408D01*
X3999Y2431D01*
X4071Y2445D01*
X4133Y2445D01*
X4205Y2430D01*
X4262Y2406D01*
X4323Y2365D01*
X4366Y2321D01*
X4407Y2259D01*
X4431Y2203D01*
X4445Y2131D01*
X4445Y2131D01*
G37*
G36*
X4445Y1131D02*
X4444Y1058D01*
X4428Y988D01*
X4402Y930D01*
X4360Y871D01*
X4315Y828D01*
X4254Y789D01*
X4195Y766D01*
X4123Y753D01*
X4061Y755D01*
X3990Y770D01*
X3933Y795D01*
X3872Y837D01*
X3829Y882D01*
X3790Y943D01*
X3767Y1001D01*
X3754Y1073D01*
X3754Y1135D01*
X3770Y1207D01*
X3794Y1264D01*
X3836Y1325D01*
X3880Y1368D01*
X3942Y1408D01*
X3999Y1431D01*
X4071Y1445D01*
X4133Y1445D01*
X4205Y1430D01*
X4262Y1406D01*
X4323Y1365D01*
X4366Y1321D01*
X4407Y1259D01*
X4431Y1203D01*
X4445Y1131D01*
X4445Y1131D01*
G37*
G36*
X4765Y21129D02*
X4234Y21129D01*
X4234Y22870D01*
X4765Y22870D01*
X4765Y21129D01*
X4765Y21129D01*
G37*
G36*
X4765Y15629D02*
X4234Y15629D01*
X4234Y17370D01*
X4765Y17370D01*
X4765Y15629D01*
X4765Y15629D01*
G37*
G36*
X4765Y10129D02*
X4234Y10129D01*
X4234Y11870D01*
X4765Y11870D01*
X4765Y10129D01*
X4765Y10129D01*
G37*
G36*
X5445Y4131D02*
X5444Y4058D01*
X5428Y3988D01*
X5402Y3930D01*
X5360Y3871D01*
X5315Y3828D01*
X5254Y3789D01*
X5195Y3766D01*
X5123Y3753D01*
X5061Y3755D01*
X4990Y3770D01*
X4933Y3795D01*
X4872Y3837D01*
X4829Y3882D01*
X4790Y3943D01*
X4767Y4001D01*
X4754Y4073D01*
X4754Y4135D01*
X4770Y4207D01*
X4794Y4264D01*
X4836Y4325D01*
X4880Y4368D01*
X4942Y4408D01*
X4999Y4431D01*
X5071Y4445D01*
X5133Y4445D01*
X5205Y4430D01*
X5262Y4406D01*
X5323Y4365D01*
X5366Y4321D01*
X5407Y4259D01*
X5431Y4203D01*
X5445Y4131D01*
X5445Y4131D01*
G37*
G36*
X5445Y3131D02*
X5444Y3058D01*
X5428Y2988D01*
X5402Y2930D01*
X5360Y2871D01*
X5315Y2828D01*
X5254Y2789D01*
X5195Y2766D01*
X5123Y2753D01*
X5061Y2755D01*
X4990Y2770D01*
X4933Y2795D01*
X4872Y2837D01*
X4829Y2882D01*
X4790Y2943D01*
X4767Y3001D01*
X4754Y3073D01*
X4754Y3135D01*
X4770Y3207D01*
X4794Y3264D01*
X4836Y3325D01*
X4880Y3368D01*
X4942Y3408D01*
X4999Y3431D01*
X5071Y3445D01*
X5133Y3445D01*
X5205Y3430D01*
X5262Y3406D01*
X5323Y3365D01*
X5366Y3321D01*
X5407Y3259D01*
X5431Y3203D01*
X5445Y3131D01*
X5445Y3131D01*
G37*
G36*
X5445Y2131D02*
X5444Y2058D01*
X5428Y1988D01*
X5402Y1930D01*
X5360Y1871D01*
X5315Y1828D01*
X5254Y1789D01*
X5195Y1766D01*
X5123Y1753D01*
X5061Y1755D01*
X4990Y1770D01*
X4933Y1795D01*
X4872Y1837D01*
X4829Y1882D01*
X4790Y1943D01*
X4767Y2001D01*
X4754Y2073D01*
X4754Y2135D01*
X4770Y2207D01*
X4794Y2264D01*
X4836Y2325D01*
X4880Y2368D01*
X4942Y2408D01*
X4999Y2431D01*
X5071Y2445D01*
X5133Y2445D01*
X5205Y2430D01*
X5262Y2406D01*
X5323Y2365D01*
X5366Y2321D01*
X5407Y2259D01*
X5431Y2203D01*
X5445Y2131D01*
X5445Y2131D01*
G37*
G36*
X5445Y1131D02*
X5444Y1058D01*
X5428Y988D01*
X5402Y930D01*
X5360Y871D01*
X5315Y828D01*
X5254Y789D01*
X5195Y766D01*
X5123Y753D01*
X5061Y755D01*
X4990Y770D01*
X4933Y795D01*
X4872Y837D01*
X4829Y882D01*
X4790Y943D01*
X4767Y1001D01*
X4754Y1073D01*
X4754Y1135D01*
X4770Y1207D01*
X4794Y1264D01*
X4836Y1325D01*
X4880Y1368D01*
X4942Y1408D01*
X4999Y1431D01*
X5071Y1445D01*
X5133Y1445D01*
X5205Y1430D01*
X5262Y1406D01*
X5323Y1365D01*
X5366Y1321D01*
X5407Y1259D01*
X5431Y1203D01*
X5445Y1131D01*
X5445Y1131D01*
G37*
G36*
X5543Y142D02*
X5013Y142D01*
X5000Y142D01*
X4999Y142D01*
X4986Y142D01*
X4456Y142D01*
X4456Y657D01*
X4986Y657D01*
X4999Y657D01*
X5000Y657D01*
X5013Y657D01*
X5543Y657D01*
X5543Y142D01*
X5543Y142D01*
G37*
G36*
X6445Y4131D02*
X6444Y4058D01*
X6428Y3988D01*
X6402Y3930D01*
X6360Y3871D01*
X6315Y3828D01*
X6254Y3789D01*
X6195Y3766D01*
X6123Y3753D01*
X6061Y3755D01*
X5990Y3770D01*
X5933Y3795D01*
X5872Y3837D01*
X5829Y3882D01*
X5790Y3943D01*
X5767Y4001D01*
X5754Y4073D01*
X5754Y4135D01*
X5770Y4207D01*
X5794Y4264D01*
X5836Y4325D01*
X5880Y4368D01*
X5942Y4408D01*
X5999Y4431D01*
X6071Y4445D01*
X6133Y4445D01*
X6205Y4430D01*
X6262Y4406D01*
X6323Y4365D01*
X6366Y4321D01*
X6407Y4259D01*
X6431Y4203D01*
X6445Y4131D01*
X6445Y4131D01*
G37*
G36*
X6445Y1131D02*
X6444Y1058D01*
X6428Y988D01*
X6402Y930D01*
X6360Y871D01*
X6315Y828D01*
X6254Y789D01*
X6195Y766D01*
X6123Y753D01*
X6061Y755D01*
X5990Y770D01*
X5933Y795D01*
X5872Y837D01*
X5829Y882D01*
X5790Y943D01*
X5767Y1001D01*
X5754Y1073D01*
X5754Y1135D01*
X5770Y1207D01*
X5794Y1264D01*
X5836Y1325D01*
X5880Y1368D01*
X5942Y1408D01*
X5999Y1431D01*
X6071Y1445D01*
X6133Y1445D01*
X6205Y1430D01*
X6262Y1406D01*
X6323Y1365D01*
X6366Y1321D01*
X6407Y1259D01*
X6431Y1203D01*
X6445Y1131D01*
X6445Y1131D01*
G37*
G36*
X6943Y142D02*
X6413Y142D01*
X6400Y142D01*
X6399Y142D01*
X6386Y142D01*
X5856Y142D01*
X5856Y657D01*
X6386Y657D01*
X6399Y657D01*
X6400Y657D01*
X6413Y657D01*
X6943Y657D01*
X6943Y142D01*
X6943Y142D01*
G37*
G36*
X8265Y21129D02*
X7734Y21129D01*
X7734Y22870D01*
X8265Y22870D01*
X8265Y21129D01*
X8265Y21129D01*
G37*
G36*
X8265Y15629D02*
X7734Y15629D01*
X7734Y17370D01*
X8265Y17370D01*
X8265Y15629D01*
X8265Y15629D01*
G37*
G36*
X8265Y10129D02*
X7734Y10129D01*
X7734Y11870D01*
X8265Y11870D01*
X8265Y10129D01*
X8265Y10129D01*
G37*
G36*
X9265Y19529D02*
X8734Y19529D01*
X8734Y21270D01*
X9265Y21270D01*
X9265Y19529D01*
X9265Y19529D01*
G37*
G36*
X9265Y14029D02*
X8734Y14029D01*
X8734Y15770D01*
X9265Y15770D01*
X9265Y14029D01*
X9265Y14029D01*
G37*
G36*
X9265Y8529D02*
X8734Y8529D01*
X8734Y10270D01*
X9265Y10270D01*
X9265Y8529D01*
X9265Y8529D01*
G37*
G36*
X9365Y23348D02*
X8634Y23348D01*
X8634Y24001D01*
X9365Y24001D01*
X9365Y23348D01*
X9365Y23348D01*
G37*
G36*
X9365Y22598D02*
X8634Y22598D01*
X8634Y23251D01*
X9365Y23251D01*
X9365Y22598D01*
X9365Y22598D01*
G37*
G36*
X9365Y17848D02*
X8634Y17848D01*
X8634Y18501D01*
X9365Y18501D01*
X9365Y17848D01*
X9365Y17848D01*
G37*
G36*
X9365Y17098D02*
X8634Y17098D01*
X8634Y17751D01*
X9365Y17751D01*
X9365Y17098D01*
X9365Y17098D01*
G37*
G36*
X9365Y12348D02*
X8634Y12348D01*
X8634Y13001D01*
X9365Y13001D01*
X9365Y12348D01*
X9365Y12348D01*
G37*
G36*
X9365Y11598D02*
X8634Y11598D01*
X8634Y12251D01*
X9365Y12251D01*
X9365Y11598D01*
X9365Y11598D01*
G37*
G36*
X9543Y142D02*
X9013Y142D01*
X9000Y142D01*
X8999Y142D01*
X8986Y142D01*
X8456Y142D01*
X8456Y657D01*
X8986Y657D01*
X8999Y657D01*
X9000Y657D01*
X9013Y657D01*
X9543Y657D01*
X9543Y142D01*
X9543Y142D01*
G37*
G36*
X9631Y21653D02*
X9057Y21653D01*
X9057Y21701D01*
X9057Y21714D01*
X9052Y21727D01*
X9042Y21737D01*
X9029Y21742D01*
X9016Y21742D01*
X9013Y21742D01*
X9000Y21742D01*
X8999Y21742D01*
X8986Y21742D01*
X8983Y21742D01*
X8970Y21742D01*
X8957Y21737D01*
X8947Y21727D01*
X8942Y21714D01*
X8942Y21701D01*
X8942Y21653D01*
X8368Y21653D01*
X8368Y22346D01*
X8942Y22346D01*
X8942Y22298D01*
X8942Y22285D01*
X8947Y22272D01*
X8957Y22262D01*
X8970Y22257D01*
X8983Y22257D01*
X8986Y22257D01*
X8999Y22257D01*
X9000Y22257D01*
X9013Y22257D01*
X9016Y22257D01*
X9029Y22257D01*
X9042Y22262D01*
X9052Y22272D01*
X9057Y22285D01*
X9057Y22298D01*
X9057Y22346D01*
X9631Y22346D01*
X9631Y21653D01*
X9631Y21653D01*
G37*
G36*
X9631Y16153D02*
X9057Y16153D01*
X9057Y16201D01*
X9057Y16214D01*
X9052Y16227D01*
X9042Y16237D01*
X9029Y16242D01*
X9016Y16242D01*
X9013Y16242D01*
X9000Y16242D01*
X8999Y16242D01*
X8986Y16242D01*
X8983Y16242D01*
X8970Y16242D01*
X8957Y16237D01*
X8947Y16227D01*
X8942Y16214D01*
X8942Y16201D01*
X8942Y16153D01*
X8368Y16153D01*
X8368Y16846D01*
X8942Y16846D01*
X8942Y16798D01*
X8942Y16785D01*
X8947Y16772D01*
X8957Y16762D01*
X8970Y16757D01*
X8983Y16757D01*
X8986Y16757D01*
X8999Y16757D01*
X9000Y16757D01*
X9013Y16757D01*
X9016Y16757D01*
X9029Y16757D01*
X9042Y16762D01*
X9052Y16772D01*
X9057Y16785D01*
X9057Y16798D01*
X9057Y16846D01*
X9631Y16846D01*
X9631Y16153D01*
X9631Y16153D01*
G37*
G36*
X9631Y10653D02*
X9057Y10653D01*
X9057Y10701D01*
X9057Y10714D01*
X9052Y10727D01*
X9042Y10737D01*
X9029Y10742D01*
X9016Y10742D01*
X9013Y10742D01*
X9000Y10742D01*
X8999Y10742D01*
X8986Y10742D01*
X8983Y10742D01*
X8970Y10742D01*
X8957Y10737D01*
X8947Y10727D01*
X8942Y10714D01*
X8942Y10701D01*
X8942Y10653D01*
X8368Y10653D01*
X8368Y11346D01*
X8942Y11346D01*
X8942Y11298D01*
X8942Y11285D01*
X8947Y11272D01*
X8957Y11262D01*
X8970Y11257D01*
X8983Y11257D01*
X8986Y11257D01*
X8999Y11257D01*
X9000Y11257D01*
X9013Y11257D01*
X9016Y11257D01*
X9029Y11257D01*
X9042Y11262D01*
X9052Y11272D01*
X9057Y11285D01*
X9057Y11298D01*
X9057Y11346D01*
X9631Y11346D01*
X9631Y10653D01*
X9631Y10653D01*
G37*
G36*
X9645Y4131D02*
X9644Y4058D01*
X9628Y3988D01*
X9602Y3930D01*
X9560Y3871D01*
X9515Y3828D01*
X9454Y3789D01*
X9395Y3766D01*
X9323Y3753D01*
X9261Y3755D01*
X9190Y3770D01*
X9133Y3795D01*
X9072Y3837D01*
X9029Y3882D01*
X8990Y3943D01*
X8967Y4001D01*
X8954Y4073D01*
X8954Y4135D01*
X8970Y4207D01*
X8994Y4264D01*
X9036Y4325D01*
X9080Y4368D01*
X9142Y4408D01*
X9199Y4431D01*
X9271Y4445D01*
X9333Y4445D01*
X9405Y4430D01*
X9462Y4406D01*
X9523Y4365D01*
X9566Y4321D01*
X9607Y4259D01*
X9631Y4203D01*
X9645Y4131D01*
X9645Y4131D01*
G37*
G36*
X9645Y754D02*
X8954Y754D01*
X8954Y1445D01*
X9645Y1445D01*
X9645Y754D01*
X9645Y754D01*
G37*
G36*
X10265Y21129D02*
X9734Y21129D01*
X9734Y22870D01*
X10265Y22870D01*
X10265Y21129D01*
X10265Y21129D01*
G37*
G36*
X10265Y15629D02*
X9734Y15629D01*
X9734Y17370D01*
X10265Y17370D01*
X10265Y15629D01*
X10265Y15629D01*
G37*
G36*
X10265Y10129D02*
X9734Y10129D01*
X9734Y11870D01*
X10265Y11870D01*
X10265Y10129D01*
X10265Y10129D01*
G37*
G36*
X10645Y4131D02*
X10644Y4058D01*
X10628Y3988D01*
X10602Y3930D01*
X10560Y3871D01*
X10515Y3828D01*
X10454Y3789D01*
X10395Y3766D01*
X10323Y3753D01*
X10261Y3755D01*
X10190Y3770D01*
X10133Y3795D01*
X10072Y3837D01*
X10029Y3882D01*
X9990Y3943D01*
X9967Y4001D01*
X9954Y4073D01*
X9954Y4135D01*
X9970Y4207D01*
X9994Y4264D01*
X10036Y4325D01*
X10080Y4368D01*
X10142Y4408D01*
X10199Y4431D01*
X10271Y4445D01*
X10333Y4445D01*
X10405Y4430D01*
X10462Y4406D01*
X10523Y4365D01*
X10566Y4321D01*
X10607Y4259D01*
X10631Y4203D01*
X10645Y4131D01*
X10645Y4131D01*
G37*
G36*
X10645Y2131D02*
X10644Y2058D01*
X10628Y1988D01*
X10602Y1930D01*
X10560Y1871D01*
X10515Y1828D01*
X10454Y1789D01*
X10395Y1766D01*
X10323Y1753D01*
X10261Y1755D01*
X10190Y1770D01*
X10133Y1795D01*
X10072Y1837D01*
X10029Y1882D01*
X9990Y1943D01*
X9967Y2001D01*
X9954Y2073D01*
X9954Y2135D01*
X9970Y2207D01*
X9994Y2264D01*
X10036Y2325D01*
X10080Y2368D01*
X10142Y2408D01*
X10199Y2431D01*
X10271Y2445D01*
X10333Y2445D01*
X10405Y2430D01*
X10462Y2406D01*
X10523Y2365D01*
X10566Y2321D01*
X10607Y2259D01*
X10631Y2203D01*
X10645Y2131D01*
X10645Y2131D01*
G37*
G36*
X10645Y1131D02*
X10644Y1058D01*
X10628Y988D01*
X10602Y930D01*
X10560Y871D01*
X10515Y828D01*
X10454Y789D01*
X10395Y766D01*
X10323Y753D01*
X10261Y755D01*
X10190Y770D01*
X10133Y795D01*
X10072Y837D01*
X10029Y882D01*
X9990Y943D01*
X9967Y1001D01*
X9954Y1073D01*
X9954Y1135D01*
X9970Y1207D01*
X9994Y1264D01*
X10036Y1325D01*
X10080Y1368D01*
X10142Y1408D01*
X10199Y1431D01*
X10271Y1445D01*
X10333Y1445D01*
X10405Y1430D01*
X10462Y1406D01*
X10523Y1365D01*
X10566Y1321D01*
X10607Y1259D01*
X10631Y1203D01*
X10645Y1131D01*
X10645Y1131D01*
G37*
G36*
X10645Y2754D02*
X9954Y2754D01*
X9954Y3445D01*
X10645Y3445D01*
X10645Y2754D01*
X10645Y2754D01*
G37*
G36*
X10943Y142D02*
X10413Y142D01*
X10400Y142D01*
X10399Y142D01*
X10386Y142D01*
X9856Y142D01*
X9856Y657D01*
X10386Y657D01*
X10399Y657D01*
X10400Y657D01*
X10413Y657D01*
X10943Y657D01*
X10943Y142D01*
X10943Y142D01*
G37*
G36*
X11645Y4131D02*
X11644Y4058D01*
X11628Y3988D01*
X11602Y3930D01*
X11560Y3871D01*
X11515Y3828D01*
X11454Y3789D01*
X11395Y3766D01*
X11323Y3753D01*
X11261Y3755D01*
X11190Y3770D01*
X11133Y3795D01*
X11072Y3837D01*
X11029Y3882D01*
X10990Y3943D01*
X10967Y4001D01*
X10954Y4073D01*
X10954Y4135D01*
X10970Y4207D01*
X10994Y4264D01*
X11036Y4325D01*
X11080Y4368D01*
X11142Y4408D01*
X11199Y4431D01*
X11271Y4445D01*
X11333Y4445D01*
X11405Y4430D01*
X11462Y4406D01*
X11523Y4365D01*
X11566Y4321D01*
X11607Y4259D01*
X11631Y4203D01*
X11645Y4131D01*
X11645Y4131D01*
G37*
G36*
X11645Y3131D02*
X11644Y3058D01*
X11628Y2988D01*
X11602Y2930D01*
X11560Y2871D01*
X11515Y2828D01*
X11454Y2789D01*
X11395Y2766D01*
X11323Y2753D01*
X11261Y2755D01*
X11190Y2770D01*
X11133Y2795D01*
X11072Y2837D01*
X11029Y2882D01*
X10990Y2943D01*
X10967Y3001D01*
X10954Y3073D01*
X10954Y3135D01*
X10970Y3207D01*
X10994Y3264D01*
X11036Y3325D01*
X11080Y3368D01*
X11142Y3408D01*
X11199Y3431D01*
X11271Y3445D01*
X11333Y3445D01*
X11405Y3430D01*
X11462Y3406D01*
X11523Y3365D01*
X11566Y3321D01*
X11607Y3259D01*
X11631Y3203D01*
X11645Y3131D01*
X11645Y3131D01*
G37*
G36*
X11645Y2131D02*
X11644Y2058D01*
X11628Y1988D01*
X11602Y1930D01*
X11560Y1871D01*
X11515Y1828D01*
X11454Y1789D01*
X11395Y1766D01*
X11323Y1753D01*
X11261Y1755D01*
X11190Y1770D01*
X11133Y1795D01*
X11072Y1837D01*
X11029Y1882D01*
X10990Y1943D01*
X10967Y2001D01*
X10954Y2073D01*
X10954Y2135D01*
X10970Y2207D01*
X10994Y2264D01*
X11036Y2325D01*
X11080Y2368D01*
X11142Y2408D01*
X11199Y2431D01*
X11271Y2445D01*
X11333Y2445D01*
X11405Y2430D01*
X11462Y2406D01*
X11523Y2365D01*
X11566Y2321D01*
X11607Y2259D01*
X11631Y2203D01*
X11645Y2131D01*
X11645Y2131D01*
G37*
G36*
X11645Y1131D02*
X11644Y1058D01*
X11628Y988D01*
X11602Y930D01*
X11560Y871D01*
X11515Y828D01*
X11454Y789D01*
X11395Y766D01*
X11323Y753D01*
X11261Y755D01*
X11190Y770D01*
X11133Y795D01*
X11072Y837D01*
X11029Y882D01*
X10990Y943D01*
X10967Y1001D01*
X10954Y1073D01*
X10954Y1135D01*
X10970Y1207D01*
X10994Y1264D01*
X11036Y1325D01*
X11080Y1368D01*
X11142Y1408D01*
X11199Y1431D01*
X11271Y1445D01*
X11333Y1445D01*
X11405Y1430D01*
X11462Y1406D01*
X11523Y1365D01*
X11566Y1321D01*
X11607Y1259D01*
X11631Y1203D01*
X11645Y1131D01*
X11645Y1131D01*
G37*
G36*
X12343Y142D02*
X11813Y142D01*
X11800Y142D01*
X11799Y142D01*
X11786Y142D01*
X11256Y142D01*
X11256Y657D01*
X11786Y657D01*
X11799Y657D01*
X11800Y657D01*
X11813Y657D01*
X12343Y657D01*
X12343Y142D01*
X12343Y142D01*
G37*
G36*
X12645Y4131D02*
X12644Y4058D01*
X12628Y3988D01*
X12602Y3930D01*
X12560Y3871D01*
X12515Y3828D01*
X12454Y3789D01*
X12395Y3766D01*
X12323Y3753D01*
X12261Y3755D01*
X12190Y3770D01*
X12133Y3795D01*
X12072Y3837D01*
X12029Y3882D01*
X11990Y3943D01*
X11967Y4001D01*
X11954Y4073D01*
X11954Y4135D01*
X11970Y4207D01*
X11994Y4264D01*
X12036Y4325D01*
X12080Y4368D01*
X12142Y4408D01*
X12199Y4431D01*
X12271Y4445D01*
X12333Y4445D01*
X12405Y4430D01*
X12462Y4406D01*
X12523Y4365D01*
X12566Y4321D01*
X12607Y4259D01*
X12631Y4203D01*
X12645Y4131D01*
X12645Y4131D01*
G37*
G36*
X12645Y3131D02*
X12644Y3058D01*
X12628Y2988D01*
X12602Y2930D01*
X12560Y2871D01*
X12515Y2828D01*
X12454Y2789D01*
X12395Y2766D01*
X12323Y2753D01*
X12261Y2755D01*
X12190Y2770D01*
X12133Y2795D01*
X12072Y2837D01*
X12029Y2882D01*
X11990Y2943D01*
X11967Y3001D01*
X11954Y3073D01*
X11954Y3135D01*
X11970Y3207D01*
X11994Y3264D01*
X12036Y3325D01*
X12080Y3368D01*
X12142Y3408D01*
X12199Y3431D01*
X12271Y3445D01*
X12333Y3445D01*
X12405Y3430D01*
X12462Y3406D01*
X12523Y3365D01*
X12566Y3321D01*
X12607Y3259D01*
X12631Y3203D01*
X12645Y3131D01*
X12645Y3131D01*
G37*
G36*
X12645Y2131D02*
X12644Y2058D01*
X12628Y1988D01*
X12602Y1930D01*
X12560Y1871D01*
X12515Y1828D01*
X12454Y1789D01*
X12395Y1766D01*
X12323Y1753D01*
X12261Y1755D01*
X12190Y1770D01*
X12133Y1795D01*
X12072Y1837D01*
X12029Y1882D01*
X11990Y1943D01*
X11967Y2001D01*
X11954Y2073D01*
X11954Y2135D01*
X11970Y2207D01*
X11994Y2264D01*
X12036Y2325D01*
X12080Y2368D01*
X12142Y2408D01*
X12199Y2431D01*
X12271Y2445D01*
X12333Y2445D01*
X12405Y2430D01*
X12462Y2406D01*
X12523Y2365D01*
X12566Y2321D01*
X12607Y2259D01*
X12631Y2203D01*
X12645Y2131D01*
X12645Y2131D01*
G37*
G36*
X12645Y1131D02*
X12644Y1058D01*
X12628Y988D01*
X12602Y930D01*
X12560Y871D01*
X12515Y828D01*
X12454Y789D01*
X12395Y766D01*
X12323Y753D01*
X12261Y755D01*
X12190Y770D01*
X12133Y795D01*
X12072Y837D01*
X12029Y882D01*
X11990Y943D01*
X11967Y1001D01*
X11954Y1073D01*
X11954Y1135D01*
X11970Y1207D01*
X11994Y1264D01*
X12036Y1325D01*
X12080Y1368D01*
X12142Y1408D01*
X12199Y1431D01*
X12271Y1445D01*
X12333Y1445D01*
X12405Y1430D01*
X12462Y1406D01*
X12523Y1365D01*
X12566Y1321D01*
X12607Y1259D01*
X12631Y1203D01*
X12645Y1131D01*
X12645Y1131D01*
G37*
G36*
X13645Y4131D02*
X13644Y4058D01*
X13628Y3988D01*
X13602Y3930D01*
X13560Y3871D01*
X13515Y3828D01*
X13454Y3789D01*
X13395Y3766D01*
X13323Y3753D01*
X13261Y3755D01*
X13190Y3770D01*
X13133Y3795D01*
X13072Y3837D01*
X13029Y3882D01*
X12990Y3943D01*
X12967Y4001D01*
X12954Y4073D01*
X12954Y4135D01*
X12970Y4207D01*
X12994Y4264D01*
X13036Y4325D01*
X13080Y4368D01*
X13142Y4408D01*
X13199Y4431D01*
X13271Y4445D01*
X13333Y4445D01*
X13405Y4430D01*
X13462Y4406D01*
X13523Y4365D01*
X13566Y4321D01*
X13607Y4259D01*
X13631Y4203D01*
X13645Y4131D01*
X13645Y4131D01*
G37*
G36*
X13645Y3131D02*
X13644Y3058D01*
X13628Y2988D01*
X13602Y2930D01*
X13560Y2871D01*
X13515Y2828D01*
X13454Y2789D01*
X13395Y2766D01*
X13323Y2753D01*
X13261Y2755D01*
X13190Y2770D01*
X13133Y2795D01*
X13072Y2837D01*
X13029Y2882D01*
X12990Y2943D01*
X12967Y3001D01*
X12954Y3073D01*
X12954Y3135D01*
X12970Y3207D01*
X12994Y3264D01*
X13036Y3325D01*
X13080Y3368D01*
X13142Y3408D01*
X13199Y3431D01*
X13271Y3445D01*
X13333Y3445D01*
X13405Y3430D01*
X13462Y3406D01*
X13523Y3365D01*
X13566Y3321D01*
X13607Y3259D01*
X13631Y3203D01*
X13645Y3131D01*
X13645Y3131D01*
G37*
G36*
X13645Y2131D02*
X13644Y2058D01*
X13628Y1988D01*
X13602Y1930D01*
X13560Y1871D01*
X13515Y1828D01*
X13454Y1789D01*
X13395Y1766D01*
X13323Y1753D01*
X13261Y1755D01*
X13190Y1770D01*
X13133Y1795D01*
X13072Y1837D01*
X13029Y1882D01*
X12990Y1943D01*
X12967Y2001D01*
X12954Y2073D01*
X12954Y2135D01*
X12970Y2207D01*
X12994Y2264D01*
X13036Y2325D01*
X13080Y2368D01*
X13142Y2408D01*
X13199Y2431D01*
X13271Y2445D01*
X13333Y2445D01*
X13405Y2430D01*
X13462Y2406D01*
X13523Y2365D01*
X13566Y2321D01*
X13607Y2259D01*
X13631Y2203D01*
X13645Y2131D01*
X13645Y2131D01*
G37*
G36*
X13645Y1131D02*
X13644Y1058D01*
X13628Y988D01*
X13602Y930D01*
X13560Y871D01*
X13515Y828D01*
X13454Y789D01*
X13395Y766D01*
X13323Y753D01*
X13261Y755D01*
X13190Y770D01*
X13133Y795D01*
X13072Y837D01*
X13029Y882D01*
X12990Y943D01*
X12967Y1001D01*
X12954Y1073D01*
X12954Y1135D01*
X12970Y1207D01*
X12994Y1264D01*
X13036Y1325D01*
X13080Y1368D01*
X13142Y1408D01*
X13199Y1431D01*
X13271Y1445D01*
X13333Y1445D01*
X13405Y1430D01*
X13462Y1406D01*
X13523Y1365D01*
X13566Y1321D01*
X13607Y1259D01*
X13631Y1203D01*
X13645Y1131D01*
X13645Y1131D01*
G37*
G36*
X13743Y142D02*
X13213Y142D01*
X13200Y142D01*
X13199Y142D01*
X13186Y142D01*
X12656Y142D01*
X12656Y657D01*
X13186Y657D01*
X13199Y657D01*
X13200Y657D01*
X13213Y657D01*
X13743Y657D01*
X13743Y142D01*
X13743Y142D01*
G37*
G36*
X13765Y21129D02*
X13234Y21129D01*
X13234Y22870D01*
X13765Y22870D01*
X13765Y21129D01*
X13765Y21129D01*
G37*
G36*
X13765Y15629D02*
X13234Y15629D01*
X13234Y17370D01*
X13765Y17370D01*
X13765Y15629D01*
X13765Y15629D01*
G37*
G36*
X13765Y10129D02*
X13234Y10129D01*
X13234Y11870D01*
X13765Y11870D01*
X13765Y10129D01*
X13765Y10129D01*
G37*
G36*
X14645Y4131D02*
X14644Y4058D01*
X14628Y3988D01*
X14602Y3930D01*
X14560Y3871D01*
X14515Y3828D01*
X14454Y3789D01*
X14395Y3766D01*
X14323Y3753D01*
X14261Y3755D01*
X14190Y3770D01*
X14133Y3795D01*
X14072Y3837D01*
X14029Y3882D01*
X13990Y3943D01*
X13967Y4001D01*
X13954Y4073D01*
X13954Y4135D01*
X13970Y4207D01*
X13994Y4264D01*
X14036Y4325D01*
X14080Y4368D01*
X14142Y4408D01*
X14199Y4431D01*
X14271Y4445D01*
X14333Y4445D01*
X14405Y4430D01*
X14462Y4406D01*
X14523Y4365D01*
X14566Y4321D01*
X14607Y4259D01*
X14631Y4203D01*
X14645Y4131D01*
X14645Y4131D01*
G37*
G36*
X14645Y1131D02*
X14644Y1058D01*
X14628Y988D01*
X14602Y930D01*
X14560Y871D01*
X14515Y828D01*
X14454Y789D01*
X14395Y766D01*
X14323Y753D01*
X14261Y755D01*
X14190Y770D01*
X14133Y795D01*
X14072Y837D01*
X14029Y882D01*
X13990Y943D01*
X13967Y1001D01*
X13954Y1073D01*
X13954Y1135D01*
X13970Y1207D01*
X13994Y1264D01*
X14036Y1325D01*
X14080Y1368D01*
X14142Y1408D01*
X14199Y1431D01*
X14271Y1445D01*
X14333Y1445D01*
X14405Y1430D01*
X14462Y1406D01*
X14523Y1365D01*
X14566Y1321D01*
X14607Y1259D01*
X14631Y1203D01*
X14645Y1131D01*
X14645Y1131D01*
G37*
G36*
X14765Y19529D02*
X14234Y19529D01*
X14234Y21270D01*
X14765Y21270D01*
X14765Y19529D01*
X14765Y19529D01*
G37*
G36*
X14765Y14029D02*
X14234Y14029D01*
X14234Y15770D01*
X14765Y15770D01*
X14765Y14029D01*
X14765Y14029D01*
G37*
G36*
X14765Y8529D02*
X14234Y8529D01*
X14234Y10270D01*
X14765Y10270D01*
X14765Y8529D01*
X14765Y8529D01*
G37*
G36*
X14865Y23348D02*
X14134Y23348D01*
X14134Y24001D01*
X14865Y24001D01*
X14865Y23348D01*
X14865Y23348D01*
G37*
G36*
X14865Y22598D02*
X14134Y22598D01*
X14134Y23251D01*
X14865Y23251D01*
X14865Y22598D01*
X14865Y22598D01*
G37*
G36*
X14865Y17848D02*
X14134Y17848D01*
X14134Y18501D01*
X14865Y18501D01*
X14865Y17848D01*
X14865Y17848D01*
G37*
G36*
X14865Y17098D02*
X14134Y17098D01*
X14134Y17751D01*
X14865Y17751D01*
X14865Y17098D01*
X14865Y17098D01*
G37*
G36*
X14865Y12348D02*
X14134Y12348D01*
X14134Y13001D01*
X14865Y13001D01*
X14865Y12348D01*
X14865Y12348D01*
G37*
G36*
X14865Y11598D02*
X14134Y11598D01*
X14134Y12251D01*
X14865Y12251D01*
X14865Y11598D01*
X14865Y11598D01*
G37*
G36*
X15131Y21653D02*
X14557Y21653D01*
X14557Y21701D01*
X14557Y21714D01*
X14552Y21727D01*
X14542Y21737D01*
X14529Y21742D01*
X14516Y21742D01*
X14513Y21742D01*
X14500Y21742D01*
X14499Y21742D01*
X14486Y21742D01*
X14483Y21742D01*
X14470Y21742D01*
X14457Y21737D01*
X14447Y21727D01*
X14442Y21714D01*
X14442Y21701D01*
X14442Y21653D01*
X13868Y21653D01*
X13868Y22346D01*
X14442Y22346D01*
X14442Y22298D01*
X14442Y22285D01*
X14447Y22272D01*
X14457Y22262D01*
X14470Y22257D01*
X14483Y22257D01*
X14486Y22257D01*
X14499Y22257D01*
X14500Y22257D01*
X14513Y22257D01*
X14516Y22257D01*
X14529Y22257D01*
X14542Y22262D01*
X14552Y22272D01*
X14557Y22285D01*
X14557Y22298D01*
X14557Y22346D01*
X15131Y22346D01*
X15131Y21653D01*
X15131Y21653D01*
G37*
G36*
X15131Y16153D02*
X14557Y16153D01*
X14557Y16201D01*
X14557Y16214D01*
X14552Y16227D01*
X14542Y16237D01*
X14529Y16242D01*
X14516Y16242D01*
X14513Y16242D01*
X14500Y16242D01*
X14499Y16242D01*
X14486Y16242D01*
X14483Y16242D01*
X14470Y16242D01*
X14457Y16237D01*
X14447Y16227D01*
X14442Y16214D01*
X14442Y16201D01*
X14442Y16153D01*
X13868Y16153D01*
X13868Y16846D01*
X14442Y16846D01*
X14442Y16798D01*
X14442Y16785D01*
X14447Y16772D01*
X14457Y16762D01*
X14470Y16757D01*
X14483Y16757D01*
X14486Y16757D01*
X14499Y16757D01*
X14500Y16757D01*
X14513Y16757D01*
X14516Y16757D01*
X14529Y16757D01*
X14542Y16762D01*
X14552Y16772D01*
X14557Y16785D01*
X14557Y16798D01*
X14557Y16846D01*
X15131Y16846D01*
X15131Y16153D01*
X15131Y16153D01*
G37*
G36*
X15131Y10653D02*
X14557Y10653D01*
X14557Y10701D01*
X14557Y10714D01*
X14552Y10727D01*
X14542Y10737D01*
X14529Y10742D01*
X14516Y10742D01*
X14513Y10742D01*
X14500Y10742D01*
X14499Y10742D01*
X14486Y10742D01*
X14483Y10742D01*
X14470Y10742D01*
X14457Y10737D01*
X14447Y10727D01*
X14442Y10714D01*
X14442Y10701D01*
X14442Y10653D01*
X13868Y10653D01*
X13868Y11346D01*
X14442Y11346D01*
X14442Y11298D01*
X14442Y11285D01*
X14447Y11272D01*
X14457Y11262D01*
X14470Y11257D01*
X14483Y11257D01*
X14486Y11257D01*
X14499Y11257D01*
X14500Y11257D01*
X14513Y11257D01*
X14516Y11257D01*
X14529Y11257D01*
X14542Y11262D01*
X14552Y11272D01*
X14557Y11285D01*
X14557Y11298D01*
X14557Y11346D01*
X15131Y11346D01*
X15131Y10653D01*
X15131Y10653D01*
G37*
G36*
X15143Y142D02*
X14613Y142D01*
X14600Y142D01*
X14599Y142D01*
X14586Y142D01*
X14056Y142D01*
X14056Y657D01*
X14586Y657D01*
X14599Y657D01*
X14600Y657D01*
X14613Y657D01*
X15143Y657D01*
X15143Y142D01*
X15143Y142D01*
G37*
G36*
X15765Y21129D02*
X15234Y21129D01*
X15234Y22870D01*
X15765Y22870D01*
X15765Y21129D01*
X15765Y21129D01*
G37*
G36*
X15765Y15629D02*
X15234Y15629D01*
X15234Y17370D01*
X15765Y17370D01*
X15765Y15629D01*
X15765Y15629D01*
G37*
G36*
X15765Y10129D02*
X15234Y10129D01*
X15234Y11870D01*
X15765Y11870D01*
X15765Y10129D01*
X15765Y10129D01*
G37*
G36*
X19265Y21129D02*
X18734Y21129D01*
X18734Y22870D01*
X19265Y22870D01*
X19265Y21129D01*
X19265Y21129D01*
G37*
G36*
X19265Y15629D02*
X18734Y15629D01*
X18734Y17370D01*
X19265Y17370D01*
X19265Y15629D01*
X19265Y15629D01*
G37*
G36*
X19265Y10129D02*
X18734Y10129D01*
X18734Y11870D01*
X19265Y11870D01*
X19265Y10129D01*
X19265Y10129D01*
G37*
G36*
X19265Y1729D02*
X18734Y1729D01*
X18734Y3470D01*
X19265Y3470D01*
X19265Y1729D01*
X19265Y1729D01*
G37*
G36*
X20265Y19529D02*
X19734Y19529D01*
X19734Y21270D01*
X20265Y21270D01*
X20265Y19529D01*
X20265Y19529D01*
G37*
G36*
X20265Y14029D02*
X19734Y14029D01*
X19734Y15770D01*
X20265Y15770D01*
X20265Y14029D01*
X20265Y14029D01*
G37*
G36*
X20265Y8529D02*
X19734Y8529D01*
X19734Y10270D01*
X20265Y10270D01*
X20265Y8529D01*
X20265Y8529D01*
G37*
G36*
X20265Y129D02*
X19734Y129D01*
X19734Y1870D01*
X20265Y1870D01*
X20265Y129D01*
X20265Y129D01*
G37*
G36*
X20365Y23348D02*
X19634Y23348D01*
X19634Y24001D01*
X20365Y24001D01*
X20365Y23348D01*
X20365Y23348D01*
G37*
G36*
X20365Y22598D02*
X19634Y22598D01*
X19634Y23251D01*
X20365Y23251D01*
X20365Y22598D01*
X20365Y22598D01*
G37*
G36*
X20365Y17848D02*
X19634Y17848D01*
X19634Y18501D01*
X20365Y18501D01*
X20365Y17848D01*
X20365Y17848D01*
G37*
G36*
X20365Y17098D02*
X19634Y17098D01*
X19634Y17751D01*
X20365Y17751D01*
X20365Y17098D01*
X20365Y17098D01*
G37*
G36*
X20365Y12348D02*
X19634Y12348D01*
X19634Y13001D01*
X20365Y13001D01*
X20365Y12348D01*
X20365Y12348D01*
G37*
G36*
X20365Y11598D02*
X19634Y11598D01*
X19634Y12251D01*
X20365Y12251D01*
X20365Y11598D01*
X20365Y11598D01*
G37*
G36*
X20365Y3948D02*
X19634Y3948D01*
X19634Y4601D01*
X20365Y4601D01*
X20365Y3948D01*
X20365Y3948D01*
G37*
G36*
X20365Y3198D02*
X19634Y3198D01*
X19634Y3851D01*
X20365Y3851D01*
X20365Y3198D01*
X20365Y3198D01*
G37*
G36*
X20631Y21653D02*
X20057Y21653D01*
X20057Y21701D01*
X20057Y21714D01*
X20052Y21727D01*
X20042Y21737D01*
X20029Y21742D01*
X20016Y21742D01*
X20013Y21742D01*
X20000Y21742D01*
X19999Y21742D01*
X19986Y21742D01*
X19983Y21742D01*
X19970Y21742D01*
X19957Y21737D01*
X19947Y21727D01*
X19942Y21714D01*
X19942Y21701D01*
X19942Y21653D01*
X19368Y21653D01*
X19368Y22346D01*
X19942Y22346D01*
X19942Y22298D01*
X19942Y22285D01*
X19947Y22272D01*
X19957Y22262D01*
X19970Y22257D01*
X19983Y22257D01*
X19986Y22257D01*
X19999Y22257D01*
X20000Y22257D01*
X20013Y22257D01*
X20016Y22257D01*
X20029Y22257D01*
X20042Y22262D01*
X20052Y22272D01*
X20057Y22285D01*
X20057Y22298D01*
X20057Y22346D01*
X20631Y22346D01*
X20631Y21653D01*
X20631Y21653D01*
G37*
G36*
X20631Y16153D02*
X20057Y16153D01*
X20057Y16201D01*
X20057Y16214D01*
X20052Y16227D01*
X20042Y16237D01*
X20029Y16242D01*
X20016Y16242D01*
X20013Y16242D01*
X20000Y16242D01*
X19999Y16242D01*
X19986Y16242D01*
X19983Y16242D01*
X19970Y16242D01*
X19957Y16237D01*
X19947Y16227D01*
X19942Y16214D01*
X19942Y16201D01*
X19942Y16153D01*
X19368Y16153D01*
X19368Y16846D01*
X19942Y16846D01*
X19942Y16798D01*
X19942Y16785D01*
X19947Y16772D01*
X19957Y16762D01*
X19970Y16757D01*
X19983Y16757D01*
X19986Y16757D01*
X19999Y16757D01*
X20000Y16757D01*
X20013Y16757D01*
X20016Y16757D01*
X20029Y16757D01*
X20042Y16762D01*
X20052Y16772D01*
X20057Y16785D01*
X20057Y16798D01*
X20057Y16846D01*
X20631Y16846D01*
X20631Y16153D01*
X20631Y16153D01*
G37*
G36*
X20631Y10653D02*
X20057Y10653D01*
X20057Y10701D01*
X20057Y10714D01*
X20052Y10727D01*
X20042Y10737D01*
X20029Y10742D01*
X20016Y10742D01*
X20013Y10742D01*
X20000Y10742D01*
X19999Y10742D01*
X19986Y10742D01*
X19983Y10742D01*
X19970Y10742D01*
X19957Y10737D01*
X19947Y10727D01*
X19942Y10714D01*
X19942Y10701D01*
X19942Y10653D01*
X19368Y10653D01*
X19368Y11346D01*
X19942Y11346D01*
X19942Y11298D01*
X19942Y11285D01*
X19947Y11272D01*
X19957Y11262D01*
X19970Y11257D01*
X19983Y11257D01*
X19986Y11257D01*
X19999Y11257D01*
X20000Y11257D01*
X20013Y11257D01*
X20016Y11257D01*
X20029Y11257D01*
X20042Y11262D01*
X20052Y11272D01*
X20057Y11285D01*
X20057Y11298D01*
X20057Y11346D01*
X20631Y11346D01*
X20631Y10653D01*
X20631Y10653D01*
G37*
G36*
X20631Y2253D02*
X20057Y2253D01*
X20057Y2301D01*
X20057Y2314D01*
X20052Y2327D01*
X20042Y2337D01*
X20029Y2342D01*
X20016Y2342D01*
X20013Y2342D01*
X20000Y2342D01*
X19999Y2342D01*
X19986Y2342D01*
X19983Y2342D01*
X19970Y2342D01*
X19957Y2337D01*
X19947Y2327D01*
X19942Y2314D01*
X19942Y2301D01*
X19942Y2253D01*
X19368Y2253D01*
X19368Y2946D01*
X19942Y2946D01*
X19942Y2898D01*
X19942Y2885D01*
X19947Y2872D01*
X19957Y2862D01*
X19970Y2857D01*
X19983Y2857D01*
X19986Y2857D01*
X19999Y2857D01*
X20000Y2857D01*
X20013Y2857D01*
X20016Y2857D01*
X20029Y2857D01*
X20042Y2862D01*
X20052Y2872D01*
X20057Y2885D01*
X20057Y2898D01*
X20057Y2946D01*
X20631Y2946D01*
X20631Y2253D01*
X20631Y2253D01*
G37*
G36*
X21265Y21129D02*
X20734Y21129D01*
X20734Y22870D01*
X21265Y22870D01*
X21265Y21129D01*
X21265Y21129D01*
G37*
G36*
X21265Y15629D02*
X20734Y15629D01*
X20734Y17370D01*
X21265Y17370D01*
X21265Y15629D01*
X21265Y15629D01*
G37*
G36*
X21265Y10129D02*
X20734Y10129D01*
X20734Y11870D01*
X21265Y11870D01*
X21265Y10129D01*
X21265Y10129D01*
G37*
G36*
X21265Y1729D02*
X20734Y1729D01*
X20734Y3470D01*
X21265Y3470D01*
X21265Y1729D01*
X21265Y1729D01*
G37*
G36*
X24765Y21129D02*
X24234Y21129D01*
X24234Y22870D01*
X24765Y22870D01*
X24765Y21129D01*
X24765Y21129D01*
G37*
G36*
X24765Y15629D02*
X24234Y15629D01*
X24234Y17370D01*
X24765Y17370D01*
X24765Y15629D01*
X24765Y15629D01*
G37*
G36*
X24765Y10129D02*
X24234Y10129D01*
X24234Y11870D01*
X24765Y11870D01*
X24765Y10129D01*
X24765Y10129D01*
G37*
G36*
X24765Y1729D02*
X24234Y1729D01*
X24234Y3470D01*
X24765Y3470D01*
X24765Y1729D01*
X24765Y1729D01*
G37*
G36*
X25765Y19529D02*
X25234Y19529D01*
X25234Y21270D01*
X25765Y21270D01*
X25765Y19529D01*
X25765Y19529D01*
G37*
G36*
X25765Y14029D02*
X25234Y14029D01*
X25234Y15770D01*
X25765Y15770D01*
X25765Y14029D01*
X25765Y14029D01*
G37*
G36*
X25765Y8529D02*
X25234Y8529D01*
X25234Y10270D01*
X25765Y10270D01*
X25765Y8529D01*
X25765Y8529D01*
G37*
G36*
X25765Y129D02*
X25234Y129D01*
X25234Y1870D01*
X25765Y1870D01*
X25765Y129D01*
X25765Y129D01*
G37*
G36*
X25865Y23348D02*
X25134Y23348D01*
X25134Y24001D01*
X25865Y24001D01*
X25865Y23348D01*
X25865Y23348D01*
G37*
G36*
X25865Y22598D02*
X25134Y22598D01*
X25134Y23251D01*
X25865Y23251D01*
X25865Y22598D01*
X25865Y22598D01*
G37*
G36*
X25865Y17848D02*
X25134Y17848D01*
X25134Y18501D01*
X25865Y18501D01*
X25865Y17848D01*
X25865Y17848D01*
G37*
G36*
X25865Y17098D02*
X25134Y17098D01*
X25134Y17751D01*
X25865Y17751D01*
X25865Y17098D01*
X25865Y17098D01*
G37*
G36*
X25865Y12348D02*
X25134Y12348D01*
X25134Y13001D01*
X25865Y13001D01*
X25865Y12348D01*
X25865Y12348D01*
G37*
G36*
X25865Y11598D02*
X25134Y11598D01*
X25134Y12251D01*
X25865Y12251D01*
X25865Y11598D01*
X25865Y11598D01*
G37*
G36*
X25865Y3948D02*
X25134Y3948D01*
X25134Y4601D01*
X25865Y4601D01*
X25865Y3948D01*
X25865Y3948D01*
G37*
G36*
X25865Y3198D02*
X25134Y3198D01*
X25134Y3851D01*
X25865Y3851D01*
X25865Y3198D01*
X25865Y3198D01*
G37*
G36*
X26131Y21653D02*
X25557Y21653D01*
X25557Y21701D01*
X25557Y21714D01*
X25552Y21727D01*
X25542Y21737D01*
X25529Y21742D01*
X25516Y21742D01*
X25513Y21742D01*
X25500Y21742D01*
X25499Y21742D01*
X25486Y21742D01*
X25483Y21742D01*
X25470Y21742D01*
X25457Y21737D01*
X25447Y21727D01*
X25442Y21714D01*
X25442Y21701D01*
X25442Y21653D01*
X24868Y21653D01*
X24868Y22346D01*
X25442Y22346D01*
X25442Y22298D01*
X25442Y22285D01*
X25447Y22272D01*
X25457Y22262D01*
X25470Y22257D01*
X25483Y22257D01*
X25486Y22257D01*
X25499Y22257D01*
X25500Y22257D01*
X25513Y22257D01*
X25516Y22257D01*
X25529Y22257D01*
X25542Y22262D01*
X25552Y22272D01*
X25557Y22285D01*
X25557Y22298D01*
X25557Y22346D01*
X26131Y22346D01*
X26131Y21653D01*
X26131Y21653D01*
G37*
G36*
X26131Y16153D02*
X25557Y16153D01*
X25557Y16201D01*
X25557Y16214D01*
X25552Y16227D01*
X25542Y16237D01*
X25529Y16242D01*
X25516Y16242D01*
X25513Y16242D01*
X25500Y16242D01*
X25499Y16242D01*
X25486Y16242D01*
X25483Y16242D01*
X25470Y16242D01*
X25457Y16237D01*
X25447Y16227D01*
X25442Y16214D01*
X25442Y16201D01*
X25442Y16153D01*
X24868Y16153D01*
X24868Y16846D01*
X25442Y16846D01*
X25442Y16798D01*
X25442Y16785D01*
X25447Y16772D01*
X25457Y16762D01*
X25470Y16757D01*
X25483Y16757D01*
X25486Y16757D01*
X25499Y16757D01*
X25500Y16757D01*
X25513Y16757D01*
X25516Y16757D01*
X25529Y16757D01*
X25542Y16762D01*
X25552Y16772D01*
X25557Y16785D01*
X25557Y16798D01*
X25557Y16846D01*
X26131Y16846D01*
X26131Y16153D01*
X26131Y16153D01*
G37*
G36*
X26131Y10653D02*
X25557Y10653D01*
X25557Y10701D01*
X25557Y10714D01*
X25552Y10727D01*
X25542Y10737D01*
X25529Y10742D01*
X25516Y10742D01*
X25513Y10742D01*
X25500Y10742D01*
X25499Y10742D01*
X25486Y10742D01*
X25483Y10742D01*
X25470Y10742D01*
X25457Y10737D01*
X25447Y10727D01*
X25442Y10714D01*
X25442Y10701D01*
X25442Y10653D01*
X24868Y10653D01*
X24868Y11346D01*
X25442Y11346D01*
X25442Y11298D01*
X25442Y11285D01*
X25447Y11272D01*
X25457Y11262D01*
X25470Y11257D01*
X25483Y11257D01*
X25486Y11257D01*
X25499Y11257D01*
X25500Y11257D01*
X25513Y11257D01*
X25516Y11257D01*
X25529Y11257D01*
X25542Y11262D01*
X25552Y11272D01*
X25557Y11285D01*
X25557Y11298D01*
X25557Y11346D01*
X26131Y11346D01*
X26131Y10653D01*
X26131Y10653D01*
G37*
G36*
X26131Y2253D02*
X25557Y2253D01*
X25557Y2301D01*
X25557Y2314D01*
X25552Y2327D01*
X25542Y2337D01*
X25529Y2342D01*
X25516Y2342D01*
X25513Y2342D01*
X25500Y2342D01*
X25499Y2342D01*
X25486Y2342D01*
X25483Y2342D01*
X25470Y2342D01*
X25457Y2337D01*
X25447Y2327D01*
X25442Y2314D01*
X25442Y2301D01*
X25442Y2253D01*
X24868Y2253D01*
X24868Y2946D01*
X25442Y2946D01*
X25442Y2898D01*
X25442Y2885D01*
X25447Y2872D01*
X25457Y2862D01*
X25470Y2857D01*
X25483Y2857D01*
X25486Y2857D01*
X25499Y2857D01*
X25500Y2857D01*
X25513Y2857D01*
X25516Y2857D01*
X25529Y2857D01*
X25542Y2862D01*
X25552Y2872D01*
X25557Y2885D01*
X25557Y2898D01*
X25557Y2946D01*
X26131Y2946D01*
X26131Y2253D01*
X26131Y2253D01*
G37*
G36*
X26765Y21129D02*
X26234Y21129D01*
X26234Y22870D01*
X26765Y22870D01*
X26765Y21129D01*
X26765Y21129D01*
G37*
G36*
X26765Y15629D02*
X26234Y15629D01*
X26234Y17370D01*
X26765Y17370D01*
X26765Y15629D01*
X26765Y15629D01*
G37*
G36*
X26765Y10129D02*
X26234Y10129D01*
X26234Y11870D01*
X26765Y11870D01*
X26765Y10129D01*
X26765Y10129D01*
G37*
G36*
X26765Y1729D02*
X26234Y1729D01*
X26234Y3470D01*
X26765Y3470D01*
X26765Y1729D01*
X26765Y1729D01*
G37*
G36*
X30265Y21129D02*
X29734Y21129D01*
X29734Y22870D01*
X30265Y22870D01*
X30265Y21129D01*
X30265Y21129D01*
G37*
G36*
X30265Y15629D02*
X29734Y15629D01*
X29734Y17370D01*
X30265Y17370D01*
X30265Y15629D01*
X30265Y15629D01*
G37*
G36*
X30265Y10129D02*
X29734Y10129D01*
X29734Y11870D01*
X30265Y11870D01*
X30265Y10129D01*
X30265Y10129D01*
G37*
G36*
X30265Y1729D02*
X29734Y1729D01*
X29734Y3470D01*
X30265Y3470D01*
X30265Y1729D01*
X30265Y1729D01*
G37*
G36*
X31265Y19529D02*
X30734Y19529D01*
X30734Y21270D01*
X31265Y21270D01*
X31265Y19529D01*
X31265Y19529D01*
G37*
G36*
X31265Y14029D02*
X30734Y14029D01*
X30734Y15770D01*
X31265Y15770D01*
X31265Y14029D01*
X31265Y14029D01*
G37*
G36*
X31265Y8529D02*
X30734Y8529D01*
X30734Y10270D01*
X31265Y10270D01*
X31265Y8529D01*
X31265Y8529D01*
G37*
G36*
X31265Y129D02*
X30734Y129D01*
X30734Y1870D01*
X31265Y1870D01*
X31265Y129D01*
X31265Y129D01*
G37*
G36*
X31365Y23348D02*
X30634Y23348D01*
X30634Y24001D01*
X31365Y24001D01*
X31365Y23348D01*
X31365Y23348D01*
G37*
G36*
X31365Y22598D02*
X30634Y22598D01*
X30634Y23251D01*
X31365Y23251D01*
X31365Y22598D01*
X31365Y22598D01*
G37*
G36*
X31365Y17848D02*
X30634Y17848D01*
X30634Y18501D01*
X31365Y18501D01*
X31365Y17848D01*
X31365Y17848D01*
G37*
G36*
X31365Y17098D02*
X30634Y17098D01*
X30634Y17751D01*
X31365Y17751D01*
X31365Y17098D01*
X31365Y17098D01*
G37*
G36*
X31365Y12348D02*
X30634Y12348D01*
X30634Y13001D01*
X31365Y13001D01*
X31365Y12348D01*
X31365Y12348D01*
G37*
G36*
X31365Y11598D02*
X30634Y11598D01*
X30634Y12251D01*
X31365Y12251D01*
X31365Y11598D01*
X31365Y11598D01*
G37*
G36*
X31365Y3948D02*
X30634Y3948D01*
X30634Y4601D01*
X31365Y4601D01*
X31365Y3948D01*
X31365Y3948D01*
G37*
G36*
X31365Y3198D02*
X30634Y3198D01*
X30634Y3851D01*
X31365Y3851D01*
X31365Y3198D01*
X31365Y3198D01*
G37*
G36*
X31631Y21653D02*
X31057Y21653D01*
X31057Y21701D01*
X31057Y21714D01*
X31052Y21727D01*
X31042Y21737D01*
X31029Y21742D01*
X31016Y21742D01*
X31013Y21742D01*
X31000Y21742D01*
X30999Y21742D01*
X30986Y21742D01*
X30983Y21742D01*
X30970Y21742D01*
X30957Y21737D01*
X30947Y21727D01*
X30942Y21714D01*
X30942Y21701D01*
X30942Y21653D01*
X30368Y21653D01*
X30368Y22346D01*
X30942Y22346D01*
X30942Y22298D01*
X30942Y22285D01*
X30947Y22272D01*
X30957Y22262D01*
X30970Y22257D01*
X30983Y22257D01*
X30986Y22257D01*
X30999Y22257D01*
X31000Y22257D01*
X31013Y22257D01*
X31016Y22257D01*
X31029Y22257D01*
X31042Y22262D01*
X31052Y22272D01*
X31057Y22285D01*
X31057Y22298D01*
X31057Y22346D01*
X31631Y22346D01*
X31631Y21653D01*
X31631Y21653D01*
G37*
G36*
X31631Y16153D02*
X31057Y16153D01*
X31057Y16201D01*
X31057Y16214D01*
X31052Y16227D01*
X31042Y16237D01*
X31029Y16242D01*
X31016Y16242D01*
X31013Y16242D01*
X31000Y16242D01*
X30999Y16242D01*
X30986Y16242D01*
X30983Y16242D01*
X30970Y16242D01*
X30957Y16237D01*
X30947Y16227D01*
X30942Y16214D01*
X30942Y16201D01*
X30942Y16153D01*
X30368Y16153D01*
X30368Y16846D01*
X30942Y16846D01*
X30942Y16798D01*
X30942Y16785D01*
X30947Y16772D01*
X30957Y16762D01*
X30970Y16757D01*
X30983Y16757D01*
X30986Y16757D01*
X30999Y16757D01*
X31000Y16757D01*
X31013Y16757D01*
X31016Y16757D01*
X31029Y16757D01*
X31042Y16762D01*
X31052Y16772D01*
X31057Y16785D01*
X31057Y16798D01*
X31057Y16846D01*
X31631Y16846D01*
X31631Y16153D01*
X31631Y16153D01*
G37*
G36*
X31631Y10653D02*
X31057Y10653D01*
X31057Y10701D01*
X31057Y10714D01*
X31052Y10727D01*
X31042Y10737D01*
X31029Y10742D01*
X31016Y10742D01*
X31013Y10742D01*
X31000Y10742D01*
X30999Y10742D01*
X30986Y10742D01*
X30983Y10742D01*
X30970Y10742D01*
X30957Y10737D01*
X30947Y10727D01*
X30942Y10714D01*
X30942Y10701D01*
X30942Y10653D01*
X30368Y10653D01*
X30368Y11346D01*
X30942Y11346D01*
X30942Y11298D01*
X30942Y11285D01*
X30947Y11272D01*
X30957Y11262D01*
X30970Y11257D01*
X30983Y11257D01*
X30986Y11257D01*
X30999Y11257D01*
X31000Y11257D01*
X31013Y11257D01*
X31016Y11257D01*
X31029Y11257D01*
X31042Y11262D01*
X31052Y11272D01*
X31057Y11285D01*
X31057Y11298D01*
X31057Y11346D01*
X31631Y11346D01*
X31631Y10653D01*
X31631Y10653D01*
G37*
G36*
X31631Y2253D02*
X31057Y2253D01*
X31057Y2301D01*
X31057Y2314D01*
X31052Y2327D01*
X31042Y2337D01*
X31029Y2342D01*
X31016Y2342D01*
X31013Y2342D01*
X31000Y2342D01*
X30999Y2342D01*
X30986Y2342D01*
X30983Y2342D01*
X30970Y2342D01*
X30957Y2337D01*
X30947Y2327D01*
X30942Y2314D01*
X30942Y2301D01*
X30942Y2253D01*
X30368Y2253D01*
X30368Y2946D01*
X30942Y2946D01*
X30942Y2898D01*
X30942Y2885D01*
X30947Y2872D01*
X30957Y2862D01*
X30970Y2857D01*
X30983Y2857D01*
X30986Y2857D01*
X30999Y2857D01*
X31000Y2857D01*
X31013Y2857D01*
X31016Y2857D01*
X31029Y2857D01*
X31042Y2862D01*
X31052Y2872D01*
X31057Y2885D01*
X31057Y2898D01*
X31057Y2946D01*
X31631Y2946D01*
X31631Y2253D01*
X31631Y2253D01*
G37*
G36*
X32265Y21129D02*
X31734Y21129D01*
X31734Y22870D01*
X32265Y22870D01*
X32265Y21129D01*
X32265Y21129D01*
G37*
G36*
X32265Y15629D02*
X31734Y15629D01*
X31734Y17370D01*
X32265Y17370D01*
X32265Y15629D01*
X32265Y15629D01*
G37*
G36*
X32265Y10129D02*
X31734Y10129D01*
X31734Y11870D01*
X32265Y11870D01*
X32265Y10129D01*
X32265Y10129D01*
G37*
G36*
X32265Y1729D02*
X31734Y1729D01*
X31734Y3470D01*
X32265Y3470D01*
X32265Y1729D01*
X32265Y1729D01*
G37*
G36*
X35765Y21129D02*
X35234Y21129D01*
X35234Y22870D01*
X35765Y22870D01*
X35765Y21129D01*
X35765Y21129D01*
G37*
G36*
X35765Y15629D02*
X35234Y15629D01*
X35234Y17370D01*
X35765Y17370D01*
X35765Y15629D01*
X35765Y15629D01*
G37*
G36*
X35765Y10129D02*
X35234Y10129D01*
X35234Y11870D01*
X35765Y11870D01*
X35765Y10129D01*
X35765Y10129D01*
G37*
G36*
X35765Y1729D02*
X35234Y1729D01*
X35234Y3470D01*
X35765Y3470D01*
X35765Y1729D01*
X35765Y1729D01*
G37*
G36*
X36765Y19529D02*
X36234Y19529D01*
X36234Y21270D01*
X36765Y21270D01*
X36765Y19529D01*
X36765Y19529D01*
G37*
G36*
X36765Y14029D02*
X36234Y14029D01*
X36234Y15770D01*
X36765Y15770D01*
X36765Y14029D01*
X36765Y14029D01*
G37*
G36*
X36765Y8529D02*
X36234Y8529D01*
X36234Y10270D01*
X36765Y10270D01*
X36765Y8529D01*
X36765Y8529D01*
G37*
G36*
X36765Y129D02*
X36234Y129D01*
X36234Y1870D01*
X36765Y1870D01*
X36765Y129D01*
X36765Y129D01*
G37*
G36*
X36865Y23348D02*
X36134Y23348D01*
X36134Y24001D01*
X36865Y24001D01*
X36865Y23348D01*
X36865Y23348D01*
G37*
G36*
X36865Y22598D02*
X36134Y22598D01*
X36134Y23251D01*
X36865Y23251D01*
X36865Y22598D01*
X36865Y22598D01*
G37*
G36*
X36865Y17848D02*
X36134Y17848D01*
X36134Y18501D01*
X36865Y18501D01*
X36865Y17848D01*
X36865Y17848D01*
G37*
G36*
X36865Y17098D02*
X36134Y17098D01*
X36134Y17751D01*
X36865Y17751D01*
X36865Y17098D01*
X36865Y17098D01*
G37*
G36*
X36865Y12348D02*
X36134Y12348D01*
X36134Y13001D01*
X36865Y13001D01*
X36865Y12348D01*
X36865Y12348D01*
G37*
G36*
X36865Y11598D02*
X36134Y11598D01*
X36134Y12251D01*
X36865Y12251D01*
X36865Y11598D01*
X36865Y11598D01*
G37*
G36*
X36865Y3948D02*
X36134Y3948D01*
X36134Y4601D01*
X36865Y4601D01*
X36865Y3948D01*
X36865Y3948D01*
G37*
G36*
X36865Y3198D02*
X36134Y3198D01*
X36134Y3851D01*
X36865Y3851D01*
X36865Y3198D01*
X36865Y3198D01*
G37*
G36*
X37131Y21653D02*
X36557Y21653D01*
X36557Y21701D01*
X36557Y21714D01*
X36552Y21727D01*
X36542Y21737D01*
X36529Y21742D01*
X36516Y21742D01*
X36513Y21742D01*
X36500Y21742D01*
X36499Y21742D01*
X36486Y21742D01*
X36483Y21742D01*
X36470Y21742D01*
X36457Y21737D01*
X36447Y21727D01*
X36442Y21714D01*
X36442Y21701D01*
X36442Y21653D01*
X35868Y21653D01*
X35868Y22346D01*
X36442Y22346D01*
X36442Y22298D01*
X36442Y22285D01*
X36447Y22272D01*
X36457Y22262D01*
X36470Y22257D01*
X36483Y22257D01*
X36486Y22257D01*
X36499Y22257D01*
X36500Y22257D01*
X36513Y22257D01*
X36516Y22257D01*
X36529Y22257D01*
X36542Y22262D01*
X36552Y22272D01*
X36557Y22285D01*
X36557Y22298D01*
X36557Y22346D01*
X37131Y22346D01*
X37131Y21653D01*
X37131Y21653D01*
G37*
G36*
X37131Y16153D02*
X36557Y16153D01*
X36557Y16201D01*
X36557Y16214D01*
X36552Y16227D01*
X36542Y16237D01*
X36529Y16242D01*
X36516Y16242D01*
X36513Y16242D01*
X36500Y16242D01*
X36499Y16242D01*
X36486Y16242D01*
X36483Y16242D01*
X36470Y16242D01*
X36457Y16237D01*
X36447Y16227D01*
X36442Y16214D01*
X36442Y16201D01*
X36442Y16153D01*
X35868Y16153D01*
X35868Y16846D01*
X36442Y16846D01*
X36442Y16798D01*
X36442Y16785D01*
X36447Y16772D01*
X36457Y16762D01*
X36470Y16757D01*
X36483Y16757D01*
X36486Y16757D01*
X36499Y16757D01*
X36500Y16757D01*
X36513Y16757D01*
X36516Y16757D01*
X36529Y16757D01*
X36542Y16762D01*
X36552Y16772D01*
X36557Y16785D01*
X36557Y16798D01*
X36557Y16846D01*
X37131Y16846D01*
X37131Y16153D01*
X37131Y16153D01*
G37*
G36*
X37131Y10653D02*
X36557Y10653D01*
X36557Y10701D01*
X36557Y10714D01*
X36552Y10727D01*
X36542Y10737D01*
X36529Y10742D01*
X36516Y10742D01*
X36513Y10742D01*
X36500Y10742D01*
X36499Y10742D01*
X36486Y10742D01*
X36483Y10742D01*
X36470Y10742D01*
X36457Y10737D01*
X36447Y10727D01*
X36442Y10714D01*
X36442Y10701D01*
X36442Y10653D01*
X35868Y10653D01*
X35868Y11346D01*
X36442Y11346D01*
X36442Y11298D01*
X36442Y11285D01*
X36447Y11272D01*
X36457Y11262D01*
X36470Y11257D01*
X36483Y11257D01*
X36486Y11257D01*
X36499Y11257D01*
X36500Y11257D01*
X36513Y11257D01*
X36516Y11257D01*
X36529Y11257D01*
X36542Y11262D01*
X36552Y11272D01*
X36557Y11285D01*
X36557Y11298D01*
X36557Y11346D01*
X37131Y11346D01*
X37131Y10653D01*
X37131Y10653D01*
G37*
G36*
X37131Y2253D02*
X36557Y2253D01*
X36557Y2301D01*
X36557Y2314D01*
X36552Y2327D01*
X36542Y2337D01*
X36529Y2342D01*
X36516Y2342D01*
X36513Y2342D01*
X36500Y2342D01*
X36499Y2342D01*
X36486Y2342D01*
X36483Y2342D01*
X36470Y2342D01*
X36457Y2337D01*
X36447Y2327D01*
X36442Y2314D01*
X36442Y2301D01*
X36442Y2253D01*
X35868Y2253D01*
X35868Y2946D01*
X36442Y2946D01*
X36442Y2898D01*
X36442Y2885D01*
X36447Y2872D01*
X36457Y2862D01*
X36470Y2857D01*
X36483Y2857D01*
X36486Y2857D01*
X36499Y2857D01*
X36500Y2857D01*
X36513Y2857D01*
X36516Y2857D01*
X36529Y2857D01*
X36542Y2862D01*
X36552Y2872D01*
X36557Y2885D01*
X36557Y2898D01*
X36557Y2946D01*
X37131Y2946D01*
X37131Y2253D01*
X37131Y2253D01*
G37*
G36*
X37765Y21129D02*
X37234Y21129D01*
X37234Y22870D01*
X37765Y22870D01*
X37765Y21129D01*
X37765Y21129D01*
G37*
G36*
X37765Y15629D02*
X37234Y15629D01*
X37234Y17370D01*
X37765Y17370D01*
X37765Y15629D01*
X37765Y15629D01*
G37*
G36*
X37765Y10129D02*
X37234Y10129D01*
X37234Y11870D01*
X37765Y11870D01*
X37765Y10129D01*
X37765Y10129D01*
G37*
G36*
X37765Y1729D02*
X37234Y1729D01*
X37234Y3470D01*
X37765Y3470D01*
X37765Y1729D01*
X37765Y1729D01*
G37*
M02*
